<?xml version="1.0" standalone="no"?>
<!DOCTYPE svg PUBLIC "-//W3C//DTD SVG 1.1//EN"
  "http://www.w3.org/Graphics/SVG/1.1/DTD/svg11.dtd">
<svg width="52mm" height="31.999999999999993mm" viewBox="-19 1.9999999999999991 52 31.999999999999993" xmlns="http://www.w3.org/2000/svg" version="1.1">
	<title>svgOutput</title>
	<desc>made with tinkercad</desc>
<path d="M 30.232999801635742 4.05999994277954 L 30.28413200378418 4.09600019454956 L 30.719999313354492 4.402879714965819 L 30.847999572753906 4.493000030517577 L 31.341999053955078 4.97700023651123 L 31.440874099731445 5.119999885559081 L 31.704999923706055 5.501999855041503 L 31.743999481201172 5.599411964416503 L 31.926000595092773 6.053999900817869 L 31.937746047973633 6.14400005340576 L 32 6.620999813079832 L 32 8.19200038909912 L 32 10.239999771118162 L 32 12.28800010681152 L 32 14.33600044250488 L 32 16.38400077819824 L 32 18.431999206542965 L 32 20.479999542236325 L 32 22.527999877929684 L 32 24.57600021362304 L 32 26.6240005493164 L 32 28.67200088500976 L 32 29.378999710083 L 31.958627700805664 29.695999145507805 L 31.926000595092773 29.945999145507805 L 31.743999481201172 30.400588989257805 L 31.704999923706055 30.497999191284173 L 31.551502227783203 30.719999313354485 L 31.341999053955078 31.02300071716308 L 30.847999572753906 31.50799942016601 L 30.719999313354492 31.59791183471679 L 30.512027740478516 31.743999481201165 L 30.232999801635742 31.94000053405761 L 29.695999145507812 32.21521377563476 L 29.51300048828125 32.30899810791015 L 28.704999923706055 32.60499954223632 L 28.672000885009766 32.61322021484374 L 28.050756454467773 32.76800155639648 L 27.829999923706055 32.82300186157226 L 26.90999984741211 32.95500183105468 L 26.624000549316406 32.96863174438476 L 25.965999603271484 32.99999999999999 L 24.576000213623047 32.99999999999999 L 16.384000778198242 32.99999999999999 L 0 32.99999999999999 L -8.192000389099121 32.99999999999999 L -11.965999603271484 32.99999999999999 L -12.288000106811523 32.98464965820312 L -12.90999984741211 32.95500183105468 L -13.829999923706055 32.82300186157226 L -14.050756454467773 32.76800155639648 L -14.336000442504883 32.69693374633788 L -14.704999923706055 32.60499954223632 L -15.359999656677246 32.36505126953124 L -15.512999534606934 32.30899810791015 L -16.232999801635742 31.94000053405761 L -16.384000778198242 31.833930969238274 L -16.847999572753906 31.50799942016601 L -17.341999053955078 31.02300071716308 L -17.551502227783203 30.719999313354485 L -17.704999923706055 30.497999191284173 L -17.926000595092773 29.945999145507805 L -17.958627700805664 29.695999145507805 L -18 29.378999710083 L -18 28.67200088500976 L -18 24.57600021362304 L -18 16.38400077819824 L -18 8.19200038909912 L -18 6.620999813079832 L -17.937746047973633 6.14400005340576 L -17.926000595092773 6.053999900817869 L -17.704999923706055 5.501999855041503 L -17.440874099731445 5.119999885559081 L -17.341999053955078 4.97700023651123 L -16.847999572753906 4.493000030517577 L -16.384000778198242 4.166313648223876 L -16.28413200378418 4.09600019454956 L -16.232999801635742 4.05999994277954 L -15.512999534606934 3.69099998474121 L -15.359999656677246 3.634950399398803 L -14.704999923706055 3.394999980926513 L -14.336000442504883 3.3030662536621085 L -13.829999923706055 3.1770000457763663 L -13.312000274658203 3.1026782989501944 L -12.90999984741211 3.0450000762939444 L -12.288000106811523 3.015349626541137 L -11.965999603271484 2.999999999999999 L -10.239999771118164 2.999999999999999 L -8.192000389099121 2.999999999999999 L -4.0960001945495605 2.999999999999999 L 0 2.999999999999999 L 4.0960001945495605 2.999999999999999 L 8.192000389099121 2.999999999999999 L 12.288000106811523 2.999999999999999 L 16.384000778198242 2.999999999999999 L 20.479999542236328 2.999999999999999 L 24.576000213623047 2.999999999999999 L 25.965999603271484 2.999999999999999 L 26.624000549316406 3.0313665866851798 L 26.90999984741211 3.0450000762939444 L 27.098182678222656 3.07200002670288 L 27.648000717163086 3.1508870124816886 L 27.829999923706055 3.1770000457763663 L 28.672000885009766 3.3867783546447745 L 28.704999923706055 3.394999980926513 L 29.51300048828125 3.69099998474121 L 30.232999801635742 4.05999994277954 M 16.549999237060547 7.879000186920164 L 16.384000778198242 7.774767398834227 L 16.334999084472656 7.743999958038328 L 16.163999557495117 7.554999828338621 L 16.05299949645996 7.2919998168945295 L 15.937000274658203 6.997000217437742 L 15.829999923706055 7.017000198364256 L 15.732999801635742 7.288000106811522 L 15.719788551330566 7.3577041625976545 L 15.645999908447266 7.747000217437742 L 15.588752746582031 8.19200038909912 L 15.571000099182129 8.329999923706053 L 15.506999969482422 8.975000381469725 L 15.456000328063965 9.616999626159666 L 15.418999671936035 10.192999839782713 L 15.416592597961426 10.239999771118162 L 15.395999908447266 10.642000198364256 L 15.390869140625 10.829625129699705 L 15.389254570007324 10.888684272766112 L 15.388999938964844 10.897999763488768 L 15.373000144958496 10.895999908447264 L 15.343999862670898 10.895999908447264 L 15.329999923706055 10.89500045776367 L 15.244000434875488 10.89500045776367 L 14.76099967956543 10.916000366210936 L 14.286999702453613 10.980999946594237 L 13.822999954223633 11.086000442504881 L 13.369000434875488 11.229999542236326 L 12.927000045776367 11.411999702453612 L 12.498000144958496 11.63300037384033 L 12.288000106811523 11.76172637939453 L 12.081999778747559 11.887999534606932 L 11.680999755859375 12.177000045776364 L 11.54821491241455 12.28800010681152 L 11.29699993133545 12.498000144958493 L 10.928999900817871 12.850999832153317 L 10.888368606567383 12.839590072631832 L 10.782999992370605 12.810000419616696 L 10.633999824523926 12.774000167846676 L 10.484999656677246 12.741999626159664 L 10.333999633789062 12.713000297546383 L 10.182999610900879 12.687999725341793 L 10.029999732971191 12.668000221252438 L 9.87600040435791 12.65200042724609 L 9.720999717712402 12.640999794006344 L 9.565999984741211 12.633999824523922 L 9.409000396728516 12.631999969482418 L 8.369000434875488 12.732999801635739 L 8.192000389099121 12.785723686218258 L 7.381999969482422 13.02700042724609 L 6.461999893188477 13.496999740600582 L 5.622000217437744 14.1269998550415 L 4.875999927520752 14.90200042724609 L 4.235000133514404 15.805000305175778 L 3.9375216960906982 16.38400077819824 L 3.7130000591278076 16.82099914550781 L 3.3239998817443848 17.931999206542965 L 3.0810000896453857 19.124999999999996 L 2.996999979019165 20.38199996948242 L 3.0810000896453857 21.63899993896484 L 3.3239998817443848 22.830999374389645 L 3.7130000591278076 23.943000793457028 L 4.038222312927246 24.57600021362304 L 4.235000133514404 24.958999633789055 L 4.875999927520752 25.861999511718743 L 5.622000217437744 26.635999679565423 L 6.461999893188477 27.26700019836425 L 7.381999969482422 27.736999511718743 L 8.192000389099121 27.97745513916015 L 8.369000434875488 28.0300006866455 L 9.409000396728516 28.131999969482415 L 9.555000305175781 28.129999160766594 L 9.699999809265137 28.1240005493164 L 9.845000267028809 28.114000320434563 L 9.98799991607666 28.100999832153313 L 10.130999565124512 28.083999633789055 L 10.239999771118164 28.0669937133789 L 10.272000312805176 28.062000274658196 L 10.413000106811523 28.038000106811516 L 10.552000045776367 28.009000778198235 L 10.6899995803833 27.975999832153313 L 10.82800006866455 27.94000053405761 L 10.830426216125488 27.942419052124016 L 10.837467193603516 27.949441909790032 L 10.851435661315918 27.963373184204094 L 10.858561515808105 27.970479965209954 L 11.201000213623047 28.312000274658196 L 11.593999862670898 28.65099906921386 L 11.622183799743652 28.67200088500976 L 12.001999855041504 28.954999923706048 L 12.288000106811523 29.136447906494134 L 12.425999641418457 29.224000930786126 L 12.866000175476074 29.454999923706048 L 13.317999839782715 29.64800071716308 L 13.782999992370605 29.801000595092766 L 14.26099967956543 29.910999298095696 L 14.746999740600586 29.97999954223632 L 15.244000434875488 30.003000259399407 L 15.756999969482422 29.978000640869134 L 16.26099967956543 29.9050006866455 L 16.384000778198242 29.87556076049804 L 16.753999710083008 29.787000656127923 L 17.233999252319336 29.622999191284173 L 17.700000762939453 29.417999267578118 L 18.152000427246094 29.170000076293938 L 18.58799934387207 28.88299942016601 L 18.86086654663086 28.67200088500976 L 19.006999969482422 28.559000015258782 L 19.406999588012695 28.197000503540032 L 19.7740535736084 27.815458297729485 L 19.78700065612793 27.80200004577636 L 19.959999084472656 27.86300086975097 L 20.135000228881836 27.917999267578118 L 20.31100082397461 27.968000411987298 L 20.479999542236328 28.00787734985351 L 20.48900032043457 28.01000022888183 L 20.667999267578125 28.04700088500976 L 20.850000381469727 28.076999664306634 L 21.033000946044922 28.100999832153313 L 21.218000411987305 28.118999481201165 L 21.402999877929688 28.128999710083 L 21.590999603271484 28.131999969482415 L 22.631000518798828 28.024000167846673 L 23.618000030517578 27.712999343872063 L 24.538000106811523 27.215000152587884 L 24.576000213623047 27.184736251831048 L 25.378000259399414 26.545999526977532 L 26.124000549316406 25.72500038146972 L 26.764999389648438 24.76700019836425 L 26.857574462890625 24.57600021362304 L 27.28700065612793 23.690000534057614 L 27.676000595092773 22.51199913024902 L 27.91900062561035 21.246999740600582 L 27.967369079589844 20.479999542236325 L 28.003000259399414 19.91500091552734 L 27.91900062561035 18.58200073242187 L 27.676000595092773 17.3169994354248 L 27.368165969848633 16.38400077819824 L 27.28700065612793 16.138000488281246 L 26.764999389648438 15.0620002746582 L 26.124000549316406 14.10299968719482 L 25.378000259399414 13.282999992370602 L 24.576000213623047 12.644264221191403 L 24.538000106811523 12.614000320434567 L 23.93575096130371 12.28800010681152 L 23.618000030517578 12.11600017547607 L 22.631000518798828 11.80399990081787 L 21.590999603271484 11.69699954986572 L 21.320999145507812 11.70400047302246 L 21.054000854492188 11.725000381469725 L 20.788999557495117 11.760000228881834 L 20.52899932861328 11.809000015258787 L 20.479999542236328 11.820775032043455 L 20.270999908447266 11.87100028991699 L 20.01799964904785 11.946000099182127 L 19.76799964904785 12.034999847412106 L 19.52199935913086 12.133999824523922 L 19.2810001373291 12.246999740600582 L 19.20296859741211 12.28800010681152 L 19.045000076293945 12.371000289916989 L 18.943157196044922 12.28800010681152 L 18.81800079345703 12.18599987030029 L 18.583999633789062 12.012000083923336 L 18.43199920654297 11.907898902893065 L 18.34600067138672 11.848999977111815 L 18.10300064086914 11.697999954223631 L 17.856000900268555 11.560000419616697 L 17.60300064086914 11.434000015258787 L 17.347000122070312 11.319000244140623 L 17.086000442504883 11.218000411987303 L 16.820999145507812 11.13099956512451 L 16.552000045776367 11.055999755859373 L 16.554908752441406 11.043641090393065 L 16.615999221801758 10.784000396728514 L 16.709999084472656 10.499999999999998 L 16.81599235534668 10.239999771118162 L 16.82699966430664 10.213000297546385 L 16.966999053955078 9.93000030517578 L 17.124000549316406 9.659000396728514 L 17.29599952697754 9.409000396728514 L 17.479000091552734 9.185999870300291 L 17.667999267578125 8.996999740600584 L 17.86199951171875 8.852000236511229 L 18.055999755859375 8.75699996948242 L 17.974882125854492 8.581727981567381 L 17.944000244140625 8.515000343322752 L 17.773000717163086 8.342000007629393 L 17.75711441040039 8.332839012145994 L 17.558000564575195 8.218000411987303 L 17.488285064697266 8.19200038909912 L 17.33026695251465 8.133067131042479 L 17.31399917602539 8.126999855041502 L 17.054000854492188 8.052000045776365 L 16.795000076293945 7.9759998321533185 L 16.549999237060547 7.879000186920164 M 20.65399932861328 16.35199928283691 L 20.705402374267578 16.38400077819824 L 21.469999313354492 16.86000061035156 L 22.365999221801758 17.61700057983398 L 21.87299919128418 17.440000534057614 L 21.356000900268555 17.322000503540036 L 20.822999954223633 17.273000717163082 L 20.479999542236328 17.28439140319824 L 20.2810001373291 17.291000366210934 L 19.739999771118164 17.38699913024902 L 19.204999923706055 17.563999176025387 L 18.687000274658203 17.829000473022457 L 18.19300079345703 18.18300056457519 L 17.729999542236328 18.63400077819824 L 17.308000564575195 19.187999725341793 L 17.323776245117188 19.029695510864254 L 17.393999099731445 18.32500076293945 L 17.58099937438965 17.572000503540036 L 17.86400032043457 16.94799995422363 L 18.242000579833984 16.4680004119873 L 18.36786651611328 16.38400077819824 L 18.714000701904297 16.152999877929684 L 19.273000717163086 16.01600074768066 L 19.922000885009766 16.076999664306637 L 20.65399932861328 16.35199928283691 M 20.058000564575195 24.106000900268548 L 19.711000442504883 24.368999481201165 L 19.594558715820312 24.447484970092766 L 19.403892517089844 24.57600021362304 L 19.349000930786133 24.61300086975097 L 18.97100067138672 24.83699989318847 L 18.579999923706055 25.04100036621093 L 18.174999237060547 25.2229995727539 L 17.757999420166016 25.381999969482415 L 17.327999114990234 25.516000747680657 L 16.88800048828125 25.625999450683587 L 16.437000274658203 25.707000732421868 L 16.384000778198242 25.468317031860344 L 16.29199981689453 25.05400085449218 L 14.861000061035156 25.219768524169915 L 14.859999656677246 25.219884872436516 L 14.859000205993652 25.219999313354485 L 14.859000205993652 25.33300018310546 L 14.859999656677246 25.391000747680657 L 14.859999656677246 25.454999923706048 L 14.861000061035156 25.52599906921386 L 14.861000061035156 25.601999282836907 L 14.862000465393066 25.680999755859368 L 14.864999771118164 25.760999679565423 L 14.863009452819824 25.760744094848626 L 14.861000061035156 25.760486602783196 L 14.505999565124512 25.715000152587884 L 14.336000442504883 25.682708740234368 L 14.14799976348877 25.646999359130852 L 13.793000221252441 25.558000564575188 L 13.4399995803833 25.450000762939446 L 13.09000015258789 25.322999954223626 L 12.744999885559082 25.17700004577636 L 12.404999732971191 25.016000747680657 L 12.288000106811523 24.953996658325188 L 12.071000099182129 24.83900070190429 L 11.743000030517578 24.646999359130852 L 11.631975173950195 24.57600021362304 L 11.423999786376953 24.443000793457024 L 11.567000389099121 24.059000015258782 L 10.531000137329102 23.39399909973144 L 10.37600040435791 23.63400077819824 L 9.970999717712402 23.254999160766598 L 9.595000267028809 22.861000061035153 L 9.311090469360352 22.527999877929684 L 9.248000144958496 22.454000473022457 L 8.934000015258789 22.03800010681152 L 8.657999992370605 21.618000030517575 L 8.418000221252441 21.19400024414062 L 8.220999717712402 20.771999359130856 L 8.192000389099121 20.693149566650387 L 8.067999839782715 20.35600090026855 L 7.9629998207092285 19.947000503540036 L 7.90500020980835 19.549999237060543 L 8.192000389099121 19.88462448120117 L 8.36299991607666 20.08399963378906 L 8.743769645690918 20.479999542236325 L 8.838000297546387 20.57799911499023 L 9.329999923706055 21.030000686645504 L 9.836000442504883 21.443000793457028 L 10.357000350952148 21.815999984741207 L 10.887999534606934 22.149000167846676 L 11.430999755859375 22.440999984741207 L 11.621162414550781 22.527999877929684 L 11.984000205993652 22.69400024414062 L 12.063990592956543 22.724424362182614 L 12.288000106811523 22.809629440307614 L 12.543999671936035 22.90699958801269 L 13.112000465393066 23.079000473022457 L 13.109838485717773 23.12222099304199 L 13.089201927185059 23.53496170043945 L 13.081000328063965 23.698999404907223 L 14.222000122070312 23.94799995422363 L 14.209300994873047 23.462463378906246 L 14.204999923706055 23.298000335693356 L 14.512999534606934 23.333000183105465 L 14.821999549865723 23.35799980163574 L 15.128999710083008 23.37100028991699 L 15.437999725341797 23.372999191284176 L 15.746000289916992 23.363000869750973 L 16.05500030517578 23.3430004119873 L 16.36400032043457 23.3120002746582 L 16.384000778198242 23.309263229370114 L 16.67099952697754 23.27000045776367 L 16.97800064086914 23.21599960327148 L 17.284000396728516 23.150999069213864 L 17.286867141723633 23.161672592163082 L 17.293102264404297 23.18489074707031 L 17.461000442504883 23.80999946594238 L 19.264999389648438 23.340000152587887 L 19.031999588012695 22.556999206542965 L 19.091875076293945 22.527999877929684 L 19.44700050354004 22.35600090026855 L 19.856000900268555 22.132999420166012 L 20.259000778198242 21.88699913024902 L 20.479999542236328 21.739112854003903 L 20.658000946044922 21.620000839233395 L 21.04800033569336 21.330999374389645 L 21.430999755859375 21.01899909973144 L 21.805999755859375 20.686000823974606 L 22.018383026123047 20.479999542236325 L 22.172000885009766 20.330999374389645 L 22.530000686645508 19.954000473022457 L 22.87700080871582 19.556999206542965 L 22.86857032775879 19.597459793090817 L 22.853452682495117 19.670028686523434 L 22.797000885009766 19.940999984741207 L 22.691999435424805 20.32500076293945 L 22.63870620727539 20.479999542236325 L 22.56100082397461 20.705999374389645 L 22.408000946044922 21.083000183105465 L 22.23200035095215 21.454000473022457 L 22.034000396728516 21.819999694824215 L 21.815000534057617 22.177000045776364 L 21.664705276489258 22.394021987915036 L 21.573999404907227 22.52499961853027 L 21.315000534057617 22.863000869750973 L 21.03499984741211 23.190000534057614 L 20.964000701904297 22.896999359130856 L 20.479999542236328 23.244422912597653 L 20.19499969482422 23.448999404907223 L 20.389999389648438 23.82799911499023 L 20.058000564575195 24.106000900268548 M 16.607999801635742 21.287000656127926 L 16.384000778198242 21.284822463989254 L 13.936018943786621 21.261018753051754 L 13.935622215270996 21.26101493835449 L 13.934000015258789 21.260999679565426 L 13.96500015258789 21.18499946594238 L 14.045000076293945 20.978000640869137 L 14.166000366210938 20.670999526977536 L 14.240448951721191 20.479999542236325 L 14.310999870300293 20.29899978637695 L 14.468999862670898 19.88699913024902 L 14.628000259399414 19.472999572753903 L 14.636083602905273 19.451313018798825 L 14.77299976348877 19.08399963378906 L 14.892000198364258 18.753999710083004 L 14.973999977111816 18.51399993896484 L 15.003000259399414 18.39500045776367 L 15.010215759277344 18.40800285339355 L 15.014187812805176 18.415159225463864 L 15.019046783447266 18.423913955688473 L 16.160131454467773 20.479999542236325 L 16.384000778198242 20.883380889892575 L 16.607999801635742 21.287000656127926 M 3.2269999980926514 10.279000282287596 L 2.996999979019165 10.374083518981932 L 2.86899995803833 10.427000045776365 L 2.434999942779541 10.604999542236326 L 2.2860000133514404 10.255000114440916 L 2.2804853916168213 10.239999771118162 L 2.186000108718872 9.98299980163574 L 2.1510000228881836 9.680999755859373 L 2.1440000534057617 9.376000404357908 L 2.177000045776367 9.272999763488768 L 2.2060816287994385 9.215999603271483 L 2.2269999980926514 9.175000190734862 L 2.309000015258789 9.086000442504881 L 2.3989999294281006 9.003999710083006 L 2.496999979019165 8.937000274658201 L 2.5989999771118164 8.878999710083006 L 2.6500000953674316 8.873000144958494 L 2.700000047683716 8.880000114440916 L 2.7690000534057617 8.92899990081787 L 2.8340001106262207 8.986000061035154 L 2.9240000247955322 9.088000297546385 L 2.996999979019165 9.18325614929199 L 3.00600004196167 9.194999694824217 L 3.017557144165039 9.215999603271483 L 3.1700000762939453 9.493000030517576 L 3.3259999752044678 9.795999526977537 L 3.384000062942505 9.923999786376951 L 3.434000015258789 10.05500030517578 L 3.441999912261963 10.098999977111815 L 3.4489998817443848 10.157999992370604 L 3.3269999027252197 10.225999832153319 L 3.3005847930908203 10.239999771118162 L 3.2269999980926514 10.279000282287596 M 3.690999984741211 11.036000251770018 L 3.6910247802734375 11.036067962646483 L 3.691767930984497 11.038111686706541 L 3.6937508583068848 11.043564796447752 L 3.7070000171661377 11.079999923706053 L 3.7209999561309814 11.116999626159666 L 3.779492139816284 11.263999938964842 L 3.9489998817443848 11.689999580383299 L 4.0960001945495605 12.03118515014648 L 4.191999912261963 12.253999710083004 L 4.223412990570068 12.28800010681152 L 4.2769999504089355 12.345999717712399 L 4.379000186920166 12.418999671936032 L 4.53000020980835 12.446000099182125 L 4.681000232696533 12.446000099182125 L 4.814000129699707 12.369000434875485 L 4.9061174392700195 12.28800010681152 L 4.929999828338623 12.267000198364254 L 4.984000205993652 12.121999740600582 L 5.001999855041504 11.970000267028807 L 4.783999919891357 11.397999763488768 L 4.547999858856201 10.826000213623045 L 4.511000156402588 10.694000244140623 L 4.500532150268555 10.654221534729002 L 4.47599983215332 10.560999870300291 L 4.408999919891357 10.40499973297119 L 4.3460001945495605 10.248000144958494 L 4.323999881744385 10.07199954986572 L 4.300000190734863 9.895999908447264 L 4.2170000076293945 9.65499973297119 L 4.122000217437744 9.41800022125244 L 4.0960001945495605 9.367486000061033 L 4.01802921295166 9.215999603271483 L 3.947000026702881 9.078000068664549 L 3.76200008392334 8.744000434875487 L 3.625999927520752 8.560000419616697 L 3.4800000190734863 8.385000228881834 L 3.305999994277954 8.23299980163574 L 3.2538182735443115 8.19200038909912 L 3.124000072479248 8.090000152587889 L 3.0480000972747803 8.045000076293944 L 2.9679999351501465 8.012000083923338 L 2.7139999866485596 7.998000144958494 L 2.4590001106262207 7.999000072479246 L 2.3410000801086426 8.029000282287596 L 2.2269999980926514 8.07199954986572 L 2.056999921798706 8.173999786376951 L 2.030482053756714 8.19200038909912 L 1.8919999599456787 8.286000251770018 L 1.7109999656677246 8.44200038909912 L 1.5460000038146973 8.611000061035154 L 1.3880000114440918 8.895999908447264 L 1.2699999809265137 9.196000099182127 L 1.2698293924331665 9.215999603271483 L 1.2678102254867554 9.452752113342283 L 1.2660000324249268 9.664999961853026 L 1.315999984741211 10.133999824523924 L 1.3551299571990967 10.239999771118162 L 1.5290000438690186 10.711000442504881 L 1.764339804649353 11.263999938964842 L 1.7719999551773071 11.281999588012694 L 1.8559999465942383 11.439000129699705 L 1.940999984741211 11.59700012207031 L 1.942572832107544 11.600809097290037 L 2.0480000972747803 11.856111526489256 L 2.2263481616973877 12.28800010681152 L 2.2279999256134033 12.291999816894528 L 2.5160000324249268 12.986000061035153 L 2.568000078201294 13.071999549865719 L 2.63100004196167 13.147999763488766 L 2.739000082015991 13.208999633789059 L 2.8540000915527344 13.249999999999996 L 2.996999979019165 13.23494720458984 L 3.00600004196167 13.234000205993649 L 3.1540000438690186 13.192999839782711 L 3.243000030517578 13.109999656677243 L 3.315999984741211 13.010999679565426 L 3.3510000705718994 12.892000198364254 L 3.3589999675750732 12.770000457763668 L 3.1753087043762207 12.28800010681152 L 3.117000102996826 12.135000228881832 L 2.996999979019165 11.845263481140135 L 2.812999963760376 11.401000022888182 L 2.834019899368286 11.392469406127928 L 2.996999979019165 11.326327323913572 L 3.1505801677703857 11.263999938964842 L 3.259000062942505 11.220000267028807 L 3.6040000915527344 11.074999809265135 L 3.6419999599456787 11.057999610900877 L 3.690999984741211 11.036000251770018 M 0.11599999666213989 13.324999809265133 L 0 13.332424163818356 L -0.008999999612569809 13.333000183105465 L -0.043901409953832626 13.3120002746582 L -0.12700000405311584 13.262000083923336 L -0.24500000476837158 13.187999725341793 L -0.25198471546173096 13.186797142028805 L -0.3959999978542328 13.16199970245361 L -0.546999990940094 13.161000251770016 L -0.6800000071525574 13.237999916076657 L -0.7641568779945374 13.3120002746582 L -0.7960000038146973 13.340000152587887 L -0.8116048574447632 13.384366989135739 L -0.847000002861023 13.484999656677243 L -0.8679999709129333 13.635999679565426 L -0.8080000281333923 13.79899978637695 L -0.7170000076293945 13.944999694824215 L -0.43799999356269836 14.104999542236325 L -0.13899999856948853 14.223999977111813 L -3.582009837940596e-14 14.217569351196286 L 0.1420000046491623 14.21100044250488 L 0.4230000078678131 14.157999992370602 L 0.8560000061988831 13.984000205993649 L 1.274999976158142 13.781000137329098 L 1.4730000495910645 13.61600017547607 L 1.6549999713897705 13.432999610900875 L 1.7478306293487549 13.3120002746582 L 1.7999999523162842 13.244000434875485 L 1.9270000457763672 13.045000076293942 L 2.01200008392334 12.777999877929684 L 2.0480000972747803 12.608551979064938 L 2.069999933242798 12.505000114440914 L 2.0502727031707764 12.28800010681152 L 2.0480000972747803 12.26299953460693 L 2.0460000038146973 12.24100017547607 L 1.9989999532699585 11.977999687194822 L 1.9259999990463257 11.767000198364256 L 1.8370000123977661 11.564000129699705 L 1.694000005722046 11.35799980163574 L 1.6156666278839111 11.263999938964842 L 1.534000039100647 11.166000366210936 L 1.2970000505447388 10.979000091552733 L 1.0440000295639038 10.82199954986572 L 0.7540000081062317 10.765999794006346 L 0.4580000042915344 10.751000404357908 L 0.210999995470047 10.831000328063963 L 0 10.921304702758787 L -0.03200000151991844 10.935000419616697 L -0.1889999955892563 11.01900005340576 L -0.34700000286102295 11.102999687194822 L -0.6050000190734863 11.201999664306639 L -0.7902873754501343 11.263999938964842 L -0.8650000095367432 11.288999557495115 L -0.9470000267028809 11.29300022125244 L -1.0219999551773071 11.277999877929686 L -1.0240000486373901 11.272814750671385 L -1.027400016784668 11.263999938964842 L -1.0490000247955322 11.208000183105467 L -1.059999942779541 11.126999855041502 L -1.034999966621399 11.015000343322752 L -1.0240000486373901 10.984749794006346 L -0.9950000047683716 10.90499973297119 L -0.921999990940094 10.810000419616697 L -0.8379999995231628 10.7209997177124 L -0.7540000081062317 10.657999992370604 L -0.6639999747276306 10.602000236511229 L -0.515999972820282 10.534999847412108 L -0.36399999260902405 10.477000236511229 L -0.008999999612569809 10.39500045776367 L 0 10.39256191253662 L 0.24501706659793854 10.326188087463377 L 0.33799999952316284 10.300999641418455 L 0.3842463195323944 10.25881004333496 L 0.4048653841018677 10.239999771118162 L 0.4519999921321869 10.19699954986572 L 0.5440000295639038 10.072999954223631 L 0.5649999976158142 9.951000213623045 L 0.5649999976158142 9.826000213623045 L 0.5199999809265137 9.711999893188475 L 0.4560000002384186 9.60900020599365 L 0.3240000009536743 9.527999877929686 L 0.1809999942779541 9.4709997177124 L 0 9.48804473876953 L -0.041999999433755875 9.491999626159666 L -0.26499998569488525 9.531999588012694 L -0.4659999907016754 9.586999893188475 L -0.6639999747276306 9.649999618530272 L -0.8669999837875366 9.729000091552733 L -1.065999984741211 9.81599998474121 L -1.2319999933242798 9.920000076293944 L -1.3890000581741333 10.036000251770018 L -1.5851913690567017 10.239999771118162 L -1.590000033378601 10.24499988555908 L -1.7699999809265137 10.470000267028807 L -1.8639999628067017 10.715999603271483 L -1.9279999732971191 10.972999572753904 L -1.9249999523162842 11.239000320434569 L -1.9229323863983154 11.263999938964842 L -1.902999997138977 11.505000114440916 L -1.8819999694824219 11.598999977111815 L -1.847000002861023 11.685999870300291 L -1.684999942779541 11.85900020599365 L -1.5119999647140503 12.024000167846676 L -1.440999984741211 12.076999664306637 L -1.3630000352859497 12.119000434875485 L -1.1039999723434448 12.154999732971188 L -1.0240000486373901 12.159597396850582 L -0.8429999947547913 12.170000076293942 L -0.5899999737739563 12.119999885559078 L -0.3409999907016754 12.048000335693356 L 0 11.893542289733885 L 0.11599999666213989 11.840999603271483 L 0.5730000138282776 11.635999679565428 L 0.6430000066757202 11.637000083923338 L 0.7129999995231628 11.654000282287596 L 0.8100000023841858 11.71000003814697 L 0.9020000100135803 11.774999618530272 L 0.9800000190734863 11.864999771118162 L 1.0240000486373901 11.925342559814451 L 1.0499999523162842 11.961000442504881 L 1.1019999980926514 12.074999809265133 L 1.1460000276565552 12.192999839782711 L 1.1686605215072632 12.28800010681152 L 1.1720000505447388 12.302000045776364 L 1.1890000104904175 12.41300010681152 L 1.1759999990463257 12.522000312805172 L 1.149999976158142 12.628999710083004 L 1.0809999704360962 12.739000320434567 L 1.0010000467300415 12.843000411987301 L 0.9100000262260437 12.939999580383297 L 0.8109999895095825 13.02600002288818 L 0.5299999713897705 13.168000221252438 L 0.24199999868869781 13.295000076293942 L 0.17059999704360962 13.3120002746582 L 0.11599999666213989 13.324999809265133 M 7.677000045776367 18.021999359130856 L 7.783716201782227 17.93183898925781 L 8.192000389099121 17.586893081665036 L 8.572999954223633 17.264999389648434 L 9.387999534606934 16.757999420166012 L 10.121000289916992 16.482000350952145 L 10.239999771118164 16.470798492431637 L 10.769000053405762 16.420999526977536 L 11.329000473022461 16.55800056457519 L 11.800000190734863 16.874999999999996 L 12.178999900817871 17.35400009155273 L 12.288000106811523 17.594339370727536 L 12.461999893188477 17.978000640869137 L 12.64799976348877 18.729999542236325 L 12.719230651855469 19.43658065795898 L 12.734999656677246 19.5930004119873 L 12.312999725341797 19.04000091552734 L 12.288000106811523 19.01559448242187 L 11.850000381469727 18.587999343872067 L 11.632305145263672 18.431999206542965 L 11.355999946594238 18.233999252319332 L 10.838000297546387 17.971000671386715 L 10.303000450134277 17.794000625610348 L 10.239999771118164 17.782840728759762 L 9.76099967956543 17.69799995422363 L 9.220000267028809 17.677999496459957 L 8.685999870300293 17.72900009155273 L 8.192000389099121 17.840053558349606 L 8.170000076293945 17.84499931335449 L 7.677000045776367 18.021999359130856 M -6.23799991607666 15.68599987030029 L -6.2328715324401855 15.687121391296383 L -6.144000053405762 15.706551551818844 L -5.959000110626221 15.746999740600582 L -5.74399995803833 15.809000015258786 L -5.4670000076293945 15.968000411987301 L -5.203000068664551 16.150999069213864 L -4.961999893188477 16.374999999999996 L -4.952685356140137 16.38400077819824 L -4.724999904632568 16.60400009155273 L -4.670000076293945 16.646999359130856 L -4.611999988555908 16.68099975585937 L -4.489999771118164 16.70899963378906 L -4.450105667114258 16.71194267272949 L -4.368000030517578 16.7180004119873 L -4.22599983215332 16.662000656127926 L -4.0960001945495605 16.58200073242187 L -4.026000022888184 16.447000503540036 L -4.006150722503662 16.38400077819824 L -3.9800000190734863 16.30100059509277 L -3.996999979019165 16.179000854492184 L -4.039999961853027 16.063999176025387 L -4.0960001945495605 16.00464820861816 L -4.323999881744385 15.76299953460693 L -4.629000186920166 15.479999542236325 L -4.80382776260376 15.359999656677243 L -4.9670000076293945 15.248000144958493 L -5.316999912261963 15.03699970245361 L -5.545000076293945 14.970999717712399 L -5.735000133514404 14.90100002288818 L -5.683788776397705 14.815878868103024 L -5.660999774932861 14.777999877929684 L -5.657718181610107 14.773897171020504 L -5.548999786376953 14.63799953460693 L -5.413000106811523 14.387000083923336 L -5.39017915725708 14.33600044250488 L -5.297999858856201 14.130000114440914 L -5.264999866485596 13.871000289916989 L -5.269000053405762 13.612999916076657 L -5.38700008392334 13.321000099182125 L -5.541999816894531 13.045999526977536 L -5.736999988555908 12.885999679565426 L -5.953999996185303 12.751000404357907 L -6.144000053405762 12.67121315002441 L -6.235000133514404 12.633000373840328 L -6.521999835968018 12.553000450134274 L -6.843999862670898 12.60400009155273 L -7.160999774932861 12.69799995422363 L -7.482999801635742 12.894000053405758 L -7.793000221252441 13.112999916076657 L -7.876999855041504 13.182000160217282 L -7.986999988555908 13.281000137329098 L -8.010161399841309 13.291382789611813 L -8.015999794006348 13.293999671936032 L -8.036999702453613 13.303999900817868 L -8.045952796936035 13.3120002746582 L -8.083999633789062 13.345999717712399 L -8.123000144958496 13.397000312805172 L -8.130999565124512 13.414999961853024 L -8.142000198364258 13.439999580383297 L -8.14272403717041 13.441379547119137 L -8.184000015258789 13.520000457763668 L -8.192000389099121 13.5446662902832 L -8.208000183105469 13.593999862670895 L -8.199999809265137 13.748000144958493 L -8.192000389099121 13.784999847412106 L -8.168000221252441 13.895999908447262 L -8.140999794006348 13.932000160217282 L -8.097000122070312 13.97799968719482 L -8.086142539978027 14.005143165588375 L -8.083000183105469 14.01299953460693 L -8.069999694824219 14.041000366210934 L -7.888461589813232 14.33600044250488 L -7.8379998207092285 14.418000221252438 L -7.60099983215332 14.793999671936032 L -7.578943252563477 14.838967323303219 L -7.446000099182129 15.109999656677243 L -7.331937313079834 15.359999656677243 L -7.300000190734863 15.430000305175778 L -7.111999988555908 15.871000289916989 L -6.933000087738037 16.315000534057614 L -6.910580635070801 16.38400077819824 L -6.829999923706055 16.63199996948242 L -6.736000061035156 16.951999664306637 L -6.73199987411499 17.021999359130856 L -6.72599983215332 17.09099960327148 L -6.664690971374512 17.194753646850582 L -6.6479997634887695 17.222999572753903 L -6.63073205947876 17.24528121948242 L -6.554999828338623 17.3430004119873 L -6.441999912261963 17.39500045776367 L -6.386285781860352 17.40800094604492 L -6.322000026702881 17.423000335693356 L -6.251687526702881 17.40800094604492 L -6.171999931335449 17.39100074768066 L -6.144000053405762 17.379957199096676 L -6.03000020980835 17.334999084472653 L -5.948999881744385 17.243000030517575 L -5.883999824523926 17.13699913024902 L -5.860000133514404 17.037000656127926 L -5.854000091552734 16.934000015258786 L -5.965000152587891 16.49200057983398 L -5.997054576873779 16.38400077819824 L -6.09499979019165 16.054000854492184 L -6.144000053405762 15.92360973358154 L -6.1539998054504395 15.897000312805172 L -6.23799991607666 15.68599987030029 M -7.204999923706055 13.777999877929684 L -7.168000221252441 13.75308513641357 L -6.956999778747559 13.611000061035153 L -6.747000217437744 13.47900009155273 L -6.669000148773193 13.456000328063961 L -6.589000225067139 13.446000099182125 L -6.488999843597412 13.473999977111813 L -6.390999794006348 13.512000083923336 L -6.298999786376953 13.565999984741207 L -6.214000225067139 13.628999710083004 L -6.177000045776367 13.6870002746582 L -6.150000095367432 13.749999999999996 L -6.145999908447266 13.819999694824215 L -6.146463871002197 13.82400035858154 L -6.1539998054504395 13.88899993896484 L -6.2129998207092285 14.024000167846676 L -6.281000137329102 14.156000137329098 L -6.349999904632568 14.260000228881832 L -6.407575607299805 14.33600044250488 L -6.425000190734863 14.359000205993649 L -6.539999961853027 14.475000381469723 L -6.698999881744385 14.628999710083004 L -6.760000228881836 14.503999710083004 L -6.808000087738037 14.41199970245361 L -6.854648113250732 14.33600044250488 L -6.986000061035156 14.121999740600582 L -7.168000221252441 13.836118698120114 L -7.204999923706055 13.777999877929684 M -4.263999938964844 13.420999526977536 L -4.262357234954834 13.42483043670654 L -4.0960001945495605 13.812745094299313 L -4.044000148773193 13.934000015258786 L -3.883355140686035 14.33600044250488 L -3.8369998931884766 14.451999664306637 L -3.693000078201294 14.970999717712399 L -3.589017391204834 15.359999656677243 L -3.553999900817871 15.49100017547607 L -3.50600004196167 15.600000381469723 L -3.444000005722046 15.69799995422363 L -3.313999891281128 15.779999732971188 L -3.1730000972747803 15.838000297546383 L -2.947000026702881 15.821000099182125 L -2.7230000495910645 15.77499961853027 L -2.322999954223633 15.581999778747555 L -2.0480000972747803 15.440690040588375 L -1.9259999990463257 15.37800025939941 L -1.1419999599456787 15.053999900817868 L -1.0570000410079956 15.001000404357907 L -0.9800000190734863 14.939000129699703 L -0.9412713646888733 14.871993064880368 L -0.9169999957084656 14.829999923706051 L -0.8740000128746033 14.713999748229977 L -0.8930000066757202 14.562999725341793 L -0.9350000023841858 14.416000366210934 L -1.0069999694824219 14.33600044250488 L -1.0160000324249268 14.326000213623043 L -1.1130000352859497 14.2519998550415 L -1.2339999675750732 14.218000411987301 L -1.3580000400543213 14.210000038146969 L -1.696967363357544 14.33600044250488 L -1.8530000448226929 14.394000053405758 L -2.0480000972747803 14.475812911987301 L -2.3440001010894775 14.600000381469723 L -2.5850000381469727 14.751000404357907 L -2.7990000247955322 14.845000267028805 L -2.8163435459136963 14.798172950744625 L -2.9089999198913574 14.548000335693356 L -2.9617040157318115 14.33600044250488 L -2.997999906539917 14.189999580383297 L -3.0309998989105225 14.105999946594235 L -3.072999954223633 13.998000144958493 L -3.0482535362243652 13.98785591125488 L -2.8510000705718994 13.906999588012692 L -2.687999963760376 13.838000297546383 L -2.625999927520752 13.805000305175778 L -2.569999933242798 13.765999794006344 L -2.494999885559082 13.668000221252438 L -2.434999942779541 13.5620002746582 L -2.431999921798706 13.407999992370602 L -2.445263147354126 13.3120002746582 L -2.453000068664551 13.255999565124508 L -2.5209999084472656 13.154000282287594 L -2.6070001125335693 13.067000389099118 L -2.753000020980835 13.01500034332275 L -2.9040000438690186 12.994999885559078 L -3.11899995803833 13.069000244140621 L -3.4070000648498535 13.1870002746582 L -3.4140191078186035 13.17054176330566 L -3.436000108718872 13.119000434875485 L -3.4600000381469727 13.064000129699703 L -3.5350000858306885 12.928000450134274 L -3.54494047164917 12.91010761260986 L -3.609999895095825 12.793000221252438 L -3.651228189468384 12.695082664489743 L -3.7139999866485596 12.545999526977536 L -3.8189096450805664 12.28800010681152 L -3.8489999771118164 12.213999748229977 L -3.678999900817871 12.105999946594235 L -3.5439999103546143 12.022999763488766 L -3.4000000953674316 11.963000297546385 L -3.25600004196167 11.904000282287596 L -3.250612258911133 11.900754928588865 L -3.0799999237060547 11.798000335693358 L -3.072000026702881 11.79336357116699 L -2.9040000438690186 11.696000099182127 L -2.7869999408721924 11.678000450134276 L -2.6710000038146973 11.661000251770018 L -2.668816089630127 11.659817695617674 L -2.562000036239624 11.602000236511229 L -2.4639999866485596 11.527999877929686 L -2.4030001163482666 11.420999526977537 L -2.3961758613586426 11.401692390441893 L -2.361999988555908 11.30500030517578 L -2.3668551445007324 11.263999938964842 L -2.380000114440918 11.152999877929686 L -2.4230000972747803 11.00699996948242 L -2.5329999923706055 10.901000022888182 L -2.6619999408721924 10.819999694824217 L -2.88100004196167 10.814999580383299 L -3.1050000190734863 10.831999778747557 L -3.197000026702881 10.859999656677244 L -3.2869999408721924 10.897999763488768 L -3.4489998817443848 10.998999595642088 L -3.611999988555908 11.100000381469725 L -3.7690000534057617 11.163999557495115 L -3.924999952316284 11.229000091552733 L -3.9823999404907227 11.263999938964842 L -4.0960001945495605 11.333268165588377 L -4.130000114440918 11.354000091552733 L -4.335000038146973 11.479999542236326 L -4.341653347015381 11.483057022094725 L -4.372000217437744 11.496999740600584 L -4.41214656829834 11.512440681457518 L -4.423771858215332 11.517000198364256 L -4.423999786376953 11.517000198364256 L -4.572000026702881 11.555999755859373 L -4.715000152587891 11.619000434875487 L -4.7303338050842285 11.63482093811035 L -4.734085559844971 11.638691902160643 L -4.777197360992432 11.68317127227783 L -4.7779998779296875 11.684000015258787 L -4.828000068664551 11.760000228881834 L -4.834122657775879 11.78334331512451 L -4.8351969718933105 11.787438392639158 L -4.860000133514404 11.88199996948242 L -4.86899995803833 12.005999565124508 L -4.761953353881836 12.28800010681152 L -4.642000198364258 12.60400009155273 L -4.394000053405762 13.19799995422363 L -4.328999996185303 13.310000419616696 L -4.263999938964844 13.420999526977536 M -11.099465370178223 16.23861694335937 L -11.043316841125488 16.38400077819824 L -11.041000366210938 16.389999389648434 L -11.01099967956543 16.545999526977536 L -10.982999801635742 16.70299911499023 L -10.978002548217773 16.717584609985348 L -10.859999656677246 17.0620002746582 L -10.729999542236328 17.416999816894528 L -10.52400016784668 17.9370002746582 L -10.307000160217285 18.45000076293945 L -10.239999771118164 18.544486999511715 L -10.229000091552734 18.55999946594238 L -10.13599967956543 18.656000137329098 L -10.020000457763672 18.701000213623043 L -9.89799976348877 18.72400093078613 L -9.678000450134277 18.681999206542965 L -9.463000297546387 18.61499977111816 L -9.168716430664062 18.431999206542965 L -9.105999946594238 18.392999649047848 L -8.74899959564209 18.166999816894528 L -8.72930908203125 18.15875434875488 L -8.300000190734863 17.97900009155273 L -8.192000389099121 17.93240165710449 L -7.855000019073486 17.787000656127926 L -7.749000072479248 17.677000045776364 L -7.669000148773193 17.548000335693356 L -7.663545608520508 17.40800094604492 L -7.663000106811523 17.39399909973144 L -7.685999870300293 17.240999221801754 L -7.781000137329102 17.124000549316403 L -7.895999908447266 17.023000717163082 L -8.013999938964844 16.988000869750973 L -8.13700008392334 16.98100090026855 L -8.192000389099121 17.001041412353512 L -8.630999565124512 17.1609992980957 L -9.118000030517578 17.368000030517575 L -9.407999992370605 17.58200073242187 L -9.66100025177002 17.711999893188473 L -9.706611633300781 17.618190765380856 L -9.733569145202637 17.56274604797363 L -9.854999542236328 17.312999725341793 L -10.052000045776367 16.72400093078613 L -9.680000305175781 16.55800056457519 L -9.394000053405762 16.416000366210934 L -9.359395027160645 16.38400077819824 L -9.300999641418457 16.32999992370605 L -9.227999687194824 16.22900009155273 L -9.201000213623047 16.079000473022457 L -9.201000213623047 15.927000045776364 L -9.279000282287598 15.795999526977536 L -9.380999565124512 15.678000450134274 L -9.491999626159668 15.628999710083004 L -9.612000465393066 15.60299968719482 L -9.77400016784668 15.640999794006344 L -9.934000015258789 15.69799995422363 L -10.090999603271484 15.767999649047848 L -10.239999771118164 15.837532997131344 L -10.300999641418457 15.86600017547607 L -10.427000045776367 15.529999732971188 L -10.491971015930176 15.359999656677243 L -10.5600004196167 15.182000160217282 L -10.239999771118164 15.019910812377926 L -10.177000045776367 14.987999916076657 L -9.883000373840332 14.843999862670895 L -9.567999839782715 14.734999656677243 L -9.255999565124512 14.623000144958493 L -9.159000396728516 14.548000335693356 L -9.07699966430664 14.458000183105465 L -9.073922157287598 14.447716712951657 L -9.067410469055176 14.425962448120114 L -9.040482521057129 14.33600044250488 L -9.032999992370605 14.31099987030029 L -9.015000343322754 14.161000251770016 L -9.07699966430664 14.022000312805172 L -9.163000106811523 13.894000053405758 L -9.270000457763672 13.829999923706051 L -9.38599967956543 13.791999816894528 L -9.65999984741211 13.838999748229977 L -9.930999755859375 13.91300010681152 L -10.42199993133545 14.1269998550415 L -10.865554809570312 14.33600044250488 L -10.880615234375 14.343096733093258 L -10.907999992370605 14.355999946594235 L -10.991999626159668 14.397999763488766 L -11.104000091552734 14.456999778747555 L -11.108285903930664 14.456142425537106 L -11.116881370544434 14.454423904418942 L -11.12399959564209 14.453000068664547 L -11.140000343322754 14.451000213623043 L -11.263999938964844 14.485206604003903 L -11.28499984741211 14.49100017547607 L -11.427000045776367 14.550999641418453 L -11.473999977111816 14.593000411987301 L -11.51200008392334 14.644000053405758 L -11.562000274658203 14.791000366210934 L -11.583999633789062 14.939999580383297 L -11.431641578674316 15.359999656677243 L -11.321000099182129 15.664999961853024 L -11.099465370178223 16.23861694335937 M -8.008999824523926 22.66500091552734 L -8.192000389099121 22.742715835571286 L -8.779000282287598 22.99200057983398 L -9.342000007629395 23.238000869750973 L -9.41100025177002 23.30999946594238 L -9.463000297546387 23.396999359130856 L -9.48799991607666 23.562999725341793 L -9.491000175476074 23.729999542236325 L -9.430999755859375 23.850999832153317 L -9.350000381469727 23.958000183105465 L -9.201000213623047 24.044000625610344 L -9.043000221252441 24.08499908447265 L -8.565999984741211 23.90800094604492 L -8.192000389099121 23.756895065307614 L -7.920000076293945 23.646999359130856 L -7.536872386932373 24.57600021362304 L -7.355000019073486 25.01700019836425 L -7.1151251792907715 25.60000038146972 L -6.894999980926514 26.13500022888183 L -6.872000217437744 26.247999191284173 L -6.84499979019165 26.357999801635735 L -6.754127502441406 26.47738075256347 L -6.743000030517578 26.492000579833977 L -6.625999927520752 26.610000610351555 L -6.583000183105469 26.6240005493164 L -6.571614742279053 26.627706527709954 L -6.497000217437744 26.652000427246087 L -6.36299991607666 26.667999267578118 L -6.236599922180176 26.6240005493164 L -6.204999923706055 26.61300086975097 L -6.144000053405762 26.578687667846673 L -6.060999870300293 26.531999588012688 L -5.97599983215332 26.386999130249016 L -5.916999816894531 26.228000640869134 L -5.927999973297119 26.063999176025384 L -5.965000152587891 25.899999618530266 L -6.144000053405762 25.45324516296386 L -6.445000171661377 24.701999664306634 L -6.497116565704346 24.57600021362304 L -7.030089378356934 23.287454605102536 L -7.033999919891357 23.277999877929684 L -6.4029998779296875 23.013000488281246 L -5.936999797821045 22.81900024414062 L -5.921000003814697 22.813999176025387 L -5.906806945800781 22.806430816650387 L -5.906000137329102 22.80599975585937 L -5.90447998046875 22.803636550903317 L -5.814000129699707 22.66300010681152 L -5.747412204742432 22.527999877929684 L -5.741000175476074 22.514999389648434 L -5.760000228881836 22.350000381469723 L -5.778018474578857 22.291164398193356 L -5.809000015258789 22.190000534057614 L -5.900000095367432 22.090000152587887 L -6.008999824523926 22.007999420166012 L -6.138999938964844 21.968999862670895 L -6.144000053405762 21.96869850158691 L -6.271999835968018 21.96100044250488 L -6.868000030517578 22.19400024414062 L -7.676000118255615 22.525999069213864 L -7.706999778747559 22.523000717163082 L -7.70986795425415 22.523118972778317 L -7.730999946594238 22.524000167846676 L -7.740473747253418 22.527999877929684 L -7.866000175476074 22.580999374389645 L -8.008999824523926 22.66500091552734 M -5.317999839782715 22.065000534057614 L -5.307592391967773 22.089668273925778 L -5.122655868530273 22.527999877929684 L -4.748000144958496 23.416000366210934 L -4.249199867248535 24.57600021362304 L -4.23199987411499 24.61599922180175 L -4.177000045776367 24.809999465942376 L -4.114999771118164 24.9990005493164 L -4.0960001945495605 25.023019790649407 L -4.008999824523926 25.13299942016601 L -3.88100004196167 25.239000320434563 L -3.552000045776367 25.28899955749511 L -3.2160000801086426 25.29100036621093 L -2.5829999446868896 25.100999832153313 L -1.9620000123977661 24.87000083923339 L -1.7510000467300415 24.73200035095214 L -1.5701165199279785 24.57600021362304 L -1.562000036239624 24.569000244140618 L -1.4880000352859497 24.420000076293938 L -1.440999984741211 24.26000022888183 L -1.4639999866485596 24.125999450683587 L -1.5130000114440918 23.999000549316403 L -1.6330000162124634 23.885000228881832 L -1.7690000534057617 23.79299926757812 L -1.902999997138977 23.77499961853027 L -2.0369999408721924 23.784999847412106 L -2.0480000972747803 23.791835784912106 L -2.2139999866485596 23.89500045776367 L -2.3910000324249268 24.009000778198235 L -2.415367603302002 24.020143508911126 L -2.882999897003174 24.23399925231933 L -3.321000099182129 24.322000503540032 L -3.503000020980835 24.020000457763665 L -3.6971402168273926 23.552000045776364 L -3.7100000381469727 23.520999908447262 L -3.5940001010894775 23.475999832153317 L -3.509999990463257 23.438999176025387 L -3.38100004196167 23.35400009155273 L -3.2639999389648438 23.253999710083004 L -3.193000078201294 23.13899993896484 L -3.140000104904175 23.01600074768066 L -3.1389999389648438 22.881000518798825 L -3.1619999408721924 22.749999999999996 L -3.2639999389648438 22.615999221801754 L -3.355008602142334 22.527999877929684 L -3.384999990463257 22.499000549316403 L -3.513000011444092 22.45899963378906 L -3.6480000019073486 22.4419994354248 L -3.7720000743865967 22.48100090026855 L -3.881075382232666 22.527999877929684 L -3.8949999809265137 22.534000396728512 L -3.9579999446868896 22.562999725341793 L -4.041999816894531 22.60199928283691 L -4.042103290557861 22.60171508789062 L -4.04345703125 22.597969055175778 L -4.068751335144043 22.527999877929684 L -4.0960001945495605 22.452623367309567 L -4.11899995803833 22.38899993896484 L -4.183000087738037 22.228000640869137 L -4.235000133514404 22.111999511718746 L -4.308000087738037 21.955999374389645 L -4.0960001945495605 21.86761665344238 L -4.055451393127441 21.850711822509762 L -3.953000068664551 21.80800056457519 L -3.691999912261963 21.697000503540036 L -3.3369998931884766 21.5359992980957 L -3.2701427936553955 21.503999710083004 L -3.072000026702881 21.4091625213623 L -2.9860000610351562 21.368000030517575 L -2.8919999599456787 21.311000823974606 L -2.809999942779541 21.243000030517575 L -2.739000082015991 21.090000152587887 L -2.709782600402832 20.99200057983398 L -2.690999984741211 20.929000854492184 L -2.7139999866485596 20.798000335693356 L -2.760999917984009 20.672000885009762 L -2.8519999980926514 20.576000213623043 L -2.9590001106262207 20.495000839233395 L -3.013166666030884 20.479999542236325 L -3.0889999866485596 20.45899963378906 L -3.2219998836517334 20.44799995422363 L -3.3165934085845947 20.479999542236325 L -3.490999937057495 20.538999557495114 L -3.756999969482422 20.649000167846676 L -3.947000026702881 20.747999191284176 L -4.0960001945495605 20.826421737670895 L -4.13700008392334 20.847999572753903 L -4.6579999923706055 21.062999725341793 L -5.177999973297119 21.278999328613278 L -5.271999835968018 21.33600044250488 L -5.355000019073486 21.403999328613278 L -5.402682304382324 21.503999710083004 L -5.427000045776367 21.555000305175778 L -5.47599983215332 21.714000701904293 L -5.453000068664551 21.84499931335449 L -5.406000137329102 21.971000671386715 L -5.372000217437744 22.01199913024902 L -5.317999839782715 22.065000534057614 M -1.2480000257492065 20.60400009155273 L -1.2426197528839111 20.617050170898434 L -1.0529999732971191 21.076999664306637 L -0.9039999842643738 21.430000305175778 L -0.8130000233650208 21.60199928283691 L -0.7200000286102295 21.77499961853027 L -0.7149181365966797 21.787385940551754 L -0.41103866696357727 22.527999877929684 L -0.3059999942779541 22.784000396728512 L -0.0882769227027893 23.298011779785153 L 0 23.506420135498043 L 0.11800000071525574 23.784999847412106 L 0.20999999344348907 23.88699913024902 L 0.32199999690055847 23.965000152587887 L 0.4860000014305115 23.995000839233395 L 0.6510000228881836 23.995000839233395 L 0.796999990940094 23.9109992980957 L 0.9229999780654907 23.799999237060543 L 0.9829999804496765 23.642000198364254 L 1.0019999742507935 23.475999832153317 L 0.5910000205039978 22.416999816894528 L 0.14800000190734863 21.363000869750973 L 1.3536665405340285e-15 21.086303710937496 L -0.035999998450279236 21.01899909973144 L -0.17599999904632568 20.68099975585937 L -0.25738924741744995 20.479999542236325 L -0.3569999933242798 20.233999252319332 L -0.16200000047683716 20.155000686645504 L -0.008999999612569809 20.0930004119873 L -0.008838643319904804 20.092950820922848 L 0 20.09021186828613 L 0.17499999701976776 20.0359992980957 L 0.3580000102519989 19.978000640869137 L 0.5270000100135803 19.89399909973144 L 0.6830000281333923 19.795999526977536 L 0.75 19.679000854492184 L 0.7990000247955322 19.55100059509277 L 0.8019999861717224 19.448999404907223 L 0.7879999876022339 19.347999572753903 L 0.7260000109672546 19.22699928283691 L 0.6470000147819519 19.120000839233395 L 0.49900001287460327 19.04299926757812 L 0.34200000762939453 18.997999191284176 L 0.0020000000949949026 19.079000473022457 L 1.2585439994035417e-14 19.079654693603512 L -0.3370000123977661 19.190000534057614 L -0.7179238796234131 19.342657089233395 L -1.3949999809265137 19.614000320434567 L -2.436000108718872 20.065000534057614 L -2.552000045776367 20.186000823974606 L -2.63700008392334 20.32999992370605 L -2.644228935241699 20.479999542236325 L -2.6449999809265137 20.49600028991699 L -2.619999885559082 20.6609992980957 L -2.6135294437408447 20.66915130615234 L -2.5160000324249268 20.791999816894528 L -2.390000104904175 20.902999877929684 L -2.257999897003174 20.9419994354248 L -2.121999979019165 20.94799995422363 L -2.0480000972747803 20.920150756835934 L -1.75 20.80800056457519 L -1.2480000257492065 20.60400009155273 M -14.251999855041504 16.802999496459957 L -14.13599967956543 16.74589157104492 L -14.121999740600586 16.739000320434567 L -14.003999710083008 16.9419994354248 L -13.92300033569336 17.093999862670895 L -13.460000038146973 18.2180004119873 L -13.369874954223633 18.431999206542965 L -13.131505012512207 18.997999191284176 L -12.989999771118164 19.33399963378906 L -12.878999710083008 19.440000534057614 L -12.746999740600586 19.51899909973144 L -12.593999862670898 19.523000717163082 L -12.440999984741211 19.50099945068359 L -12.33899974822998 19.43300056457519 L -12.288000106811523 19.38258552551269 L -12.251999855041504 19.34700012207031 L -12.197999954223633 19.201000213623043 L -12.180000305175781 19.049999237060543 L -12.200414657592773 18.997999191284176 L -12.288000106811523 18.774900436401364 L -12.42261791229248 18.431999206542965 L -12.645999908447266 17.863000869750973 L -13.142999649047852 16.680000305175778 L -13.227999687194824 16.50900077819824 L -13.300058364868164 16.38400077819824 L -13.326000213623047 16.339000701904293 L -12.654000282287598 15.991999626159664 L -12.288000106811523 15.794464111328121 L -12.163000106811523 15.727000236511227 L -12.085000038146973 15.633000373840328 L -12.027999877929688 15.524000167846676 L -12.015999794006348 15.40200042724609 L -12.018732070922852 15.359999656677243 L -12.020879745483398 15.326970100402828 L -12.02400016784668 15.279000282287594 L -12.081000328063965 15.166999816894528 L -12.154999732971191 15.067000389099118 L -12.288000106811523 14.99902248382568 L -12.289999961853027 14.998000144958493 L -12.4350004196167 14.954999923706051 L -12.611000061035156 14.994999885559078 L -12.786999702453613 15.057999610900875 L -13.093000411987305 15.19900035858154 L -13.395000457763672 15.347999572753903 L -13.779253005981445 15.55274391174316 L -14.0649995803833 15.704999923706051 L -14.736000061035156 16.05999946594238 L -15.027999877929688 16.181999206542965 L -15.321000099182129 16.302000045776364 L -15.333940505981445 16.30982398986816 L -15.406999588012695 16.35400009155273 L -15.443190574645996 16.38400077819824 L -15.482999801635742 16.416999816894528 L -15.548999786376953 16.55599975585937 L -15.593999862670898 16.701000213623043 L -15.571999549865723 16.82099914550781 L -15.529999732971191 16.936000823974606 L -15.444999694824219 17.02700042724609 L -15.345999717712402 17.103000640869137 L -15.22700023651123 17.135999679565426 L -15.104999542236328 17.145999908447262 L -14.729000091552734 17.013000488281246 L -14.359000205993652 16.85600090026855 L -14.336000442504883 16.844608306884762 L -14.251999855041504 16.802999496459957 M -12.467000007629395 27.753000259399407 L -12.288000106811523 27.68140029907226 L -12.218456268310547 27.653581619262688 L -12.204500198364258 27.64800071716308 L -12.031999588012695 27.579000473022454 L -11.628000259399414 27.415000915527337 L -11.627076148986816 27.41703033447265 L -11.522025108337402 27.64800071716308 L -11.482000350952148 27.73600006103515 L -11.359000205993652 27.99500083923339 L -11.263999938964844 28.154697418212884 L -11.243000030517578 28.19000053405761 L -11.111000061035156 28.368999481201165 L -10.961999893188477 28.444000244140618 L -10.800999641418457 28.489999771118157 L -10.668000221252441 28.465999603271477 L -10.539999961853027 28.419000625610344 L -10.442999839782715 28.326999664306634 L -10.362000465393066 28.219999313354485 L -10.324000358581543 28.090000152587884 L -10.315999984741211 27.957000732421868 L -10.452291488647461 27.64800071716308 L -10.562999725341797 27.396999359130852 L -10.731745719909668 27.058898925781243 L -10.73495101928711 27.05247497558593 L -10.83899974822998 26.84399986267089 L -10.975756645202637 26.6240005493164 L -11.092000007629395 26.437000274658196 L -11.35099983215332 26.033000946044915 L -11.417841911315918 25.9128189086914 L -11.64799976348877 25.4990005493164 L -11.956000328063965 24.97500038146972 L -12.077302932739258 24.85194778442382 L -12.163999557495117 24.763999938964837 L -12.16516399383545 24.763031005859368 L -12.288000106811523 24.660667419433587 L -12.33719253540039 24.619672775268548 L -12.389599800109863 24.57600021362304 L -12.392000198364258 24.57399940490722 L -12.517999649047852 24.510999679565423 L -12.651000022888184 24.474000930786126 L -12.980999946594238 24.524999618530266 L -13.186888694763184 24.57600021362304 L -13.307999610900879 24.606000900268548 L -13.531999588012695 24.712999343872063 L -13.73799991607666 24.84600067138671 L -13.939000129699707 25.097000122070305 L -14.10200023651123 25.371000289916985 L -14.127361297607422 25.60000038146972 L -14.13599967956543 25.677999496459954 L -14.13599967956543 25.99300003051757 L -14.097999572753906 26.23200035095214 L -14.04699993133545 26.469999313354485 L -14.002032279968262 26.6240005493164 L -13.973999977111816 26.719999313354485 L -13.892999649047852 26.96699905395507 L -13.8001070022583 27.202001571655266 L -13.79444694519043 27.216318130493157 L -13.79297924041748 27.220033645629876 L -13.786508560180664 27.236402511596673 L -13.741999626159668 27.349000930786126 L -13.617021560668945 27.64800071716308 L -13.583999633789062 27.726999282836907 L -13.482999801635742 27.92499923706054 L -13.375 28.11800003051757 L -13.154000282287598 28.447000503540032 L -13.005812644958496 28.67200088500976 L -12.935999870300293 28.77799987792968 L -12.859000205993652 28.954000473022454 L -12.779999732971191 29.128999710083 L -12.687000274658203 29.229000091552727 L -12.59001636505127 29.303323745727532 L -12.579999923706055 29.311000823974602 L -12.416999816894531 29.33900070190429 L -12.288000106811523 29.339776992797844 L -12.25100040435791 29.340000152587884 L -12.128000259399414 29.2800006866455 L -12.019000053405762 29.197999954223626 L -11.942000389099121 29.04999923706054 L -11.895999908447266 28.89200019836425 L -11.953283309936523 28.67200088500976 L -11.96500015258789 28.627000808715813 L -12.067999839782715 28.36599922180175 L -12.241999626159668 28.086000442504876 L -12.288000106811523 28.017919540405266 L -12.467000007629395 27.753000259399407 M -12.89799976348877 26.88100051879882 L -12.899046897888184 26.878448486328118 L -12.89941692352295 26.877546310424798 L -12.901521682739258 26.872415542602532 L -12.946000099182129 26.763999938964837 L -12.979999542236328 26.67700004577636 L -12.997846603393555 26.6240005493164 L -13.045999526977539 26.481000900268548 L -13.107000350952148 26.283000946044915 L -13.144000053405762 26.11300086975097 L -13.175000190734863 25.941999435424798 L -13.182000160217285 25.825000762939446 L -13.178000450134277 25.70999908447265 L -13.142000198364258 25.638000488281243 L -13.111968040466309 25.60000038146972 L -13.093000411987305 25.57600021362304 L -12.956999778747559 25.513000488281243 L -12.817000389099121 25.46699905395507 L -12.782999992370605 25.486999511718743 L -12.753999710083008 25.518999099731438 L -12.704154014587402 25.60000038146972 L -12.473999977111816 25.974000930786126 L -12.288000106811523 26.28163528442382 L -12.107000350952148 26.58099937438964 L -12.224235534667969 26.6240005493164 L -12.288000106811523 26.647388458251946 L -12.395999908447266 26.687000274658196 L -12.609999656677246 26.767999649047844 L -12.732999801635742 26.81500053405761 L -12.89799976348877 26.88100051879882 M -9.364999771118164 26.840999603271477 L -9.38493824005127 26.79472351074218 L -9.387590408325195 26.788568496704094 L -9.458494186401367 26.6240005493164 L -9.960000038146973 25.45999908447265 L -10.312496185302734 24.57600021362304 L -10.53499984741211 24.017999649047844 L -10.614999771118164 23.89999961853027 L -10.713000297546387 23.80100059509277 L -10.871999740600586 23.74600028991699 L -11.03600025177002 23.72200012207031 L -11.187000274658203 23.787000656127926 L -11.331000328063965 23.874999999999996 L -11.375 23.929000854492184 L -11.407999992370605 23.98999977111816 L -11.444000244140625 24.12199974060058 L -11.454999923706055 24.253000259399407 L -11.325636863708496 24.57600021362304 L -10.821000099182129 25.836000442504876 L -10.494329452514648 26.6240005493164 L -10.376948356628418 26.907146453857415 L -10.373452186584473 26.91558074951171 L -10.239999771118164 27.237495422363274 L -10.2246675491333 27.27448081970214 L -10.166000366210938 27.41600036621093 L -10.15999984741211 27.433000564575188 L -10.152999877929688 27.447999954223626 L -10.15246868133545 27.44864082336425 L -10.045999526977539 27.576999664306634 L -9.971161842346191 27.64800071716308 L -9.928999900817871 27.68799972534179 L -9.62399959564209 27.777000427246087 L -9.310999870300293 27.82600021362304 L -9.034000396728516 27.74500083923339 L -8.768930435180664 27.64800071716308 L -8.758000373840332 27.643999099731438 L -8.585000038146973 27.610000610351555 L -8.413000106811523 27.57399940490722 L -8.192000389099121 27.489000320434563 L -8.02299976348877 27.423999786376946 L -7.638000011444092 27.263000488281243 L -7.544000148773193 27.207000732421868 L -7.460999965667725 27.138000488281243 L -7.388999938964844 26.986999511718743 L -7.340000152587891 26.827999114990227 L -7.363999843597412 26.69499969482421 L -7.390625 26.6240005493164 L -7.4120001792907715 26.566999435424798 L -7.504000186920166 26.47100067138671 L -7.610000133514404 26.38999938964843 L -7.739999771118164 26.353000640869134 L -7.874000072479248 26.343000411987298 L -8.192000389099121 26.462146759033196 L -8.26099967956543 26.48800086975097 L -8.600561141967773 26.6240005493164 L -8.64799976348877 26.642999649047844 L -8.817999839782715 26.677999496459954 L -8.98799991607666 26.711000442504876 L -8.995418548583984 26.714527130126946 L -9.192000389099121 26.808000564575188 L -9.364999771118164 26.840999603271477 M -12.288000106811523 5.067784309387206 L -13 4.954999923706054 L -13.928000450134277 5.10200023651123 L -13.963366508483887 5.119999885559081 L -14.336000442504883 5.309656143188476 L -14.765000343322754 5.527999877929687 L -15.359999656677246 6.123896121978758 L -15.380073547363281 6.14400005340576 L -15.428999900817871 6.192999839782713 L -15.855999946594238 7.030000209808348 L -16.003000259399414 7.956999778747557 L -15.965774536132812 8.19200038909912 L -15.855999946594238 8.885000228881834 L -15.428999900817871 9.72200012207031 L -14.765000343322754 10.385999679565428 L -13.928000450134277 10.812999725341795 L -13 10.96000003814697 L -12.071999549865723 10.812999725341795 L -11.234999656677246 10.385999679565428 L -10.571000099182129 9.72200012207031 L -10.144000053405762 8.885000228881834 L -10.034972190856934 8.19200038909912 L -9.998000144958496 7.956999778747557 L -10.144000053405762 7.030000209808348 L -10.571000099182129 6.192999839782713 L -10.619926452636719 6.14400005340576 L -11.234999656677246 5.527999877929687 L -12.071999549865723 5.10200023651123 L -12.288000106811523 5.067784309387206 z" fill="none" stroke="rgb(255,0,0)" stroke-width="0.001mm" />
</svg>