solid OpenSCAD_Model
  facet normal -1 -2.22045e-16 2.71917e-32
    outer loop
      vertex -100.5 6 -7.34764e-16
      vertex -100.5 -6 7.34764e-16
      vertex -100.5 6 5
    endloop
  endfacet
  facet normal -1 -2.22045e-16 2.71917e-32
    outer loop
      vertex -100.5 6 5
      vertex -100.5 -6 7.34764e-16
      vertex -100.5 -6 5
    endloop
  endfacet
  facet normal 0 -1.22461e-16 -1
    outer loop
      vertex -1.75 39 -4.77596e-15
      vertex -6 6 -7.34764e-16
      vertex -6 43 -5.26581e-15
    endloop
  endfacet
  facet normal 0 -1.22461e-16 -1
    outer loop
      vertex 1.75 39 -4.77596e-15
      vertex 6 43 -5.26581e-15
      vertex 1.75 8 -9.79685e-16
    endloop
  endfacet
  facet normal 0 -1.22461e-16 -1
    outer loop
      vertex 6 -6 7.34764e-16
      vertex 14.5 6 -7.34764e-16
      vertex 14.5 -6 7.34764e-16
    endloop
  endfacet
  facet normal 0 -1.22461e-16 -1
    outer loop
      vertex -6 -6 7.34764e-16
      vertex 14.5 6 -7.34764e-16
      vertex 6 -6 7.34764e-16
    endloop
  endfacet
  facet normal 0 -1.22461e-16 -1
    outer loop
      vertex 1.75 -62.5 7.65379e-15
      vertex 6 -66 8.0824e-15
      vertex -1.75 -62.5 7.65379e-15
    endloop
  endfacet
  facet normal 0 -1.22461e-16 -1
    outer loop
      vertex -6 -6 7.34764e-16
      vertex 6 -6 7.34764e-16
      vertex 1.75 -7.5 9.18455e-16
    endloop
  endfacet
  facet normal 0 -1.22461e-16 -1
    outer loop
      vertex -1.75 -62.5 7.65379e-15
      vertex 6 -66 8.0824e-15
      vertex -6 -66 8.0824e-15
    endloop
  endfacet
  facet normal 0 -1.22461e-16 -1
    outer loop
      vertex -8 -1.75 2.14306e-16
      vertex 14.5 6 -7.34764e-16
      vertex -6 -6 7.34764e-16
    endloop
  endfacet
  facet normal 0 -1.22461e-16 -1
    outer loop
      vertex -97 1.75 -2.14306e-16
      vertex -6 6 -7.34764e-16
      vertex 6 6 -7.34764e-16
    endloop
  endfacet
  facet normal 0 -1.22461e-16 -1
    outer loop
      vertex -100.5 6 -7.34764e-16
      vertex -6 6 -7.34764e-16
      vertex -97 1.75 -2.14306e-16
    endloop
  endfacet
  facet normal 0 -1.22461e-16 -1
    outer loop
      vertex -100.5 6 -7.34764e-16
      vertex -97 1.75 -2.14306e-16
      vertex -100.5 -6 7.34764e-16
    endloop
  endfacet
  facet normal 0 -1.22461e-16 -1
    outer loop
      vertex -8 -1.75 2.14306e-16
      vertex -100.5 -6 7.34764e-16
      vertex -97 -1.75 2.14306e-16
    endloop
  endfacet
  facet normal 0 -1.22461e-16 -1
    outer loop
      vertex -97 1.75 -2.14306e-16
      vertex -97 -1.75 2.14306e-16
      vertex -100.5 -6 7.34764e-16
    endloop
  endfacet
  facet normal 0 -1.22461e-16 -1
    outer loop
      vertex -8 1.75 -2.14306e-16
      vertex 14.5 6 -7.34764e-16
      vertex -8 -1.75 2.14306e-16
    endloop
  endfacet
  facet normal 0 -1.22461e-16 -1
    outer loop
      vertex -100.5 -6 7.34764e-16
      vertex -8 -1.75 2.14306e-16
      vertex -6 -6 7.34764e-16
    endloop
  endfacet
  facet normal 0 -1.22461e-16 -1
    outer loop
      vertex -1.75 -62.5 7.65379e-15
      vertex -6 -6 7.34764e-16
      vertex -1.75 -7.5 9.18455e-16
    endloop
  endfacet
  facet normal 0 -1.22461e-16 -1
    outer loop
      vertex -6 -6 7.34764e-16
      vertex 1.75 -7.5 9.18455e-16
      vertex -1.75 -7.5 9.18455e-16
    endloop
  endfacet
  facet normal 0 -1.22461e-16 -1
    outer loop
      vertex -1.75 8 -9.79685e-16
      vertex -6 6 -7.34764e-16
      vertex -1.75 39 -4.77596e-15
    endloop
  endfacet
  facet normal 0 -1.22461e-16 -1
    outer loop
      vertex 6 43 -5.26581e-15
      vertex -1.75 39 -4.77596e-15
      vertex -6 43 -5.26581e-15
    endloop
  endfacet
  facet normal 0 -1.22461e-16 -1
    outer loop
      vertex 6 6 -7.34764e-16
      vertex -6 6 -7.34764e-16
      vertex -1.75 8 -9.79685e-16
    endloop
  endfacet
  facet normal 0 -1.22461e-16 -1
    outer loop
      vertex 6 6 -7.34764e-16
      vertex -1.75 8 -9.79685e-16
      vertex 1.75 8 -9.79685e-16
    endloop
  endfacet
  facet normal 0 -1.22461e-16 -1
    outer loop
      vertex 6 6 -7.34764e-16
      vertex 1.75 8 -9.79685e-16
      vertex 6 43 -5.26581e-15
    endloop
  endfacet
  facet normal 0 -1.22461e-16 -1
    outer loop
      vertex 6 43 -5.26581e-15
      vertex 1.75 39 -4.77596e-15
      vertex -1.75 39 -4.77596e-15
    endloop
  endfacet
  facet normal 0 -1.22461e-16 -1
    outer loop
      vertex -97 1.75 -2.14306e-16
      vertex 14.5 6 -7.34764e-16
      vertex -8 1.75 -2.14306e-16
    endloop
  endfacet
  facet normal 0 -1.22461e-16 -1
    outer loop
      vertex -97 1.75 -2.14306e-16
      vertex 6 6 -7.34764e-16
      vertex 14.5 6 -7.34764e-16
    endloop
  endfacet
  facet normal 0 -1.22461e-16 -1
    outer loop
      vertex 6 -66 8.0824e-15
      vertex 1.75 -7.5 9.18455e-16
      vertex 6 -6 7.34764e-16
    endloop
  endfacet
  facet normal 0 -1.22461e-16 -1
    outer loop
      vertex 1.75 -7.5 9.18455e-16
      vertex 6 -66 8.0824e-15
      vertex 1.75 -62.5 7.65379e-15
    endloop
  endfacet
  facet normal 0 -1.22461e-16 -1
    outer loop
      vertex -6 -6 7.34764e-16
      vertex -1.75 -62.5 7.65379e-15
      vertex -6 -66 8.0824e-15
    endloop
  endfacet
  facet normal -2.22045e-16 1 -1.22461e-16
    outer loop
      vertex -100.5 6 -7.34764e-16
      vertex -100.5 6 5
      vertex -6 6 -7.34764e-16
    endloop
  endfacet
  facet normal -2.22045e-16 1 -1.22461e-16
    outer loop
      vertex -6 6 -7.34764e-16
      vertex -100.5 6 5
      vertex -6 6 5
    endloop
  endfacet
  facet normal 0 1.22461e-16 1
    outer loop
      vertex -98.75 4 5
      vertex -100.5 6 5
      vertex -100.5 -6 5
    endloop
  endfacet
  facet normal 0 1.22461e-16 1
    outer loop
      vertex -100.5 -6 5
      vertex -16 -6 5
      vertex -16 -4 5
    endloop
  endfacet
  facet normal 0 1.22461e-16 1
    outer loop
      vertex -98.75 -4 5
      vertex -100.5 -6 5
      vertex -16 -4 5
    endloop
  endfacet
  facet normal 0 1.22461e-16 1
    outer loop
      vertex -6 -4 5
      vertex -98.75 -4 5
      vertex -16 -4 5
    endloop
  endfacet
  facet normal 0 1.22461e-16 1
    outer loop
      vertex -16 4 5
      vertex -16 6 5
      vertex -98.75 4 5
    endloop
  endfacet
  facet normal 0 1.22461e-16 1
    outer loop
      vertex -98.75 -4 5
      vertex -98.75 4 5
      vertex -100.5 -6 5
    endloop
  endfacet
  facet normal 0 1.22461e-16 1
    outer loop
      vertex -16 6 5
      vertex -100.5 6 5
      vertex -98.75 4 5
    endloop
  endfacet
  facet normal 0 1.22461e-16 1
    outer loop
      vertex -6 6 5
      vertex -100.5 6 5
      vertex -16 6 5
    endloop
  endfacet
  facet normal 2.22045e-16 -1 1.22461e-16
    outer loop
      vertex -100.5 -6 5
      vertex -100.5 -6 7.34764e-16
      vertex -6 -6 7.34764e-16
    endloop
  endfacet
  facet normal 2.22045e-16 -1 1.22461e-16
    outer loop
      vertex -6 -6 5
      vertex -100.5 -6 5
      vertex -6 -6 7.34764e-16
    endloop
  endfacet
  facet normal 2.22045e-16 -1 1.22461e-16
    outer loop
      vertex -16 -6 5
      vertex -100.5 -6 5
      vertex -6 -6 5
    endloop
  endfacet
  facet normal -1 0 0
    outer loop
      vertex -6 -66 8.0824e-15
      vertex -6 -66 5
      vertex -6 -6 7.34764e-16
    endloop
  endfacet
  facet normal -1 0 0
    outer loop
      vertex -6 -6 7.34764e-16
      vertex -6 -66 5
      vertex -6 -16 5
    endloop
  endfacet
  facet normal -1 0 0
    outer loop
      vertex -6 -6 5
      vertex -6 -6 7.34764e-16
      vertex -6 -16 5
    endloop
  endfacet
  facet normal 0 -1 1.22461e-16
    outer loop
      vertex -6 -66 5
      vertex -6 -66 8.0824e-15
      vertex 6 -66 8.0824e-15
    endloop
  endfacet
  facet normal 0 -1 1.22461e-16
    outer loop
      vertex 6 -66 5
      vertex -6 -66 5
      vertex 6 -66 8.0824e-15
    endloop
  endfacet
  facet normal 1 0 0
    outer loop
      vertex 6 -66 5
      vertex 6 -66 8.0824e-15
      vertex 6 -6 7.34764e-16
    endloop
  endfacet
  facet normal 1 0 0
    outer loop
      vertex 6 -6 5
      vertex 6 -66 5
      vertex 6 -6 7.34764e-16
    endloop
  endfacet
  facet normal 0 -1 1.22461e-16
    outer loop
      vertex -4 -6 5
      vertex 4 -6 3
      vertex -6 -6 15
    endloop
  endfacet
  facet normal 0 -1 1.22461e-16
    outer loop
      vertex -6 -6 5
      vertex -4 -6 5
      vertex -6 -6 15
    endloop
  endfacet
  facet normal 0 -1 1.22461e-16
    outer loop
      vertex 4 -6 5
      vertex 6 -6 5
      vertex -6 -6 15
    endloop
  endfacet
  facet normal 0 -1 1.22461e-16
    outer loop
      vertex -4 -6 3
      vertex 4 -6 3
      vertex -4 -6 5
    endloop
  endfacet
  facet normal 0 -1 1.22461e-16
    outer loop
      vertex 4 -6 3
      vertex 4 -6 5
      vertex -6 -6 15
    endloop
  endfacet
  facet normal 0 -1 1.22461e-16
    outer loop
      vertex 6 -6 5
      vertex 14.5 -6 7.34764e-16
      vertex -6 -6 15
    endloop
  endfacet
  facet normal 0 -1 1.22461e-16
    outer loop
      vertex 6 -6 7.34764e-16
      vertex 14.5 -6 7.34764e-16
      vertex 6 -6 5
    endloop
  endfacet
  facet normal 0 -1 1.22461e-16
    outer loop
      vertex 14.5 -6 7.34764e-16
      vertex 14.5 -6 15
      vertex -6 -6 15
    endloop
  endfacet
  facet normal 1 0 0
    outer loop
      vertex 14.5 -6 15
      vertex 14.5 -6 7.34764e-16
      vertex 14.5 6 -7.34764e-16
    endloop
  endfacet
  facet normal 1 0 0
    outer loop
      vertex 14.5 6 15
      vertex 14.5 -6 15
      vertex 14.5 6 -7.34764e-16
    endloop
  endfacet
  facet normal 0 1 -1.22461e-16
    outer loop
      vertex -4 6 15
      vertex -6 6 15
      vertex 14.5 6 15
    endloop
  endfacet
  facet normal 0 1 -1.22461e-16
    outer loop
      vertex 6 6 5
      vertex 14.5 6 15
      vertex 14.5 6 -7.34764e-16
    endloop
  endfacet
  facet normal 0 1 -1.22461e-16
    outer loop
      vertex 6 6 5
      vertex 14.5 6 -7.34764e-16
      vertex 6 6 -7.34764e-16
    endloop
  endfacet
  facet normal 0 1 -1.22461e-16
    outer loop
      vertex 4 6 5
      vertex -4 6 5
      vertex 4 6 15
    endloop
  endfacet
  facet normal 0 1 -1.22461e-16
    outer loop
      vertex -4 6 3
      vertex -4 6 5
      vertex 4 6 3
    endloop
  endfacet
  facet normal 0 1 -1.22461e-16
    outer loop
      vertex -4 6 5
      vertex 4 6 5
      vertex 4 6 3
    endloop
  endfacet
  facet normal 0 1 -1.22461e-16
    outer loop
      vertex -4 6 15
      vertex 4 6 15
      vertex -4 6 5
    endloop
  endfacet
  facet normal 0 1 -1.22461e-16
    outer loop
      vertex 6 6 15
      vertex 14.5 6 15
      vertex 6 6 5
    endloop
  endfacet
  facet normal 0 1 -1.22461e-16
    outer loop
      vertex -4 6 15
      vertex 14.5 6 15
      vertex 6 6 15
    endloop
  endfacet
  facet normal 0 1 -1.22461e-16
    outer loop
      vertex -4 6 15
      vertex 6 6 15
      vertex 4 6 15
    endloop
  endfacet
  facet normal 1 0 0
    outer loop
      vertex 6 6 5
      vertex 6 6 -7.34764e-16
      vertex 6 43 -5.26581e-15
    endloop
  endfacet
  facet normal 1 0 0
    outer loop
      vertex 6 43 5
      vertex 6 6 5
      vertex 6 43 -5.26581e-15
    endloop
  endfacet
  facet normal 0 1 -1.22461e-16
    outer loop
      vertex -6 43 -5.26581e-15
      vertex -6 43 5
      vertex 6 43 -5.26581e-15
    endloop
  endfacet
  facet normal 0 1 -1.22461e-16
    outer loop
      vertex 6 43 -5.26581e-15
      vertex -6 43 5
      vertex 6 43 5
    endloop
  endfacet
  facet normal -1 0 0
    outer loop
      vertex -6 -4 5
      vertex -6 -4 15
      vertex -6 4 3
    endloop
  endfacet
  facet normal -1 0 0
    outer loop
      vertex -6 -4 15
      vertex -6 -6 15
      vertex -6 6 15
    endloop
  endfacet
  facet normal -1 0 0
    outer loop
      vertex -6 -4 3
      vertex -6 -4 5
      vertex -6 4 3
    endloop
  endfacet
  facet normal -1 0 0
    outer loop
      vertex -6 43 5
      vertex -6 43 -5.26581e-15
      vertex -6 6 5
    endloop
  endfacet
  facet normal -1 0 0
    outer loop
      vertex -6 43 -5.26581e-15
      vertex -6 6 -7.34764e-16
      vertex -6 6 5
    endloop
  endfacet
  facet normal -1 0 0
    outer loop
      vertex -6 -4 15
      vertex -6 6 15
      vertex -6 6 5
    endloop
  endfacet
  facet normal -1 0 0
    outer loop
      vertex -6 -4 15
      vertex -6 6 5
      vertex -6 4 5
    endloop
  endfacet
  facet normal -1 0 0
    outer loop
      vertex -6 -4 15
      vertex -6 4 5
      vertex -6 4 3
    endloop
  endfacet
  facet normal 1 2.22045e-16 -2.71917e-32
    outer loop
      vertex -97 -1.75 2.14306e-16
      vertex -97 1.75 -2.14306e-16
      vertex -97 1.75 3
    endloop
  endfacet
  facet normal 1 2.22045e-16 -2.71917e-32
    outer loop
      vertex -97 -1.75 3
      vertex -97 -1.75 2.14306e-16
      vertex -97 1.75 3
    endloop
  endfacet
  facet normal 2.22045e-16 -1 1.22461e-16
    outer loop
      vertex -97 1.75 3
      vertex -97 1.75 -2.14306e-16
      vertex -8 1.75 -2.14306e-16
    endloop
  endfacet
  facet normal 2.22045e-16 -1 1.22461e-16
    outer loop
      vertex -8 1.75 3
      vertex -97 1.75 3
      vertex -8 1.75 -2.14306e-16
    endloop
  endfacet
  facet normal -1 -2.22045e-16 2.71917e-32
    outer loop
      vertex -8 1.75 -2.14306e-16
      vertex -8 -1.75 2.14306e-16
      vertex -8 1.75 3
    endloop
  endfacet
  facet normal -1 -2.22045e-16 2.71917e-32
    outer loop
      vertex -8 1.75 3
      vertex -8 -1.75 2.14306e-16
      vertex -8 -1.75 3
    endloop
  endfacet
  facet normal -2.22045e-16 1 -1.22461e-16
    outer loop
      vertex -97 -1.75 2.14306e-16
      vertex -97 -1.75 3
      vertex -8 -1.75 2.14306e-16
    endloop
  endfacet
  facet normal -2.22045e-16 1 -1.22461e-16
    outer loop
      vertex -8 -1.75 2.14306e-16
      vertex -97 -1.75 3
      vertex -8 -1.75 3
    endloop
  endfacet
  facet normal 1 0 0
    outer loop
      vertex -1.75 -62.5 3
      vertex -1.75 -62.5 7.65379e-15
      vertex -1.75 -7.5 9.18455e-16
    endloop
  endfacet
  facet normal 1 0 0
    outer loop
      vertex -1.75 -7.5 3
      vertex -1.75 -62.5 3
      vertex -1.75 -7.5 9.18455e-16
    endloop
  endfacet
  facet normal 0 -1 1.22461e-16
    outer loop
      vertex -1.75 -7.5 3
      vertex -1.75 -7.5 9.18455e-16
      vertex 1.75 -7.5 9.18455e-16
    endloop
  endfacet
  facet normal 0 -1 1.22461e-16
    outer loop
      vertex 1.75 -7.5 3
      vertex -1.75 -7.5 3
      vertex 1.75 -7.5 9.18455e-16
    endloop
  endfacet
  facet normal -1 0 0
    outer loop
      vertex 1.75 -62.5 7.65379e-15
      vertex 1.75 -62.5 3
      vertex 1.75 -7.5 9.18455e-16
    endloop
  endfacet
  facet normal -1 0 0
    outer loop
      vertex 1.75 -7.5 9.18455e-16
      vertex 1.75 -62.5 3
      vertex 1.75 -7.5 3
    endloop
  endfacet
  facet normal 0 1 -1.22461e-16
    outer loop
      vertex -1.75 -62.5 7.65379e-15
      vertex -1.75 -62.5 3
      vertex 1.75 -62.5 7.65379e-15
    endloop
  endfacet
  facet normal 0 1 -1.22461e-16
    outer loop
      vertex 1.75 -62.5 7.65379e-15
      vertex -1.75 -62.5 3
      vertex 1.75 -62.5 3
    endloop
  endfacet
  facet normal 1 0 0
    outer loop
      vertex -1.75 8 3
      vertex -1.75 8 -9.79685e-16
      vertex -1.75 39 -4.77596e-15
    endloop
  endfacet
  facet normal 1 0 0
    outer loop
      vertex -1.75 39 3
      vertex -1.75 8 3
      vertex -1.75 39 -4.77596e-15
    endloop
  endfacet
  facet normal 0 -1 1.22461e-16
    outer loop
      vertex -1.75 39 3
      vertex -1.75 39 -4.77596e-15
      vertex 1.75 39 -4.77596e-15
    endloop
  endfacet
  facet normal 0 -1 1.22461e-16
    outer loop
      vertex 1.75 39 3
      vertex -1.75 39 3
      vertex 1.75 39 -4.77596e-15
    endloop
  endfacet
  facet normal -1 0 0
    outer loop
      vertex 1.75 8 -9.79685e-16
      vertex 1.75 8 3
      vertex 1.75 39 -4.77596e-15
    endloop
  endfacet
  facet normal -1 0 0
    outer loop
      vertex 1.75 39 -4.77596e-15
      vertex 1.75 8 3
      vertex 1.75 39 3
    endloop
  endfacet
  facet normal 0 1 -1.22461e-16
    outer loop
      vertex -1.75 8 -9.79685e-16
      vertex -1.75 8 3
      vertex 1.75 8 -9.79685e-16
    endloop
  endfacet
  facet normal 0 1 -1.22461e-16
    outer loop
      vertex 1.75 8 -9.79685e-16
      vertex -1.75 8 3
      vertex 1.75 8 3
    endloop
  endfacet
  facet normal 2.22045e-16 -1 1.22461e-16
    outer loop
      vertex -16 4 5
      vertex -6 4 3
      vertex -6 4 5
    endloop
  endfacet
  facet normal 2.22045e-16 -1 1.22461e-16
    outer loop
      vertex -98.75 4 5
      vertex -6 4 3
      vertex -16 4 5
    endloop
  endfacet
  facet normal 2.22045e-16 -1 1.22461e-16
    outer loop
      vertex -98.75 4 3
      vertex -6 4 3
      vertex -98.75 4 5
    endloop
  endfacet
  facet normal 1 3.44505e-16 -3.96485e-32
    outer loop
      vertex -6 4 5
      vertex -6 6 5
      vertex -6 6 15
    endloop
  endfacet
  facet normal 1 3.44505e-16 -3.96485e-32
    outer loop
      vertex -6 4 15
      vertex -6 4 5
      vertex -6 6 15
    endloop
  endfacet
  facet normal -3.44505e-16 1 9.9584e-17
    outer loop
      vertex -6 6 5
      vertex -16 6 5
      vertex -6 6 15
    endloop
  endfacet
  facet normal -0.707107 -3.14018e-16 0.707107
    outer loop
      vertex -6 6 15
      vertex -16 6 5
      vertex -16 4 5
    endloop
  endfacet
  facet normal -0.707107 -3.14018e-16 0.707107
    outer loop
      vertex -16 4 5
      vertex -6 4 15
      vertex -6 6 15
    endloop
  endfacet
  facet normal 1 2.22045e-16 -2.71917e-32
    outer loop
      vertex -98.75 4 5
      vertex -98.75 -4 5
      vertex -98.75 -4 3
    endloop
  endfacet
  facet normal 1 2.22045e-16 -2.71917e-32
    outer loop
      vertex -98.75 4 3
      vertex -98.75 4 5
      vertex -98.75 -4 3
    endloop
  endfacet
  facet normal -2.22045e-16 1 -1.22461e-16
    outer loop
      vertex -6 -4 5
      vertex -6 -4 3
      vertex -98.75 -4 5
    endloop
  endfacet
  facet normal -2.22045e-16 1 -1.22461e-16
    outer loop
      vertex -98.75 -4 5
      vertex -6 -4 3
      vertex -98.75 -4 3
    endloop
  endfacet
  facet normal -3.44505e-16 1 9.9584e-17
    outer loop
      vertex -6 -4 5
      vertex -16 -4 5
      vertex -6 -4 15
    endloop
  endfacet
  facet normal -0.707107 -3.14018e-16 0.707107
    outer loop
      vertex -6 -4 15
      vertex -16 -4 5
      vertex -16 -6 5
    endloop
  endfacet
  facet normal -0.707107 -3.14018e-16 0.707107
    outer loop
      vertex -16 -6 5
      vertex -6 -6 15
      vertex -6 -4 15
    endloop
  endfacet
  facet normal -1 1.22461e-16 2.22045e-16
    outer loop
      vertex -6 -16 5
      vertex -6 -6 15
      vertex -6 -6 14.103
    endloop
  endfacet
  facet normal -1 1.22461e-16 2.22045e-16
    outer loop
      vertex -6 -16 5
      vertex -6 -6 14.103
      vertex -6 -6 5
    endloop
  endfacet
  facet normal 7.04165e-17 -0.707107 0.707107
    outer loop
      vertex -4 -6 15
      vertex -6 -6 15
      vertex -4 -16 5
    endloop
  endfacet
  facet normal 7.04165e-17 -0.707107 0.707107
    outer loop
      vertex -6 -16 5
      vertex -4 -16 5
      vertex -6 -6 15
    endloop
  endfacet
  facet normal 0 1.22461e-16 1
    outer loop
      vertex 4 -64.25 5
      vertex -6 -66 5
      vertex 6 -66 5
    endloop
  endfacet
  facet normal 0 1.22461e-16 1
    outer loop
      vertex 6 -6 5
      vertex 6 -16 5
      vertex 6 -66 5
    endloop
  endfacet
  facet normal 0 1.22461e-16 1
    outer loop
      vertex 6 -16 5
      vertex 4 -16 5
      vertex 6 -66 5
    endloop
  endfacet
  facet normal 0 1.22461e-16 1
    outer loop
      vertex -4 -64.25 5
      vertex -6 -66 5
      vertex 4 -64.25 5
    endloop
  endfacet
  facet normal 0 1.22461e-16 1
    outer loop
      vertex -6 -16 5
      vertex -6 -66 5
      vertex -4 -64.25 5
    endloop
  endfacet
  facet normal 0 1.22461e-16 1
    outer loop
      vertex 4 -16 5
      vertex 4 -64.25 5
      vertex 6 -66 5
    endloop
  endfacet
  facet normal 0 1.22461e-16 1
    outer loop
      vertex -4 -64.25 5
      vertex -4 -16 5
      vertex -6 -16 5
    endloop
  endfacet
  facet normal 0 1.22461e-16 1
    outer loop
      vertex -4 -64.25 5
      vertex -4 -6 5
      vertex -4 -16 5
    endloop
  endfacet
  facet normal 1 -1.22461e-16 -2.22045e-16
    outer loop
      vertex 6 -6 15
      vertex 6 -16 5
      vertex 6 -6 5
    endloop
  endfacet
  facet normal 1.22461e-16 1 -2.53982e-33
    outer loop
      vertex 4 -6 5
      vertex 4 -6 15
      vertex 6 -6 5
    endloop
  endfacet
  facet normal 1.22461e-16 1 -2.53982e-33
    outer loop
      vertex 6 -6 5
      vertex 4 -6 15
      vertex 6 -6 15
    endloop
  endfacet
  facet normal 0 1.22461e-16 1
    outer loop
      vertex -6 6 15
      vertex -6 -6 15
      vertex 14.5 -6 15
    endloop
  endfacet
  facet normal 0 1.22461e-16 1
    outer loop
      vertex -4 6 15
      vertex -6 6 15
      vertex 14.5 -6 15
    endloop
  endfacet
  facet normal 0 1.22461e-16 1
    outer loop
      vertex -6 6 15
      vertex -4 6 15
      vertex 14.5 6 15
    endloop
  endfacet
  facet normal 0 1.22461e-16 1
    outer loop
      vertex 4 6 15
      vertex -4 6 15
      vertex 14.5 -6 15
    endloop
  endfacet
  facet normal 0 1.22461e-16 1
    outer loop
      vertex 6 6 15
      vertex 4 6 15
      vertex 14.5 -6 15
    endloop
  endfacet
  facet normal 0 1.22461e-16 1
    outer loop
      vertex 6 6 15
      vertex -4 6 15
      vertex 4 6 15
    endloop
  endfacet
  facet normal 0 1.22461e-16 1
    outer loop
      vertex 14.5 6 15
      vertex -4 6 15
      vertex 6 6 15
    endloop
  endfacet
  facet normal 0 1.22461e-16 1
    outer loop
      vertex 14.5 6 15
      vertex 6 6 15
      vertex 14.5 -6 15
    endloop
  endfacet
  facet normal -1 0 0
    outer loop
      vertex 4 -6 3
      vertex 4 -16 5
      vertex 4 -6 5
    endloop
  endfacet
  facet normal -1 0 0
    outer loop
      vertex 4 -64.25 5
      vertex 4 -16 5
      vertex 4 -6 3
    endloop
  endfacet
  facet normal -1 0 0
    outer loop
      vertex 4 -64.25 5
      vertex 4 -6 3
      vertex 4 -64.25 3
    endloop
  endfacet
  facet normal 0 1.22461e-16 1
    outer loop
      vertex -1.75 -7.5 3
      vertex 4 -6 3
      vertex -4 -6 3
    endloop
  endfacet
  facet normal 0 1.22461e-16 1
    outer loop
      vertex 1.75 -7.5 3
      vertex 1.75 -62.5 3
      vertex 4 -64.25 3
    endloop
  endfacet
  facet normal 0 1.22461e-16 1
    outer loop
      vertex 1.75 -7.5 3
      vertex 4 -6 3
      vertex -1.75 -7.5 3
    endloop
  endfacet
  facet normal 0 1.22461e-16 1
    outer loop
      vertex 4 -64.25 3
      vertex 4 -6 3
      vertex 1.75 -7.5 3
    endloop
  endfacet
  facet normal 0 1.22461e-16 1
    outer loop
      vertex -4 -64.25 3
      vertex 4 -64.25 3
      vertex 1.75 -62.5 3
    endloop
  endfacet
  facet normal 0 1.22461e-16 1
    outer loop
      vertex -4 -64.25 3
      vertex -1.75 -62.5 3
      vertex -4 -6 3
    endloop
  endfacet
  facet normal 0 1.22461e-16 1
    outer loop
      vertex -4 -64.25 3
      vertex 1.75 -62.5 3
      vertex -1.75 -62.5 3
    endloop
  endfacet
  facet normal 0 1.22461e-16 1
    outer loop
      vertex -1.75 -62.5 3
      vertex -1.75 -7.5 3
      vertex -4 -6 3
    endloop
  endfacet
  facet normal 1 0 0
    outer loop
      vertex -4 -64.25 5
      vertex -4 -6 3
      vertex -4 -6 5
    endloop
  endfacet
  facet normal 1 0 0
    outer loop
      vertex -4 -64.25 3
      vertex -4 -6 3
      vertex -4 -64.25 5
    endloop
  endfacet
  facet normal 1 3.44505e-16 -3.96485e-32
    outer loop
      vertex -6 -6 5
      vertex -6 -6 15
      vertex -6 -6 14.103
    endloop
  endfacet
  facet normal 0 1.22461e-16 1
    outer loop
      vertex -6 43 5
      vertex -6 6 5
      vertex -4 6 5
    endloop
  endfacet
  facet normal 0 1.22461e-16 1
    outer loop
      vertex 4 41 5
      vertex -6 43 5
      vertex -4 41 5
    endloop
  endfacet
  facet normal 0 1.22461e-16 1
    outer loop
      vertex -4 41 5
      vertex -6 43 5
      vertex -4 6 5
    endloop
  endfacet
  facet normal 0 1.22461e-16 1
    outer loop
      vertex 6 43 5
      vertex -6 43 5
      vertex 4 41 5
    endloop
  endfacet
  facet normal 0 1.22461e-16 1
    outer loop
      vertex 6 6 5
      vertex 4 41 5
      vertex 4 6 5
    endloop
  endfacet
  facet normal 0 1.22461e-16 1
    outer loop
      vertex 6 43 5
      vertex 4 41 5
      vertex 6 6 5
    endloop
  endfacet
  facet normal 1 0 0
    outer loop
      vertex -4 41 3
      vertex -4 41 5
      vertex -4 6 5
    endloop
  endfacet
  facet normal 1 0 0
    outer loop
      vertex -4 6 3
      vertex -4 41 3
      vertex -4 6 5
    endloop
  endfacet
  facet normal 0 1.22461e-16 1
    outer loop
      vertex -1.75 39 3
      vertex 4 41 3
      vertex -4 41 3
    endloop
  endfacet
  facet normal 0 1.22461e-16 1
    outer loop
      vertex 1.75 39 3
      vertex 1.75 8 3
      vertex 4 6 3
    endloop
  endfacet
  facet normal 0 1.22461e-16 1
    outer loop
      vertex 1.75 39 3
      vertex 4 41 3
      vertex -1.75 39 3
    endloop
  endfacet
  facet normal 0 1.22461e-16 1
    outer loop
      vertex 4 6 3
      vertex 4 41 3
      vertex 1.75 39 3
    endloop
  endfacet
  facet normal 0 1.22461e-16 1
    outer loop
      vertex -4 6 3
      vertex 4 6 3
      vertex 1.75 8 3
    endloop
  endfacet
  facet normal 0 1.22461e-16 1
    outer loop
      vertex -4 6 3
      vertex -1.75 8 3
      vertex -4 41 3
    endloop
  endfacet
  facet normal 0 1.22461e-16 1
    outer loop
      vertex -4 6 3
      vertex 1.75 8 3
      vertex -1.75 8 3
    endloop
  endfacet
  facet normal 0 1.22461e-16 1
    outer loop
      vertex -1.75 8 3
      vertex -1.75 39 3
      vertex -4 41 3
    endloop
  endfacet
  facet normal -1 0 0
    outer loop
      vertex 4 41 5
      vertex 4 41 3
      vertex 4 6 5
    endloop
  endfacet
  facet normal -1 0 0
    outer loop
      vertex 4 6 5
      vertex 4 41 3
      vertex 4 6 3
    endloop
  endfacet
  facet normal -1.57009e-16 0.707107 0.707107
    outer loop
      vertex -4 6 15
      vertex -6 16 5
      vertex -6 6 15
    endloop
  endfacet
  facet normal -1.57009e-16 0.707107 0.707107
    outer loop
      vertex -6 16 5
      vertex -4 6 15
      vertex -4 16 5
    endloop
  endfacet
  facet normal 1 0 2.22045e-16
    outer loop
      vertex -4 16 5
      vertex -4 6 15
      vertex -4 6 5
    endloop
  endfacet
  facet normal 2.22045e-16 0 -1
    outer loop
      vertex -6 6 5
      vertex -6 16 5
      vertex -4 6 5
    endloop
  endfacet
  facet normal 2.22045e-16 0 -1
    outer loop
      vertex -4 6 5
      vertex -6 16 5
      vertex -4 16 5
    endloop
  endfacet
  facet normal -1 0 -2.22045e-16
    outer loop
      vertex -6 6 15
      vertex -6 16 5
      vertex -6 6 5
    endloop
  endfacet
  facet normal -1.57009e-16 0.707107 0.707107
    outer loop
      vertex 4 6 15
      vertex 6 6 15
      vertex 4 16 5
    endloop
  endfacet
  facet normal -1.57009e-16 0.707107 0.707107
    outer loop
      vertex 4 16 5
      vertex 6 6 15
      vertex 6 16 5
    endloop
  endfacet
  facet normal -1 0 -2.22045e-16
    outer loop
      vertex 4 6 5
      vertex 4 6 15
      vertex 4 16 5
    endloop
  endfacet
  facet normal 1 0 2.22045e-16
    outer loop
      vertex 6 16 5
      vertex 6 6 15
      vertex 6 6 5
    endloop
  endfacet
  facet normal 2.22045e-16 0 -1
    outer loop
      vertex 4 6 5
      vertex 4 16 5
      vertex 6 6 5
    endloop
  endfacet
  facet normal 2.22045e-16 0 -1
    outer loop
      vertex 6 6 5
      vertex 4 16 5
      vertex 6 16 5
    endloop
  endfacet
  facet normal 0 1.22461e-16 1
    outer loop
      vertex -8 1.75 3
      vertex -6 -4 3
      vertex -6 4 3
    endloop
  endfacet
  facet normal 0 1.22461e-16 1
    outer loop
      vertex -8 -1.75 3
      vertex -97 -1.75 3
      vertex -98.75 -4 3
    endloop
  endfacet
  facet normal 0 1.22461e-16 1
    outer loop
      vertex -98.75 4 3
      vertex -97 1.75 3
      vertex -6 4 3
    endloop
  endfacet
  facet normal 0 1.22461e-16 1
    outer loop
      vertex -98.75 4 3
      vertex -98.75 -4 3
      vertex -97 1.75 3
    endloop
  endfacet
  facet normal 0 1.22461e-16 1
    outer loop
      vertex -8 -1.75 3
      vertex -6 -4 3
      vertex -8 1.75 3
    endloop
  endfacet
  facet normal 0 1.22461e-16 1
    outer loop
      vertex -98.75 -4 3
      vertex -6 -4 3
      vertex -8 -1.75 3
    endloop
  endfacet
  facet normal 0 1.22461e-16 1
    outer loop
      vertex -97 1.75 3
      vertex -98.75 -4 3
      vertex -97 -1.75 3
    endloop
  endfacet
  facet normal 0 1.22461e-16 1
    outer loop
      vertex -97 1.75 3
      vertex -8 1.75 3
      vertex -6 4 3
    endloop
  endfacet
  facet normal 3.44505e-16 -1 -9.9584e-17
    outer loop
      vertex -6 4 15
      vertex -16 4 5
      vertex -6 4 5
    endloop
  endfacet
  facet normal 3.44505e-16 -1 -9.9584e-17
    outer loop
      vertex -6 -6 15
      vertex -16 -6 5
      vertex -6 -6 5
    endloop
  endfacet
  facet normal 3.44505e-16 -1 -9.9584e-17
    outer loop
      vertex -6 -6 14.103
      vertex -6 -6 15
      vertex -6 -6 5
    endloop
  endfacet
  facet normal 1.22461e-16 1 -2.53982e-33
    outer loop
      vertex -6 -6 5
      vertex -6 -6 14.103
      vertex -4 -6 5
    endloop
  endfacet
  facet normal 1.22461e-16 1 -2.53982e-33
    outer loop
      vertex -4 -6 5
      vertex -6 -6 14.103
      vertex -6 -6 15
    endloop
  endfacet
  facet normal 1.22461e-16 1 -2.53982e-33
    outer loop
      vertex -4 -6 5
      vertex -6 -6 15
      vertex -4 -6 15
    endloop
  endfacet
  facet normal 1 -1.22461e-16 -2.22045e-16
    outer loop
      vertex -4 -6 15
      vertex -4 -16 5
      vertex -4 -6 5
    endloop
  endfacet
  facet normal 0 1 -1.22461e-16
    outer loop
      vertex 4 -64.25 5
      vertex 4 -64.25 3
      vertex -4 -64.25 5
    endloop
  endfacet
  facet normal 0 1 -1.22461e-16
    outer loop
      vertex -4 -64.25 5
      vertex 4 -64.25 3
      vertex -4 -64.25 3
    endloop
  endfacet
  facet normal 7.04165e-17 -0.707107 0.707107
    outer loop
      vertex 6 -6 15
      vertex 4 -6 15
      vertex 6 -16 5
    endloop
  endfacet
  facet normal 7.04165e-17 -0.707107 0.707107
    outer loop
      vertex 4 -16 5
      vertex 6 -16 5
      vertex 4 -6 15
    endloop
  endfacet
  facet normal -1 1.22461e-16 2.22045e-16
    outer loop
      vertex 4 -16 5
      vertex 4 -6 15
      vertex 4 -6 5
    endloop
  endfacet
  facet normal 0 -1 1.22461e-16
    outer loop
      vertex 4 41 3
      vertex 4 41 5
      vertex -4 41 5
    endloop
  endfacet
  facet normal 0 -1 1.22461e-16
    outer loop
      vertex -4 41 3
      vertex 4 41 3
      vertex -4 41 5
    endloop
  endfacet
endsolid OpenSCAD_Model
