  0
SECTION
  2
HEADER
  9
$ACADVER
  1
AC1018
  9
$ACADMAINTVER
 70
     0
  9
$DWGCODEPAGE
  3
ANSI_1252
  9
$INSBASE
 10
0.0
 20
0.0
 30
0.0
  9
$EXTMIN
 10
-30.90892519685039
 20
0.0376141732283465
 30
0.0
  9
$EXTMAX
 10
-22.59249212598425
 20
8.220409448818897
 30
0.0
  9
$LIMMIN
 10
0.0
 20
0.0
  9
$LIMMAX
 10
12.0
 20
9.0
  9
$ORTHOMODE
 70
     0
  9
$REGENMODE
 70
     1
  9
$FILLMODE
 70
     1
  9
$QTEXTMODE
 70
     0
  9
$MIRRTEXT
 70
     1
  9
$LTSCALE
 40
1.0
  9
$ATTMODE
 70
     1
  9
$TEXTSIZE
 40
0.2
  9
$TRACEWID
 40
0.05
  9
$TEXTSTYLE
  7
Standard
  9
$CLAYER
  8
0
  9
$CELTYPE
  6
ByLayer
  9
$CECOLOR
 62
   256
  9
$CELTSCALE
 40
1.0
  9
$DISPSILH
 70
     0
  9
$DIMSCALE
 40
1.0
  9
$DIMASZ
 40
0.18
  9
$DIMEXO
 40
0.0625
  9
$DIMDLI
 40
0.38
  9
$DIMRND
 40
0.0
  9
$DIMDLE
 40
0.0
  9
$DIMEXE
 40
0.18
  9
$DIMTP
 40
0.0
  9
$DIMTM
 40
0.0
  9
$DIMTXT
 40
0.18
  9
$DIMCEN
 40
0.09
  9
$DIMTSZ
 40
0.0
  9
$DIMTOL
 70
     0
  9
$DIMLIM
 70
     0
  9
$DIMTIH
 70
     1
  9
$DIMTOH
 70
     1
  9
$DIMSE1
 70
     0
  9
$DIMSE2
 70
     0
  9
$DIMTAD
 70
     0
  9
$DIMZIN
 70
     0
  9
$DIMBLK
  1

  9
$DIMASO
 70
     1
  9
$DIMSHO
 70
     1
  9
$DIMPOST
  1

  9
$DIMAPOST
  1

  9
$DIMALT
 70
     0
  9
$DIMALTD
 70
     2
  9
$DIMALTF
 40
25.4
  9
$DIMLFAC
 40
1.0
  9
$DIMTOFL
 70
     0
  9
$DIMTVP
 40
0.0
  9
$DIMTIX
 70
     0
  9
$DIMSOXD
 70
     0
  9
$DIMSAH
 70
     0
  9
$DIMBLK1
  1

  9
$DIMBLK2
  1

  9
$DIMSTYLE
  2
Standard
  9
$DIMCLRD
 70
     0
  9
$DIMCLRE
 70
     0
  9
$DIMCLRT
 70
     0
  9
$DIMTFAC
 40
1.0
  9
$DIMGAP
 40
0.09
  9
$DIMJUST
 70
     0
  9
$DIMSD1
 70
     0
  9
$DIMSD2
 70
     0
  9
$DIMTOLJ
 70
     1
  9
$DIMTZIN
 70
     0
  9
$DIMALTZ
 70
     0
  9
$DIMALTTZ
 70
     0
  9
$DIMUPT
 70
     0
  9
$DIMDEC
 70
     4
  9
$DIMTDEC
 70
     4
  9
$DIMALTU
 70
     2
  9
$DIMALTTD
 70
     2
  9
$DIMTXSTY
  7
Standard
  9
$DIMAUNIT
 70
     0
  9
$DIMADEC
 70
     0
  9
$DIMALTRND
 40
0.0
  9
$DIMAZIN
 70
     0
  9
$DIMDSEP
 70
    46
  9
$DIMATFIT
 70
     3
  9
$DIMFRAC
 70
     0
  9
$DIMLDRBLK
  1

  9
$DIMLUNIT
 70
     2
  9
$DIMLWD
 70
    -2
  9
$DIMLWE
 70
    -2
  9
$DIMTMOVE
 70
     0
  9
$LUNITS
 70
     2
  9
$LUPREC
 70
     4
  9
$SKETCHINC
 40
0.1
  9
$FILLETRAD
 40
0.5
  9
$AUNITS
 70
     0
  9
$AUPREC
 70
     0
  9
$MENU
  1
.
  9
$ELEVATION
 40
0.0
  9
$PELEVATION
 40
0.0
  9
$THICKNESS
 40
0.0
  9
$LIMCHECK
 70
     0
  9
$CHAMFERA
 40
0.5
  9
$CHAMFERB
 40
0.5
  9
$CHAMFERC
 40
1.0
  9
$CHAMFERD
 40
0.0
  9
$SKPOLY
 70
     0
  9
$TDCREATE
 40
2458738.876397558
  9
$TDUCREATE
 40
2458738.793064225
  9
$TDUPDATE
 40
2458738.918064236
  9
$TDUUPDATE
 40
2458738.793064236
  9
$TDINDWG
 40
0.0000000116
  9
$TDUSRTIMER
 40
0.0000000116
  9
$USRTIMER
 70
     1
  9
$ANGBASE
 50
0.0
  9
$ANGDIR
 70
     0
  9
$PDMODE
 70
     0
  9
$PDSIZE
 40
0.0
  9
$PLINEWID
 40
0.0
  9
$SPLFRAME
 70
     0
  9
$SPLINETYPE
 70
     6
  9
$SPLINESEGS
 70
     8
  9
$HANDSEED
  5
31
  9
$SURFTAB1
 70
     6
  9
$SURFTAB2
 70
     6
  9
$SURFTYPE
 70
     6
  9
$SURFU
 70
     6
  9
$SURFV
 70
     6
  9
$UCSBASE
  2

  9
$UCSNAME
  2

  9
$UCSORG
 10
0.0
 20
0.0
 30
0.0
  9
$UCSXDIR
 10
1.0
 20
0.0
 30
0.0
  9
$UCSYDIR
 10
0.0
 20
1.0
 30
0.0
  9
$UCSORTHOREF
  2

  9
$UCSORTHOVIEW
 70
     0
  9
$UCSORGTOP
 10
0.0
 20
0.0
 30
0.0
  9
$UCSORGBOTTOM
 10
0.0
 20
0.0
 30
0.0
  9
$UCSORGLEFT
 10
0.0
 20
0.0
 30
0.0
  9
$UCSORGRIGHT
 10
0.0
 20
0.0
 30
0.0
  9
$UCSORGFRONT
 10
0.0
 20
0.0
 30
0.0
  9
$UCSORGBACK
 10
0.0
 20
0.0
 30
0.0
  9
$PUCSBASE
  2

  9
$PUCSNAME
  2

  9
$PUCSORG
 10
0.0
 20
0.0
 30
0.0
  9
$PUCSXDIR
 10
1.0
 20
0.0
 30
0.0
  9
$PUCSYDIR
 10
0.0
 20
1.0
 30
0.0
  9
$PUCSORTHOREF
  2

  9
$PUCSORTHOVIEW
 70
     0
  9
$PUCSORGTOP
 10
0.0
 20
0.0
 30
0.0
  9
$PUCSORGBOTTOM
 10
0.0
 20
0.0
 30
0.0
  9
$PUCSORGLEFT
 10
0.0
 20
0.0
 30
0.0
  9
$PUCSORGRIGHT
 10
0.0
 20
0.0
 30
0.0
  9
$PUCSORGFRONT
 10
0.0
 20
0.0
 30
0.0
  9
$PUCSORGBACK
 10
0.0
 20
0.0
 30
0.0
  9
$USERI1
 70
     0
  9
$USERI2
 70
     0
  9
$USERI3
 70
     0
  9
$USERI4
 70
     0
  9
$USERI5
 70
     0
  9
$USERR1
 40
0.0
  9
$USERR2
 40
0.0
  9
$USERR3
 40
0.0
  9
$USERR4
 40
0.0
  9
$USERR5
 40
0.0
  9
$WORLDVIEW
 70
     1
  9
$SHADEDGE
 70
     3
  9
$SHADEDIF
 70
    70
  9
$TILEMODE
 70
     1
  9
$MAXACTVP
 70
    64
  9
$PINSBASE
 10
0.0
 20
0.0
 30
0.0
  9
$PLIMCHECK
 70
     0
  9
$PEXTMIN
 10
1.000000000000000E+20
 20
1.000000000000000E+20
 30
1.000000000000000E+20
  9
$PEXTMAX
 10
-1.000000000000000E+20
 20
-1.000000000000000E+20
 30
-1.000000000000000E+20
  9
$PLIMMIN
 10
0.0
 20
0.0
  9
$PLIMMAX
 10
12.0
 20
9.0
  9
$UNITMODE
 70
     0
  9
$VISRETAIN
 70
     1
  9
$PLINEGEN
 70
     0
  9
$PSLTSCALE
 70
     1
  9
$TREEDEPTH
 70
  3020
  9
$CMLSTYLE
  2
Standard
  9
$CMLJUST
 70
     0
  9
$CMLSCALE
 40
1.0
  9
$PROXYGRAPHICS
 70
     1
  9
$MEASUREMENT
 70
     0
  9
$CELWEIGHT
370
    -1
  9
$ENDCAPS
280
     0
  9
$JOINSTYLE
280
     0
  9
$LWDISPLAY
290
     0
  9
$INSUNITS
 70
     1
  9
$HYPERLINKBASE
  1

  9
$STYLESHEET
  1

  9
$XEDIT
290
     1
  9
$CEPSNTYPE
380
     0
  9
$PSTYLEMODE
290
     0
  9
$FINGERPRINTGUID
  2
{FAEB1C30-E019-11D5-929B-00C0DF256EC4}
  9
$VERSIONGUID
  2
{FAEB1C32-E019-11D5-929B-00C0DF256EC4}
  9
$EXTNAMES
290
     1
  9
$PSVPSCALE
 40
0.0
  9
$OLESTARTUP
290
     0
  9
$SORTENTS
280
   127
  9
$INDEXCTL
280
     0
  9
$HIDETEXT
280
     1
  9
$XCLIPFRAME
290
     0
  9
$HALOGAP
280
     0
  9
$OBSCOLOR
 70
   257
  9
$OBSLTYPE
280
     0
  9
$INTERSECTIONDISPLAY
280
     0
  9
$INTERSECTIONCOLOR
 70
   257
  9
$DIMASSOC
280
     2
  9
$PROJECTNAME
  1

  0
ENDSEC
  0
SECTION
  2
CLASSES
  0
CLASS
  1
ACDBDICTIONARYWDFLT
  2
AcDbDictionaryWithDefault
  3
ObjectDBX Classes
 90
        0
 91
        1
280
     0
281
     0
  0
ENDSEC
  0
SECTION
  2
TABLES
  0
TABLE
  2
VPORT
  5
8
330
0
100
AcDbSymbolTable
 70
     2
  0
VPORT
  5
29
330
8
100
AcDbSymbolTableRecord
100
AcDbViewportTableRecord
  2
*Active
 70
     0
 10
0.0
 20
0.0
 11
1.0
 21
1.0
 12
10.42990654205607
 22
4.5
 13
0.0
 23
0.0
 14
0.5
 24
0.5
 15
0.5
 25
0.5
 16
0.0
 26
0.0
 36
1.0
 17
0.0
 27
0.0
 37
0.0
 40
9.0
 41
1.972972972850329
 42
50.0
 43
0.0
 44
0.0
 50
0.0
 51
0.0
 71
     0
 72
   100
 73
     1
 74
     3
 75
     0
 76
     0
 77
     0
 78
     0
281
     0
 65
     1
110
0.0
120
0.0
130
0.0
111
1.0
121
0.0
131
0.0
112
0.0
122
1.0
132
0.0
 79
     0
146
0.0
  0
ENDTAB
  0
TABLE
  2
LTYPE
  5
5
330
0
100
AcDbSymbolTable
 70
     1
  0
LTYPE
  5
14
330
5
100
AcDbSymbolTableRecord
100
AcDbLinetypeTableRecord
  2
ByBlock
 70
     0
  3

 72
    65
 73
     0
 40
0.0
  0
LTYPE
  5
15
330
5
100
AcDbSymbolTableRecord
100
AcDbLinetypeTableRecord
  2
ByLayer
 70
     0
  3

 72
    65
 73
     0
 40
0.0
  0
LTYPE
  5
16
330
5
100
AcDbSymbolTableRecord
100
AcDbLinetypeTableRecord
  2
Continuous
 70
     0
  3
Solid line
 72
    65
 73
     0
 40
0.0
  0
ENDTAB
  0
TABLE
  2
LAYER
  5
2
330
0
100
AcDbSymbolTable
 70
     2
  0
LAYER
  5
10
330
2
100
AcDbSymbolTableRecord
100
AcDbLayerTableRecord
  2
0
 70
     0
 62
     7
  6
Continuous
370
    -3
390
F
  0
LAYER
  5
2B
330
2
100
AcDbSymbolTableRecord
100
AcDbLayerTableRecord
  2
Layer 1
 70
     0
 62
     7
  6
Continuous
370
    -3
390
F
  0
ENDTAB
  0
TABLE
  2
STYLE
  5
3
330
0
100
AcDbSymbolTable
 70
     1
  0
STYLE
  5
11
330
3
100
AcDbSymbolTableRecord
100
AcDbTextStyleTableRecord
  2
Standard
 70
     0
 40
0.0
 41
1.0
 50
0.0
 71
     0
 42
0.2
  3
txt
  4

  0
ENDTAB
  0
TABLE
  2
VIEW
  5
6
330
0
100
AcDbSymbolTable
 70
     0
  0
ENDTAB
  0
TABLE
  2
UCS
  5
7
330
0
100
AcDbSymbolTable
 70
     0
  0
ENDTAB
  0
TABLE
  2
APPID
  5
9
330
0
100
AcDbSymbolTable
 70
     2
  0
APPID
  5
12
330
9
100
AcDbSymbolTableRecord
100
AcDbRegAppTableRecord
  2
ACAD
 70
     0
  0
APPID
  5
2A
330
9
100
AcDbSymbolTableRecord
100
AcDbRegAppTableRecord
  2
ODA
 70
     0
  0
ENDTAB
  0
TABLE
  2
DIMSTYLE
  5
A
330
0
100
AcDbSymbolTable
 70
     1
100
AcDbDimStyleTable
  0
DIMSTYLE
105
27
330
A
100
AcDbSymbolTableRecord
100
AcDbDimStyleTableRecord
  2
Standard
 70
     0
340
11
  0
ENDTAB
  0
TABLE
  2
BLOCK_RECORD
  5
1
330
0
100
AcDbSymbolTable
 70
     1
  0
BLOCK_RECORD
  5
1F
330
1
100
AcDbSymbolTableRecord
100
AcDbBlockTableRecord
  2
*Model_Space
340
22
  0
BLOCK_RECORD
  5
1B
330
1
100
AcDbSymbolTableRecord
100
AcDbBlockTableRecord
  2
*Paper_Space
340
1E
  0
BLOCK_RECORD
  5
23
330
1
100
AcDbSymbolTableRecord
100
AcDbBlockTableRecord
  2
*Paper_Space0
340
26
  0
ENDTAB
  0
ENDSEC
  0
SECTION
  2
BLOCKS
  0
BLOCK
  5
20
330
1F
100
AcDbEntity
  8
0
100
AcDbBlockBegin
  2
*Model_Space
 70
     0
 71
     0
 10
0.0
 20
0.0
 30
0.0
  3
*Model_Space
  1

  0
ENDBLK
  5
21
330
1F
100
AcDbEntity
  8
0
100
AcDbBlockEnd
  0
BLOCK
  5
1C
330
1B
100
AcDbEntity
 67
     1
  8
0
100
AcDbBlockBegin
  2
*Paper_Space
 70
     0
 71
     0
 10
0.0
 20
0.0
 30
0.0
  3
*Paper_Space
  1

  0
ENDBLK
  5
1D
330
1B
100
AcDbEntity
 67
     1
  8
0
100
AcDbBlockEnd
  0
BLOCK
  5
24
330
23
100
AcDbEntity
  8
0
100
AcDbBlockBegin
  2
*Paper_Space0
 70
     0
 71
     0
 10
0.0
 20
0.0
 30
0.0
  3
*Paper_Space0
  1

  0
ENDBLK
  5
25
330
23
100
AcDbEntity
  8
0
100
AcDbBlockEnd
  0
ENDSEC
  0
SECTION
  2
ENTITIES
  0
SPLINE
  5
2C
330
1F
100
AcDbEntity
  8
Layer 1
 62
    30
100
AcDbSpline
210
0.0
220
0.0
230
1.0
 70
    11
 71
     3
 72
   136
 73
   132
 74
     0
 42
0.0000000001
 43
0.0000000001
 40
0.0
 40
0.0
 40
0.0
 40
0.0
 40
0.0303030303030303
 40
0.0303030303030303
 40
0.0303030303030303
 40
0.0303030303030303
 40
0.0606060606060606
 40
0.0606060606060606
 40
0.0606060606060606
 40
0.0606060606060606
 40
0.0909090909090909
 40
0.0909090909090909
 40
0.0909090909090909
 40
0.0909090909090909
 40
0.1212121212121212
 40
0.1212121212121212
 40
0.1212121212121212
 40
0.1212121212121212
 40
0.1515151515151515
 40
0.1515151515151515
 40
0.1515151515151515
 40
0.1515151515151515
 40
0.1818181818181818
 40
0.1818181818181818
 40
0.1818181818181818
 40
0.1818181818181818
 40
0.2121212121212121
 40
0.2121212121212121
 40
0.2121212121212121
 40
0.2121212121212121
 40
0.2424242424242424
 40
0.2424242424242424
 40
0.2424242424242424
 40
0.2424242424242424
 40
0.2727272727272727
 40
0.2727272727272727
 40
0.2727272727272727
 40
0.2727272727272727
 40
0.303030303030303
 40
0.303030303030303
 40
0.303030303030303
 40
0.303030303030303
 40
0.3333333333333333
 40
0.3333333333333333
 40
0.3333333333333333
 40
0.3333333333333333
 40
0.3636363636363635
 40
0.3636363636363635
 40
0.3636363636363635
 40
0.3636363636363635
 40
0.3939393939393938
 40
0.3939393939393938
 40
0.3939393939393938
 40
0.3939393939393938
 40
0.4242424242424241
 40
0.4242424242424241
 40
0.4242424242424241
 40
0.4242424242424241
 40
0.4545454545454544
 40
0.4545454545454544
 40
0.4545454545454544
 40
0.4545454545454544
 40
0.4848484848484846
 40
0.4848484848484846
 40
0.4848484848484846
 40
0.4848484848484846
 40
0.5151515151515149
 40
0.5151515151515149
 40
0.5151515151515149
 40
0.5151515151515149
 40
0.5454545454545452
 40
0.5454545454545452
 40
0.5454545454545452
 40
0.5454545454545452
 40
0.5757575757575755
 40
0.5757575757575755
 40
0.5757575757575755
 40
0.5757575757575755
 40
0.6060606060606057
 40
0.6060606060606057
 40
0.6060606060606057
 40
0.6060606060606057
 40
0.636363636363636
 40
0.636363636363636
 40
0.636363636363636
 40
0.636363636363636
 40
0.6666666666666663
 40
0.6666666666666663
 40
0.6666666666666663
 40
0.6666666666666663
 40
0.6969696969696966
 40
0.6969696969696966
 40
0.6969696969696966
 40
0.6969696969696966
 40
0.7272727272727269
 40
0.7272727272727269
 40
0.7272727272727269
 40
0.7272727272727269
 40
0.7575757575757571
 40
0.7575757575757571
 40
0.7575757575757571
 40
0.7575757575757571
 40
0.7878787878787874
 40
0.7878787878787874
 40
0.7878787878787874
 40
0.7878787878787874
 40
0.8181818181818177
 40
0.8181818181818177
 40
0.8181818181818177
 40
0.8181818181818177
 40
0.848484848484848
 40
0.848484848484848
 40
0.848484848484848
 40
0.848484848484848
 40
0.8787878787878782
 40
0.8787878787878782
 40
0.8787878787878782
 40
0.8787878787878782
 40
0.9090909090909085
 40
0.9090909090909085
 40
0.9090909090909085
 40
0.9090909090909085
 40
0.9393939393939388
 40
0.9393939393939388
 40
0.9393939393939388
 40
0.9393939393939388
 40
0.9696969696969691
 40
0.9696969696969691
 40
0.9696969696969691
 40
0.9696969696969691
 40
1.0
 40
1.0
 40
1.0
 40
1.0
 10
-29.7326062992126
 20
0.5844291338582678
 30
0.0
 10
-28.76086220472441
 20
0.1348858267716536
 30
0.0
 10
-28.2510905511811
 20
0.3578149606299213
 30
0.0
 10
-27.48653543307087
 20
0.5844015748031496
 30
0.0
 10
-27.48653543307087
 20
0.5844015748031496
 30
0.0
 10
-27.27068503937008
 20
0.6483661417322835
 30
0.0
 10
-27.00116141732284
 20
0.6390866141732283
 30
0.0
 10
-26.80223622047244
 20
0.5434566929133858
 30
0.0
 10
-26.80223622047244
 20
0.5434566929133858
 30
0.0
 10
-25.85409448818898
 20
0.0876338582677165
 30
0.0
 10
-25.02760236220473
 20
-0.2083543307086614
 30
0.0
 10
-23.89188188976378
 20
0.3170472440944882
 30
0.0
 10
-23.89188188976378
 20
0.3170472440944882
 30
0.0
 10
-22.75614960629921
 20
0.8424724409448819
 30
0.0
 10
-22.12921653543307
 20
2.557834645669292
 30
0.0
 10
-23.00077559055118
 20
3.912224409448819
 30
0.0
 10
-23.00077559055118
 20
3.912224409448819
 30
0.0
 10
-23.82978740157481
 20
5.20048031496063
 30
0.0
 10
-25.17059842519685
 20
5.57686220472441
 30
0.0
 10
-26.59524015748032
 20
5.329685039370079
 30
0.0
 10
-26.59524015748032
 20
5.329685039370079
 30
0.0
 10
-26.73364566929134
 20
5.621220472440945
 30
0.0
 10
-26.8677125984252
 20
5.91951968503937
 30
0.0
 10
-26.84599212598425
 20
6.23634251968504
 30
0.0
 10
-26.84599212598425
 20
6.23634251968504
 30
0.0
 10
-26.29426771653543
 20
6.170492125984252
 30
0.0
 10
-25.14850393700787
 20
6.929736220472441
 30
0.0
 10
-25.53555511811024
 20
7.567440944881891
 30
0.0
 10
-25.53555511811024
 20
7.567440944881891
 30
0.0
 10
-25.59467716535433
 20
7.664877952755906
 30
0.0
 10
-25.72026377952756
 20
7.733354330708662
 30
0.0
 10
-25.96938188976378
 20
7.733354330708662
 30
0.0
 10
-25.96938188976378
 20
7.733354330708662
 30
0.0
 10
-26.49455905511811
 20
7.733354330708662
 30
0.0
 10
-26.94829527559055
 20
7.03851968503937
 30
0.0
 10
-27.08862598425197
 20
6.40346062992126
 30
0.0
 10
-27.08862598425197
 20
6.40346062992126
 30
0.0
 10
-27.17811417322835
 20
6.40882283464567
 30
0.0
 10
-27.21138976377953
 20
6.409972440944882
 30
0.0
 10
-27.28684645669291
 20
6.447677165354331
 30
0.0
 10
-27.28684645669291
 20
6.447677165354331
 30
0.0
 10
-27.34081496062992
 20
6.474665354330709
 30
0.0
 10
-27.40349212598425
 20
6.514173228346457
 30
0.0
 10
-27.46994094488189
 20
6.560468503937008
 30
0.0
 10
-27.46994094488189
 20
6.560468503937008
 30
0.0
 10
-27.46994094488189
 20
6.560468503937008
 30
0.0
 10
-27.41016535433071
 20
6.872279527559056
 30
0.0
 10
-27.41016535433071
 20
6.872279527559056
 30
0.0
 10
-27.41016535433071
 20
6.872279527559056
 30
0.0
 10
-27.40115748031496
 20
6.919318897637796
 30
0.0
 10
-27.35801181102362
 20
6.982641732283465
 30
0.0
 10
-27.29162598425197
 20
7.133803149606299
 30
0.0
 10
-27.29162598425197
 20
7.133803149606299
 30
0.0
 10
-27.11942913385827
 20
7.525933070866142
 30
0.0
 10
-27.34235039370079
 20
7.820051181102363
 30
0.0
 10
-27.46570866141732
 20
7.975818897637796
 30
0.0
 10
-27.46570866141732
 20
7.975818897637796
 30
0.0
 10
-27.50037007874016
 20
8.019570866141732
 30
0.0
 10
-27.85431496062992
 20
8.236437007874017
 30
0.0
 10
-27.76882283464567
 20
8.12294094488189
 30
0.0
 10
-27.76882283464567
 20
8.12294094488189
 30
0.0
 10
-27.61822047244095
 20
7.922791338582678
 30
0.0
 10
-27.73428346456693
 20
7.798074803149607
 30
0.0
 10
-27.85092125984252
 20
7.630413385826772
 30
0.0
 10
-27.85092125984252
 20
7.630413385826772
 30
0.0
 10
-27.87320078740158
 20
7.598385826771654
 30
0.0
 10
-27.79375196850394
 20
8.104389763779528
 30
0.0
 10
-28.07183070866142
 20
8.170677165354331
 30
0.0
 10
-28.07183070866142
 20
8.170677165354331
 30
0.0
 10
-28.20417322834646
 20
8.202208661417323
 30
0.0
 10
-28.28296062992126
 20
8.21478346456693
 30
0.0
 10
-28.41612992125985
 20
8.178007874015748
 30
0.0
 10
-28.41612992125985
 20
8.178007874015748
 30
0.0
 10
-28.36866535433071
 20
8.133716535433072
 30
0.0
 10
-28.2829094488189
 20
7.786362204724409
 30
0.0
 10
-28.35313385826772
 20
7.707559055118111
 30
0.0
 10
-28.35313385826772
 20
7.707559055118111
 30
0.0
 10
-28.37295275590551
 20
7.698547244094488
 30
0.0
 10
-28.44338188976378
 20
7.833594488188977
 30
0.0
 10
-28.59607874015748
 20
7.903157480314961
 30
0.0
 10
-28.59607874015748
 20
7.903157480314961
 30
0.0
 10
-28.92520866141732
 20
8.053110236220473
 30
0.0
 10
-29.46401968503937
 20
8.217307086614174
 30
0.0
 10
-29.48626771653543
 20
8.220409448818899
 30
0.0
 10
-29.48626771653543
 20
8.220409448818899
 30
0.0
 10
-29.54773228346457
 20
6.861468503937008
 30
0.0
 10
-28.95473622047244
 20
7.344472440944882
 30
0.0
 10
-28.69277952755906
 20
7.177870078740158
 30
0.0
 10
-28.69277952755906
 20
7.177870078740158
 30
0.0
 10
-28.73023622047244
 20
7.060854330708661
 30
0.0
 10
-28.9258188976378
 20
7.055846456692914
 30
0.0
 10
-28.97374409448819
 20
7.027984251968504
 30
0.0
 10
-28.97374409448819
 20
7.027984251968504
 30
0.0
 10
-29.06378346456693
 20
6.975606299212599
 30
0.0
 10
-29.08107480314961
 20
6.962598425196851
 30
0.0
 10
-29.27995669291339
 20
6.79294094488189
 30
0.0
 10
-29.27995669291339
 20
6.79294094488189
 30
0.0
 10
-28.93649606299213
 20
6.454637795275591
 30
0.0
 10
-28.48430708661417
 20
6.756051181102363
 30
0.0
 10
-28.41345275590551
 20
6.714692913385827
 30
0.0
 10
-28.41345275590551
 20
6.714692913385827
 30
0.0
 10
-28.33937007874016
 20
6.671452755905512
 30
0.0
 10
-28.96738976377953
 20
6.278826771653543
 30
0.0
 10
-29.00714173228347
 20
6.186366141732283
 30
0.0
 10
-29.00714173228347
 20
6.186366141732283
 30
0.0
 10
-28.29941338582677
 20
5.829661417322835
 30
0.0
 10
-28.0293188976378
 20
6.142452755905512
 30
0.0
 10
-27.62535433070866
 20
6.384838582677165
 30
0.0
 10
-27.62535433070866
 20
6.384838582677165
 30
0.0
 10
-27.59822047244095
 20
6.370570866141732
 30
0.0
 10
-27.57142913385827
 20
6.357425196850394
 30
0.0
 10
-27.54516141732283
 20
6.345732283464567
 30
0.0
 10
-27.54516141732283
 20
6.345732283464567
 30
0.0
 10
-27.43138188976378
 20
6.295023622047244
 30
0.0
 10
-27.27947637795276
 20
6.277874015748032
 30
0.0
 10
-27.13857480314961
 20
6.240366141732284
 30
0.0
 10
-27.13857480314961
 20
6.240366141732284
 30
0.0
 10
-27.15747637795276
 20
5.773547244094488
 30
0.0
 10
-27.15653937007874
 20
5.853000000000001
 30
0.0
 10
-27.09324015748032
 20
5.250291338582677
 30
0.0
 10
-27.09324015748032
 20
5.250291338582677
 30
0.0
 10
-27.22815748031496
 20
5.232704724409449
 30
0.0
 10
-27.27196850393701
 20
5.237153543307087
 30
0.0
 10
-27.46855118110236
 20
5.270814960629921
 30
0.0
 10
-27.46855118110236
 20
5.270814960629921
 30
0.0
 10
-28.60051181102362
 20
5.464633858267717
 30
0.0
 10
-29.87850787401575
 20
4.918897637795276
 30
0.0
 10
-30.5487874015748
 20
3.877267716535433
 30
0.0
 10
-30.5487874015748
 20
3.877267716535433
 30
0.0
 10
-31.34702362204725
 20
2.636767716535433
 30
0.0
 10
-30.70434645669291
 20
1.033964566929134
 30
0.0
 10
-29.7326062992126
 20
0.5844291338582678
 30
0.0
  0
SPLINE
  5
2D
330
1F
100
AcDbEntity
  8
Layer 1
 62
    30
100
AcDbSpline
210
0.0
220
0.0
230
1.0
 70
    11
 71
     3
 72
    60
 73
    56
 74
     0
 42
0.0000000001
 43
0.0000000001
 40
0.0
 40
0.0
 40
0.0
 40
0.0
 40
0.0714285714285714
 40
0.0714285714285714
 40
0.0714285714285714
 40
0.0714285714285714
 40
0.1428571428571429
 40
0.1428571428571429
 40
0.1428571428571429
 40
0.1428571428571429
 40
0.2142857142857143
 40
0.2142857142857143
 40
0.2142857142857143
 40
0.2142857142857143
 40
0.2857142857142857
 40
0.2857142857142857
 40
0.2857142857142857
 40
0.2857142857142857
 40
0.3571428571428571
 40
0.3571428571428571
 40
0.3571428571428571
 40
0.3571428571428571
 40
0.4285714285714285
 40
0.4285714285714285
 40
0.4285714285714285
 40
0.4285714285714285
 40
0.4999999999999999
 40
0.4999999999999999
 40
0.4999999999999999
 40
0.4999999999999999
 40
0.5714285714285713
 40
0.5714285714285713
 40
0.5714285714285713
 40
0.5714285714285713
 40
0.6428571428571427
 40
0.6428571428571427
 40
0.6428571428571427
 40
0.6428571428571427
 40
0.7142857142857141
 40
0.7142857142857141
 40
0.7142857142857141
 40
0.7142857142857141
 40
0.7857142857142855
 40
0.7857142857142855
 40
0.7857142857142855
 40
0.7857142857142855
 40
0.8571428571428569
 40
0.8571428571428569
 40
0.8571428571428569
 40
0.8571428571428569
 40
0.9285714285714283
 40
0.9285714285714283
 40
0.9285714285714283
 40
0.9285714285714283
 40
1.0
 40
1.0
 40
1.0
 40
1.0
 10
-27.50678346456693
 20
2.061673228346457
 30
0.0
 10
-27.50678346456693
 20
2.061673228346457
 30
0.0
 10
-27.50678346456693
 20
1.893188976377953
 30
0.0
 10
-27.50678346456693
 20
1.893188976377953
 30
0.0
 10
-27.50678346456693
 20
1.893188976377953
 30
0.0
 10
-27.50678346456693
 20
1.839775590551181
 30
0.0
 10
-27.55049212598425
 20
1.796062992125984
 30
0.0
 10
-27.6039094488189
 20
1.796062992125984
 30
0.0
 10
-27.6039094488189
 20
1.796062992125984
 30
0.0
 10
-27.6039094488189
 20
1.796062992125984
 30
0.0
 10
-27.6039094488189
 20
1.796062992125984
 30
0.0
 10
-27.6039094488189
 20
1.796062992125984
 30
0.0
 10
-27.6039094488189
 20
1.796062992125984
 30
0.0
 10
-27.65733070866142
 20
1.796062992125984
 30
0.0
 10
-27.70103543307087
 20
1.839775590551181
 30
0.0
 10
-27.70103543307087
 20
1.893188976377953
 30
0.0
 10
-27.70103543307087
 20
1.893188976377953
 30
0.0
 10
-27.70103543307087
 20
1.893188976377953
 30
0.0
 10
-27.70103543307087
 20
2.081236220472441
 30
0.0
 10
-27.70103543307087
 20
2.081236220472441
 30
0.0
 10
-27.70103543307087
 20
2.081236220472441
 30
0.0
 10
-27.87288188976378
 20
2.100897637795276
 30
0.0
 10
-28.04471653543307
 20
2.126775590551181
 30
0.0
 10
-28.21657086614173
 20
2.158846456692913
 30
0.0
 10
-28.21657086614173
 20
2.158846456692913
 30
0.0
 10
-28.06224409448819
 20
1.127771653543307
 30
0.0
 10
-25.8187283464567
 20
1.248704724409449
 30
0.0
 10
-25.65801181102362
 20
2.139751968503937
 30
0.0
 10
-25.65801181102362
 20
2.139751968503937
 30
0.0
 10
-25.98244094488189
 20
2.084070866141732
 30
0.0
 10
-26.30686220472441
 20
2.050484251968504
 30
0.0
 10
-26.63129921259842
 20
2.039015748031496
 30
0.0
 10
-26.63129921259842
 20
2.039015748031496
 30
0.0
 10
-26.63129921259842
 20
2.039015748031496
 30
0.0
 10
-26.7026220472441
 20
1.771413385826772
 30
0.0
 10
-26.7026220472441
 20
1.771413385826772
 30
0.0
 10
-26.7026220472441
 20
1.771413385826772
 30
0.0
 10
-26.71788188976378
 20
1.714169291338583
 30
0.0
 10
-26.77719291338583
 20
1.679814960629921
 30
0.0
 10
-26.83445669291339
 20
1.695074803149606
 30
0.0
 10
-26.83445669291339
 20
1.695074803149606
 30
0.0
 10
-26.83445669291339
 20
1.695074803149606
 30
0.0
 10
-26.83445669291339
 20
1.695074803149606
 30
0.0
 10
-26.83445669291339
 20
1.695074803149606
 30
0.0
 10
-26.83445669291339
 20
1.695074803149606
 30
0.0
 10
-26.89171653543307
 20
1.710322834645669
 30
0.0
 10
-26.92605905511811
 20
1.769649606299213
 30
0.0
 10
-26.91079527559055
 20
1.826917322834646
 30
0.0
 10
-26.91079527559055
 20
1.826917322834646
 30
0.0
 10
-26.91079527559055
 20
1.826917322834646
 30
0.0
 10
-26.85544094488189
 20
2.034574803149607
 30
0.0
 10
-26.85544094488189
 20
2.034574803149607
 30
0.0
 10
-26.85544094488189
 20
2.034574803149607
 30
0.0
 10
-27.07255905511811
 20
2.033696850393701
 30
0.0
 10
-27.28967322834646
 20
2.042740157480315
 30
0.0
 10
-27.50678346456693
 20
2.061673228346457
 30
0.0
  0
SPLINE
  5
2E
330
1F
100
AcDbEntity
  8
Layer 1
 62
    30
100
AcDbSpline
210
0.0
220
0.0
230
1.0
 70
    11
 71
     3
 72
    12
 73
     8
 74
     0
 42
0.0000000001
 43
0.0000000001
 40
0.0
 40
0.0
 40
0.0
 40
0.0
 40
0.5
 40
0.5
 40
0.5
 40
0.5
 40
1.0
 40
1.0
 40
1.0
 40
1.0
 10
-26.83920472440945
 20
6.420066929133858
 30
0.0
 10
-26.75477952755906
 20
6.88492125984252
 30
0.0
 10
-26.10162992125984
 20
7.724318897637795
 30
0.0
 10
-25.78116141732284
 20
7.343952755905512
 30
0.0
 10
-25.78116141732284
 20
7.343952755905512
 30
0.0
 10
-25.48796456692914
 20
6.995929133858268
 30
0.0
 10
-26.31396062992126
 20
6.47496062992126
 30
0.0
 10
-26.83920472440945
 20
6.420066929133858
 30
0.0
  0
SPLINE
  5
2F
330
1F
100
AcDbEntity
  8
Layer 1
 62
    30
100
AcDbSpline
210
0.0
220
0.0
230
1.0
 70
    11
 71
     3
 72
    28
 73
    24
 74
     0
 42
0.0000000001
 43
0.0000000001
 40
0.0
 40
0.0
 40
0.0
 40
0.0
 40
0.1666666666666667
 40
0.1666666666666667
 40
0.1666666666666667
 40
0.1666666666666667
 40
0.3333333333333333
 40
0.3333333333333333
 40
0.3333333333333333
 40
0.3333333333333333
 40
0.5
 40
0.5
 40
0.5
 40
0.5
 40
0.6666666666666666
 40
0.6666666666666666
 40
0.6666666666666666
 40
0.6666666666666666
 40
0.8333333333333333
 40
0.8333333333333333
 40
0.8333333333333333
 40
0.8333333333333333
 40
1.0
 40
1.0
 40
1.0
 40
1.0
 10
-28.50444094488189
 20
3.985984251968504
 30
0.0
 10
-28.65298818897638
 20
4.244448818897638
 30
0.0
 10
-28.97580708661418
 20
4.267716535433071
 30
0.0
 10
-29.21677952755906
 20
4.165173228346457
 30
0.0
 10
-29.21677952755906
 20
4.165173228346457
 30
0.0
 10
-29.38448818897638
 20
4.093858267716535
 30
0.0
 10
-29.43018110236221
 20
3.774448818897638
 30
0.0
 10
-29.32110236220473
 20
3.628492125984252
 30
0.0
 10
-29.32110236220473
 20
3.628492125984252
 30
0.0
 10
-29.10559842519685
 20
3.340062992125985
 30
0.0
 10
-28.62241338582677
 20
3.157578740157481
 30
0.0
 10
-28.3145157480315
 20
2.970948818897638
 30
0.0
 10
-28.3145157480315
 20
2.970948818897638
 30
0.0
 10
-28.0677125984252
 20
3.273937007874016
 30
0.0
 10
-27.77572047244095
 20
3.605200787401575
 30
0.0
 10
-27.65700393700788
 20
3.977527559055119
 30
0.0
 10
-27.65700393700788
 20
3.977527559055119
 30
0.0
 10
-27.59696850393701
 20
4.165795275590551
 30
0.0
 10
-27.74425984251969
 20
4.491984251968504
 30
0.0
 10
-27.94176771653543
 20
4.497468503937008
 30
0.0
 10
-27.94176771653543
 20
4.497468503937008
 30
0.0
 10
-28.17852755905512
 20
4.504074803149607
 30
0.0
 10
-28.47815748031496
 20
4.333196850393701
 30
0.0
 10
-28.50444094488189
 20
3.985984251968504
 30
0.0
  0
SPLINE
  5
30
330
1F
100
AcDbEntity
  8
Layer 1
 62
    30
100
AcDbSpline
210
0.0
220
0.0
230
1.0
 70
    11
 71
     3
 72
    28
 73
    24
 74
     0
 42
0.0000000001
 43
0.0000000001
 40
0.0
 40
0.0
 40
0.0
 40
0.0
 40
0.1666666666666667
 40
0.1666666666666667
 40
0.1666666666666667
 40
0.1666666666666667
 40
0.3333333333333333
 40
0.3333333333333333
 40
0.3333333333333333
 40
0.3333333333333333
 40
0.5
 40
0.5
 40
0.5
 40
0.5
 40
0.6666666666666666
 40
0.6666666666666666
 40
0.6666666666666666
 40
0.6666666666666666
 40
0.8333333333333333
 40
0.8333333333333333
 40
0.8333333333333333
 40
0.8333333333333333
 40
1.0
 40
1.0
 40
1.0
 40
1.0
 10
-26.17073622047244
 20
4.081452755905512
 30
0.0
 10
-26.02216535433071
 20
4.339921259842519
 30
0.0
 10
-25.69934251968504
 20
4.363188976377953
 30
0.0
 10
-25.45836614173228
 20
4.260661417322835
 30
0.0
 10
-25.45836614173228
 20
4.260661417322835
 30
0.0
 10
-25.29067716535433
 20
4.189314960629922
 30
0.0
 10
-25.24499212598425
 20
3.869929133858268
 30
0.0
 10
-25.35406299212599
 20
3.723937007874016
 30
0.0
 10
-25.35406299212599
 20
3.723937007874016
 30
0.0
 10
-25.56955511811024
 20
3.435527559055118
 30
0.0
 10
-26.05275590551181
 20
3.253051181102362
 30
0.0
 10
-26.36064566929134
 20
3.066425196850394
 30
0.0
 10
-26.36064566929134
 20
3.066425196850394
 30
0.0
 10
-26.60744488188977
 20
3.369409448818898
 30
0.0
 10
-26.89944094488189
 20
3.700685039370079
 30
0.0
 10
-27.01816141732284
 20
4.073
 30
0.0
 10
-27.01816141732284
 20
4.073
 30
0.0
 10
-27.07820078740158
 20
4.261251968503937
 30
0.0
 10
-26.93091338582677
 20
4.587448818897638
 30
0.0
 10
-26.7333937007874
 20
4.592952755905512
 30
0.0
 10
-26.7333937007874
 20
4.592952755905512
 30
0.0
 10
-26.49662992125984
 20
4.599547244094488
 30
0.0
 10
-26.197
 20
4.428661417322835
 30
0.0
 10
-26.17073622047244
 20
4.081452755905512
 30
0.0
  0
ENDSEC
  0
SECTION
  2
OBJECTS
  0
DICTIONARY
  5
C
330
0
100
AcDbDictionary
281
     1
  3
ACAD_GROUP
350
D
  3
ACAD_LAYOUT
350
1A
  3
ACAD_MLINESTYLE
350
17
  3
ACAD_PLOTSETTINGS
350
19
  3
ACAD_PLOTSTYLENAME
350
E
  0
DICTIONARY
  5
D
102
{ACAD_REACTORS
330
C
102
}
330
C
100
AcDbDictionary
281
     1
  0
DICTIONARY
  5
1A
102
{ACAD_REACTORS
330
C
102
}
330
C
100
AcDbDictionary
281
     1
  3
Layout1
350
1E
  3
Layout2
350
26
  3
Model
350
22
  0
DICTIONARY
  5
17
102
{ACAD_REACTORS
330
C
102
}
330
C
100
AcDbDictionary
281
     1
  3
Standard
350
18
  0
DICTIONARY
  5
19
102
{ACAD_REACTORS
330
C
102
}
330
C
100
AcDbDictionary
281
     1
  0
ACDBDICTIONARYWDFLT
  5
E
102
{ACAD_REACTORS
330
C
102
}
330
C
100
AcDbDictionary
281
     1
  3
Normal
350
F
100
AcDbDictionaryWithDefault
340
F
  0
LAYOUT
  5
1E
102
{ACAD_REACTORS
330
1A
102
}
330
1A
100
AcDbPlotSettings
  1

  2

  4

  6

 40
0.0
 41
0.0
 42
0.0
 43
0.0
 44
0.0
 45
0.0
 46
0.0
 47
0.0
 48
0.0
 49
0.0
140
0.0
141
0.0
142
1.0
143
1.0
 70
   688
 72
     0
 73
     0
 74
     5
  7

 75
    16
 76
     0
 77
     2
 78
   300
147
1.0
148
0.0
149
0.0
100
AcDbLayout
  1
Layout1
 70
     1
 71
     1
 10
0.0
 20
0.0
 11
12.0
 21
9.0
 12
0.0
 22
0.0
 32
0.0
 14
1.000000000000000E+20
 24
1.000000000000000E+20
 34
1.000000000000000E+20
 15
-1.000000000000000E+20
 25
-1.000000000000000E+20
 35
-1.000000000000000E+20
146
0.0
 13
0.0
 23
0.0
 33
0.0
 16
1.0
 26
0.0
 36
0.0
 17
0.0
 27
1.0
 37
0.0
 76
     0
330
1B
  0
LAYOUT
  5
26
102
{ACAD_REACTORS
330
1A
102
}
330
1A
100
AcDbPlotSettings
  1

  2

  4

  6

 40
0.0
 41
0.0
 42
0.0
 43
0.0
 44
0.0
 45
0.0
 46
0.0
 47
0.0
 48
0.0
 49
0.0
140
0.0
141
0.0
142
1.0
143
1.0
 70
   688
 72
     0
 73
     0
 74
     5
  7

 75
    16
 76
     0
 77
     2
 78
   300
147
1.0
148
0.0
149
0.0
100
AcDbLayout
  1
Layout2
 70
     1
 71
     2
 10
0.0
 20
0.0
 11
0.0
 21
0.0
 12
0.0
 22
0.0
 32
0.0
 14
0.0
 24
0.0
 34
0.0
 15
0.0
 25
0.0
 35
0.0
146
0.0
 13
0.0
 23
0.0
 33
0.0
 16
1.0
 26
0.0
 36
0.0
 17
0.0
 27
1.0
 37
0.0
 76
     0
330
23
  0
LAYOUT
  5
22
102
{ACAD_REACTORS
330
1A
102
}
330
1A
100
AcDbPlotSettings
  1

  2

  4

  6

 40
0.0
 41
0.0
 42
0.0
 43
0.0
 44
0.0
 45
0.0
 46
0.0
 47
0.0
 48
0.0
 49
0.0
140
0.0
141
0.0
142
1.0
143
1.0
 70
  1712
 72
     0
 73
     0
 74
     0
  7

 75
     0
 76
     0
 77
     2
 78
   300
147
1.0
148
0.0
149
0.0
100
AcDbLayout
  1
Model
 70
     1
 71
     0
 10
0.0
 20
0.0
 11
0.0
 21
0.0
 12
0.0
 22
0.0
 32
0.0
 14
-30.90892519685039
 24
0.0376141732283465
 34
0.0
 15
-22.59249212598425
 25
8.220409448818897
 35
0.0
146
0.0
 13
0.0
 23
0.0
 33
0.0
 16
1.0
 26
0.0
 36
0.0
 17
0.0
 27
1.0
 37
0.0
 76
     0
330
1F
  0
MLINESTYLE
  5
18
102
{ACAD_REACTORS
330
17
102
}
330
17
100
AcDbMlineStyle
  2
Standard
 70
     0
  3

 62
   256
 51
90.0
 52
90.0
 71
     2
 49
0.5
 62
   256
  6
BYLAYER
 49
-0.5
 62
   256
  6
BYLAYER
  0
ACDBPLACEHOLDER
  5
F
102
{ACAD_REACTORS
330
E
102
}
330
E
  0
ENDSEC
  0
EOF
