  0
SECTION
  2
HEADER
  9
$ACADVER
  1
AC1018
  9
$ACADMAINTVER
 70
     0
  9
$DWGCODEPAGE
  3
ANSI_1252
  9
$INSBASE
 10
0.0
 20
0.0
 30
0.0
  9
$EXTMIN
 10
-20.4965157480315
 20
-0.1054645669291339
 30
0.0
  9
$EXTMAX
 10
-12.08600393700787
 20
6.177661417322835
 30
0.0
  9
$LIMMIN
 10
0.0
 20
0.0
  9
$LIMMAX
 10
12.0
 20
9.0
  9
$ORTHOMODE
 70
     0
  9
$REGENMODE
 70
     1
  9
$FILLMODE
 70
     1
  9
$QTEXTMODE
 70
     0
  9
$MIRRTEXT
 70
     1
  9
$LTSCALE
 40
1.0
  9
$ATTMODE
 70
     1
  9
$TEXTSIZE
 40
0.2
  9
$TRACEWID
 40
0.05
  9
$TEXTSTYLE
  7
Standard
  9
$CLAYER
  8
0
  9
$CELTYPE
  6
ByLayer
  9
$CECOLOR
 62
   256
  9
$CELTSCALE
 40
1.0
  9
$DISPSILH
 70
     0
  9
$DIMSCALE
 40
1.0
  9
$DIMASZ
 40
0.18
  9
$DIMEXO
 40
0.0625
  9
$DIMDLI
 40
0.38
  9
$DIMRND
 40
0.0
  9
$DIMDLE
 40
0.0
  9
$DIMEXE
 40
0.18
  9
$DIMTP
 40
0.0
  9
$DIMTM
 40
0.0
  9
$DIMTXT
 40
0.18
  9
$DIMCEN
 40
0.09
  9
$DIMTSZ
 40
0.0
  9
$DIMTOL
 70
     0
  9
$DIMLIM
 70
     0
  9
$DIMTIH
 70
     1
  9
$DIMTOH
 70
     1
  9
$DIMSE1
 70
     0
  9
$DIMSE2
 70
     0
  9
$DIMTAD
 70
     0
  9
$DIMZIN
 70
     0
  9
$DIMBLK
  1

  9
$DIMASO
 70
     1
  9
$DIMSHO
 70
     1
  9
$DIMPOST
  1

  9
$DIMAPOST
  1

  9
$DIMALT
 70
     0
  9
$DIMALTD
 70
     2
  9
$DIMALTF
 40
25.4
  9
$DIMLFAC
 40
1.0
  9
$DIMTOFL
 70
     0
  9
$DIMTVP
 40
0.0
  9
$DIMTIX
 70
     0
  9
$DIMSOXD
 70
     0
  9
$DIMSAH
 70
     0
  9
$DIMBLK1
  1

  9
$DIMBLK2
  1

  9
$DIMSTYLE
  2
Standard
  9
$DIMCLRD
 70
     0
  9
$DIMCLRE
 70
     0
  9
$DIMCLRT
 70
     0
  9
$DIMTFAC
 40
1.0
  9
$DIMGAP
 40
0.09
  9
$DIMJUST
 70
     0
  9
$DIMSD1
 70
     0
  9
$DIMSD2
 70
     0
  9
$DIMTOLJ
 70
     1
  9
$DIMTZIN
 70
     0
  9
$DIMALTZ
 70
     0
  9
$DIMALTTZ
 70
     0
  9
$DIMUPT
 70
     0
  9
$DIMDEC
 70
     4
  9
$DIMTDEC
 70
     4
  9
$DIMALTU
 70
     2
  9
$DIMALTTD
 70
     2
  9
$DIMTXSTY
  7
Standard
  9
$DIMAUNIT
 70
     0
  9
$DIMADEC
 70
     0
  9
$DIMALTRND
 40
0.0
  9
$DIMAZIN
 70
     0
  9
$DIMDSEP
 70
    46
  9
$DIMATFIT
 70
     3
  9
$DIMFRAC
 70
     0
  9
$DIMLDRBLK
  1

  9
$DIMLUNIT
 70
     2
  9
$DIMLWD
 70
    -2
  9
$DIMLWE
 70
    -2
  9
$DIMTMOVE
 70
     0
  9
$LUNITS
 70
     2
  9
$LUPREC
 70
     4
  9
$SKETCHINC
 40
0.1
  9
$FILLETRAD
 40
0.5
  9
$AUNITS
 70
     0
  9
$AUPREC
 70
     0
  9
$MENU
  1
.
  9
$ELEVATION
 40
0.0
  9
$PELEVATION
 40
0.0
  9
$THICKNESS
 40
0.0
  9
$LIMCHECK
 70
     0
  9
$CHAMFERA
 40
0.5
  9
$CHAMFERB
 40
0.5
  9
$CHAMFERC
 40
1.0
  9
$CHAMFERD
 40
0.0
  9
$SKPOLY
 70
     0
  9
$TDCREATE
 40
2458738.866492222
  9
$TDUCREATE
 40
2458738.783158889
  9
$TDUPDATE
 40
2458738.908158901
  9
$TDUUPDATE
 40
2458738.783158901
  9
$TDINDWG
 40
0.0000000116
  9
$TDUSRTIMER
 40
0.0000000116
  9
$USRTIMER
 70
     1
  9
$ANGBASE
 50
0.0
  9
$ANGDIR
 70
     0
  9
$PDMODE
 70
     0
  9
$PDSIZE
 40
0.0
  9
$PLINEWID
 40
0.0
  9
$SPLFRAME
 70
     0
  9
$SPLINETYPE
 70
     6
  9
$SPLINESEGS
 70
     8
  9
$HANDSEED
  5
30
  9
$SURFTAB1
 70
     6
  9
$SURFTAB2
 70
     6
  9
$SURFTYPE
 70
     6
  9
$SURFU
 70
     6
  9
$SURFV
 70
     6
  9
$UCSBASE
  2

  9
$UCSNAME
  2

  9
$UCSORG
 10
0.0
 20
0.0
 30
0.0
  9
$UCSXDIR
 10
1.0
 20
0.0
 30
0.0
  9
$UCSYDIR
 10
0.0
 20
1.0
 30
0.0
  9
$UCSORTHOREF
  2

  9
$UCSORTHOVIEW
 70
     0
  9
$UCSORGTOP
 10
0.0
 20
0.0
 30
0.0
  9
$UCSORGBOTTOM
 10
0.0
 20
0.0
 30
0.0
  9
$UCSORGLEFT
 10
0.0
 20
0.0
 30
0.0
  9
$UCSORGRIGHT
 10
0.0
 20
0.0
 30
0.0
  9
$UCSORGFRONT
 10
0.0
 20
0.0
 30
0.0
  9
$UCSORGBACK
 10
0.0
 20
0.0
 30
0.0
  9
$PUCSBASE
  2

  9
$PUCSNAME
  2

  9
$PUCSORG
 10
0.0
 20
0.0
 30
0.0
  9
$PUCSXDIR
 10
1.0
 20
0.0
 30
0.0
  9
$PUCSYDIR
 10
0.0
 20
1.0
 30
0.0
  9
$PUCSORTHOREF
  2

  9
$PUCSORTHOVIEW
 70
     0
  9
$PUCSORGTOP
 10
0.0
 20
0.0
 30
0.0
  9
$PUCSORGBOTTOM
 10
0.0
 20
0.0
 30
0.0
  9
$PUCSORGLEFT
 10
0.0
 20
0.0
 30
0.0
  9
$PUCSORGRIGHT
 10
0.0
 20
0.0
 30
0.0
  9
$PUCSORGFRONT
 10
0.0
 20
0.0
 30
0.0
  9
$PUCSORGBACK
 10
0.0
 20
0.0
 30
0.0
  9
$USERI1
 70
     0
  9
$USERI2
 70
     0
  9
$USERI3
 70
     0
  9
$USERI4
 70
     0
  9
$USERI5
 70
     0
  9
$USERR1
 40
0.0
  9
$USERR2
 40
0.0
  9
$USERR3
 40
0.0
  9
$USERR4
 40
0.0
  9
$USERR5
 40
0.0
  9
$WORLDVIEW
 70
     1
  9
$SHADEDGE
 70
     3
  9
$SHADEDIF
 70
    70
  9
$TILEMODE
 70
     1
  9
$MAXACTVP
 70
    64
  9
$PINSBASE
 10
0.0
 20
0.0
 30
0.0
  9
$PLIMCHECK
 70
     0
  9
$PEXTMIN
 10
1.000000000000000E+20
 20
1.000000000000000E+20
 30
1.000000000000000E+20
  9
$PEXTMAX
 10
-1.000000000000000E+20
 20
-1.000000000000000E+20
 30
-1.000000000000000E+20
  9
$PLIMMIN
 10
0.0
 20
0.0
  9
$PLIMMAX
 10
12.0
 20
9.0
  9
$UNITMODE
 70
     0
  9
$VISRETAIN
 70
     1
  9
$PLINEGEN
 70
     0
  9
$PSLTSCALE
 70
     1
  9
$TREEDEPTH
 70
  3020
  9
$CMLSTYLE
  2
Standard
  9
$CMLJUST
 70
     0
  9
$CMLSCALE
 40
1.0
  9
$PROXYGRAPHICS
 70
     1
  9
$MEASUREMENT
 70
     0
  9
$CELWEIGHT
370
    -1
  9
$ENDCAPS
280
     0
  9
$JOINSTYLE
280
     0
  9
$LWDISPLAY
290
     0
  9
$INSUNITS
 70
     1
  9
$HYPERLINKBASE
  1

  9
$STYLESHEET
  1

  9
$XEDIT
290
     1
  9
$CEPSNTYPE
380
     0
  9
$PSTYLEMODE
290
     0
  9
$FINGERPRINTGUID
  2
{FAEB1C30-E019-11D5-929B-00C0DF256EC4}
  9
$VERSIONGUID
  2
{FAEB1C32-E019-11D5-929B-00C0DF256EC4}
  9
$EXTNAMES
290
     1
  9
$PSVPSCALE
 40
0.0
  9
$OLESTARTUP
290
     0
  9
$SORTENTS
280
   127
  9
$INDEXCTL
280
     0
  9
$HIDETEXT
280
     1
  9
$XCLIPFRAME
290
     0
  9
$HALOGAP
280
     0
  9
$OBSCOLOR
 70
   257
  9
$OBSLTYPE
280
     0
  9
$INTERSECTIONDISPLAY
280
     0
  9
$INTERSECTIONCOLOR
 70
   257
  9
$DIMASSOC
280
     2
  9
$PROJECTNAME
  1

  0
ENDSEC
  0
SECTION
  2
CLASSES
  0
CLASS
  1
ACDBDICTIONARYWDFLT
  2
AcDbDictionaryWithDefault
  3
ObjectDBX Classes
 90
        0
 91
        1
280
     0
281
     0
  0
ENDSEC
  0
SECTION
  2
TABLES
  0
TABLE
  2
VPORT
  5
8
330
0
100
AcDbSymbolTable
 70
     2
  0
VPORT
  5
29
330
8
100
AcDbSymbolTableRecord
100
AcDbViewportTableRecord
  2
*Active
 70
     0
 10
0.0
 20
0.0
 11
1.0
 21
1.0
 12
10.42990654205607
 22
4.5
 13
0.0
 23
0.0
 14
0.5
 24
0.5
 15
0.5
 25
0.5
 16
0.0
 26
0.0
 36
1.0
 17
0.0
 27
0.0
 37
0.0
 40
9.0
 41
1.972972972850329
 42
50.0
 43
0.0
 44
0.0
 50
0.0
 51
0.0
 71
     0
 72
   100
 73
     1
 74
     3
 75
     0
 76
     0
 77
     0
 78
     0
281
     0
 65
     1
110
0.0
120
0.0
130
0.0
111
1.0
121
0.0
131
0.0
112
0.0
122
1.0
132
0.0
 79
     0
146
0.0
  0
ENDTAB
  0
TABLE
  2
LTYPE
  5
5
330
0
100
AcDbSymbolTable
 70
     1
  0
LTYPE
  5
14
330
5
100
AcDbSymbolTableRecord
100
AcDbLinetypeTableRecord
  2
ByBlock
 70
     0
  3

 72
    65
 73
     0
 40
0.0
  0
LTYPE
  5
15
330
5
100
AcDbSymbolTableRecord
100
AcDbLinetypeTableRecord
  2
ByLayer
 70
     0
  3

 72
    65
 73
     0
 40
0.0
  0
LTYPE
  5
16
330
5
100
AcDbSymbolTableRecord
100
AcDbLinetypeTableRecord
  2
Continuous
 70
     0
  3
Solid line
 72
    65
 73
     0
 40
0.0
  0
ENDTAB
  0
TABLE
  2
LAYER
  5
2
330
0
100
AcDbSymbolTable
 70
     2
  0
LAYER
  5
10
330
2
100
AcDbSymbolTableRecord
100
AcDbLayerTableRecord
  2
0
 70
     0
 62
     7
  6
Continuous
370
    -3
390
F
  0
LAYER
  5
2B
330
2
100
AcDbSymbolTableRecord
100
AcDbLayerTableRecord
  2
Layer 1
 70
     0
 62
     7
  6
Continuous
370
    -3
390
F
  0
ENDTAB
  0
TABLE
  2
STYLE
  5
3
330
0
100
AcDbSymbolTable
 70
     1
  0
STYLE
  5
11
330
3
100
AcDbSymbolTableRecord
100
AcDbTextStyleTableRecord
  2
Standard
 70
     0
 40
0.0
 41
1.0
 50
0.0
 71
     0
 42
0.2
  3
txt
  4

  0
ENDTAB
  0
TABLE
  2
VIEW
  5
6
330
0
100
AcDbSymbolTable
 70
     0
  0
ENDTAB
  0
TABLE
  2
UCS
  5
7
330
0
100
AcDbSymbolTable
 70
     0
  0
ENDTAB
  0
TABLE
  2
APPID
  5
9
330
0
100
AcDbSymbolTable
 70
     2
  0
APPID
  5
12
330
9
100
AcDbSymbolTableRecord
100
AcDbRegAppTableRecord
  2
ACAD
 70
     0
  0
APPID
  5
2A
330
9
100
AcDbSymbolTableRecord
100
AcDbRegAppTableRecord
  2
ODA
 70
     0
  0
ENDTAB
  0
TABLE
  2
DIMSTYLE
  5
A
330
0
100
AcDbSymbolTable
 70
     1
100
AcDbDimStyleTable
  0
DIMSTYLE
105
27
330
A
100
AcDbSymbolTableRecord
100
AcDbDimStyleTableRecord
  2
Standard
 70
     0
340
11
  0
ENDTAB
  0
TABLE
  2
BLOCK_RECORD
  5
1
330
0
100
AcDbSymbolTable
 70
     1
  0
BLOCK_RECORD
  5
1F
330
1
100
AcDbSymbolTableRecord
100
AcDbBlockTableRecord
  2
*Model_Space
340
22
  0
BLOCK_RECORD
  5
1B
330
1
100
AcDbSymbolTableRecord
100
AcDbBlockTableRecord
  2
*Paper_Space
340
1E
  0
BLOCK_RECORD
  5
23
330
1
100
AcDbSymbolTableRecord
100
AcDbBlockTableRecord
  2
*Paper_Space0
340
26
  0
ENDTAB
  0
ENDSEC
  0
SECTION
  2
BLOCKS
  0
BLOCK
  5
20
330
1F
100
AcDbEntity
  8
0
100
AcDbBlockBegin
  2
*Model_Space
 70
     0
 71
     0
 10
0.0
 20
0.0
 30
0.0
  3
*Model_Space
  1

  0
ENDBLK
  5
21
330
1F
100
AcDbEntity
  8
0
100
AcDbBlockEnd
  0
BLOCK
  5
1C
330
1B
100
AcDbEntity
 67
     1
  8
0
100
AcDbBlockBegin
  2
*Paper_Space
 70
     0
 71
     0
 10
0.0
 20
0.0
 30
0.0
  3
*Paper_Space
  1

  0
ENDBLK
  5
1D
330
1B
100
AcDbEntity
 67
     1
  8
0
100
AcDbBlockEnd
  0
BLOCK
  5
24
330
23
100
AcDbEntity
  8
0
100
AcDbBlockBegin
  2
*Paper_Space0
 70
     0
 71
     0
 10
0.0
 20
0.0
 30
0.0
  3
*Paper_Space0
  1

  0
ENDBLK
  5
25
330
23
100
AcDbEntity
  8
0
100
AcDbBlockEnd
  0
ENDSEC
  0
SECTION
  2
ENTITIES
  0
SPLINE
  5
2C
330
1F
100
AcDbEntity
  8
Layer 1
 62
    30
100
AcDbSpline
210
0.0
220
0.0
230
1.0
 70
    11
 71
     3
 72
    56
 73
    52
 74
     0
 42
0.0000000001
 43
0.0000000001
 40
0.0
 40
0.0
 40
0.0
 40
0.0
 40
0.0769230769230769
 40
0.0769230769230769
 40
0.0769230769230769
 40
0.0769230769230769
 40
0.1538461538461539
 40
0.1538461538461539
 40
0.1538461538461539
 40
0.1538461538461539
 40
0.2307692307692308
 40
0.2307692307692308
 40
0.2307692307692308
 40
0.2307692307692308
 40
0.3076923076923077
 40
0.3076923076923077
 40
0.3076923076923077
 40
0.3076923076923077
 40
0.3846153846153846
 40
0.3846153846153846
 40
0.3846153846153846
 40
0.3846153846153846
 40
0.4615384615384616
 40
0.4615384615384616
 40
0.4615384615384616
 40
0.4615384615384616
 40
0.5384615384615386
 40
0.5384615384615386
 40
0.5384615384615386
 40
0.5384615384615386
 40
0.6153846153846154
 40
0.6153846153846154
 40
0.6153846153846154
 40
0.6153846153846154
 40
0.6923076923076923
 40
0.6923076923076923
 40
0.6923076923076923
 40
0.6923076923076923
 40
0.7692307692307692
 40
0.7692307692307692
 40
0.7692307692307692
 40
0.7692307692307692
 40
0.846153846153846
 40
0.846153846153846
 40
0.846153846153846
 40
0.846153846153846
 40
0.9230769230769229
 40
0.9230769230769229
 40
0.9230769230769229
 40
0.9230769230769229
 40
1.0
 40
1.0
 40
1.0
 40
1.0
 10
-16.06990157480315
 20
5.306586614173229
 30
0.0
 10
-15.74617322834646
 20
5.350669291338583
 30
0.0
 10
-15.32343307086614
 20
5.416515748031496
 30
0.0
 10
-15.18333464566929
 20
5.400507874015748
 30
0.0
 10
-15.18333464566929
 20
5.400507874015748
 30
0.0
 10
-13.18534645669291
 20
5.172232283464568
 30
0.0
 10
-12.08600393700787
 20
3.907330708661418
 30
0.0
 10
-12.08600393700787
 20
2.600547244094488
 30
0.0
 10
-12.08600393700787
 20
2.600547244094488
 30
0.0
 10
-12.08600393700787
 20
1.524078740157481
 30
0.0
 10
-13.34549212598425
 20
0.5125393700787402
 30
0.0
 10
-14.28612992125984
 20
0.2161732283464567
 30
0.0
 10
-14.28612992125984
 20
0.2161732283464567
 30
0.0
 10
-14.58235039370079
 20
0.1228385826771654
 30
0.0
 10
-15.53396062992126
 20
0.1524330708661418
 30
0.0
 10
-15.85609842519685
 20
0.0816141732283465
 30
0.0
 10
-15.85609842519685
 20
0.0816141732283465
 30
0.0
 10
-16.13985826771654
 20
0.0192322834645669
 30
0.0
 10
-16.21096456692914
 20
-0.1054645669291339
 30
0.0
 10
-16.52067322834646
 20
-0.1054645669291339
 30
0.0
 10
-16.52067322834646
 20
-0.1054645669291339
 30
0.0
 10
-16.83038582677165
 20
-0.1054645669291339
 30
0.0
 10
-16.87451968503937
 20
0.0263897637795276
 30
0.0
 10
-17.16367716535433
 20
0.1031496062992126
 30
0.0
 10
-17.16367716535433
 20
0.1031496062992126
 30
0.0
 10
-17.4955905511811
 20
0.1912637795275591
 30
0.0
 10
-18.05226377952756
 20
0.1076220472440945
 30
0.0
 10
-18.35430708661417
 20
0.2158897637795276
 30
0.0
 10
-18.35430708661417
 20
0.2158897637795276
 30
0.0
 10
-19.73323622047244
 20
0.7101653543307087
 30
0.0
 10
-20.4965157480315
 20
1.617594488188976
 30
0.0
 10
-20.4965157480315
 20
2.781326771653543
 30
0.0
 10
-20.4965157480315
 20
2.781326771653543
 30
0.0
 10
-20.4965157480315
 20
4.0448031496063
 30
0.0
 10
-19.51756692913386
 20
5.147059055118111
 30
0.0
 10
-17.60563385826772
 20
5.379129921259843
 30
0.0
 10
-17.60563385826772
 20
5.379129921259843
 30
0.0
 10
-17.45279527559055
 20
5.397681102362205
 30
0.0
 10
-17.10252755905512
 20
5.345653543307087
 30
0.0
 10
-16.80855511811024
 20
5.307090551181102
 30
0.0
 10
-16.80855511811024
 20
5.307090551181102
 30
0.0
 10
-16.75578346456693
 20
5.511830708661417
 30
0.0
 10
-16.56574015748032
 20
5.936673228346457
 30
0.0
 10
-16.60165354330709
 20
6.177661417322835
 30
0.0
 10
-16.60165354330709
 20
6.177661417322835
 30
0.0
 10
-16.60165354330709
 20
6.177661417322835
 30
0.0
 10
-16.18446850393701
 20
6.149850393700787
 30
0.0
 10
-16.18446850393701
 20
6.149850393700787
 30
0.0
 10
-16.18446850393701
 20
6.149850393700787
 30
0.0
 10
-16.2168188976378
 20
5.83448031496063
 30
0.0
 10
-16.17864173228347
 20
5.522618110236221
 30
0.0
 10
-16.06990157480315
 20
5.306586614173229
 30
0.0
  0
SPLINE
  5
2D
330
1F
100
AcDbEntity
  8
Layer 1
 62
    30
100
AcDbSpline
210
0.0
220
0.0
230
1.0
 70
    11
 71
     3
 72
   132
 73
   128
 74
     0
 42
0.0000000001
 43
0.0000000001
 40
0.0
 40
0.0
 40
0.0
 40
0.0
 40
0.03125
 40
0.03125
 40
0.03125
 40
0.03125
 40
0.0625
 40
0.0625
 40
0.0625
 40
0.0625
 40
0.09375
 40
0.09375
 40
0.09375
 40
0.09375
 40
0.125
 40
0.125
 40
0.125
 40
0.125
 40
0.15625
 40
0.15625
 40
0.15625
 40
0.15625
 40
0.1875
 40
0.1875
 40
0.1875
 40
0.1875
 40
0.21875
 40
0.21875
 40
0.21875
 40
0.21875
 40
0.25
 40
0.25
 40
0.25
 40
0.25
 40
0.28125
 40
0.28125
 40
0.28125
 40
0.28125
 40
0.3125
 40
0.3125
 40
0.3125
 40
0.3125
 40
0.34375
 40
0.34375
 40
0.34375
 40
0.34375
 40
0.375
 40
0.375
 40
0.375
 40
0.375
 40
0.40625
 40
0.40625
 40
0.40625
 40
0.40625
 40
0.4375
 40
0.4375
 40
0.4375
 40
0.4375
 40
0.46875
 40
0.46875
 40
0.46875
 40
0.46875
 40
0.5
 40
0.5
 40
0.5
 40
0.5
 40
0.53125
 40
0.53125
 40
0.53125
 40
0.53125
 40
0.5625
 40
0.5625
 40
0.5625
 40
0.5625
 40
0.59375
 40
0.59375
 40
0.59375
 40
0.59375
 40
0.625
 40
0.625
 40
0.625
 40
0.625
 40
0.65625
 40
0.65625
 40
0.65625
 40
0.65625
 40
0.6875
 40
0.6875
 40
0.6875
 40
0.6875
 40
0.71875
 40
0.71875
 40
0.71875
 40
0.71875
 40
0.75
 40
0.75
 40
0.75
 40
0.75
 40
0.78125
 40
0.78125
 40
0.78125
 40
0.78125
 40
0.8125
 40
0.8125
 40
0.8125
 40
0.8125
 40
0.84375
 40
0.84375
 40
0.84375
 40
0.84375
 40
0.875
 40
0.875
 40
0.875
 40
0.875
 40
0.90625
 40
0.90625
 40
0.90625
 40
0.90625
 40
0.9375
 40
0.9375
 40
0.9375
 40
0.9375
 40
0.96875
 40
0.96875
 40
0.96875
 40
0.96875
 40
1.0
 40
1.0
 40
1.0
 40
1.0
 10
-18.37603149606299
 20
1.900933070866142
 30
0.0
 10
-18.37603149606299
 20
1.900933070866142
 30
0.0
 10
-18.0301220472441
 20
1.956692913385827
 30
0.0
 10
-18.0301220472441
 20
1.956692913385827
 30
0.0
 10
-18.0301220472441
 20
1.956692913385827
 30
0.0
 10
-18.0301220472441
 20
1.956692913385827
 30
0.0
 10
-17.956
 20
1.538555118110236
 30
0.0
 10
-17.956
 20
1.538555118110236
 30
0.0
 10
-17.956
 20
1.538555118110236
 30
0.0
 10
-17.956
 20
1.538555118110236
 30
0.0
 10
-17.56068110236221
 20
1.538555118110236
 30
0.0
 10
-17.56068110236221
 20
1.538555118110236
 30
0.0
 10
-17.56068110236221
 20
1.538555118110236
 30
0.0
 10
-17.56068110236221
 20
1.538555118110236
 30
0.0
 10
-17.56068110236221
 20
2.040307086614174
 30
0.0
 10
-17.56068110236221
 20
2.040307086614174
 30
0.0
 10
-17.56068110236221
 20
2.040307086614174
 30
0.0
 10
-17.56068110236221
 20
2.040307086614174
 30
0.0
 10
-17.06651968503937
 20
2.068185039370079
 30
0.0
 10
-17.06651968503937
 20
2.068185039370079
 30
0.0
 10
-17.06651968503937
 20
2.068185039370079
 30
0.0
 10
-17.06651968503937
 20
2.068185039370079
 30
0.0
 10
-16.91827952755905
 20
1.594307086614173
 30
0.0
 10
-16.91827952755905
 20
1.594307086614173
 30
0.0
 10
-16.91827952755905
 20
1.594307086614173
 30
0.0
 10
-16.91827952755905
 20
1.594307086614173
 30
0.0
 10
-16.44882677165354
 20
1.594307086614173
 30
0.0
 10
-16.44882677165354
 20
1.594307086614173
 30
0.0
 10
-16.44882677165354
 20
1.594307086614173
 30
0.0
 10
-16.44882677165354
 20
1.594307086614173
 30
0.0
 10
-16.39941338582677
 20
2.096062992125984
 30
0.0
 10
-16.39941338582677
 20
2.096062992125984
 30
0.0
 10
-16.39941338582677
 20
2.096062992125984
 30
0.0
 10
-16.39941338582677
 20
2.096062992125984
 30
0.0
 10
-15.97938188976378
 20
2.068185039370079
 30
0.0
 10
-15.97938188976378
 20
2.068185039370079
 30
0.0
 10
-15.97938188976378
 20
2.068185039370079
 30
0.0
 10
-15.97938188976378
 20
2.068185039370079
 30
0.0
 10
-15.88055511811024
 20
1.76155905511811
 30
0.0
 10
-15.88055511811024
 20
1.76155905511811
 30
0.0
 10
-15.88055511811024
 20
1.76155905511811
 30
0.0
 10
-15.88055511811024
 20
1.76155905511811
 30
0.0
 10
-15.48523228346457
 20
1.650055118110236
 30
0.0
 10
-15.48523228346457
 20
1.650055118110236
 30
0.0
 10
-15.48523228346457
 20
1.650055118110236
 30
0.0
 10
-15.48523228346457
 20
1.650055118110236
 30
0.0
 10
-15.36168503937008
 20
2.096062992125984
 30
0.0
 10
-15.36168503937008
 20
2.096062992125984
 30
0.0
 10
-15.36168503937008
 20
2.096062992125984
 30
0.0
 10
-15.36168503937008
 20
2.096062992125984
 30
0.0
 10
-14.76870472440945
 20
2.096062992125984
 30
0.0
 10
-14.76870472440945
 20
2.096062992125984
 30
0.0
 10
-14.76870472440945
 20
2.096062992125984
 30
0.0
 10
-14.76870472440945
 20
2.096062992125984
 30
0.0
 10
-14.84282677165354
 20
1.677929133858268
 30
0.0
 10
-14.84282677165354
 20
1.677929133858268
 30
0.0
 10
-14.84282677165354
 20
1.677929133858268
 30
0.0
 10
-14.84282677165354
 20
1.677929133858268
 30
0.0
 10
-14.47221653543307
 20
1.650055118110236
 30
0.0
 10
-14.47221653543307
 20
1.650055118110236
 30
0.0
 10
-14.47221653543307
 20
1.650055118110236
 30
0.0
 10
-14.47221653543307
 20
1.650055118110236
 30
0.0
 10
-14.27454724409449
 20
2.068185039370079
 30
0.0
 10
-14.27454724409449
 20
2.068185039370079
 30
0.0
 10
-14.27454724409449
 20
2.068185039370079
 30
0.0
 10
-14.27454724409449
 20
2.068185039370079
 30
0.0
 10
-13.63214960629921
 20
1.928807086614173
 30
0.0
 10
-13.63214960629921
 20
1.928807086614173
 30
0.0
 10
-13.63214960629921
 20
1.928807086614173
 30
0.0
 10
-13.63214960629921
 20
1.928807086614173
 30
0.0
 10
-14.79341338582677
 20
1.231933070866142
 30
0.0
 10
-14.79341338582677
 20
1.231933070866142
 30
0.0
 10
-14.79341338582677
 20
1.231933070866142
 30
0.0
 10
-14.79341338582677
 20
1.231933070866142
 30
0.0
 10
-14.99107480314961
 20
1.510677165354331
 30
0.0
 10
-14.99107480314961
 20
1.510677165354331
 30
0.0
 10
-14.99107480314961
 20
1.510677165354331
 30
0.0
 10
-14.99107480314961
 20
1.510677165354331
 30
0.0
 10
-15.26285826771654
 20
1.482803149606299
 30
0.0
 10
-15.26285826771654
 20
1.482803149606299
 30
0.0
 10
-15.26285826771654
 20
1.482803149606299
 30
0.0
 10
-15.26285826771654
 20
1.482803149606299
 30
0.0
 10
-15.26285826771654
 20
1.036799212598425
 30
0.0
 10
-15.26285826771654
 20
1.036799212598425
 30
0.0
 10
-15.26285826771654
 20
1.036799212598425
 30
0.0
 10
-15.26285826771654
 20
1.036799212598425
 30
0.0
 10
-15.78172047244095
 20
1.036799212598425
 30
0.0
 10
-15.78172047244095
 20
1.036799212598425
 30
0.0
 10
-15.78172047244095
 20
1.036799212598425
 30
0.0
 10
-15.78172047244095
 20
1.036799212598425
 30
0.0
 10
-15.90525984251969
 20
1.399177165354331
 30
0.0
 10
-15.90525984251969
 20
1.399177165354331
 30
0.0
 10
-15.90525984251969
 20
1.399177165354331
 30
0.0
 10
-15.90525984251969
 20
1.399177165354331
 30
0.0
 10
-16.22646062992126
 20
1.42705905511811
 30
0.0
 10
-16.22646062992126
 20
1.42705905511811
 30
0.0
 10
-16.22646062992126
 20
1.42705905511811
 30
0.0
 10
-16.22646062992126
 20
1.42705905511811
 30
0.0
 10
-16.25116535433071
 20
1.036799212598425
 30
0.0
 10
-16.25116535433071
 20
1.036799212598425
 30
0.0
 10
-16.25116535433071
 20
1.036799212598425
 30
0.0
 10
-16.25116535433071
 20
1.036799212598425
 30
0.0
 10
-17.0171062992126
 20
1.008929133858268
 30
0.0
 10
-17.0171062992126
 20
1.008929133858268
 30
0.0
 10
-17.0171062992126
 20
1.008929133858268
 30
0.0
 10
-17.0171062992126
 20
1.008929133858268
 30
0.0
 10
-17.06651968503937
 20
1.371303149606299
 30
0.0
 10
-17.06651968503937
 20
1.371303149606299
 30
0.0
 10
-17.06651968503937
 20
1.371303149606299
 30
0.0
 10
-17.06651968503937
 20
1.371303149606299
 30
0.0
 10
-17.41242913385827
 20
1.315551181102362
 30
0.0
 10
-17.41242913385827
 20
1.315551181102362
 30
0.0
 10
-17.41242913385827
 20
1.315551181102362
 30
0.0
 10
-17.41242913385827
 20
1.315551181102362
 30
0.0
 10
-17.46184251968504
 20
1.064673228346457
 30
0.0
 10
-17.46184251968504
 20
1.064673228346457
 30
0.0
 10
-17.46184251968504
 20
1.064673228346457
 30
0.0
 10
-17.46184251968504
 20
1.064673228346457
 30
0.0
 10
-18.17837007874016
 20
1.148299212598425
 30
0.0
 10
-18.17837007874016
 20
1.148299212598425
 30
0.0
 10
-18.17837007874016
 20
1.148299212598425
 30
0.0
 10
-18.17837007874016
 20
1.148299212598425
 30
0.0
 10
-18.77135433070866
 20
1.510677165354331
 30
0.0
 10
-18.77135433070866
 20
1.510677165354331
 30
0.0
 10
-18.77135433070866
 20
1.510677165354331
 30
0.0
 10
-18.77135433070866
 20
1.510677165354331
 30
0.0
 10
-18.37603149606299
 20
1.900933070866142
 30
0.0
 10
-18.37603149606299
 20
1.900933070866142
 30
0.0
  0
SPLINE
  5
2E
330
1F
100
AcDbEntity
  8
Layer 1
 62
    30
100
AcDbSpline
210
0.0
220
0.0
230
1.0
 70
    11
 71
     3
 72
    24
 73
    20
 74
     0
 42
0.0000000001
 43
0.0000000001
 40
0.0
 40
0.0
 40
0.0
 40
0.0
 40
0.2
 40
0.2
 40
0.2
 40
0.2
 40
0.4
 40
0.4
 40
0.4
 40
0.4
 40
0.6000000000000001
 40
0.6000000000000001
 40
0.6000000000000001
 40
0.6000000000000001
 40
0.8
 40
0.8
 40
0.8
 40
0.8
 40
1.0
 40
1.0
 40
1.0
 40
1.0
 10
-13.90523622047244
 20
3.843228346456693
 30
0.0
 10
-13.88594881889764
 20
3.949358267716536
 30
0.0
 10
-14.06874409448819
 20
4.04390157480315
 30
0.0
 10
-14.17452362204725
 20
4.022744094488189
 30
0.0
 10
-14.17452362204725
 20
4.022744094488189
 30
0.0
 10
-14.75284251968504
 20
3.907086614173228
 30
0.0
 10
-15.33737401574803
 20
3.745787401574803
 30
0.0
 10
-15.85006299212598
 20
3.454255905511811
 30
0.0
 10
-15.85006299212598
 20
3.454255905511811
 30
0.0
 10
-15.94699212598425
 20
3.399145669291339
 30
0.0
 10
-15.79935039370079
 20
3.206559055118111
 30
0.0
 10
-15.70046850393701
 20
3.155051181102362
 30
0.0
 10
-15.70046850393701
 20
3.155051181102362
 30
0.0
 10
-15.29762992125984
 20
2.945255905511811
 30
0.0
 10
-14.83799606299213
 20
2.543673228346457
 30
0.0
 10
-14.41388582677165
 20
2.706251968503937
 30
0.0
 10
-14.41388582677165
 20
2.706251968503937
 30
0.0
 10
-14.0262125984252
 20
2.85486220472441
 30
0.0
 10
-13.97950787401575
 20
3.434744094488189
 30
0.0
 10
-13.90523622047244
 20
3.843228346456693
 30
0.0
  0
SPLINE
  5
2F
330
1F
100
AcDbEntity
  8
Layer 1
 62
    30
100
AcDbSpline
210
0.0
220
0.0
230
1.0
 70
    11
 71
     3
 72
    24
 73
    20
 74
     0
 42
0.0000000001
 43
0.0000000001
 40
0.0
 40
0.0
 40
0.0
 40
0.0
 40
0.2
 40
0.2
 40
0.2
 40
0.2
 40
0.4
 40
0.4
 40
0.4
 40
0.4
 40
0.6000000000000001
 40
0.6000000000000001
 40
0.6000000000000001
 40
0.6000000000000001
 40
0.8
 40
0.8
 40
0.8
 40
0.8
 40
1.0
 40
1.0
 40
1.0
 40
1.0
 10
-18.94408267716536
 20
3.744389763779528
 30
0.0
 10
-18.96337007874016
 20
3.850527559055118
 30
0.0
 10
-18.78057874015748
 20
3.945074803149606
 30
0.0
 10
-18.6748031496063
 20
3.923909448818898
 30
0.0
 10
-18.6748031496063
 20
3.923909448818898
 30
0.0
 10
-18.09648031496063
 20
3.808251968503937
 30
0.0
 10
-17.51194488188977
 20
3.64696062992126
 30
0.0
 10
-16.99926377952756
 20
3.355425196850394
 30
0.0
 10
-16.99926377952756
 20
3.355425196850394
 30
0.0
 10
-16.90232677165355
 20
3.300318897637796
 30
0.0
 10
-17.04997244094488
 20
3.107728346456693
 30
0.0
 10
-17.14886220472441
 20
3.056220472440945
 30
0.0
 10
-17.14886220472441
 20
3.056220472440945
 30
0.0
 10
-17.55169291338583
 20
2.846425196850394
 30
0.0
 10
-18.01132677165354
 20
2.444838582677166
 30
0.0
 10
-18.43544094488189
 20
2.60742125984252
 30
0.0
 10
-18.43544094488189
 20
2.60742125984252
 30
0.0
 10
-18.82311023622047
 20
2.756027559055118
 30
0.0
 10
-18.8698188976378
 20
3.335917322834646
 30
0.0
 10
-18.94408267716536
 20
3.744389763779528
 30
0.0
  0
ENDSEC
  0
SECTION
  2
OBJECTS
  0
DICTIONARY
  5
C
330
0
100
AcDbDictionary
281
     1
  3
ACAD_GROUP
350
D
  3
ACAD_LAYOUT
350
1A
  3
ACAD_MLINESTYLE
350
17
  3
ACAD_PLOTSETTINGS
350
19
  3
ACAD_PLOTSTYLENAME
350
E
  0
DICTIONARY
  5
D
102
{ACAD_REACTORS
330
C
102
}
330
C
100
AcDbDictionary
281
     1
  0
DICTIONARY
  5
1A
102
{ACAD_REACTORS
330
C
102
}
330
C
100
AcDbDictionary
281
     1
  3
Layout1
350
1E
  3
Layout2
350
26
  3
Model
350
22
  0
DICTIONARY
  5
17
102
{ACAD_REACTORS
330
C
102
}
330
C
100
AcDbDictionary
281
     1
  3
Standard
350
18
  0
DICTIONARY
  5
19
102
{ACAD_REACTORS
330
C
102
}
330
C
100
AcDbDictionary
281
     1
  0
ACDBDICTIONARYWDFLT
  5
E
102
{ACAD_REACTORS
330
C
102
}
330
C
100
AcDbDictionary
281
     1
  3
Normal
350
F
100
AcDbDictionaryWithDefault
340
F
  0
LAYOUT
  5
1E
102
{ACAD_REACTORS
330
1A
102
}
330
1A
100
AcDbPlotSettings
  1

  2

  4

  6

 40
0.0
 41
0.0
 42
0.0
 43
0.0
 44
0.0
 45
0.0
 46
0.0
 47
0.0
 48
0.0
 49
0.0
140
0.0
141
0.0
142
1.0
143
1.0
 70
   688
 72
     0
 73
     0
 74
     5
  7

 75
    16
 76
     0
 77
     2
 78
   300
147
1.0
148
0.0
149
0.0
100
AcDbLayout
  1
Layout1
 70
     1
 71
     1
 10
0.0
 20
0.0
 11
12.0
 21
9.0
 12
0.0
 22
0.0
 32
0.0
 14
1.000000000000000E+20
 24
1.000000000000000E+20
 34
1.000000000000000E+20
 15
-1.000000000000000E+20
 25
-1.000000000000000E+20
 35
-1.000000000000000E+20
146
0.0
 13
0.0
 23
0.0
 33
0.0
 16
1.0
 26
0.0
 36
0.0
 17
0.0
 27
1.0
 37
0.0
 76
     0
330
1B
  0
LAYOUT
  5
26
102
{ACAD_REACTORS
330
1A
102
}
330
1A
100
AcDbPlotSettings
  1

  2

  4

  6

 40
0.0
 41
0.0
 42
0.0
 43
0.0
 44
0.0
 45
0.0
 46
0.0
 47
0.0
 48
0.0
 49
0.0
140
0.0
141
0.0
142
1.0
143
1.0
 70
   688
 72
     0
 73
     0
 74
     5
  7

 75
    16
 76
     0
 77
     2
 78
   300
147
1.0
148
0.0
149
0.0
100
AcDbLayout
  1
Layout2
 70
     1
 71
     2
 10
0.0
 20
0.0
 11
0.0
 21
0.0
 12
0.0
 22
0.0
 32
0.0
 14
0.0
 24
0.0
 34
0.0
 15
0.0
 25
0.0
 35
0.0
146
0.0
 13
0.0
 23
0.0
 33
0.0
 16
1.0
 26
0.0
 36
0.0
 17
0.0
 27
1.0
 37
0.0
 76
     0
330
23
  0
LAYOUT
  5
22
102
{ACAD_REACTORS
330
1A
102
}
330
1A
100
AcDbPlotSettings
  1

  2

  4

  6

 40
0.0
 41
0.0
 42
0.0
 43
0.0
 44
0.0
 45
0.0
 46
0.0
 47
0.0
 48
0.0
 49
0.0
140
0.0
141
0.0
142
1.0
143
1.0
 70
  1712
 72
     0
 73
     0
 74
     0
  7

 75
     0
 76
     0
 77
     2
 78
   300
147
1.0
148
0.0
149
0.0
100
AcDbLayout
  1
Model
 70
     1
 71
     0
 10
0.0
 20
0.0
 11
0.0
 21
0.0
 12
0.0
 22
0.0
 32
0.0
 14
-20.4965157480315
 24
-0.1054645669291339
 34
0.0
 15
-12.08600393700787
 25
6.177661417322835
 35
0.0
146
0.0
 13
0.0
 23
0.0
 33
0.0
 16
1.0
 26
0.0
 36
0.0
 17
0.0
 27
1.0
 37
0.0
 76
     0
330
1F
  0
MLINESTYLE
  5
18
102
{ACAD_REACTORS
330
17
102
}
330
17
100
AcDbMlineStyle
  2
Standard
 70
     0
  3

 62
   256
 51
90.0
 52
90.0
 71
     2
 49
0.5
 62
   256
  6
BYLAYER
 49
-0.5
 62
   256
  6
BYLAYER
  0
ACDBPLACEHOLDER
  5
F
102
{ACAD_REACTORS
330
E
102
}
330
E
  0
ENDSEC
  0
EOF
