  0
SECTION
  2
HEADER
  9
$ACADVER
  1
AC1018
  9
$ACADMAINTVER
 70
     0
  9
$DWGCODEPAGE
  3
ANSI_1252
  9
$INSBASE
 10
0.0
 20
0.0
 30
0.0
  9
$EXTMIN
 10
-41.58714566929134
 20
18.69333464566929
 30
0.0
  9
$EXTMAX
 10
-33.27071653543307
 20
26.87612992125984
 30
0.0
  9
$LIMMIN
 10
0.0
 20
0.0
  9
$LIMMAX
 10
12.0
 20
9.0
  9
$ORTHOMODE
 70
     0
  9
$REGENMODE
 70
     1
  9
$FILLMODE
 70
     1
  9
$QTEXTMODE
 70
     0
  9
$MIRRTEXT
 70
     1
  9
$LTSCALE
 40
1.0
  9
$ATTMODE
 70
     1
  9
$TEXTSIZE
 40
0.2
  9
$TRACEWID
 40
0.05
  9
$TEXTSTYLE
  7
Standard
  9
$CLAYER
  8
0
  9
$CELTYPE
  6
ByLayer
  9
$CECOLOR
 62
   256
  9
$CELTSCALE
 40
1.0
  9
$DISPSILH
 70
     0
  9
$DIMSCALE
 40
1.0
  9
$DIMASZ
 40
0.18
  9
$DIMEXO
 40
0.0625
  9
$DIMDLI
 40
0.38
  9
$DIMRND
 40
0.0
  9
$DIMDLE
 40
0.0
  9
$DIMEXE
 40
0.18
  9
$DIMTP
 40
0.0
  9
$DIMTM
 40
0.0
  9
$DIMTXT
 40
0.18
  9
$DIMCEN
 40
0.09
  9
$DIMTSZ
 40
0.0
  9
$DIMTOL
 70
     0
  9
$DIMLIM
 70
     0
  9
$DIMTIH
 70
     1
  9
$DIMTOH
 70
     1
  9
$DIMSE1
 70
     0
  9
$DIMSE2
 70
     0
  9
$DIMTAD
 70
     0
  9
$DIMZIN
 70
     0
  9
$DIMBLK
  1

  9
$DIMASO
 70
     1
  9
$DIMSHO
 70
     1
  9
$DIMPOST
  1

  9
$DIMAPOST
  1

  9
$DIMALT
 70
     0
  9
$DIMALTD
 70
     2
  9
$DIMALTF
 40
25.4
  9
$DIMLFAC
 40
1.0
  9
$DIMTOFL
 70
     0
  9
$DIMTVP
 40
0.0
  9
$DIMTIX
 70
     0
  9
$DIMSOXD
 70
     0
  9
$DIMSAH
 70
     0
  9
$DIMBLK1
  1

  9
$DIMBLK2
  1

  9
$DIMSTYLE
  2
Standard
  9
$DIMCLRD
 70
     0
  9
$DIMCLRE
 70
     0
  9
$DIMCLRT
 70
     0
  9
$DIMTFAC
 40
1.0
  9
$DIMGAP
 40
0.09
  9
$DIMJUST
 70
     0
  9
$DIMSD1
 70
     0
  9
$DIMSD2
 70
     0
  9
$DIMTOLJ
 70
     1
  9
$DIMTZIN
 70
     0
  9
$DIMALTZ
 70
     0
  9
$DIMALTTZ
 70
     0
  9
$DIMUPT
 70
     0
  9
$DIMDEC
 70
     4
  9
$DIMTDEC
 70
     4
  9
$DIMALTU
 70
     2
  9
$DIMALTTD
 70
     2
  9
$DIMTXSTY
  7
Standard
  9
$DIMAUNIT
 70
     0
  9
$DIMADEC
 70
     0
  9
$DIMALTRND
 40
0.0
  9
$DIMAZIN
 70
     0
  9
$DIMDSEP
 70
    46
  9
$DIMATFIT
 70
     3
  9
$DIMFRAC
 70
     0
  9
$DIMLDRBLK
  1

  9
$DIMLUNIT
 70
     2
  9
$DIMLWD
 70
    -2
  9
$DIMLWE
 70
    -2
  9
$DIMTMOVE
 70
     0
  9
$LUNITS
 70
     2
  9
$LUPREC
 70
     4
  9
$SKETCHINC
 40
0.1
  9
$FILLETRAD
 40
0.5
  9
$AUNITS
 70
     0
  9
$AUPREC
 70
     0
  9
$MENU
  1
.
  9
$ELEVATION
 40
0.0
  9
$PELEVATION
 40
0.0
  9
$THICKNESS
 40
0.0
  9
$LIMCHECK
 70
     0
  9
$CHAMFERA
 40
0.5
  9
$CHAMFERB
 40
0.5
  9
$CHAMFERC
 40
1.0
  9
$CHAMFERD
 40
0.0
  9
$SKPOLY
 70
     0
  9
$TDCREATE
 40
2458739.472440961
  9
$TDUCREATE
 40
2458739.389107627
  9
$TDUPDATE
 40
2458739.514107639
  9
$TDUUPDATE
 40
2458739.389107639
  9
$TDINDWG
 40
0.0000000116
  9
$TDUSRTIMER
 40
0.0000000116
  9
$USRTIMER
 70
     1
  9
$ANGBASE
 50
0.0
  9
$ANGDIR
 70
     0
  9
$PDMODE
 70
     0
  9
$PDSIZE
 40
0.0
  9
$PLINEWID
 40
0.0
  9
$SPLFRAME
 70
     0
  9
$SPLINETYPE
 70
     6
  9
$SPLINESEGS
 70
     8
  9
$HANDSEED
  5
31
  9
$SURFTAB1
 70
     6
  9
$SURFTAB2
 70
     6
  9
$SURFTYPE
 70
     6
  9
$SURFU
 70
     6
  9
$SURFV
 70
     6
  9
$UCSBASE
  2

  9
$UCSNAME
  2

  9
$UCSORG
 10
0.0
 20
0.0
 30
0.0
  9
$UCSXDIR
 10
1.0
 20
0.0
 30
0.0
  9
$UCSYDIR
 10
0.0
 20
1.0
 30
0.0
  9
$UCSORTHOREF
  2

  9
$UCSORTHOVIEW
 70
     0
  9
$UCSORGTOP
 10
0.0
 20
0.0
 30
0.0
  9
$UCSORGBOTTOM
 10
0.0
 20
0.0
 30
0.0
  9
$UCSORGLEFT
 10
0.0
 20
0.0
 30
0.0
  9
$UCSORGRIGHT
 10
0.0
 20
0.0
 30
0.0
  9
$UCSORGFRONT
 10
0.0
 20
0.0
 30
0.0
  9
$UCSORGBACK
 10
0.0
 20
0.0
 30
0.0
  9
$PUCSBASE
  2

  9
$PUCSNAME
  2

  9
$PUCSORG
 10
0.0
 20
0.0
 30
0.0
  9
$PUCSXDIR
 10
1.0
 20
0.0
 30
0.0
  9
$PUCSYDIR
 10
0.0
 20
1.0
 30
0.0
  9
$PUCSORTHOREF
  2

  9
$PUCSORTHOVIEW
 70
     0
  9
$PUCSORGTOP
 10
0.0
 20
0.0
 30
0.0
  9
$PUCSORGBOTTOM
 10
0.0
 20
0.0
 30
0.0
  9
$PUCSORGLEFT
 10
0.0
 20
0.0
 30
0.0
  9
$PUCSORGRIGHT
 10
0.0
 20
0.0
 30
0.0
  9
$PUCSORGFRONT
 10
0.0
 20
0.0
 30
0.0
  9
$PUCSORGBACK
 10
0.0
 20
0.0
 30
0.0
  9
$USERI1
 70
     0
  9
$USERI2
 70
     0
  9
$USERI3
 70
     0
  9
$USERI4
 70
     0
  9
$USERI5
 70
     0
  9
$USERR1
 40
0.0
  9
$USERR2
 40
0.0
  9
$USERR3
 40
0.0
  9
$USERR4
 40
0.0
  9
$USERR5
 40
0.0
  9
$WORLDVIEW
 70
     1
  9
$SHADEDGE
 70
     3
  9
$SHADEDIF
 70
    70
  9
$TILEMODE
 70
     1
  9
$MAXACTVP
 70
    64
  9
$PINSBASE
 10
0.0
 20
0.0
 30
0.0
  9
$PLIMCHECK
 70
     0
  9
$PEXTMIN
 10
1.000000000000000E+20
 20
1.000000000000000E+20
 30
1.000000000000000E+20
  9
$PEXTMAX
 10
-1.000000000000000E+20
 20
-1.000000000000000E+20
 30
-1.000000000000000E+20
  9
$PLIMMIN
 10
0.0
 20
0.0
  9
$PLIMMAX
 10
12.0
 20
9.0
  9
$UNITMODE
 70
     0
  9
$VISRETAIN
 70
     1
  9
$PLINEGEN
 70
     0
  9
$PSLTSCALE
 70
     1
  9
$TREEDEPTH
 70
  3020
  9
$CMLSTYLE
  2
Standard
  9
$CMLJUST
 70
     0
  9
$CMLSCALE
 40
1.0
  9
$PROXYGRAPHICS
 70
     1
  9
$MEASUREMENT
 70
     0
  9
$CELWEIGHT
370
    -1
  9
$ENDCAPS
280
     0
  9
$JOINSTYLE
280
     0
  9
$LWDISPLAY
290
     0
  9
$INSUNITS
 70
     1
  9
$HYPERLINKBASE
  1

  9
$STYLESHEET
  1

  9
$XEDIT
290
     1
  9
$CEPSNTYPE
380
     0
  9
$PSTYLEMODE
290
     0
  9
$FINGERPRINTGUID
  2
{FAEB1C30-E019-11D5-929B-00C0DF256EC4}
  9
$VERSIONGUID
  2
{FAEB1C32-E019-11D5-929B-00C0DF256EC4}
  9
$EXTNAMES
290
     1
  9
$PSVPSCALE
 40
0.0
  9
$OLESTARTUP
290
     0
  9
$SORTENTS
280
   127
  9
$INDEXCTL
280
     0
  9
$HIDETEXT
280
     1
  9
$XCLIPFRAME
290
     0
  9
$HALOGAP
280
     0
  9
$OBSCOLOR
 70
   257
  9
$OBSLTYPE
280
     0
  9
$INTERSECTIONDISPLAY
280
     0
  9
$INTERSECTIONCOLOR
 70
   257
  9
$DIMASSOC
280
     2
  9
$PROJECTNAME
  1

  0
ENDSEC
  0
SECTION
  2
CLASSES
  0
CLASS
  1
ACDBDICTIONARYWDFLT
  2
AcDbDictionaryWithDefault
  3
ObjectDBX Classes
 90
        0
 91
        1
280
     0
281
     0
  0
ENDSEC
  0
SECTION
  2
TABLES
  0
TABLE
  2
VPORT
  5
8
330
0
100
AcDbSymbolTable
 70
     2
  0
VPORT
  5
29
330
8
100
AcDbSymbolTableRecord
100
AcDbViewportTableRecord
  2
*Active
 70
     0
 10
0.0
 20
0.0
 11
1.0
 21
1.0
 12
10.42990654205607
 22
4.5
 13
0.0
 23
0.0
 14
0.5
 24
0.5
 15
0.5
 25
0.5
 16
0.0
 26
0.0
 36
1.0
 17
0.0
 27
0.0
 37
0.0
 40
9.0
 41
1.972972972850329
 42
50.0
 43
0.0
 44
0.0
 50
0.0
 51
0.0
 71
     0
 72
   100
 73
     1
 74
     3
 75
     0
 76
     0
 77
     0
 78
     0
281
     0
 65
     1
110
0.0
120
0.0
130
0.0
111
1.0
121
0.0
131
0.0
112
0.0
122
1.0
132
0.0
 79
     0
146
0.0
  0
ENDTAB
  0
TABLE
  2
LTYPE
  5
5
330
0
100
AcDbSymbolTable
 70
     1
  0
LTYPE
  5
14
330
5
100
AcDbSymbolTableRecord
100
AcDbLinetypeTableRecord
  2
ByBlock
 70
     0
  3

 72
    65
 73
     0
 40
0.0
  0
LTYPE
  5
15
330
5
100
AcDbSymbolTableRecord
100
AcDbLinetypeTableRecord
  2
ByLayer
 70
     0
  3

 72
    65
 73
     0
 40
0.0
  0
LTYPE
  5
16
330
5
100
AcDbSymbolTableRecord
100
AcDbLinetypeTableRecord
  2
Continuous
 70
     0
  3
Solid line
 72
    65
 73
     0
 40
0.0
  0
ENDTAB
  0
TABLE
  2
LAYER
  5
2
330
0
100
AcDbSymbolTable
 70
     2
  0
LAYER
  5
10
330
2
100
AcDbSymbolTableRecord
100
AcDbLayerTableRecord
  2
0
 70
     0
 62
     7
  6
Continuous
370
    -3
390
F
  0
LAYER
  5
2B
330
2
100
AcDbSymbolTableRecord
100
AcDbLayerTableRecord
  2
Layer 1
 70
     0
 62
     7
  6
Continuous
370
    -3
390
F
  0
ENDTAB
  0
TABLE
  2
STYLE
  5
3
330
0
100
AcDbSymbolTable
 70
     1
  0
STYLE
  5
11
330
3
100
AcDbSymbolTableRecord
100
AcDbTextStyleTableRecord
  2
Standard
 70
     0
 40
0.0
 41
1.0
 50
0.0
 71
     0
 42
0.2
  3
txt
  4

  0
ENDTAB
  0
TABLE
  2
VIEW
  5
6
330
0
100
AcDbSymbolTable
 70
     0
  0
ENDTAB
  0
TABLE
  2
UCS
  5
7
330
0
100
AcDbSymbolTable
 70
     0
  0
ENDTAB
  0
TABLE
  2
APPID
  5
9
330
0
100
AcDbSymbolTable
 70
     2
  0
APPID
  5
12
330
9
100
AcDbSymbolTableRecord
100
AcDbRegAppTableRecord
  2
ACAD
 70
     0
  0
APPID
  5
2A
330
9
100
AcDbSymbolTableRecord
100
AcDbRegAppTableRecord
  2
ODA
 70
     0
  0
ENDTAB
  0
TABLE
  2
DIMSTYLE
  5
A
330
0
100
AcDbSymbolTable
 70
     1
100
AcDbDimStyleTable
  0
DIMSTYLE
105
27
330
A
100
AcDbSymbolTableRecord
100
AcDbDimStyleTableRecord
  2
Standard
 70
     0
340
11
  0
ENDTAB
  0
TABLE
  2
BLOCK_RECORD
  5
1
330
0
100
AcDbSymbolTable
 70
     1
  0
BLOCK_RECORD
  5
1F
330
1
100
AcDbSymbolTableRecord
100
AcDbBlockTableRecord
  2
*Model_Space
340
22
  0
BLOCK_RECORD
  5
1B
330
1
100
AcDbSymbolTableRecord
100
AcDbBlockTableRecord
  2
*Paper_Space
340
1E
  0
BLOCK_RECORD
  5
23
330
1
100
AcDbSymbolTableRecord
100
AcDbBlockTableRecord
  2
*Paper_Space0
340
26
  0
ENDTAB
  0
ENDSEC
  0
SECTION
  2
BLOCKS
  0
BLOCK
  5
20
330
1F
100
AcDbEntity
  8
0
100
AcDbBlockBegin
  2
*Model_Space
 70
     0
 71
     0
 10
0.0
 20
0.0
 30
0.0
  3
*Model_Space
  1

  0
ENDBLK
  5
21
330
1F
100
AcDbEntity
  8
0
100
AcDbBlockEnd
  0
BLOCK
  5
1C
330
1B
100
AcDbEntity
 67
     1
  8
0
100
AcDbBlockBegin
  2
*Paper_Space
 70
     0
 71
     0
 10
0.0
 20
0.0
 30
0.0
  3
*Paper_Space
  1

  0
ENDBLK
  5
1D
330
1B
100
AcDbEntity
 67
     1
  8
0
100
AcDbBlockEnd
  0
BLOCK
  5
24
330
23
100
AcDbEntity
  8
0
100
AcDbBlockBegin
  2
*Paper_Space0
 70
     0
 71
     0
 10
0.0
 20
0.0
 30
0.0
  3
*Paper_Space0
  1

  0
ENDBLK
  5
25
330
23
100
AcDbEntity
  8
0
100
AcDbBlockEnd
  0
ENDSEC
  0
SECTION
  2
ENTITIES
  0
SPLINE
  5
2C
330
1F
100
AcDbEntity
  8
Layer 1
 62
    30
100
AcDbSpline
210
0.0
220
0.0
230
1.0
 70
    11
 71
     3
 72
   136
 73
   132
 74
     0
 42
0.0000000001
 43
0.0000000001
 40
0.0
 40
0.0
 40
0.0
 40
0.0
 40
0.0303030303030303
 40
0.0303030303030303
 40
0.0303030303030303
 40
0.0303030303030303
 40
0.0606060606060606
 40
0.0606060606060606
 40
0.0606060606060606
 40
0.0606060606060606
 40
0.0909090909090909
 40
0.0909090909090909
 40
0.0909090909090909
 40
0.0909090909090909
 40
0.1212121212121212
 40
0.1212121212121212
 40
0.1212121212121212
 40
0.1212121212121212
 40
0.1515151515151515
 40
0.1515151515151515
 40
0.1515151515151515
 40
0.1515151515151515
 40
0.1818181818181818
 40
0.1818181818181818
 40
0.1818181818181818
 40
0.1818181818181818
 40
0.2121212121212121
 40
0.2121212121212121
 40
0.2121212121212121
 40
0.2121212121212121
 40
0.2424242424242424
 40
0.2424242424242424
 40
0.2424242424242424
 40
0.2424242424242424
 40
0.2727272727272727
 40
0.2727272727272727
 40
0.2727272727272727
 40
0.2727272727272727
 40
0.303030303030303
 40
0.303030303030303
 40
0.303030303030303
 40
0.303030303030303
 40
0.3333333333333333
 40
0.3333333333333333
 40
0.3333333333333333
 40
0.3333333333333333
 40
0.3636363636363635
 40
0.3636363636363635
 40
0.3636363636363635
 40
0.3636363636363635
 40
0.3939393939393938
 40
0.3939393939393938
 40
0.3939393939393938
 40
0.3939393939393938
 40
0.4242424242424241
 40
0.4242424242424241
 40
0.4242424242424241
 40
0.4242424242424241
 40
0.4545454545454544
 40
0.4545454545454544
 40
0.4545454545454544
 40
0.4545454545454544
 40
0.4848484848484846
 40
0.4848484848484846
 40
0.4848484848484846
 40
0.4848484848484846
 40
0.5151515151515149
 40
0.5151515151515149
 40
0.5151515151515149
 40
0.5151515151515149
 40
0.5454545454545452
 40
0.5454545454545452
 40
0.5454545454545452
 40
0.5454545454545452
 40
0.5757575757575755
 40
0.5757575757575755
 40
0.5757575757575755
 40
0.5757575757575755
 40
0.6060606060606057
 40
0.6060606060606057
 40
0.6060606060606057
 40
0.6060606060606057
 40
0.636363636363636
 40
0.636363636363636
 40
0.636363636363636
 40
0.636363636363636
 40
0.6666666666666663
 40
0.6666666666666663
 40
0.6666666666666663
 40
0.6666666666666663
 40
0.6969696969696966
 40
0.6969696969696966
 40
0.6969696969696966
 40
0.6969696969696966
 40
0.7272727272727269
 40
0.7272727272727269
 40
0.7272727272727269
 40
0.7272727272727269
 40
0.7575757575757571
 40
0.7575757575757571
 40
0.7575757575757571
 40
0.7575757575757571
 40
0.7878787878787874
 40
0.7878787878787874
 40
0.7878787878787874
 40
0.7878787878787874
 40
0.8181818181818177
 40
0.8181818181818177
 40
0.8181818181818177
 40
0.8181818181818177
 40
0.848484848484848
 40
0.848484848484848
 40
0.848484848484848
 40
0.848484848484848
 40
0.8787878787878782
 40
0.8787878787878782
 40
0.8787878787878782
 40
0.8787878787878782
 40
0.9090909090909085
 40
0.9090909090909085
 40
0.9090909090909085
 40
0.9090909090909085
 40
0.9393939393939388
 40
0.9393939393939388
 40
0.9393939393939388
 40
0.9393939393939388
 40
0.9696969696969691
 40
0.9696969696969691
 40
0.9696969696969691
 40
0.9696969696969691
 40
1.0
 40
1.0
 40
1.0
 40
1.0
 10
-34.44703937007874
 20
19.24014960629921
 30
0.0
 10
-35.41877559055119
 20
18.7906062992126
 30
0.0
 10
-35.92854724409449
 20
19.01352755905512
 30
0.0
 10
-36.69310236220473
 20
19.2401220472441
 30
0.0
 10
-36.69310236220473
 20
19.2401220472441
 30
0.0
 10
-36.90896062992126
 20
19.30409448818898
 30
0.0
 10
-37.17848425196851
 20
19.2948031496063
 30
0.0
 10
-37.37740157480315
 20
19.19917322834646
 30
0.0
 10
-37.37740157480315
 20
19.19917322834646
 30
0.0
 10
-38.32554330708662
 20
18.74335826771654
 30
0.0
 10
-39.15203543307086
 20
18.44736220472441
 30
0.0
 10
-40.28775984251968
 20
18.97277952755906
 30
0.0
 10
-40.28775984251968
 20
18.97277952755906
 30
0.0
 10
-41.4234842519685
 20
19.49819291338583
 30
0.0
 10
-42.0504251968504
 20
21.21356299212599
 30
0.0
 10
-41.17888188976378
 20
22.56794881889764
 30
0.0
 10
-41.17888188976378
 20
22.56794881889764
 30
0.0
 10
-40.34985039370079
 20
23.85620866141732
 30
0.0
 10
-39.00903937007874
 20
24.23257874015748
 30
0.0
 10
-37.5844094488189
 20
23.9854094488189
 30
0.0
 10
-37.5844094488189
 20
23.9854094488189
 30
0.0
 10
-37.446
 20
24.27694488188977
 30
0.0
 10
-37.31192913385827
 20
24.57523622047244
 30
0.0
 10
-37.33365354330709
 20
24.89206692913386
 30
0.0
 10
-37.33365354330709
 20
24.89206692913386
 30
0.0
 10
-37.88537007874016
 20
24.82622047244094
 30
0.0
 10
-39.03113779527559
 20
25.58546062992126
 30
0.0
 10
-38.64409842519685
 20
26.22315748031496
 30
0.0
 10
-38.64409842519685
 20
26.22315748031496
 30
0.0
 10
-38.58496456692914
 20
26.3206062992126
 30
0.0
 10
-38.45938188976378
 20
26.38907874015748
 30
0.0
 10
-38.21026771653543
 20
26.38907874015748
 30
0.0
 10
-38.21026771653543
 20
26.38907874015748
 30
0.0
 10
-37.68507874015748
 20
26.38907874015748
 30
0.0
 10
-37.23134251968504
 20
25.69424803149606
 30
0.0
 10
-37.0910157480315
 20
25.05918503937008
 30
0.0
 10
-37.0910157480315
 20
25.05918503937008
 30
0.0
 10
-37.00152755905512
 20
25.06455118110236
 30
0.0
 10
-36.96824409448819
 20
25.06568503937008
 30
0.0
 10
-36.89279133858268
 20
25.10340551181103
 30
0.0
 10
-36.89279133858268
 20
25.10340551181103
 30
0.0
 10
-36.83882677165354
 20
25.1303937007874
 30
0.0
 10
-36.77614566929134
 20
25.16990157480315
 30
0.0
 10
-36.70969685039371
 20
25.2161968503937
 30
0.0
 10
-36.70969685039371
 20
25.2161968503937
 30
0.0
 10
-36.70969685039371
 20
25.2161968503937
 30
0.0
 10
-36.76946850393701
 20
25.528
 30
0.0
 10
-36.76946850393701
 20
25.528
 30
0.0
 10
-36.76946850393701
 20
25.528
 30
0.0
 10
-36.77848425196851
 20
25.57503543307087
 30
0.0
 10
-36.82163385826772
 20
25.63836614173228
 30
0.0
 10
-36.88801968503937
 20
25.78952362204725
 30
0.0
 10
-36.88801968503937
 20
25.78952362204725
 30
0.0
 10
-37.0602125984252
 20
26.18165354330709
 30
0.0
 10
-36.83728740157481
 20
26.47577165354331
 30
0.0
 10
-36.71392125984252
 20
26.63154724409449
 30
0.0
 10
-36.71392125984252
 20
26.63154724409449
 30
0.0
 10
-36.67927952755905
 20
26.67529133858268
 30
0.0
 10
-36.32532677165354
 20
26.89216535433071
 30
0.0
 10
-36.41082283464567
 20
26.77866141732284
 30
0.0
 10
-36.41082283464567
 20
26.77866141732284
 30
0.0
 10
-36.56142519685039
 20
26.57851181102362
 30
0.0
 10
-36.44535433070866
 20
26.45379133858268
 30
0.0
 10
-36.32872047244095
 20
26.28613385826772
 30
0.0
 10
-36.32872047244095
 20
26.28613385826772
 30
0.0
 10
-36.30643700787402
 20
26.25411023622047
 30
0.0
 10
-36.38588582677166
 20
26.76011417322835
 30
0.0
 10
-36.10781102362205
 20
26.82639763779528
 30
0.0
 10
-36.10781102362205
 20
26.82639763779528
 30
0.0
 10
-35.97548031496064
 20
26.8579251968504
 30
0.0
 10
-35.89668110236221
 20
26.87049606299213
 30
0.0
 10
-35.76350787401575
 20
26.8337283464567
 30
0.0
 10
-35.76350787401575
 20
26.8337283464567
 30
0.0
 10
-35.81097244094488
 20
26.78943307086614
 30
0.0
 10
-35.89673228346457
 20
26.44208267716536
 30
0.0
 10
-35.8265
 20
26.36327952755906
 30
0.0
 10
-35.8265
 20
26.36327952755906
 30
0.0
 10
-35.80668897637796
 20
26.35427952755906
 30
0.0
 10
-35.73625984251969
 20
26.4893188976378
 30
0.0
 10
-35.58356692913386
 20
26.55888582677165
 30
0.0
 10
-35.58356692913386
 20
26.55888582677165
 30
0.0
 10
-35.2544251968504
 20
26.70882283464567
 30
0.0
 10
-34.71561417322835
 20
26.87302362204725
 30
0.0
 10
-34.69337007874016
 20
26.87612992125984
 30
0.0
 10
-34.69337007874016
 20
26.87612992125984
 30
0.0
 10
-34.6319094488189
 20
25.5171968503937
 30
0.0
 10
-35.2249094488189
 20
26.00019291338583
 30
0.0
 10
-35.48686220472441
 20
25.8335905511811
 30
0.0
 10
-35.48686220472441
 20
25.8335905511811
 30
0.0
 10
-35.44940551181102
 20
25.71657480314961
 30
0.0
 10
-35.25381496062992
 20
25.71157480314961
 30
0.0
 10
-35.20588976377953
 20
25.6837125984252
 30
0.0
 10
-35.20588976377953
 20
25.6837125984252
 30
0.0
 10
-35.11586614173228
 20
25.63132283464567
 30
0.0
 10
-35.09857480314961
 20
25.61832283464567
 30
0.0
 10
-34.89969291338583
 20
25.44866535433071
 30
0.0
 10
-34.89969291338583
 20
25.44866535433071
 30
0.0
 10
-35.24314960629921
 20
25.11035433070866
 30
0.0
 10
-35.69533464566929
 20
25.41176771653543
 30
0.0
 10
-35.76618503937008
 20
25.37041732283465
 30
0.0
 10
-35.76618503937008
 20
25.37041732283465
 30
0.0
 10
-35.84027165354331
 20
25.32716929133859
 30
0.0
 10
-35.21225984251969
 20
24.93456692913386
 30
0.0
 10
-35.17250393700788
 20
24.84208661417323
 30
0.0
 10
-35.17250393700788
 20
24.84208661417323
 30
0.0
 10
-35.8802283464567
 20
24.48538582677166
 30
0.0
 10
-36.15032677165355
 20
24.79817716535433
 30
0.0
 10
-36.55428346456693
 20
25.04056299212598
 30
0.0
 10
-36.55428346456693
 20
25.04056299212598
 30
0.0
 10
-36.5814094488189
 20
25.02629527559055
 30
0.0
 10
-36.60820472440945
 20
25.01315354330709
 30
0.0
 10
-36.63448818897638
 20
25.00144488188976
 30
0.0
 10
-36.63448818897638
 20
25.00144488188976
 30
0.0
 10
-36.74825590551181
 20
24.95074409448819
 30
0.0
 10
-36.90016141732284
 20
24.93360236220472
 30
0.0
 10
-37.04107086614173
 20
24.89608267716536
 30
0.0
 10
-37.04107086614173
 20
24.89608267716536
 30
0.0
 10
-37.02216535433071
 20
24.42927559055118
 30
0.0
 10
-37.0231062992126
 20
24.50871653543307
 30
0.0
 10
-37.0863937007874
 20
23.90602755905512
 30
0.0
 10
-37.0863937007874
 20
23.90602755905512
 30
0.0
 10
-36.95147637795276
 20
23.88842913385827
 30
0.0
 10
-36.90767322834646
 20
23.89288188976378
 30
0.0
 10
-36.71109448818898
 20
23.92653937007874
 30
0.0
 10
-36.71109448818898
 20
23.92653937007874
 30
0.0
 10
-35.57913779527559
 20
24.12035039370079
 30
0.0
 10
-34.30113779527559
 20
23.57461417322835
 30
0.0
 10
-33.63085826771653
 20
22.53299212598425
 30
0.0
 10
-33.63085826771653
 20
22.53299212598425
 30
0.0
 10
-32.83261417322835
 20
21.29249606299213
 30
0.0
 10
-33.47529527559055
 20
19.68968503937008
 30
0.0
 10
-34.44703937007874
 20
19.24014960629921
 30
0.0
  0
SPLINE
  5
2D
330
1F
100
AcDbEntity
  8
Layer 1
 62
    30
100
AcDbSpline
210
0.0
220
0.0
230
1.0
 70
    11
 71
     3
 72
    60
 73
    56
 74
     0
 42
0.0000000001
 43
0.0000000001
 40
0.0
 40
0.0
 40
0.0
 40
0.0
 40
0.0714285714285714
 40
0.0714285714285714
 40
0.0714285714285714
 40
0.0714285714285714
 40
0.1428571428571429
 40
0.1428571428571429
 40
0.1428571428571429
 40
0.1428571428571429
 40
0.2142857142857143
 40
0.2142857142857143
 40
0.2142857142857143
 40
0.2142857142857143
 40
0.2857142857142857
 40
0.2857142857142857
 40
0.2857142857142857
 40
0.2857142857142857
 40
0.3571428571428571
 40
0.3571428571428571
 40
0.3571428571428571
 40
0.3571428571428571
 40
0.4285714285714285
 40
0.4285714285714285
 40
0.4285714285714285
 40
0.4285714285714285
 40
0.4999999999999999
 40
0.4999999999999999
 40
0.4999999999999999
 40
0.4999999999999999
 40
0.5714285714285713
 40
0.5714285714285713
 40
0.5714285714285713
 40
0.5714285714285713
 40
0.6428571428571427
 40
0.6428571428571427
 40
0.6428571428571427
 40
0.6428571428571427
 40
0.7142857142857141
 40
0.7142857142857141
 40
0.7142857142857141
 40
0.7142857142857141
 40
0.7857142857142855
 40
0.7857142857142855
 40
0.7857142857142855
 40
0.7857142857142855
 40
0.8571428571428569
 40
0.8571428571428569
 40
0.8571428571428569
 40
0.8571428571428569
 40
0.9285714285714283
 40
0.9285714285714283
 40
0.9285714285714283
 40
0.9285714285714283
 40
1.0
 40
1.0
 40
1.0
 40
1.0
 10
-38.97155118110236
 20
21.73565748031496
 30
0.0
 10
-38.80923228346457
 20
21.73565748031496
 30
0.0
 10
-38.67759448818898
 20
21.6055157480315
 30
0.0
 10
-38.67759448818898
 20
21.44503937007874
 30
0.0
 10
-38.67759448818898
 20
21.44503937007874
 30
0.0
 10
-38.67759448818898
 20
21.40381102362205
 30
0.0
 10
-38.68628346456693
 20
21.36458267716536
 30
0.0
 10
-38.70195669291338
 20
21.32904330708661
 30
0.0
 10
-38.70195669291338
 20
21.32904330708661
 30
0.0
 10
-38.70195669291338
 20
21.32904330708661
 30
0.0
 10
-38.7018031496063
 20
21.32915354330709
 30
0.0
 10
-38.7018031496063
 20
21.32915354330709
 30
0.0
 10
-38.7018031496063
 20
21.32915354330709
 30
0.0
 10
-38.45442913385827
 20
21.51455905511811
 30
0.0
 10
-38.45682283464567
 20
21.93569291338583
 30
0.0
 10
-38.7070905511811
 20
22.26968897637795
 30
0.0
 10
-38.7070905511811
 20
22.26968897637795
 30
0.0
 10
-38.97231102362205
 20
22.62357480314961
 30
0.0
 10
-39.47929921259843
 20
22.65003937007874
 30
0.0
 10
-39.63481102362205
 20
23.1226811023622
 30
0.0
 10
-39.63481102362205
 20
23.1226811023622
 30
0.0
 10
-39.69979527559055
 20
23.06581496062992
 30
0.0
 10
-39.63617716535433
 20
22.62343700787402
 30
0.0
 10
-39.45777559055118
 20
22.57881102362205
 30
0.0
 10
-39.45777559055118
 20
22.57881102362205
 30
0.0
 10
-39.58529133858268
 20
22.5556811023622
 30
0.0
 10
-39.91191732283465
 20
22.58670866141732
 30
0.0
 10
-39.99477952755905
 20
22.84365354330709
 30
0.0
 10
-39.99477952755905
 20
22.84365354330709
 30
0.0
 10
-40.03348818897638
 20
22.48912992125984
 30
0.0
 10
-39.8617125984252
 20
22.42283858267717
 30
0.0
 10
-39.71406299212599
 20
22.35720078740157
 30
0.0
 10
-39.71406299212599
 20
22.35720078740157
 30
0.0
 10
-39.7748188976378
 20
22.22246062992126
 30
0.0
 10
-40.12093700787402
 20
22.31275196850394
 30
0.0
 10
-40.19072834645669
 20
22.4097874015748
 30
0.0
 10
-40.19072834645669
 20
22.4097874015748
 30
0.0
 10
-40.23328740157481
 20
22.3241062992126
 30
0.0
 10
-40.0866220472441
 20
22.12877165354331
 30
0.0
 10
-39.79201968503937
 20
22.11143307086614
 30
0.0
 10
-39.79201968503937
 20
22.11143307086614
 30
0.0
 10
-39.78807874015748
 20
21.94458661417323
 30
0.0
 10
-39.72501968503937
 20
21.7610157480315
 30
0.0
 10
-39.60300393700788
 20
21.59818503937008
 30
0.0
 10
-39.60300393700788
 20
21.59818503937008
 30
0.0
 10
-39.49626771653544
 20
21.45575590551181
 30
0.0
 10
-39.36161023622047
 20
21.35218110236221
 30
0.0
 10
-39.2231062992126
 20
21.29458661417323
 30
0.0
 10
-39.2231062992126
 20
21.29458661417323
 30
0.0
 10
-39.2500157480315
 20
21.33847637795276
 30
0.0
 10
-39.26551968503937
 20
21.38998031496063
 30
0.0
 10
-39.26551968503937
 20
21.44503937007874
 30
0.0
 10
-39.26551968503937
 20
21.44503937007874
 30
0.0
 10
-39.26551968503937
 20
21.6055157480315
 30
0.0
 10
-39.13387795275591
 20
21.73565748031496
 30
0.0
 10
-38.97155118110236
 20
21.73565748031496
 30
0.0
  0
SPLINE
  5
2E
330
1F
100
AcDbEntity
  8
Layer 1
 62
    30
100
AcDbSpline
210
0.0
220
0.0
230
1.0
 70
    11
 71
     3
 72
    52
 73
    48
 74
     0
 42
0.0000000001
 43
0.0000000001
 40
0.0
 40
0.0
 40
0.0
 40
0.0
 40
0.0833333333333333
 40
0.0833333333333333
 40
0.0833333333333333
 40
0.0833333333333333
 40
0.1666666666666667
 40
0.1666666666666667
 40
0.1666666666666667
 40
0.1666666666666667
 40
0.25
 40
0.25
 40
0.25
 40
0.25
 40
0.3333333333333333
 40
0.3333333333333333
 40
0.3333333333333333
 40
0.3333333333333333
 40
0.4166666666666666
 40
0.4166666666666666
 40
0.4166666666666666
 40
0.4166666666666666
 40
0.4999999999999999
 40
0.4999999999999999
 40
0.4999999999999999
 40
0.4999999999999999
 40
0.5833333333333333
 40
0.5833333333333333
 40
0.5833333333333333
 40
0.5833333333333333
 40
0.6666666666666666
 40
0.6666666666666666
 40
0.6666666666666666
 40
0.6666666666666666
 40
0.75
 40
0.75
 40
0.75
 40
0.75
 40
0.8333333333333334
 40
0.8333333333333334
 40
0.8333333333333334
 40
0.8333333333333334
 40
0.9166666666666667
 40
0.9166666666666667
 40
0.9166666666666667
 40
0.9166666666666667
 40
1.0
 40
1.0
 40
1.0
 40
1.0
 10
-37.04523622047244
 20
21.71868503937008
 30
0.0
 10
-36.88291338582678
 20
21.71868503937008
 30
0.0
 10
-36.75128346456693
 20
21.58854330708661
 30
0.0
 10
-36.75128346456693
 20
21.42806299212598
 30
0.0
 10
-36.75128346456693
 20
21.42806299212598
 30
0.0
 10
-36.75128346456693
 20
21.39660236220473
 30
0.0
 10
-36.75632677165355
 20
21.3663031496063
 30
0.0
 10
-36.7656968503937
 20
21.33791338582677
 30
0.0
 10
-36.7656968503937
 20
21.33791338582677
 30
0.0
 10
-36.61733858267716
 20
21.39272440944882
 30
0.0
 10
-36.47155905511811
 20
21.50051968503937
 30
0.0
 10
-36.35757874015748
 20
21.65261417322835
 30
0.0
 10
-36.35757874015748
 20
21.65261417322835
 30
0.0
 10
-36.23556692913386
 20
21.81544881889764
 30
0.0
 10
-36.1725
 20
21.99901968503937
 30
0.0
 10
-36.16855905511811
 20
22.16586220472441
 30
0.0
 10
-36.16855905511811
 20
22.16586220472441
 30
0.0
 10
-35.87396456692913
 20
22.18320866141733
 30
0.0
 10
-35.72729921259843
 20
22.37853937007874
 30
0.0
 10
-35.76987007874016
 20
22.46422047244095
 30
0.0
 10
-35.76987007874016
 20
22.46422047244095
 30
0.0
 10
-35.83964960629921
 20
22.36719291338583
 30
0.0
 10
-36.18576771653544
 20
22.2768937007874
 30
0.0
 10
-36.24652362204724
 20
22.41164173228347
 30
0.0
 10
-36.24652362204724
 20
22.41164173228347
 30
0.0
 10
-36.09887401574803
 20
22.47727559055118
 30
0.0
 10
-35.92709842519685
 20
22.54356692913386
 30
0.0
 10
-35.9658031496063
 20
22.89808661417323
 30
0.0
 10
-35.9658031496063
 20
22.89808661417323
 30
0.0
 10
-36.04866535433071
 20
22.64114566929134
 30
0.0
 10
-36.37529921259843
 20
22.61011811023622
 30
0.0
 10
-36.5028188976378
 20
22.63323622047244
 30
0.0
 10
-36.5028188976378
 20
22.63323622047244
 30
0.0
 10
-36.32441338582677
 20
22.67786614173228
 30
0.0
 10
-36.26079133858268
 20
23.12024409448819
 30
0.0
 10
-36.32577952755906
 20
23.17711417322835
 30
0.0
 10
-36.32577952755906
 20
23.17711417322835
 30
0.0
 10
-36.48128346456693
 20
22.70447637795276
 30
0.0
 10
-36.98827952755906
 20
22.67801181102362
 30
0.0
 10
-37.2535
 20
22.3241220472441
 30
0.0
 10
-37.2535
 20
22.3241220472441
 30
0.0
 10
-37.47356692913386
 20
22.0304251968504
 30
0.0
 10
-37.5019094488189
 20
21.66936220472441
 30
0.0
 10
-37.33737007874016
 20
21.46044094488189
 30
0.0
 10
-37.33737007874016
 20
21.46044094488189
 30
0.0
 10
-37.32106692913386
 20
21.60567716535433
 30
0.0
 10
-37.19649606299213
 20
21.71868503937008
 30
0.0
 10
-37.04523622047244
 20
21.71868503937008
 30
0.0
  0
SPLINE
  5
2F
330
1F
100
AcDbEntity
  8
Layer 1
 62
    30
100
AcDbSpline
210
0.0
220
0.0
230
1.0
 70
    11
 71
     3
 72
    12
 73
     8
 74
     0
 42
0.0000000001
 43
0.0000000001
 40
0.0
 40
0.0
 40
0.0
 40
0.0
 40
0.5
 40
0.5
 40
0.5
 40
0.5
 40
1.0
 40
1.0
 40
1.0
 40
1.0
 10
-37.34044881889764
 20
25.07578346456693
 30
0.0
 10
-37.42487007874016
 20
25.54064566929134
 30
0.0
 10
-38.0780157480315
 20
26.38003543307087
 30
0.0
 10
-38.39848031496063
 20
25.99967716535433
 30
0.0
 10
-38.39848031496063
 20
25.99967716535433
 30
0.0
 10
-38.6916811023622
 20
25.65165354330709
 30
0.0
 10
-37.86567716535433
 20
25.1306968503937
 30
0.0
 10
-37.34044881889764
 20
25.07578346456693
 30
0.0
  0
SPLINE
  5
30
330
1F
100
AcDbEntity
  8
Layer 1
 62
    30
100
AcDbSpline
210
0.0
220
0.0
230
1.0
 70
    11
 71
     3
 72
    36
 73
    32
 74
     0
 42
0.0000000001
 43
0.0000000001
 40
0.0
 40
0.0
 40
0.0
 40
0.0
 40
0.125
 40
0.125
 40
0.125
 40
0.125
 40
0.25
 40
0.25
 40
0.25
 40
0.25
 40
0.375
 40
0.375
 40
0.375
 40
0.375
 40
0.5
 40
0.5
 40
0.5
 40
0.5
 40
0.625
 40
0.625
 40
0.625
 40
0.625
 40
0.75
 40
0.75
 40
0.75
 40
0.75
 40
0.875
 40
0.875
 40
0.875
 40
0.875
 40
1.0
 40
1.0
 40
1.0
 40
1.0
 10
-38.40570472440945
 20
20.73229527559055
 30
0.0
 10
-38.24848031496063
 20
20.78708267716536
 30
0.0
 10
-38.06149606299213
 20
20.57884645669292
 30
0.0
 10
-37.8960157480315
 20
20.59722834645669
 30
0.0
 10
-37.8960157480315
 20
20.59722834645669
 30
0.0
 10
-37.70518897637795
 20
20.61841732283465
 30
0.0
 10
-37.57750787401575
 20
20.90213779527559
 30
0.0
 10
-37.38832677165355
 20
20.86934251968504
 30
0.0
 10
-37.38832677165355
 20
20.86934251968504
 30
0.0
 10
-37.09452362204725
 20
20.81840551181103
 30
0.0
 10
-37.05376771653543
 20
20.63405511811024
 30
0.0
 10
-36.63985039370079
 20
20.37942913385827
 30
0.0
 10
-36.63985039370079
 20
20.37942913385827
 30
0.0
 10
-36.94137007874016
 20
19.73433464566929
 30
0.0
 10
-37.15313385826772
 20
19.79259842519685
 30
0.0
 10
-37.48779921259843
 20
19.64733464566929
 30
0.0
 10
-37.48779921259843
 20
19.64733464566929
 30
0.0
 10
-37.59587007874016
 20
19.60043307086614
 30
0.0
 10
-37.68776377952756
 20
19.86744488188976
 30
0.0
 10
-37.80433070866142
 20
19.85045275590551
 30
0.0
 10
-37.80433070866142
 20
19.85045275590551
 30
0.0
 10
-37.94914566929134
 20
19.82935433070866
 30
0.0
 10
-38.01158267716536
 20
19.55176771653543
 30
0.0
 10
-38.15509448818898
 20
19.58026377952756
 30
0.0
 10
-38.15509448818898
 20
19.58026377952756
 30
0.0
 10
-38.5372125984252
 20
19.65612992125984
 30
0.0
 10
-38.75561811023622
 20
19.6478031496063
 30
0.0
 10
-39.17055905511811
 20
20.16687795275591
 30
0.0
 10
-39.17055905511811
 20
20.16687795275591
 30
0.0
 10
-38.83423622047244
 20
20.34620078740158
 30
0.0
 10
-38.72696850393701
 20
20.62033070866142
 30
0.0
 10
-38.40570472440945
 20
20.73229527559055
 30
0.0
  0
ENDSEC
  0
SECTION
  2
OBJECTS
  0
DICTIONARY
  5
C
330
0
100
AcDbDictionary
281
     1
  3
ACAD_GROUP
350
D
  3
ACAD_LAYOUT
350
1A
  3
ACAD_MLINESTYLE
350
17
  3
ACAD_PLOTSETTINGS
350
19
  3
ACAD_PLOTSTYLENAME
350
E
  0
DICTIONARY
  5
D
102
{ACAD_REACTORS
330
C
102
}
330
C
100
AcDbDictionary
281
     1
  0
DICTIONARY
  5
1A
102
{ACAD_REACTORS
330
C
102
}
330
C
100
AcDbDictionary
281
     1
  3
Layout1
350
1E
  3
Layout2
350
26
  3
Model
350
22
  0
DICTIONARY
  5
17
102
{ACAD_REACTORS
330
C
102
}
330
C
100
AcDbDictionary
281
     1
  3
Standard
350
18
  0
DICTIONARY
  5
19
102
{ACAD_REACTORS
330
C
102
}
330
C
100
AcDbDictionary
281
     1
  0
ACDBDICTIONARYWDFLT
  5
E
102
{ACAD_REACTORS
330
C
102
}
330
C
100
AcDbDictionary
281
     1
  3
Normal
350
F
100
AcDbDictionaryWithDefault
340
F
  0
LAYOUT
  5
1E
102
{ACAD_REACTORS
330
1A
102
}
330
1A
100
AcDbPlotSettings
  1

  2

  4

  6

 40
0.0
 41
0.0
 42
0.0
 43
0.0
 44
0.0
 45
0.0
 46
0.0
 47
0.0
 48
0.0
 49
0.0
140
0.0
141
0.0
142
1.0
143
1.0
 70
   688
 72
     0
 73
     0
 74
     5
  7

 75
    16
 76
     0
 77
     2
 78
   300
147
1.0
148
0.0
149
0.0
100
AcDbLayout
  1
Layout1
 70
     1
 71
     1
 10
0.0
 20
0.0
 11
12.0
 21
9.0
 12
0.0
 22
0.0
 32
0.0
 14
1.000000000000000E+20
 24
1.000000000000000E+20
 34
1.000000000000000E+20
 15
-1.000000000000000E+20
 25
-1.000000000000000E+20
 35
-1.000000000000000E+20
146
0.0
 13
0.0
 23
0.0
 33
0.0
 16
1.0
 26
0.0
 36
0.0
 17
0.0
 27
1.0
 37
0.0
 76
     0
330
1B
  0
LAYOUT
  5
26
102
{ACAD_REACTORS
330
1A
102
}
330
1A
100
AcDbPlotSettings
  1

  2

  4

  6

 40
0.0
 41
0.0
 42
0.0
 43
0.0
 44
0.0
 45
0.0
 46
0.0
 47
0.0
 48
0.0
 49
0.0
140
0.0
141
0.0
142
1.0
143
1.0
 70
   688
 72
     0
 73
     0
 74
     5
  7

 75
    16
 76
     0
 77
     2
 78
   300
147
1.0
148
0.0
149
0.0
100
AcDbLayout
  1
Layout2
 70
     1
 71
     2
 10
0.0
 20
0.0
 11
0.0
 21
0.0
 12
0.0
 22
0.0
 32
0.0
 14
0.0
 24
0.0
 34
0.0
 15
0.0
 25
0.0
 35
0.0
146
0.0
 13
0.0
 23
0.0
 33
0.0
 16
1.0
 26
0.0
 36
0.0
 17
0.0
 27
1.0
 37
0.0
 76
     0
330
23
  0
LAYOUT
  5
22
102
{ACAD_REACTORS
330
1A
102
}
330
1A
100
AcDbPlotSettings
  1

  2

  4

  6

 40
0.0
 41
0.0
 42
0.0
 43
0.0
 44
0.0
 45
0.0
 46
0.0
 47
0.0
 48
0.0
 49
0.0
140
0.0
141
0.0
142
1.0
143
1.0
 70
  1712
 72
     0
 73
     0
 74
     0
  7

 75
     0
 76
     0
 77
     2
 78
   300
147
1.0
148
0.0
149
0.0
100
AcDbLayout
  1
Model
 70
     1
 71
     0
 10
0.0
 20
0.0
 11
0.0
 21
0.0
 12
0.0
 22
0.0
 32
0.0
 14
-41.58714566929134
 24
18.69333464566929
 34
0.0
 15
-33.27071653543307
 25
26.87612992125984
 35
0.0
146
0.0
 13
0.0
 23
0.0
 33
0.0
 16
1.0
 26
0.0
 36
0.0
 17
0.0
 27
1.0
 37
0.0
 76
     0
330
1F
  0
MLINESTYLE
  5
18
102
{ACAD_REACTORS
330
17
102
}
330
17
100
AcDbMlineStyle
  2
Standard
 70
     0
  3

 62
   256
 51
90.0
 52
90.0
 71
     2
 49
0.5
 62
   256
  6
BYLAYER
 49
-0.5
 62
   256
  6
BYLAYER
  0
ACDBPLACEHOLDER
  5
F
102
{ACAD_REACTORS
330
E
102
}
330
E
  0
ENDSEC
  0
EOF
