  0
SECTION
  2
HEADER
  9
$ACADVER
  1
AC1018
  9
$ACADMAINTVER
 70
     0
  9
$DWGCODEPAGE
  3
ANSI_1252
  9
$INSBASE
 10
0.0
 20
0.0
 30
0.0
  9
$EXTMIN
 10
-30.29220472440945
 20
18.51393700787402
 30
0.0
  9
$EXTMAX
 10
-24.51920472440945
 20
28.26186614173228
 30
0.0
  9
$LIMMIN
 10
0.0
 20
0.0
  9
$LIMMAX
 10
12.0
 20
9.0
  9
$ORTHOMODE
 70
     0
  9
$REGENMODE
 70
     1
  9
$FILLMODE
 70
     1
  9
$QTEXTMODE
 70
     0
  9
$MIRRTEXT
 70
     1
  9
$LTSCALE
 40
1.0
  9
$ATTMODE
 70
     1
  9
$TEXTSIZE
 40
0.2
  9
$TRACEWID
 40
0.05
  9
$TEXTSTYLE
  7
Standard
  9
$CLAYER
  8
0
  9
$CELTYPE
  6
ByLayer
  9
$CECOLOR
 62
   256
  9
$CELTSCALE
 40
1.0
  9
$DISPSILH
 70
     0
  9
$DIMSCALE
 40
1.0
  9
$DIMASZ
 40
0.18
  9
$DIMEXO
 40
0.0625
  9
$DIMDLI
 40
0.38
  9
$DIMRND
 40
0.0
  9
$DIMDLE
 40
0.0
  9
$DIMEXE
 40
0.18
  9
$DIMTP
 40
0.0
  9
$DIMTM
 40
0.0
  9
$DIMTXT
 40
0.18
  9
$DIMCEN
 40
0.09
  9
$DIMTSZ
 40
0.0
  9
$DIMTOL
 70
     0
  9
$DIMLIM
 70
     0
  9
$DIMTIH
 70
     1
  9
$DIMTOH
 70
     1
  9
$DIMSE1
 70
     0
  9
$DIMSE2
 70
     0
  9
$DIMTAD
 70
     0
  9
$DIMZIN
 70
     0
  9
$DIMBLK
  1

  9
$DIMASO
 70
     1
  9
$DIMSHO
 70
     1
  9
$DIMPOST
  1

  9
$DIMAPOST
  1

  9
$DIMALT
 70
     0
  9
$DIMALTD
 70
     2
  9
$DIMALTF
 40
25.4
  9
$DIMLFAC
 40
1.0
  9
$DIMTOFL
 70
     0
  9
$DIMTVP
 40
0.0
  9
$DIMTIX
 70
     0
  9
$DIMSOXD
 70
     0
  9
$DIMSAH
 70
     0
  9
$DIMBLK1
  1

  9
$DIMBLK2
  1

  9
$DIMSTYLE
  2
Standard
  9
$DIMCLRD
 70
     0
  9
$DIMCLRE
 70
     0
  9
$DIMCLRT
 70
     0
  9
$DIMTFAC
 40
1.0
  9
$DIMGAP
 40
0.09
  9
$DIMJUST
 70
     0
  9
$DIMSD1
 70
     0
  9
$DIMSD2
 70
     0
  9
$DIMTOLJ
 70
     1
  9
$DIMTZIN
 70
     0
  9
$DIMALTZ
 70
     0
  9
$DIMALTTZ
 70
     0
  9
$DIMUPT
 70
     0
  9
$DIMDEC
 70
     4
  9
$DIMTDEC
 70
     4
  9
$DIMALTU
 70
     2
  9
$DIMALTTD
 70
     2
  9
$DIMTXSTY
  7
Standard
  9
$DIMAUNIT
 70
     0
  9
$DIMADEC
 70
     0
  9
$DIMALTRND
 40
0.0
  9
$DIMAZIN
 70
     0
  9
$DIMDSEP
 70
    46
  9
$DIMATFIT
 70
     3
  9
$DIMFRAC
 70
     0
  9
$DIMLDRBLK
  1

  9
$DIMLUNIT
 70
     2
  9
$DIMLWD
 70
    -2
  9
$DIMLWE
 70
    -2
  9
$DIMTMOVE
 70
     0
  9
$LUNITS
 70
     2
  9
$LUPREC
 70
     4
  9
$SKETCHINC
 40
0.1
  9
$FILLETRAD
 40
0.5
  9
$AUNITS
 70
     0
  9
$AUPREC
 70
     0
  9
$MENU
  1
.
  9
$ELEVATION
 40
0.0
  9
$PELEVATION
 40
0.0
  9
$THICKNESS
 40
0.0
  9
$LIMCHECK
 70
     0
  9
$CHAMFERA
 40
0.5
  9
$CHAMFERB
 40
0.5
  9
$CHAMFERC
 40
1.0
  9
$CHAMFERD
 40
0.0
  9
$SKPOLY
 70
     0
  9
$TDCREATE
 40
2458739.470780081
  9
$TDUCREATE
 40
2458739.387446748
  9
$TDUPDATE
 40
2458739.512446759
  9
$TDUUPDATE
 40
2458739.387446759
  9
$TDINDWG
 40
0.0000000116
  9
$TDUSRTIMER
 40
0.0000000116
  9
$USRTIMER
 70
     1
  9
$ANGBASE
 50
0.0
  9
$ANGDIR
 70
     0
  9
$PDMODE
 70
     0
  9
$PDSIZE
 40
0.0
  9
$PLINEWID
 40
0.0
  9
$SPLFRAME
 70
     0
  9
$SPLINETYPE
 70
     6
  9
$SPLINESEGS
 70
     8
  9
$HANDSEED
  5
31
  9
$SURFTAB1
 70
     6
  9
$SURFTAB2
 70
     6
  9
$SURFTYPE
 70
     6
  9
$SURFU
 70
     6
  9
$SURFV
 70
     6
  9
$UCSBASE
  2

  9
$UCSNAME
  2

  9
$UCSORG
 10
0.0
 20
0.0
 30
0.0
  9
$UCSXDIR
 10
1.0
 20
0.0
 30
0.0
  9
$UCSYDIR
 10
0.0
 20
1.0
 30
0.0
  9
$UCSORTHOREF
  2

  9
$UCSORTHOVIEW
 70
     0
  9
$UCSORGTOP
 10
0.0
 20
0.0
 30
0.0
  9
$UCSORGBOTTOM
 10
0.0
 20
0.0
 30
0.0
  9
$UCSORGLEFT
 10
0.0
 20
0.0
 30
0.0
  9
$UCSORGRIGHT
 10
0.0
 20
0.0
 30
0.0
  9
$UCSORGFRONT
 10
0.0
 20
0.0
 30
0.0
  9
$UCSORGBACK
 10
0.0
 20
0.0
 30
0.0
  9
$PUCSBASE
  2

  9
$PUCSNAME
  2

  9
$PUCSORG
 10
0.0
 20
0.0
 30
0.0
  9
$PUCSXDIR
 10
1.0
 20
0.0
 30
0.0
  9
$PUCSYDIR
 10
0.0
 20
1.0
 30
0.0
  9
$PUCSORTHOREF
  2

  9
$PUCSORTHOVIEW
 70
     0
  9
$PUCSORGTOP
 10
0.0
 20
0.0
 30
0.0
  9
$PUCSORGBOTTOM
 10
0.0
 20
0.0
 30
0.0
  9
$PUCSORGLEFT
 10
0.0
 20
0.0
 30
0.0
  9
$PUCSORGRIGHT
 10
0.0
 20
0.0
 30
0.0
  9
$PUCSORGFRONT
 10
0.0
 20
0.0
 30
0.0
  9
$PUCSORGBACK
 10
0.0
 20
0.0
 30
0.0
  9
$USERI1
 70
     0
  9
$USERI2
 70
     0
  9
$USERI3
 70
     0
  9
$USERI4
 70
     0
  9
$USERI5
 70
     0
  9
$USERR1
 40
0.0
  9
$USERR2
 40
0.0
  9
$USERR3
 40
0.0
  9
$USERR4
 40
0.0
  9
$USERR5
 40
0.0
  9
$WORLDVIEW
 70
     1
  9
$SHADEDGE
 70
     3
  9
$SHADEDIF
 70
    70
  9
$TILEMODE
 70
     1
  9
$MAXACTVP
 70
    64
  9
$PINSBASE
 10
0.0
 20
0.0
 30
0.0
  9
$PLIMCHECK
 70
     0
  9
$PEXTMIN
 10
1.000000000000000E+20
 20
1.000000000000000E+20
 30
1.000000000000000E+20
  9
$PEXTMAX
 10
-1.000000000000000E+20
 20
-1.000000000000000E+20
 30
-1.000000000000000E+20
  9
$PLIMMIN
 10
0.0
 20
0.0
  9
$PLIMMAX
 10
12.0
 20
9.0
  9
$UNITMODE
 70
     0
  9
$VISRETAIN
 70
     1
  9
$PLINEGEN
 70
     0
  9
$PSLTSCALE
 70
     1
  9
$TREEDEPTH
 70
  3020
  9
$CMLSTYLE
  2
Standard
  9
$CMLJUST
 70
     0
  9
$CMLSCALE
 40
1.0
  9
$PROXYGRAPHICS
 70
     1
  9
$MEASUREMENT
 70
     0
  9
$CELWEIGHT
370
    -1
  9
$ENDCAPS
280
     0
  9
$JOINSTYLE
280
     0
  9
$LWDISPLAY
290
     0
  9
$INSUNITS
 70
     1
  9
$HYPERLINKBASE
  1

  9
$STYLESHEET
  1

  9
$XEDIT
290
     1
  9
$CEPSNTYPE
380
     0
  9
$PSTYLEMODE
290
     0
  9
$FINGERPRINTGUID
  2
{FAEB1C30-E019-11D5-929B-00C0DF256EC4}
  9
$VERSIONGUID
  2
{FAEB1C32-E019-11D5-929B-00C0DF256EC4}
  9
$EXTNAMES
290
     1
  9
$PSVPSCALE
 40
0.0
  9
$OLESTARTUP
290
     0
  9
$SORTENTS
280
   127
  9
$INDEXCTL
280
     0
  9
$HIDETEXT
280
     1
  9
$XCLIPFRAME
290
     0
  9
$HALOGAP
280
     0
  9
$OBSCOLOR
 70
   257
  9
$OBSLTYPE
280
     0
  9
$INTERSECTIONDISPLAY
280
     0
  9
$INTERSECTIONCOLOR
 70
   257
  9
$DIMASSOC
280
     2
  9
$PROJECTNAME
  1

  0
ENDSEC
  0
SECTION
  2
CLASSES
  0
CLASS
  1
ACDBDICTIONARYWDFLT
  2
AcDbDictionaryWithDefault
  3
ObjectDBX Classes
 90
        0
 91
        1
280
     0
281
     0
  0
ENDSEC
  0
SECTION
  2
TABLES
  0
TABLE
  2
VPORT
  5
8
330
0
100
AcDbSymbolTable
 70
     2
  0
VPORT
  5
29
330
8
100
AcDbSymbolTableRecord
100
AcDbViewportTableRecord
  2
*Active
 70
     0
 10
0.0
 20
0.0
 11
1.0
 21
1.0
 12
10.42990654205607
 22
4.5
 13
0.0
 23
0.0
 14
0.5
 24
0.5
 15
0.5
 25
0.5
 16
0.0
 26
0.0
 36
1.0
 17
0.0
 27
0.0
 37
0.0
 40
9.0
 41
1.972972972850329
 42
50.0
 43
0.0
 44
0.0
 50
0.0
 51
0.0
 71
     0
 72
   100
 73
     1
 74
     3
 75
     0
 76
     0
 77
     0
 78
     0
281
     0
 65
     1
110
0.0
120
0.0
130
0.0
111
1.0
121
0.0
131
0.0
112
0.0
122
1.0
132
0.0
 79
     0
146
0.0
  0
ENDTAB
  0
TABLE
  2
LTYPE
  5
5
330
0
100
AcDbSymbolTable
 70
     1
  0
LTYPE
  5
14
330
5
100
AcDbSymbolTableRecord
100
AcDbLinetypeTableRecord
  2
ByBlock
 70
     0
  3

 72
    65
 73
     0
 40
0.0
  0
LTYPE
  5
15
330
5
100
AcDbSymbolTableRecord
100
AcDbLinetypeTableRecord
  2
ByLayer
 70
     0
  3

 72
    65
 73
     0
 40
0.0
  0
LTYPE
  5
16
330
5
100
AcDbSymbolTableRecord
100
AcDbLinetypeTableRecord
  2
Continuous
 70
     0
  3
Solid line
 72
    65
 73
     0
 40
0.0
  0
ENDTAB
  0
TABLE
  2
LAYER
  5
2
330
0
100
AcDbSymbolTable
 70
     2
  0
LAYER
  5
10
330
2
100
AcDbSymbolTableRecord
100
AcDbLayerTableRecord
  2
0
 70
     0
 62
     7
  6
Continuous
370
    -3
390
F
  0
LAYER
  5
2B
330
2
100
AcDbSymbolTableRecord
100
AcDbLayerTableRecord
  2
Layer 1
 70
     0
 62
     7
  6
Continuous
370
    -3
390
F
  0
ENDTAB
  0
TABLE
  2
STYLE
  5
3
330
0
100
AcDbSymbolTable
 70
     1
  0
STYLE
  5
11
330
3
100
AcDbSymbolTableRecord
100
AcDbTextStyleTableRecord
  2
Standard
 70
     0
 40
0.0
 41
1.0
 50
0.0
 71
     0
 42
0.2
  3
txt
  4

  0
ENDTAB
  0
TABLE
  2
VIEW
  5
6
330
0
100
AcDbSymbolTable
 70
     0
  0
ENDTAB
  0
TABLE
  2
UCS
  5
7
330
0
100
AcDbSymbolTable
 70
     0
  0
ENDTAB
  0
TABLE
  2
APPID
  5
9
330
0
100
AcDbSymbolTable
 70
     2
  0
APPID
  5
12
330
9
100
AcDbSymbolTableRecord
100
AcDbRegAppTableRecord
  2
ACAD
 70
     0
  0
APPID
  5
2A
330
9
100
AcDbSymbolTableRecord
100
AcDbRegAppTableRecord
  2
ODA
 70
     0
  0
ENDTAB
  0
TABLE
  2
DIMSTYLE
  5
A
330
0
100
AcDbSymbolTable
 70
     1
100
AcDbDimStyleTable
  0
DIMSTYLE
105
27
330
A
100
AcDbSymbolTableRecord
100
AcDbDimStyleTableRecord
  2
Standard
 70
     0
340
11
  0
ENDTAB
  0
TABLE
  2
BLOCK_RECORD
  5
1
330
0
100
AcDbSymbolTable
 70
     1
  0
BLOCK_RECORD
  5
1F
330
1
100
AcDbSymbolTableRecord
100
AcDbBlockTableRecord
  2
*Model_Space
340
22
  0
BLOCK_RECORD
  5
1B
330
1
100
AcDbSymbolTableRecord
100
AcDbBlockTableRecord
  2
*Paper_Space
340
1E
  0
BLOCK_RECORD
  5
23
330
1
100
AcDbSymbolTableRecord
100
AcDbBlockTableRecord
  2
*Paper_Space0
340
26
  0
ENDTAB
  0
ENDSEC
  0
SECTION
  2
BLOCKS
  0
BLOCK
  5
20
330
1F
100
AcDbEntity
  8
0
100
AcDbBlockBegin
  2
*Model_Space
 70
     0
 71
     0
 10
0.0
 20
0.0
 30
0.0
  3
*Model_Space
  1

  0
ENDBLK
  5
21
330
1F
100
AcDbEntity
  8
0
100
AcDbBlockEnd
  0
BLOCK
  5
1C
330
1B
100
AcDbEntity
 67
     1
  8
0
100
AcDbBlockBegin
  2
*Paper_Space
 70
     0
 71
     0
 10
0.0
 20
0.0
 30
0.0
  3
*Paper_Space
  1

  0
ENDBLK
  5
1D
330
1B
100
AcDbEntity
 67
     1
  8
0
100
AcDbBlockEnd
  0
BLOCK
  5
24
330
23
100
AcDbEntity
  8
0
100
AcDbBlockBegin
  2
*Paper_Space0
 70
     0
 71
     0
 10
0.0
 20
0.0
 30
0.0
  3
*Paper_Space0
  1

  0
ENDBLK
  5
25
330
23
100
AcDbEntity
  8
0
100
AcDbBlockEnd
  0
ENDSEC
  0
SECTION
  2
ENTITIES
  0
SPLINE
  5
2C
330
1F
100
AcDbEntity
  8
Layer 1
 62
    30
100
AcDbSpline
210
0.0
220
0.0
230
1.0
 70
    11
 71
     3
 72
    72
 73
    68
 74
     0
 42
0.0000000001
 43
0.0000000001
 40
0.0
 40
0.0
 40
0.0
 40
0.0
 40
0.0588235294117647
 40
0.0588235294117647
 40
0.0588235294117647
 40
0.0588235294117647
 40
0.1176470588235294
 40
0.1176470588235294
 40
0.1176470588235294
 40
0.1176470588235294
 40
0.1764705882352941
 40
0.1764705882352941
 40
0.1764705882352941
 40
0.1764705882352941
 40
0.2352941176470588
 40
0.2352941176470588
 40
0.2352941176470588
 40
0.2352941176470588
 40
0.2941176470588235
 40
0.2941176470588235
 40
0.2941176470588235
 40
0.2941176470588235
 40
0.3529411764705883
 40
0.3529411764705883
 40
0.3529411764705883
 40
0.3529411764705883
 40
0.411764705882353
 40
0.411764705882353
 40
0.411764705882353
 40
0.411764705882353
 40
0.4705882352941177
 40
0.4705882352941177
 40
0.4705882352941177
 40
0.4705882352941177
 40
0.5294117647058824
 40
0.5294117647058824
 40
0.5294117647058824
 40
0.5294117647058824
 40
0.5882352941176471
 40
0.5882352941176471
 40
0.5882352941176471
 40
0.5882352941176471
 40
0.6470588235294118
 40
0.6470588235294118
 40
0.6470588235294118
 40
0.6470588235294118
 40
0.7058823529411765
 40
0.7058823529411765
 40
0.7058823529411765
 40
0.7058823529411765
 40
0.7647058823529412
 40
0.7647058823529412
 40
0.7647058823529412
 40
0.7647058823529412
 40
0.823529411764706
 40
0.823529411764706
 40
0.823529411764706
 40
0.823529411764706
 40
0.8823529411764707
 40
0.8823529411764707
 40
0.8823529411764707
 40
0.8823529411764707
 40
0.9411764705882354
 40
0.9411764705882354
 40
0.9411764705882354
 40
0.9411764705882354
 40
1.0
 40
1.0
 40
1.0
 40
1.0
 10
-30.1571062992126
 20
19.4363031496063
 30
0.0
 10
-29.99948818897638
 20
18.83194488188977
 30
0.0
 10
-29.20934251968504
 20
18.68905511811024
 30
0.0
 10
-28.57006299212599
 20
18.62658661417323
 30
0.0
 10
-28.57006299212599
 20
18.62658661417323
 30
0.0
 10
-27.63765748031496
 20
18.53546850393701
 30
0.0
 10
-25.35304724409449
 20
18.13096850393701
 30
0.0
 10
-24.68342125984252
 20
19.72779921259843
 30
0.0
 10
-24.68342125984252
 20
19.72779921259843
 30
0.0
 10
-24.07244488188977
 20
21.18478346456693
 30
0.0
 10
-25.31244881889764
 20
23.78646850393701
 30
0.0
 10
-26.01135826771654
 20
24.94237401574803
 30
0.0
 10
-26.01135826771654
 20
24.94237401574803
 30
0.0
 10
-26.23091338582677
 20
25.30549606299213
 30
0.0
 10
-26.74512598425197
 20
25.65664566929134
 30
0.0
 10
-27.24966929133858
 20
25.73653543307087
 30
0.0
 10
-27.24966929133858
 20
25.73653543307087
 30
0.0
 10
-27.4583188976378
 20
25.98418503937008
 30
0.0
 10
-27.80640551181103
 20
26.10026771653543
 30
0.0
 10
-27.89779921259843
 20
26.45728346456693
 30
0.0
 10
-27.89779921259843
 20
26.45728346456693
 30
0.0
 10
-27.59438188976378
 20
26.48240157480315
 30
0.0
 10
-26.94182283464567
 20
26.8705905511811
 30
0.0
 10
-26.90441338582677
 20
27.22622834645669
 30
0.0
 10
-26.90441338582677
 20
27.22622834645669
 30
0.0
 10
-26.87805118110236
 20
27.47687007874016
 30
0.0
 10
-26.94346062992126
 20
27.80312992125984
 30
0.0
 10
-27.14496062992126
 20
27.95451968503937
 30
0.0
 10
-27.14496062992126
 20
27.95451968503937
 30
0.0
 10
-27.48474015748032
 20
28.20979527559055
 30
0.0
 10
-27.96822047244095
 20
28.30997637795276
 30
0.0
 10
-28.38748031496063
 20
28.24043700787402
 30
0.0
 10
-28.38748031496063
 20
28.24043700787402
 30
0.0
 10
-28.62812204724409
 20
28.20051968503937
 30
0.0
 10
-28.75557086614174
 20
27.89757874015748
 30
0.0
 10
-28.8483188976378
 20
27.67198425196851
 30
0.0
 10
-28.8483188976378
 20
27.67198425196851
 30
0.0
 10
-28.92946456692913
 20
27.47461811023622
 30
0.0
 10
-28.95368110236221
 20
27.23447244094488
 30
0.0
 10
-28.884
 20
27.03279921259843
 30
0.0
 10
-28.884
 20
27.03279921259843
 30
0.0
 10
-28.8123031496063
 20
26.82528346456693
 30
0.0
 10
-28.5669251968504
 20
26.66149212598425
 30
0.0
 10
-28.37712992125984
 20
26.53316141732284
 30
0.0
 10
-28.37712992125984
 20
26.53316141732284
 30
0.0
 10
-28.96256299212599
 20
26.3546062992126
 30
0.0
 10
-29.13064960629922
 20
26.73495669291339
 30
0.0
 10
-29.73342125984252
 20
26.97026377952756
 30
0.0
 10
-29.73342125984252
 20
26.97026377952756
 30
0.0
 10
-29.39805118110236
 20
26.71732677165354
 30
0.0
 10
-29.6351220472441
 20
26.46020866141732
 30
0.0
 10
-29.91130708661417
 20
26.4933937007874
 30
0.0
 10
-29.91130708661417
 20
26.4933937007874
 30
0.0
 10
-29.31442913385827
 20
25.90724803149606
 30
0.0
 10
-28.35947637795276
 20
26.42215354330709
 30
0.0
 10
-28.27077952755906
 20
26.31889763779528
 30
0.0
 10
-28.27077952755906
 20
26.31889763779528
 30
0.0
 10
-28.27077952755906
 20
26.31889763779528
 30
0.0
 10
-27.75055511811024
 20
25.71326771653543
 30
0.0
 10
-27.75055511811024
 20
25.71326771653543
 30
0.0
 10
-27.75055511811024
 20
25.71326771653543
 30
0.0
 10
-27.91238582677165
 20
25.66592125984252
 30
0.0
 10
-28.06035826771654
 20
25.57470472440945
 30
0.0
 10
-28.18139763779528
 20
25.42820472440945
 30
0.0
 10
-28.18139763779528
 20
25.42820472440945
 30
0.0
 10
-29.47354330708662
 20
23.86424409448819
 30
0.0
 10
-30.71109842519685
 20
21.5604251968504
 30
0.0
 10
-30.1571062992126
 20
19.4363031496063
 30
0.0
  0
SPLINE
  5
2D
330
1F
100
AcDbEntity
  8
Layer 1
 62
    30
100
AcDbSpline
210
0.0
220
0.0
230
1.0
 70
    11
 71
     3
 72
    40
 73
    36
 74
     0
 42
0.0000000001
 43
0.0000000001
 40
0.0
 40
0.0
 40
0.0
 40
0.0
 40
0.1111111111111111
 40
0.1111111111111111
 40
0.1111111111111111
 40
0.1111111111111111
 40
0.2222222222222222
 40
0.2222222222222222
 40
0.2222222222222222
 40
0.2222222222222222
 40
0.3333333333333333
 40
0.3333333333333333
 40
0.3333333333333333
 40
0.3333333333333333
 40
0.4444444444444444
 40
0.4444444444444444
 40
0.4444444444444444
 40
0.4444444444444444
 40
0.5555555555555556
 40
0.5555555555555556
 40
0.5555555555555556
 40
0.5555555555555556
 40
0.6666666666666667
 40
0.6666666666666667
 40
0.6666666666666667
 40
0.6666666666666667
 40
0.7777777777777779
 40
0.7777777777777779
 40
0.7777777777777779
 40
0.7777777777777779
 40
0.8888888888888891
 40
0.8888888888888891
 40
0.8888888888888891
 40
0.8888888888888891
 40
1.0
 40
1.0
 40
1.0
 40
1.0
 10
-26.92925196850394
 20
23.02177559055118
 30
0.0
 10
-26.7783188976378
 20
23.02177559055118
 30
0.0
 10
-26.65592125984252
 20
22.90870866141733
 30
0.0
 10
-26.65592125984252
 20
22.76929527559055
 30
0.0
 10
-26.65592125984252
 20
22.76929527559055
 30
0.0
 10
-26.65592125984252
 20
22.62987795275591
 30
0.0
 10
-26.7783188976378
 20
22.51681102362205
 30
0.0
 10
-26.92925196850394
 20
22.51681102362205
 30
0.0
 10
-26.92925196850394
 20
22.51681102362205
 30
0.0
 10
-26.93320078740157
 20
22.51681102362205
 30
0.0
 10
-26.93713385826772
 20
22.51690157480315
 30
0.0
 10
-26.94103149606299
 20
22.51705511811024
 30
0.0
 10
-26.94103149606299
 20
22.51705511811024
 30
0.0
 10
-26.80932283464567
 20
22.47455511811024
 30
0.0
 10
-26.64064173228347
 20
22.45145669291339
 30
0.0
 10
-26.4267874015748
 20
22.45422440944882
 30
0.0
 10
-26.4267874015748
 20
22.45422440944882
 30
0.0
 10
-25.76634645669292
 20
22.46274803149606
 30
0.0
 10
-25.8480157480315
 20
23.34808267716536
 30
0.0
 10
-26.09971653543307
 20
23.71822440944882
 30
0.0
 10
-26.09971653543307
 20
23.71822440944882
 30
0.0
 10
-26.4905905511811
 20
23.69703149606299
 30
0.0
 10
-26.88103149606299
 20
23.52546850393701
 30
0.0
 10
-27.2719094488189
 20
23.50425984251969
 30
0.0
 10
-27.2719094488189
 20
23.50425984251969
 30
0.0
 10
-27.38368897637795
 20
23.19234251968504
 30
0.0
 10
-27.43066535433071
 20
22.8278937007874
 30
0.0
 10
-27.15024409448819
 20
22.62069291338583
 30
0.0
 10
-27.15024409448819
 20
22.62069291338583
 30
0.0
 10
-27.18315748031496
 20
22.66238188976378
 30
0.0
 10
-27.20257874015748
 20
22.71375984251969
 30
0.0
 10
-27.20257874015748
 20
22.76929527559055
 30
0.0
 10
-27.20257874015748
 20
22.76929527559055
 30
0.0
 10
-27.20257874015748
 20
22.90870866141733
 30
0.0
 10
-27.08018110236221
 20
23.02177559055118
 30
0.0
 10
-26.92925196850394
 20
23.02177559055118
 30
0.0
  0
SPLINE
  5
2E
330
1F
100
AcDbEntity
  8
Layer 1
 62
    30
100
AcDbSpline
210
0.0
220
0.0
230
1.0
 70
    11
 71
     3
 72
    40
 73
    36
 74
     0
 42
0.0000000001
 43
0.0000000001
 40
0.0
 40
0.0
 40
0.0
 40
0.0
 40
0.1111111111111111
 40
0.1111111111111111
 40
0.1111111111111111
 40
0.1111111111111111
 40
0.2222222222222222
 40
0.2222222222222222
 40
0.2222222222222222
 40
0.2222222222222222
 40
0.3333333333333333
 40
0.3333333333333333
 40
0.3333333333333333
 40
0.3333333333333333
 40
0.4444444444444444
 40
0.4444444444444444
 40
0.4444444444444444
 40
0.4444444444444444
 40
0.5555555555555556
 40
0.5555555555555556
 40
0.5555555555555556
 40
0.5555555555555556
 40
0.6666666666666667
 40
0.6666666666666667
 40
0.6666666666666667
 40
0.6666666666666667
 40
0.7777777777777779
 40
0.7777777777777779
 40
0.7777777777777779
 40
0.7777777777777779
 40
0.8888888888888891
 40
0.8888888888888891
 40
0.8888888888888891
 40
0.8888888888888891
 40
1.0
 40
1.0
 40
1.0
 40
1.0
 10
-28.1847125984252
 20
22.99861417322835
 30
0.0
 10
-28.03377952755906
 20
22.99861417322835
 30
0.0
 10
-27.91138188976378
 20
22.88554724409449
 30
0.0
 10
-27.91138188976378
 20
22.74612992125984
 30
0.0
 10
-27.91138188976378
 20
22.74612992125984
 30
0.0
 10
-27.91138188976378
 20
22.71396062992126
 30
0.0
 10
-27.91792913385827
 20
22.68318110236221
 30
0.0
 10
-27.92980708661418
 20
22.65488582677165
 30
0.0
 10
-27.92980708661418
 20
22.65488582677165
 30
0.0
 10
-27.7874094488189
 20
22.86633070866142
 30
0.0
 10
-27.83636614173229
 20
23.15905118110236
 30
0.0
 10
-27.92926771653544
 20
23.41591732283465
 30
0.0
 10
-27.92926771653544
 20
23.41591732283465
 30
0.0
 10
-28.32020866141733
 20
23.43596850393701
 30
0.0
 10
-28.71114960629921
 20
23.60638188976378
 30
0.0
 10
-29.1020905511811
 20
23.6264251968504
 30
0.0
 10
-29.1020905511811
 20
23.6264251968504
 30
0.0
 10
-29.3526968503937
 20
23.25553543307087
 30
0.0
 10
-29.43175196850394
 20
22.36996456692913
 30
0.0
 10
-28.77129527559055
 20
22.36338582677166
 30
0.0
 10
-28.77129527559055
 20
22.36338582677166
 30
0.0
 10
-28.43718503937008
 20
22.36005905511811
 30
0.0
 10
-28.21340157480315
 20
22.41948425196851
 30
0.0
 10
-28.06911811023622
 20
22.51727952755905
 30
0.0
 10
-28.06911811023622
 20
22.51727952755905
 30
0.0
 10
-28.10423228346457
 20
22.50211023622047
 30
0.0
 10
-28.1433937007874
 20
22.49364960629922
 30
0.0
 10
-28.1847125984252
 20
22.49364960629922
 30
0.0
 10
-28.1847125984252
 20
22.49364960629922
 30
0.0
 10
-28.33564173228347
 20
22.49364960629922
 30
0.0
 10
-28.45803937007874
 20
22.60671653543307
 30
0.0
 10
-28.45803937007874
 20
22.74612992125984
 30
0.0
 10
-28.45803937007874
 20
22.74612992125984
 30
0.0
 10
-28.45803937007874
 20
22.88554724409449
 30
0.0
 10
-28.33564173228347
 20
22.99861417322835
 30
0.0
 10
-28.1847125984252
 20
22.99861417322835
 30
0.0
  0
SPLINE
  5
2F
330
1F
100
AcDbEntity
  8
Layer 1
 62
    30
100
AcDbSpline
210
0.0
220
0.0
230
1.0
 70
    11
 71
     3
 72
   116
 73
   112
 74
     0
 42
0.0000000001
 43
0.0000000001
 40
0.0
 40
0.0
 40
0.0
 40
0.0
 40
0.0357142857142857
 40
0.0357142857142857
 40
0.0357142857142857
 40
0.0357142857142857
 40
0.0714285714285714
 40
0.0714285714285714
 40
0.0714285714285714
 40
0.0714285714285714
 40
0.1071428571428571
 40
0.1071428571428571
 40
0.1071428571428571
 40
0.1071428571428571
 40
0.1428571428571429
 40
0.1428571428571429
 40
0.1428571428571429
 40
0.1428571428571429
 40
0.1785714285714286
 40
0.1785714285714286
 40
0.1785714285714286
 40
0.1785714285714286
 40
0.2142857142857143
 40
0.2142857142857143
 40
0.2142857142857143
 40
0.2142857142857143
 40
0.2499999999999999
 40
0.2499999999999999
 40
0.2499999999999999
 40
0.2499999999999999
 40
0.2857142857142856
 40
0.2857142857142856
 40
0.2857142857142856
 40
0.2857142857142856
 40
0.3214285714285713
 40
0.3214285714285713
 40
0.3214285714285713
 40
0.3214285714285713
 40
0.357142857142857
 40
0.357142857142857
 40
0.357142857142857
 40
0.357142857142857
 40
0.3928571428571427
 40
0.3928571428571427
 40
0.3928571428571427
 40
0.3928571428571427
 40
0.4285714285714284
 40
0.4285714285714284
 40
0.4285714285714284
 40
0.4285714285714284
 40
0.4642857142857141
 40
0.4642857142857141
 40
0.4642857142857141
 40
0.4642857142857141
 40
0.4999999999999998
 40
0.4999999999999998
 40
0.4999999999999998
 40
0.4999999999999998
 40
0.5357142857142856
 40
0.5357142857142856
 40
0.5357142857142856
 40
0.5357142857142856
 40
0.5714285714285713
 40
0.5714285714285713
 40
0.5714285714285713
 40
0.5714285714285713
 40
0.607142857142857
 40
0.607142857142857
 40
0.607142857142857
 40
0.607142857142857
 40
0.6428571428571427
 40
0.6428571428571427
 40
0.6428571428571427
 40
0.6428571428571427
 40
0.6785714285714284
 40
0.6785714285714284
 40
0.6785714285714284
 40
0.6785714285714284
 40
0.7142857142857141
 40
0.7142857142857141
 40
0.7142857142857141
 40
0.7142857142857141
 40
0.7499999999999998
 40
0.7499999999999998
 40
0.7499999999999998
 40
0.7499999999999998
 40
0.7857142857142855
 40
0.7857142857142855
 40
0.7857142857142855
 40
0.7857142857142855
 40
0.8214285714285712
 40
0.8214285714285712
 40
0.8214285714285712
 40
0.8214285714285712
 40
0.8571428571428569
 40
0.8571428571428569
 40
0.8571428571428569
 40
0.8571428571428569
 40
0.8928571428571426
 40
0.8928571428571426
 40
0.8928571428571426
 40
0.8928571428571426
 40
0.9285714285714283
 40
0.9285714285714283
 40
0.9285714285714283
 40
0.9285714285714283
 40
0.964285714285714
 40
0.964285714285714
 40
0.964285714285714
 40
0.964285714285714
 40
1.0
 40
1.0
 40
1.0
 40
1.0
 10
-29.03909842519685
 20
20.52087795275591
 30
0.0
 10
-29.03909842519685
 20
20.52087795275591
 30
0.0
 10
-29.38030708661417
 20
20.25605511811024
 30
0.0
 10
-29.38030708661417
 20
20.25605511811024
 30
0.0
 10
-29.38030708661417
 20
20.25605511811024
 30
0.0
 10
-29.55414566929134
 20
20.42391338582677
 30
0.0
 10
-29.70450787401575
 20
20.70542913385827
 30
0.0
 10
-29.82382677165354
 20
20.85977165354331
 30
0.0
 10
-29.82382677165354
 20
20.85977165354331
 30
0.0
 10
-29.91759842519685
 20
20.98108267716535
 30
0.0
 10
-29.88396850393701
 20
21.16049606299213
 30
0.0
 10
-29.91404330708662
 20
21.31085433070866
 30
0.0
 10
-29.91404330708662
 20
21.31085433070866
 30
0.0
 10
-29.91404330708662
 20
21.31085433070866
 30
0.0
 10
-29.58793700787402
 20
21.28051968503937
 30
0.0
 10
-29.58793700787402
 20
21.28051968503937
 30
0.0
 10
-29.58793700787402
 20
21.28051968503937
 30
0.0
 10
-29.58793700787402
 20
21.28051968503937
 30
0.0
 10
-29.41905905511811
 20
20.8843188976378
 30
0.0
 10
-29.41905905511811
 20
20.8843188976378
 30
0.0
 10
-29.41905905511811
 20
20.8843188976378
 30
0.0
 10
-29.41905905511811
 20
20.8843188976378
 30
0.0
 10
-29.2461220472441
 20
21.24872440944882
 30
0.0
 10
-29.2461220472441
 20
21.24872440944882
 30
0.0
 10
-29.2461220472441
 20
21.24872440944882
 30
0.0
 10
-29.2461220472441
 20
21.24872440944882
 30
0.0
 10
-28.60599606299213
 20
21.18917716535433
 30
0.0
 10
-28.60599606299213
 20
21.18917716535433
 30
0.0
 10
-28.60599606299213
 20
21.18917716535433
 30
0.0
 10
-28.60599606299213
 20
21.18917716535433
 30
0.0
 10
-28.43611417322835
 20
20.68607874015748
 30
0.0
 10
-28.43611417322835
 20
20.68607874015748
 30
0.0
 10
-28.43611417322835
 20
20.68607874015748
 30
0.0
 10
-28.43611417322835
 20
20.68607874015748
 30
0.0
 10
-28.12010236220473
 20
21.14397637795276
 30
0.0
 10
-28.12010236220473
 20
21.14397637795276
 30
0.0
 10
-28.12010236220473
 20
21.14397637795276
 30
0.0
 10
-28.12010236220473
 20
21.14397637795276
 30
0.0
 10
-27.51517322834646
 20
21.08770472440945
 30
0.0
 10
-27.51517322834646
 20
21.08770472440945
 30
0.0
 10
-27.51517322834646
 20
21.08770472440945
 30
0.0
 10
-27.51517322834646
 20
21.08770472440945
 30
0.0
 10
-27.32927165354331
 20
20.46305511811024
 30
0.0
 10
-27.32927165354331
 20
20.46305511811024
 30
0.0
 10
-27.32927165354331
 20
20.46305511811024
 30
0.0
 10
-27.32927165354331
 20
20.46305511811024
 30
0.0
 10
-27.06314960629921
 20
21.04565748031496
 30
0.0
 10
-27.06314960629921
 20
21.04565748031496
 30
0.0
 10
-27.06314960629921
 20
21.04565748031496
 30
0.0
 10
-27.06314960629921
 20
21.04565748031496
 30
0.0
 10
-26.4378937007874
 20
20.98749212598425
 30
0.0
 10
-26.4378937007874
 20
20.98749212598425
 30
0.0
 10
-26.4378937007874
 20
20.98749212598425
 30
0.0
 10
-26.4378937007874
 20
20.98749212598425
 30
0.0
 10
-26.29676771653544
 20
20.62825590551181
 30
0.0
 10
-26.29676771653544
 20
20.62825590551181
 30
0.0
 10
-26.29676771653544
 20
20.62825590551181
 30
0.0
 10
-26.29676771653544
 20
20.62825590551181
 30
0.0
 10
-26.17752362204725
 20
20.96327559055118
 30
0.0
 10
-26.17752362204725
 20
20.96327559055118
 30
0.0
 10
-26.17752362204725
 20
20.96327559055118
 30
0.0
 10
-26.17752362204725
 20
20.96327559055118
 30
0.0
 10
-26.0347125984252
 20
20.94998818897638
 30
0.0
 10
-26.0347125984252
 20
20.94998818897638
 30
0.0
 10
-26.0347125984252
 20
20.94998818897638
 30
0.0
 10
-25.74255511811024
 20
20.92281102362205
 30
0.0
 10
-25.83327952755906
 20
20.89457480314961
 30
0.0
 10
-24.91481496062992
 20
20.73057874015748
 30
0.0
 10
-24.91481496062992
 20
20.73057874015748
 30
0.0
 10
-25.1606062992126
 20
20.39617322834646
 30
0.0
 10
-25.7202874015748
 20
20.23521653543307
 30
0.0
 10
-26.14777952755906
 20
20.09905905511811
 30
0.0
 10
-26.14777952755906
 20
20.09905905511811
 30
0.0
 10
-26.28048031496063
 20
20.05679527559055
 30
0.0
 10
-26.42070078740158
 20
20.02385039370079
 30
0.0
 10
-26.56616929133858
 20
19.99892519685039
 30
0.0
 10
-26.56616929133858
 20
19.99892519685039
 30
0.0
 10
-26.56616929133858
 20
19.99892519685039
 30
0.0
 10
-26.72628740157481
 20
20.34741732283465
 30
0.0
 10
-26.72628740157481
 20
20.34741732283465
 30
0.0
 10
-26.72628740157481
 20
20.34741732283465
 30
0.0
 10
-26.72628740157481
 20
20.34741732283465
 30
0.0
 10
-26.74526771653543
 20
19.97254724409449
 30
0.0
 10
-26.74526771653543
 20
19.97254724409449
 30
0.0
 10
-26.74526771653543
 20
19.97254724409449
 30
0.0
 10
-27.05122834645669
 20
19.93442913385827
 30
0.0
 10
-27.37584645669292
 20
19.92794094488189
 30
0.0
 10
-27.70061023622047
 20
19.94243307086614
 30
0.0
 10
-27.70061023622047
 20
19.94243307086614
 30
0.0
 10
-27.70061023622047
 20
19.94243307086614
 30
0.0
 10
-27.76705118110236
 20
20.42175590551181
 30
0.0
 10
-27.76705118110236
 20
20.42175590551181
 30
0.0
 10
-27.76705118110236
 20
20.42175590551181
 30
0.0
 10
-27.76705118110236
 20
20.42175590551181
 30
0.0
 10
-27.99833464566929
 20
20.08309448818898
 30
0.0
 10
-27.99833464566929
 20
20.08309448818898
 30
0.0
 10
-27.99833464566929
 20
20.08309448818898
 30
0.0
 10
-27.99833464566929
 20
20.08309448818898
 30
0.0
 10
-28.17179527559055
 20
20.50435826771654
 30
0.0
 10
-28.17179527559055
 20
20.50435826771654
 30
0.0
 10
-28.17179527559055
 20
20.50435826771654
 30
0.0
 10
-28.17179527559055
 20
20.50435826771654
 30
0.0
 10
-28.40795669291339
 20
20.00392125984252
 30
0.0
 10
-28.40795669291339
 20
20.00392125984252
 30
0.0
 10
-28.40795669291339
 20
20.00392125984252
 30
0.0
 10
-28.66717716535433
 20
20.03642913385827
 30
0.0
 10
-28.9173937007874
 20
20.0778188976378
 30
0.0
 10
-29.14833464566929
 20
20.12216535433071
 30
0.0
 10
-29.14833464566929
 20
20.12216535433071
 30
0.0
 10
-29.14833464566929
 20
20.12216535433071
 30
0.0
 10
-29.03909842519685
 20
20.52087795275591
 30
0.0
 10
-29.03909842519685
 20
20.52087795275591
 30
0.0
  0
SPLINE
  5
30
330
1F
100
AcDbEntity
  8
Layer 1
 62
    30
100
AcDbSpline
210
0.0
220
0.0
230
1.0
 70
    11
 71
     3
 72
    28
 73
    24
 74
     0
 42
0.0000000001
 43
0.0000000001
 40
0.0
 40
0.0
 40
0.0
 40
0.0
 40
0.1666666666666667
 40
0.1666666666666667
 40
0.1666666666666667
 40
0.1666666666666667
 40
0.3333333333333333
 40
0.3333333333333333
 40
0.3333333333333333
 40
0.3333333333333333
 40
0.5
 40
0.5
 40
0.5
 40
0.5
 40
0.6666666666666666
 40
0.6666666666666666
 40
0.6666666666666666
 40
0.6666666666666666
 40
0.8333333333333333
 40
0.8333333333333333
 40
0.8333333333333333
 40
0.8333333333333333
 40
1.0
 40
1.0
 40
1.0
 40
1.0
 10
-28.05315354330709
 20
26.66766929133858
 30
0.0
 10
-28.22820078740158
 20
26.8526220472441
 30
0.0
 10
-28.38464173228347
 20
26.98624015748032
 30
0.0
 10
-28.45433858267717
 20
27.16641338582677
 30
0.0
 10
-28.45433858267717
 20
27.16641338582677
 30
0.0
 10
-28.51018897637795
 20
27.31079921259843
 30
0.0
 10
-28.52282677165355
 20
27.50506692913386
 30
0.0
 10
-28.43187795275591
 20
27.63037795275591
 30
0.0
 10
-28.43187795275591
 20
27.63037795275591
 30
0.0
 10
-28.34227952755906
 20
27.7538188976378
 30
0.0
 10
-28.15398031496063
 20
27.80727165354331
 30
0.0
 10
-28.00257874015748
 20
27.78881496062992
 30
0.0
 10
-28.00257874015748
 20
27.78881496062992
 30
0.0
 10
-27.77314960629921
 20
27.76084645669291
 30
0.0
 10
-27.33066929133858
 20
27.67089763779528
 30
0.0
 10
-27.19409448818898
 20
27.48442913385827
 30
0.0
 10
-27.19409448818898
 20
27.48442913385827
 30
0.0
 10
-27.10205118110237
 20
27.35875196850394
 30
0.0
 10
-27.1725
 20
27.13967322834646
 30
0.0
 10
-27.27743307086614
 20
27.02456299212599
 30
0.0
 10
-27.27743307086614
 20
27.02456299212599
 30
0.0
 10
-27.43509055118111
 20
26.85164173228347
 30
0.0
 10
-27.74881102362205
 20
26.71072047244095
 30
0.0
 10
-28.05315354330709
 20
26.66766929133858
 30
0.0
  0
ENDSEC
  0
SECTION
  2
OBJECTS
  0
DICTIONARY
  5
C
330
0
100
AcDbDictionary
281
     1
  3
ACAD_GROUP
350
D
  3
ACAD_LAYOUT
350
1A
  3
ACAD_MLINESTYLE
350
17
  3
ACAD_PLOTSETTINGS
350
19
  3
ACAD_PLOTSTYLENAME
350
E
  0
DICTIONARY
  5
D
102
{ACAD_REACTORS
330
C
102
}
330
C
100
AcDbDictionary
281
     1
  0
DICTIONARY
  5
1A
102
{ACAD_REACTORS
330
C
102
}
330
C
100
AcDbDictionary
281
     1
  3
Layout1
350
1E
  3
Layout2
350
26
  3
Model
350
22
  0
DICTIONARY
  5
17
102
{ACAD_REACTORS
330
C
102
}
330
C
100
AcDbDictionary
281
     1
  3
Standard
350
18
  0
DICTIONARY
  5
19
102
{ACAD_REACTORS
330
C
102
}
330
C
100
AcDbDictionary
281
     1
  0
ACDBDICTIONARYWDFLT
  5
E
102
{ACAD_REACTORS
330
C
102
}
330
C
100
AcDbDictionary
281
     1
  3
Normal
350
F
100
AcDbDictionaryWithDefault
340
F
  0
LAYOUT
  5
1E
102
{ACAD_REACTORS
330
1A
102
}
330
1A
100
AcDbPlotSettings
  1

  2

  4

  6

 40
0.0
 41
0.0
 42
0.0
 43
0.0
 44
0.0
 45
0.0
 46
0.0
 47
0.0
 48
0.0
 49
0.0
140
0.0
141
0.0
142
1.0
143
1.0
 70
   688
 72
     0
 73
     0
 74
     5
  7

 75
    16
 76
     0
 77
     2
 78
   300
147
1.0
148
0.0
149
0.0
100
AcDbLayout
  1
Layout1
 70
     1
 71
     1
 10
0.0
 20
0.0
 11
12.0
 21
9.0
 12
0.0
 22
0.0
 32
0.0
 14
1.000000000000000E+20
 24
1.000000000000000E+20
 34
1.000000000000000E+20
 15
-1.000000000000000E+20
 25
-1.000000000000000E+20
 35
-1.000000000000000E+20
146
0.0
 13
0.0
 23
0.0
 33
0.0
 16
1.0
 26
0.0
 36
0.0
 17
0.0
 27
1.0
 37
0.0
 76
     0
330
1B
  0
LAYOUT
  5
26
102
{ACAD_REACTORS
330
1A
102
}
330
1A
100
AcDbPlotSettings
  1

  2

  4

  6

 40
0.0
 41
0.0
 42
0.0
 43
0.0
 44
0.0
 45
0.0
 46
0.0
 47
0.0
 48
0.0
 49
0.0
140
0.0
141
0.0
142
1.0
143
1.0
 70
   688
 72
     0
 73
     0
 74
     5
  7

 75
    16
 76
     0
 77
     2
 78
   300
147
1.0
148
0.0
149
0.0
100
AcDbLayout
  1
Layout2
 70
     1
 71
     2
 10
0.0
 20
0.0
 11
0.0
 21
0.0
 12
0.0
 22
0.0
 32
0.0
 14
0.0
 24
0.0
 34
0.0
 15
0.0
 25
0.0
 35
0.0
146
0.0
 13
0.0
 23
0.0
 33
0.0
 16
1.0
 26
0.0
 36
0.0
 17
0.0
 27
1.0
 37
0.0
 76
     0
330
23
  0
LAYOUT
  5
22
102
{ACAD_REACTORS
330
1A
102
}
330
1A
100
AcDbPlotSettings
  1

  2

  4

  6

 40
0.0
 41
0.0
 42
0.0
 43
0.0
 44
0.0
 45
0.0
 46
0.0
 47
0.0
 48
0.0
 49
0.0
140
0.0
141
0.0
142
1.0
143
1.0
 70
  1712
 72
     0
 73
     0
 74
     0
  7

 75
     0
 76
     0
 77
     2
 78
   300
147
1.0
148
0.0
149
0.0
100
AcDbLayout
  1
Model
 70
     1
 71
     0
 10
0.0
 20
0.0
 11
0.0
 21
0.0
 12
0.0
 22
0.0
 32
0.0
 14
-30.29220472440945
 24
18.51393700787402
 34
0.0
 15
-24.51920472440945
 25
28.26186614173228
 35
0.0
146
0.0
 13
0.0
 23
0.0
 33
0.0
 16
1.0
 26
0.0
 36
0.0
 17
0.0
 27
1.0
 37
0.0
 76
     0
330
1F
  0
MLINESTYLE
  5
18
102
{ACAD_REACTORS
330
17
102
}
330
17
100
AcDbMlineStyle
  2
Standard
 70
     0
  3

 62
   256
 51
90.0
 52
90.0
 71
     2
 49
0.5
 62
   256
  6
BYLAYER
 49
-0.5
 62
   256
  6
BYLAYER
  0
ACDBPLACEHOLDER
  5
F
102
{ACAD_REACTORS
330
E
102
}
330
E
  0
ENDSEC
  0
EOF
