  0
SECTION
  2
HEADER
  9
$ACADVER
  1
AC1018
  9
$ACADMAINTVER
 70
     0
  9
$DWGCODEPAGE
  3
ANSI_1252
  9
$INSBASE
 10
0.0
 20
0.0
 30
0.0
  9
$EXTMIN
 10
-21.43935826771654
 20
19.31735433070866
 30
0.0
  9
$EXTMAX
 10
-13.43915354330709
 20
26.38809842519685
 30
0.0
  9
$LIMMIN
 10
0.0
 20
0.0
  9
$LIMMAX
 10
12.0
 20
9.0
  9
$ORTHOMODE
 70
     0
  9
$REGENMODE
 70
     1
  9
$FILLMODE
 70
     1
  9
$QTEXTMODE
 70
     0
  9
$MIRRTEXT
 70
     1
  9
$LTSCALE
 40
1.0
  9
$ATTMODE
 70
     1
  9
$TEXTSIZE
 40
0.2
  9
$TRACEWID
 40
0.05
  9
$TEXTSTYLE
  7
Standard
  9
$CLAYER
  8
0
  9
$CELTYPE
  6
ByLayer
  9
$CECOLOR
 62
   256
  9
$CELTSCALE
 40
1.0
  9
$DISPSILH
 70
     0
  9
$DIMSCALE
 40
1.0
  9
$DIMASZ
 40
0.18
  9
$DIMEXO
 40
0.0625
  9
$DIMDLI
 40
0.38
  9
$DIMRND
 40
0.0
  9
$DIMDLE
 40
0.0
  9
$DIMEXE
 40
0.18
  9
$DIMTP
 40
0.0
  9
$DIMTM
 40
0.0
  9
$DIMTXT
 40
0.18
  9
$DIMCEN
 40
0.09
  9
$DIMTSZ
 40
0.0
  9
$DIMTOL
 70
     0
  9
$DIMLIM
 70
     0
  9
$DIMTIH
 70
     1
  9
$DIMTOH
 70
     1
  9
$DIMSE1
 70
     0
  9
$DIMSE2
 70
     0
  9
$DIMTAD
 70
     0
  9
$DIMZIN
 70
     0
  9
$DIMBLK
  1

  9
$DIMASO
 70
     1
  9
$DIMSHO
 70
     1
  9
$DIMPOST
  1

  9
$DIMAPOST
  1

  9
$DIMALT
 70
     0
  9
$DIMALTD
 70
     2
  9
$DIMALTF
 40
25.4
  9
$DIMLFAC
 40
1.0
  9
$DIMTOFL
 70
     0
  9
$DIMTVP
 40
0.0
  9
$DIMTIX
 70
     0
  9
$DIMSOXD
 70
     0
  9
$DIMSAH
 70
     0
  9
$DIMBLK1
  1

  9
$DIMBLK2
  1

  9
$DIMSTYLE
  2
Standard
  9
$DIMCLRD
 70
     0
  9
$DIMCLRE
 70
     0
  9
$DIMCLRT
 70
     0
  9
$DIMTFAC
 40
1.0
  9
$DIMGAP
 40
0.09
  9
$DIMJUST
 70
     0
  9
$DIMSD1
 70
     0
  9
$DIMSD2
 70
     0
  9
$DIMTOLJ
 70
     1
  9
$DIMTZIN
 70
     0
  9
$DIMALTZ
 70
     0
  9
$DIMALTTZ
 70
     0
  9
$DIMUPT
 70
     0
  9
$DIMDEC
 70
     4
  9
$DIMTDEC
 70
     4
  9
$DIMALTU
 70
     2
  9
$DIMALTTD
 70
     2
  9
$DIMTXSTY
  7
Standard
  9
$DIMAUNIT
 70
     0
  9
$DIMADEC
 70
     0
  9
$DIMALTRND
 40
0.0
  9
$DIMAZIN
 70
     0
  9
$DIMDSEP
 70
    46
  9
$DIMATFIT
 70
     3
  9
$DIMFRAC
 70
     0
  9
$DIMLDRBLK
  1

  9
$DIMLUNIT
 70
     2
  9
$DIMLWD
 70
    -2
  9
$DIMLWE
 70
    -2
  9
$DIMTMOVE
 70
     0
  9
$LUNITS
 70
     2
  9
$LUPREC
 70
     4
  9
$SKETCHINC
 40
0.1
  9
$FILLETRAD
 40
0.5
  9
$AUNITS
 70
     0
  9
$AUPREC
 70
     0
  9
$MENU
  1
.
  9
$ELEVATION
 40
0.0
  9
$PELEVATION
 40
0.0
  9
$THICKNESS
 40
0.0
  9
$LIMCHECK
 70
     0
  9
$CHAMFERA
 40
0.5
  9
$CHAMFERB
 40
0.5
  9
$CHAMFERC
 40
1.0
  9
$CHAMFERD
 40
0.0
  9
$SKPOLY
 70
     0
  9
$TDCREATE
 40
2458739.469519792
  9
$TDUCREATE
 40
2458739.386186458
  9
$TDUPDATE
 40
2458739.51118647
  9
$TDUUPDATE
 40
2458739.38618647
  9
$TDINDWG
 40
0.0000000116
  9
$TDUSRTIMER
 40
0.0000000116
  9
$USRTIMER
 70
     1
  9
$ANGBASE
 50
0.0
  9
$ANGDIR
 70
     0
  9
$PDMODE
 70
     0
  9
$PDSIZE
 40
0.0
  9
$PLINEWID
 40
0.0
  9
$SPLFRAME
 70
     0
  9
$SPLINETYPE
 70
     6
  9
$SPLINESEGS
 70
     8
  9
$HANDSEED
  5
30
  9
$SURFTAB1
 70
     6
  9
$SURFTAB2
 70
     6
  9
$SURFTYPE
 70
     6
  9
$SURFU
 70
     6
  9
$SURFV
 70
     6
  9
$UCSBASE
  2

  9
$UCSNAME
  2

  9
$UCSORG
 10
0.0
 20
0.0
 30
0.0
  9
$UCSXDIR
 10
1.0
 20
0.0
 30
0.0
  9
$UCSYDIR
 10
0.0
 20
1.0
 30
0.0
  9
$UCSORTHOREF
  2

  9
$UCSORTHOVIEW
 70
     0
  9
$UCSORGTOP
 10
0.0
 20
0.0
 30
0.0
  9
$UCSORGBOTTOM
 10
0.0
 20
0.0
 30
0.0
  9
$UCSORGLEFT
 10
0.0
 20
0.0
 30
0.0
  9
$UCSORGRIGHT
 10
0.0
 20
0.0
 30
0.0
  9
$UCSORGFRONT
 10
0.0
 20
0.0
 30
0.0
  9
$UCSORGBACK
 10
0.0
 20
0.0
 30
0.0
  9
$PUCSBASE
  2

  9
$PUCSNAME
  2

  9
$PUCSORG
 10
0.0
 20
0.0
 30
0.0
  9
$PUCSXDIR
 10
1.0
 20
0.0
 30
0.0
  9
$PUCSYDIR
 10
0.0
 20
1.0
 30
0.0
  9
$PUCSORTHOREF
  2

  9
$PUCSORTHOVIEW
 70
     0
  9
$PUCSORGTOP
 10
0.0
 20
0.0
 30
0.0
  9
$PUCSORGBOTTOM
 10
0.0
 20
0.0
 30
0.0
  9
$PUCSORGLEFT
 10
0.0
 20
0.0
 30
0.0
  9
$PUCSORGRIGHT
 10
0.0
 20
0.0
 30
0.0
  9
$PUCSORGFRONT
 10
0.0
 20
0.0
 30
0.0
  9
$PUCSORGBACK
 10
0.0
 20
0.0
 30
0.0
  9
$USERI1
 70
     0
  9
$USERI2
 70
     0
  9
$USERI3
 70
     0
  9
$USERI4
 70
     0
  9
$USERI5
 70
     0
  9
$USERR1
 40
0.0
  9
$USERR2
 40
0.0
  9
$USERR3
 40
0.0
  9
$USERR4
 40
0.0
  9
$USERR5
 40
0.0
  9
$WORLDVIEW
 70
     1
  9
$SHADEDGE
 70
     3
  9
$SHADEDIF
 70
    70
  9
$TILEMODE
 70
     1
  9
$MAXACTVP
 70
    64
  9
$PINSBASE
 10
0.0
 20
0.0
 30
0.0
  9
$PLIMCHECK
 70
     0
  9
$PEXTMIN
 10
1.000000000000000E+20
 20
1.000000000000000E+20
 30
1.000000000000000E+20
  9
$PEXTMAX
 10
-1.000000000000000E+20
 20
-1.000000000000000E+20
 30
-1.000000000000000E+20
  9
$PLIMMIN
 10
0.0
 20
0.0
  9
$PLIMMAX
 10
12.0
 20
9.0
  9
$UNITMODE
 70
     0
  9
$VISRETAIN
 70
     1
  9
$PLINEGEN
 70
     0
  9
$PSLTSCALE
 70
     1
  9
$TREEDEPTH
 70
  3020
  9
$CMLSTYLE
  2
Standard
  9
$CMLJUST
 70
     0
  9
$CMLSCALE
 40
1.0
  9
$PROXYGRAPHICS
 70
     1
  9
$MEASUREMENT
 70
     0
  9
$CELWEIGHT
370
    -1
  9
$ENDCAPS
280
     0
  9
$JOINSTYLE
280
     0
  9
$LWDISPLAY
290
     0
  9
$INSUNITS
 70
     1
  9
$HYPERLINKBASE
  1

  9
$STYLESHEET
  1

  9
$XEDIT
290
     1
  9
$CEPSNTYPE
380
     0
  9
$PSTYLEMODE
290
     0
  9
$FINGERPRINTGUID
  2
{FAEB1C30-E019-11D5-929B-00C0DF256EC4}
  9
$VERSIONGUID
  2
{FAEB1C32-E019-11D5-929B-00C0DF256EC4}
  9
$EXTNAMES
290
     1
  9
$PSVPSCALE
 40
0.0
  9
$OLESTARTUP
290
     0
  9
$SORTENTS
280
   127
  9
$INDEXCTL
280
     0
  9
$HIDETEXT
280
     1
  9
$XCLIPFRAME
290
     0
  9
$HALOGAP
280
     0
  9
$OBSCOLOR
 70
   257
  9
$OBSLTYPE
280
     0
  9
$INTERSECTIONDISPLAY
280
     0
  9
$INTERSECTIONCOLOR
 70
   257
  9
$DIMASSOC
280
     2
  9
$PROJECTNAME
  1

  0
ENDSEC
  0
SECTION
  2
CLASSES
  0
CLASS
  1
ACDBDICTIONARYWDFLT
  2
AcDbDictionaryWithDefault
  3
ObjectDBX Classes
 90
        0
 91
        1
280
     0
281
     0
  0
ENDSEC
  0
SECTION
  2
TABLES
  0
TABLE
  2
VPORT
  5
8
330
0
100
AcDbSymbolTable
 70
     2
  0
VPORT
  5
29
330
8
100
AcDbSymbolTableRecord
100
AcDbViewportTableRecord
  2
*Active
 70
     0
 10
0.0
 20
0.0
 11
1.0
 21
1.0
 12
10.42990654205607
 22
4.5
 13
0.0
 23
0.0
 14
0.5
 24
0.5
 15
0.5
 25
0.5
 16
0.0
 26
0.0
 36
1.0
 17
0.0
 27
0.0
 37
0.0
 40
9.0
 41
1.972972972850329
 42
50.0
 43
0.0
 44
0.0
 50
0.0
 51
0.0
 71
     0
 72
   100
 73
     1
 74
     3
 75
     0
 76
     0
 77
     0
 78
     0
281
     0
 65
     1
110
0.0
120
0.0
130
0.0
111
1.0
121
0.0
131
0.0
112
0.0
122
1.0
132
0.0
 79
     0
146
0.0
  0
ENDTAB
  0
TABLE
  2
LTYPE
  5
5
330
0
100
AcDbSymbolTable
 70
     1
  0
LTYPE
  5
14
330
5
100
AcDbSymbolTableRecord
100
AcDbLinetypeTableRecord
  2
ByBlock
 70
     0
  3

 72
    65
 73
     0
 40
0.0
  0
LTYPE
  5
15
330
5
100
AcDbSymbolTableRecord
100
AcDbLinetypeTableRecord
  2
ByLayer
 70
     0
  3

 72
    65
 73
     0
 40
0.0
  0
LTYPE
  5
16
330
5
100
AcDbSymbolTableRecord
100
AcDbLinetypeTableRecord
  2
Continuous
 70
     0
  3
Solid line
 72
    65
 73
     0
 40
0.0
  0
ENDTAB
  0
TABLE
  2
LAYER
  5
2
330
0
100
AcDbSymbolTable
 70
     2
  0
LAYER
  5
10
330
2
100
AcDbSymbolTableRecord
100
AcDbLayerTableRecord
  2
0
 70
     0
 62
     7
  6
Continuous
370
    -3
390
F
  0
LAYER
  5
2B
330
2
100
AcDbSymbolTableRecord
100
AcDbLayerTableRecord
  2
Layer 1
 70
     0
 62
     7
  6
Continuous
370
    -3
390
F
  0
ENDTAB
  0
TABLE
  2
STYLE
  5
3
330
0
100
AcDbSymbolTable
 70
     1
  0
STYLE
  5
11
330
3
100
AcDbSymbolTableRecord
100
AcDbTextStyleTableRecord
  2
Standard
 70
     0
 40
0.0
 41
1.0
 50
0.0
 71
     0
 42
0.2
  3
txt
  4

  0
ENDTAB
  0
TABLE
  2
VIEW
  5
6
330
0
100
AcDbSymbolTable
 70
     0
  0
ENDTAB
  0
TABLE
  2
UCS
  5
7
330
0
100
AcDbSymbolTable
 70
     0
  0
ENDTAB
  0
TABLE
  2
APPID
  5
9
330
0
100
AcDbSymbolTable
 70
     2
  0
APPID
  5
12
330
9
100
AcDbSymbolTableRecord
100
AcDbRegAppTableRecord
  2
ACAD
 70
     0
  0
APPID
  5
2A
330
9
100
AcDbSymbolTableRecord
100
AcDbRegAppTableRecord
  2
ODA
 70
     0
  0
ENDTAB
  0
TABLE
  2
DIMSTYLE
  5
A
330
0
100
AcDbSymbolTable
 70
     1
100
AcDbDimStyleTable
  0
DIMSTYLE
105
27
330
A
100
AcDbSymbolTableRecord
100
AcDbDimStyleTableRecord
  2
Standard
 70
     0
340
11
  0
ENDTAB
  0
TABLE
  2
BLOCK_RECORD
  5
1
330
0
100
AcDbSymbolTable
 70
     1
  0
BLOCK_RECORD
  5
1F
330
1
100
AcDbSymbolTableRecord
100
AcDbBlockTableRecord
  2
*Model_Space
340
22
  0
BLOCK_RECORD
  5
1B
330
1
100
AcDbSymbolTableRecord
100
AcDbBlockTableRecord
  2
*Paper_Space
340
1E
  0
BLOCK_RECORD
  5
23
330
1
100
AcDbSymbolTableRecord
100
AcDbBlockTableRecord
  2
*Paper_Space0
340
26
  0
ENDTAB
  0
ENDSEC
  0
SECTION
  2
BLOCKS
  0
BLOCK
  5
20
330
1F
100
AcDbEntity
  8
0
100
AcDbBlockBegin
  2
*Model_Space
 70
     0
 71
     0
 10
0.0
 20
0.0
 30
0.0
  3
*Model_Space
  1

  0
ENDBLK
  5
21
330
1F
100
AcDbEntity
  8
0
100
AcDbBlockEnd
  0
BLOCK
  5
1C
330
1B
100
AcDbEntity
 67
     1
  8
0
100
AcDbBlockBegin
  2
*Paper_Space
 70
     0
 71
     0
 10
0.0
 20
0.0
 30
0.0
  3
*Paper_Space
  1

  0
ENDBLK
  5
1D
330
1B
100
AcDbEntity
 67
     1
  8
0
100
AcDbBlockEnd
  0
BLOCK
  5
24
330
23
100
AcDbEntity
  8
0
100
AcDbBlockBegin
  2
*Paper_Space0
 70
     0
 71
     0
 10
0.0
 20
0.0
 30
0.0
  3
*Paper_Space0
  1

  0
ENDBLK
  5
25
330
23
100
AcDbEntity
  8
0
100
AcDbBlockEnd
  0
ENDSEC
  0
SECTION
  2
ENTITIES
  0
SPLINE
  5
2C
330
1F
100
AcDbEntity
  8
Layer 1
 62
    30
100
AcDbSpline
210
0.0
220
0.0
230
1.0
 70
    11
 71
     3
 72
    68
 73
    64
 74
     0
 42
0.0000000001
 43
0.0000000001
 40
0.0
 40
0.0
 40
0.0
 40
0.0
 40
0.0625
 40
0.0625
 40
0.0625
 40
0.0625
 40
0.125
 40
0.125
 40
0.125
 40
0.125
 40
0.1875
 40
0.1875
 40
0.1875
 40
0.1875
 40
0.25
 40
0.25
 40
0.25
 40
0.25
 40
0.3125
 40
0.3125
 40
0.3125
 40
0.3125
 40
0.375
 40
0.375
 40
0.375
 40
0.375
 40
0.4375
 40
0.4375
 40
0.4375
 40
0.4375
 40
0.5
 40
0.5
 40
0.5
 40
0.5
 40
0.5625
 40
0.5625
 40
0.5625
 40
0.5625
 40
0.625
 40
0.625
 40
0.625
 40
0.625
 40
0.6875
 40
0.6875
 40
0.6875
 40
0.6875
 40
0.75
 40
0.75
 40
0.75
 40
0.75
 40
0.8125
 40
0.8125
 40
0.8125
 40
0.8125
 40
0.875
 40
0.875
 40
0.875
 40
0.875
 40
0.9375
 40
0.9375
 40
0.9375
 40
0.9375
 40
1.0
 40
1.0
 40
1.0
 40
1.0
 10
-19.38801968503937
 20
24.9380157480315
 30
0.0
 10
-19.09851968503937
 20
24.9380157480315
 30
0.0
 10
-18.82307480314961
 20
24.86407086614173
 30
0.0
 10
-18.5733031496063
 20
24.73092125984252
 30
0.0
 10
-18.5733031496063
 20
24.73092125984252
 30
0.0
 10
-18.33396850393701
 20
24.9261220472441
 30
0.0
 10
-18.06448425196851
 20
25.06542125984252
 30
0.0
 10
-17.77587401574803
 20
25.1345905511811
 30
0.0
 10
-17.77587401574803
 20
25.1345905511811
 30
0.0
 10
-17.8277283464567
 20
25.40527559055118
 30
0.0
 10
-18.05165748031496
 20
25.77209448818898
 30
0.0
 10
-18.25679921259843
 20
25.84047637795276
 30
0.0
 10
-18.25679921259843
 20
25.84047637795276
 30
0.0
 10
-18.1747874015748
 20
26.12955118110236
 30
0.0
 10
-17.6981968503937
 20
25.97820866141732
 30
0.0
 10
-17.61608661417323
 20
26.29035433070866
 30
0.0
 10
-17.61608661417323
 20
26.29035433070866
 30
0.0
 10
-17.48868897637795
 20
26.77465354330709
 30
0.0
 10
-17.40316141732284
 20
25.32507086614173
 30
0.0
 10
-17.40348818897638
 20
25.18354724409449
 30
0.0
 10
-17.40348818897638
 20
25.18354724409449
 30
0.0
 10
-17.38810236220473
 20
25.18394488188977
 30
0.0
 10
-17.37266929133858
 20
25.18417716535433
 30
0.0
 10
-17.35720472440945
 20
25.18417716535433
 30
0.0
 10
-17.35720472440945
 20
25.18417716535433
 30
0.0
 10
-16.83818110236221
 20
25.18417716535433
 30
0.0
 10
-16.35978346456693
 20
24.96018897637795
 30
0.0
 10
-15.97676377952756
 20
24.58337401574803
 30
0.0
 10
-15.97676377952756
 20
24.58337401574803
 30
0.0
 10
-15.82086220472441
 20
24.62735826771654
 30
0.0
 10
-15.65803149606299
 20
24.65083070866142
 30
0.0
 10
-15.49048425196851
 20
24.65083070866142
 30
0.0
 10
-15.49048425196851
 20
24.65083070866142
 30
0.0
 10
-14.35775590551181
 20
24.65083070866142
 30
0.0
 10
-13.43914960629921
 20
23.58524409448819
 30
0.0
 10
-13.43914960629921
 20
22.27127952755906
 30
0.0
 10
-13.43914960629921
 20
22.27127952755906
 30
0.0
 10
-13.43914960629921
 20
20.95731496062992
 30
0.0
 10
-14.35775590551181
 20
19.89173228346457
 30
0.0
 10
-15.49048425196851
 20
19.89173228346457
 30
0.0
 10
-15.49048425196851
 20
19.89173228346457
 30
0.0
 10
-15.6465157480315
 20
19.89173228346457
 30
0.0
 10
-15.79847637795276
 20
19.91207874015748
 30
0.0
 10
-15.94454330708662
 20
19.95037795275591
 30
0.0
 10
-15.94454330708662
 20
19.95037795275591
 30
0.0
 10
-16.33278346456693
 20
19.5541062992126
 30
0.0
 10
-16.82353543307087
 20
19.31735826771654
 30
0.0
 10
-17.35720472440945
 20
19.31735826771654
 30
0.0
 10
-17.35720472440945
 20
19.31735826771654
 30
0.0
 10
-17.90983070866142
 20
19.31735826771654
 30
0.0
 10
-18.41650787401575
 20
19.57120472440945
 30
0.0
 10
-18.81090551181103
 20
19.99320078740158
 30
0.0
 10
-18.81090551181103
 20
19.99320078740158
 30
0.0
 10
-18.994
 20
19.92726377952756
 30
0.0
 10
-19.18762598425197
 20
19.89173228346457
 30
0.0
 10
-19.38801968503937
 20
19.89173228346457
 30
0.0
 10
-19.38801968503937
 20
19.89173228346457
 30
0.0
 10
-20.52074803149607
 20
19.89173228346457
 30
0.0
 10
-21.43935826771654
 20
21.02161811023622
 30
0.0
 10
-21.43935826771654
 20
22.41487795275591
 30
0.0
 10
-21.43935826771654
 20
22.41487795275591
 30
0.0
 10
-21.43935826771654
 20
23.80812992125985
 30
0.0
 10
-20.52074803149607
 20
24.9380157480315
 30
0.0
 10
-19.38801968503937
 20
24.9380157480315
 30
0.0
  0
SPLINE
  5
2D
330
1F
100
AcDbEntity
  8
Layer 1
 62
    30
100
AcDbSpline
210
0.0
220
0.0
230
1.0
 70
    11
 71
     3
 72
    36
 73
    32
 74
     0
 42
0.0000000001
 43
0.0000000001
 40
0.0
 40
0.0
 40
0.0
 40
0.0
 40
0.125
 40
0.125
 40
0.125
 40
0.125
 40
0.25
 40
0.25
 40
0.25
 40
0.25
 40
0.375
 40
0.375
 40
0.375
 40
0.375
 40
0.5
 40
0.5
 40
0.5
 40
0.5
 40
0.625
 40
0.625
 40
0.625
 40
0.625
 40
0.75
 40
0.75
 40
0.75
 40
0.75
 40
0.875
 40
0.875
 40
0.875
 40
0.875
 40
1.0
 40
1.0
 40
1.0
 40
1.0
 10
-16.21479921259843
 20
23.21642913385827
 30
0.0
 10
-16.09655511811024
 20
23.21642913385827
 30
0.0
 10
-16.00066929133858
 20
23.12054330708661
 30
0.0
 10
-16.00066929133858
 20
23.00229527559055
 30
0.0
 10
-16.00066929133858
 20
23.00229527559055
 30
0.0
 10
-16.00066929133858
 20
22.91085039370079
 30
0.0
 10
-16.05803543307087
 20
22.83281102362205
 30
0.0
 10
-16.13872440944882
 20
22.80211811023622
 30
0.0
 10
-16.13872440944882
 20
22.80211811023622
 30
0.0
 10
-16.13872440944882
 20
22.80211811023622
 30
0.0
 10
-15.82009842519685
 20
22.65646062992126
 30
0.0
 10
-15.82009842519685
 20
22.65646062992126
 30
0.0
 10
-15.82009842519685
 20
22.65646062992126
 30
0.0
 10
-15.82009842519685
 20
22.65646062992126
 30
0.0
 10
-15.20715748031496
 20
23.8178188976378
 30
0.0
 10
-15.20715748031496
 20
23.8178188976378
 30
0.0
 10
-15.20715748031496
 20
23.8178188976378
 30
0.0
 10
-15.20715748031496
 20
23.8178188976378
 30
0.0
 10
-16.9491968503937
 20
23.1726220472441
 30
0.0
 10
-16.9491968503937
 20
23.1726220472441
 30
0.0
 10
-16.9491968503937
 20
23.1726220472441
 30
0.0
 10
-16.9491968503937
 20
23.1726220472441
 30
0.0
 10
-16.41602755905512
 20
22.92888188976378
 30
0.0
 10
-16.41602755905512
 20
22.92888188976378
 30
0.0
 10
-16.41602755905512
 20
22.92888188976378
 30
0.0
 10
-16.42438976377953
 20
22.95177952755905
 30
0.0
 10
-16.42893307086614
 20
22.97650393700787
 30
0.0
 10
-16.42893307086614
 20
23.00229527559055
 30
0.0
 10
-16.42893307086614
 20
23.00229527559055
 30
0.0
 10
-16.42893307086614
 20
23.12054330708661
 30
0.0
 10
-16.33304724409449
 20
23.21642913385827
 30
0.0
 10
-16.21479921259843
 20
23.21642913385827
 30
0.0
  0
SPLINE
  5
2E
330
1F
100
AcDbEntity
  8
Layer 1
 62
    30
100
AcDbSpline
210
0.0
220
0.0
230
1.0
 70
    11
 71
     3
 72
    32
 73
    28
 74
     0
 42
0.0000000001
 43
0.0000000001
 40
0.0
 40
0.0
 40
0.0
 40
0.0
 40
0.1428571428571429
 40
0.1428571428571429
 40
0.1428571428571429
 40
0.1428571428571429
 40
0.2857142857142857
 40
0.2857142857142857
 40
0.2857142857142857
 40
0.2857142857142857
 40
0.4285714285714286
 40
0.4285714285714286
 40
0.4285714285714286
 40
0.4285714285714286
 40
0.5714285714285714
 40
0.5714285714285714
 40
0.5714285714285714
 40
0.5714285714285714
 40
0.7142857142857142
 40
0.7142857142857142
 40
0.7142857142857142
 40
0.7142857142857142
 40
0.857142857142857
 40
0.857142857142857
 40
0.857142857142857
 40
0.857142857142857
 40
1.0
 40
1.0
 40
1.0
 40
1.0
 10
-18.93161811023622
 20
23.05583070866142
 30
0.0
 10
-18.8213937007874
 20
23.05583070866142
 30
0.0
 10
-18.73062992125984
 20
22.9725157480315
 30
0.0
 10
-18.71882283464567
 20
22.86543307086614
 30
0.0
 10
-18.71882283464567
 20
22.86543307086614
 30
0.0
 10
-18.71882283464567
 20
22.86543307086614
 30
0.0
 10
-18.30411417322835
 20
23.1726220472441
 30
0.0
 10
-18.30411417322835
 20
23.1726220472441
 30
0.0
 10
-18.30411417322835
 20
23.1726220472441
 30
0.0
 10
-18.30411417322835
 20
23.1726220472441
 30
0.0
 10
-19.85259448818898
 20
23.43070078740158
 30
0.0
 10
-19.85259448818898
 20
23.43070078740158
 30
0.0
 10
-19.85259448818898
 20
23.43070078740158
 30
0.0
 10
-19.85259448818898
 20
23.43070078740158
 30
0.0
 10
-19.17513385826772
 20
22.52742125984252
 30
0.0
 10
-19.17513385826772
 20
22.52742125984252
 30
0.0
 10
-19.17513385826772
 20
22.52742125984252
 30
0.0
 10
-19.17513385826772
 20
22.52742125984252
 30
0.0
 10
-19.01637401574803
 20
22.64502362204724
 30
0.0
 10
-19.01637401574803
 20
22.64502362204724
 30
0.0
 10
-19.01637401574803
 20
22.64502362204724
 30
0.0
 10
-19.0924842519685
 20
22.67787007874016
 30
0.0
 10
-19.14575196850394
 20
22.75355511811024
 30
0.0
 10
-19.14575196850394
 20
22.8416968503937
 30
0.0
 10
-19.14575196850394
 20
22.8416968503937
 30
0.0
 10
-19.14575196850394
 20
22.95994488188977
 30
0.0
 10
-19.04986614173228
 20
23.05583070866142
 30
0.0
 10
-18.93161811023622
 20
23.05583070866142
 30
0.0
  0
SPLINE
  5
2F
330
1F
100
AcDbEntity
  8
Layer 1
 62
    30
100
AcDbSpline
210
0.0
220
0.0
230
1.0
 70
    11
 71
     3
 72
    96
 73
    92
 74
     0
 42
0.0000000001
 43
0.0000000001
 40
0.0
 40
0.0
 40
0.0
 40
0.0
 40
0.0434782608695652
 40
0.0434782608695652
 40
0.0434782608695652
 40
0.0434782608695652
 40
0.0869565217391304
 40
0.0869565217391304
 40
0.0869565217391304
 40
0.0869565217391304
 40
0.1304347826086957
 40
0.1304347826086957
 40
0.1304347826086957
 40
0.1304347826086957
 40
0.1739130434782609
 40
0.1739130434782609
 40
0.1739130434782609
 40
0.1739130434782609
 40
0.2173913043478261
 40
0.2173913043478261
 40
0.2173913043478261
 40
0.2173913043478261
 40
0.2608695652173913
 40
0.2608695652173913
 40
0.2608695652173913
 40
0.2608695652173913
 40
0.3043478260869565
 40
0.3043478260869565
 40
0.3043478260869565
 40
0.3043478260869565
 40
0.3478260869565217
 40
0.3478260869565217
 40
0.3478260869565217
 40
0.3478260869565217
 40
0.3913043478260869
 40
0.3913043478260869
 40
0.3913043478260869
 40
0.3913043478260869
 40
0.4347826086956521
 40
0.4347826086956521
 40
0.4347826086956521
 40
0.4347826086956521
 40
0.4782608695652173
 40
0.4782608695652173
 40
0.4782608695652173
 40
0.4782608695652173
 40
0.5217391304347825
 40
0.5217391304347825
 40
0.5217391304347825
 40
0.5217391304347825
 40
0.5652173913043477
 40
0.5652173913043477
 40
0.5652173913043477
 40
0.5652173913043477
 40
0.6086956521739129
 40
0.6086956521739129
 40
0.6086956521739129
 40
0.6086956521739129
 40
0.6521739130434781
 40
0.6521739130434781
 40
0.6521739130434781
 40
0.6521739130434781
 40
0.6956521739130432
 40
0.6956521739130432
 40
0.6956521739130432
 40
0.6956521739130432
 40
0.7391304347826084
 40
0.7391304347826084
 40
0.7391304347826084
 40
0.7391304347826084
 40
0.7826086956521736
 40
0.7826086956521736
 40
0.7826086956521736
 40
0.7826086956521736
 40
0.8260869565217388
 40
0.8260869565217388
 40
0.8260869565217388
 40
0.8260869565217388
 40
0.869565217391304
 40
0.869565217391304
 40
0.869565217391304
 40
0.869565217391304
 40
0.9130434782608692
 40
0.9130434782608692
 40
0.9130434782608692
 40
0.9130434782608692
 40
0.9565217391304344
 40
0.9565217391304344
 40
0.9565217391304344
 40
0.9565217391304344
 40
1.0
 40
1.0
 40
1.0
 40
1.0
 10
-17.22071653543307
 20
21.10308267716535
 30
0.0
 10
-17.22071653543307
 20
21.10308267716535
 30
0.0
 10
-16.89266141732283
 20
21.10308267716535
 30
0.0
 10
-16.89266141732283
 20
21.10308267716535
 30
0.0
 10
-16.89266141732283
 20
21.10308267716535
 30
0.0
 10
-16.89266141732283
 20
21.10308267716535
 30
0.0
 10
-16.87356692913386
 20
20.86462992125984
 30
0.0
 10
-16.87356692913386
 20
20.86462992125984
 30
0.0
 10
-16.87356692913386
 20
20.86462992125984
 30
0.0
 10
-16.33387401574803
 20
21.07956692913386
 30
0.0
 10
-15.80952755905512
 20
21.50407874015748
 30
0.0
 10
-15.65766141732284
 20
22.0476062992126
 30
0.0
 10
-15.65766141732284
 20
22.0476062992126
 30
0.0
 10
-15.9365905511811
 20
21.97288976377953
 30
0.0
 10
-16.23259842519685
 20
21.91113779527559
 30
0.0
 10
-16.53476377952756
 20
21.86232283464567
 30
0.0
 10
-16.53476377952756
 20
21.86232283464567
 30
0.0
 10
-16.53476377952756
 20
21.86232283464567
 30
0.0
 10
-16.52261811023622
 20
21.58300393700787
 30
0.0
 10
-16.52261811023622
 20
21.58300393700787
 30
0.0
 10
-16.52261811023622
 20
21.58300393700787
 30
0.0
 10
-16.52261811023622
 20
21.58300393700787
 30
0.0
 10
-16.88967716535433
 20
21.5014251968504
 30
0.0
 10
-16.88967716535433
 20
21.5014251968504
 30
0.0
 10
-16.88967716535433
 20
21.5014251968504
 30
0.0
 10
-16.88967716535433
 20
21.5014251968504
 30
0.0
 10
-16.92362598425197
 20
21.80696456692914
 30
0.0
 10
-16.92362598425197
 20
21.80696456692914
 30
0.0
 10
-16.92362598425197
 20
21.80696456692914
 30
0.0
 10
-17.1142125984252
 20
21.78338188976378
 30
0.0
 10
-17.30535826771654
 20
21.76482677165355
 30
0.0
 10
-17.49443700787402
 20
21.75133070866142
 30
0.0
 10
-17.49443700787402
 20
21.75133070866142
 30
0.0
 10
-17.49443700787402
 20
21.75133070866142
 30
0.0
 10
-17.45945275590551
 20
21.43644488188976
 30
0.0
 10
-17.45945275590551
 20
21.43644488188976
 30
0.0
 10
-17.45945275590551
 20
21.43644488188976
 30
0.0
 10
-17.45945275590551
 20
21.43644488188976
 30
0.0
 10
-17.81633858267717
 20
21.43644488188976
 30
0.0
 10
-17.81633858267717
 20
21.43644488188976
 30
0.0
 10
-17.81633858267717
 20
21.43644488188976
 30
0.0
 10
-17.81633858267717
 20
21.43644488188976
 30
0.0
 10
-17.82921653543307
 20
21.73258267716535
 30
0.0
 10
-17.82921653543307
 20
21.73258267716535
 30
0.0
 10
-17.82921653543307
 20
21.73258267716535
 30
0.0
 10
-18.02976377952756
 20
21.72447637795276
 30
0.0
 10
-18.22602755905512
 20
21.72225590551181
 30
0.0
 10
-18.41468110236221
 20
21.72593307086614
 30
0.0
 10
-18.41468110236221
 20
21.72593307086614
 30
0.0
 10
-18.41468110236221
 20
21.72593307086614
 30
0.0
 10
-18.43643700787402
 20
21.53012992125984
 30
0.0
 10
-18.43643700787402
 20
21.53012992125984
 30
0.0
 10
-18.43643700787402
 20
21.53012992125984
 30
0.0
 10
-18.43643700787402
 20
21.53012992125984
 30
0.0
 10
-18.67733464566929
 20
21.58366141732284
 30
0.0
 10
-18.67733464566929
 20
21.58366141732284
 30
0.0
 10
-18.67733464566929
 20
21.58366141732284
 30
0.0
 10
-18.67733464566929
 20
21.58366141732284
 30
0.0
 10
-18.67076377952756
 20
21.73477952755906
 30
0.0
 10
-18.67076377952756
 20
21.73477952755906
 30
0.0
 10
-18.67076377952756
 20
21.73477952755906
 30
0.0
 10
-18.85501968503937
 20
21.74404724409449
 30
0.0
 10
-19.02977559055118
 20
21.75940551181103
 30
0.0
 10
-19.19146062992126
 20
21.78090551181102
 30
0.0
 10
-19.19146062992126
 20
21.78090551181102
 30
0.0
 10
-19.03226771653543
 20
21.39176771653543
 30
0.0
 10
-18.72025196850394
 20
21.10341338582677
 30
0.0
 10
-18.37916141732283
 20
20.92474803149607
 30
0.0
 10
-18.37916141732283
 20
20.92474803149607
 30
0.0
 10
-18.37916141732283
 20
20.92474803149607
 30
0.0
 10
-18.36505511811024
 20
21.24907874015748
 30
0.0
 10
-18.36505511811024
 20
21.24907874015748
 30
0.0
 10
-18.36505511811024
 20
21.24907874015748
 30
0.0
 10
-18.36505511811024
 20
21.24907874015748
 30
0.0
 10
-18.00816929133858
 20
21.24907874015748
 30
0.0
 10
-18.00816929133858
 20
21.24907874015748
 30
0.0
 10
-18.00816929133858
 20
21.24907874015748
 30
0.0
 10
-18.00816929133858
 20
21.24907874015748
 30
0.0
 10
-18.05905511811024
 20
20.79107874015748
 30
0.0
 10
-18.05905511811024
 20
20.79107874015748
 30
0.0
 10
-18.05905511811024
 20
20.79107874015748
 30
0.0
 10
-17.85887007874016
 20
20.72753149606299
 30
0.0
 10
-17.66168110236221
 20
20.70124015748032
 30
0.0
 10
-17.49123622047244
 20
20.71409842519685
 30
0.0
 10
-17.49123622047244
 20
20.71409842519685
 30
0.0
 10
-17.38877952755906
 20
20.72182677165354
 30
0.0
 10
-17.28105118110236
 20
20.74004330708662
 30
0.0
 10
-17.1711968503937
 20
20.76779133858268
 30
0.0
 10
-17.1711968503937
 20
20.76779133858268
 30
0.0
 10
-17.1711968503937
 20
20.76779133858268
 30
0.0
 10
-17.22071653543307
 20
21.10308267716535
 30
0.0
 10
-17.22071653543307
 20
21.10308267716535
 30
0.0
  0
ENDSEC
  0
SECTION
  2
OBJECTS
  0
DICTIONARY
  5
C
330
0
100
AcDbDictionary
281
     1
  3
ACAD_GROUP
350
D
  3
ACAD_LAYOUT
350
1A
  3
ACAD_MLINESTYLE
350
17
  3
ACAD_PLOTSETTINGS
350
19
  3
ACAD_PLOTSTYLENAME
350
E
  0
DICTIONARY
  5
D
102
{ACAD_REACTORS
330
C
102
}
330
C
100
AcDbDictionary
281
     1
  0
DICTIONARY
  5
1A
102
{ACAD_REACTORS
330
C
102
}
330
C
100
AcDbDictionary
281
     1
  3
Layout1
350
1E
  3
Layout2
350
26
  3
Model
350
22
  0
DICTIONARY
  5
17
102
{ACAD_REACTORS
330
C
102
}
330
C
100
AcDbDictionary
281
     1
  3
Standard
350
18
  0
DICTIONARY
  5
19
102
{ACAD_REACTORS
330
C
102
}
330
C
100
AcDbDictionary
281
     1
  0
ACDBDICTIONARYWDFLT
  5
E
102
{ACAD_REACTORS
330
C
102
}
330
C
100
AcDbDictionary
281
     1
  3
Normal
350
F
100
AcDbDictionaryWithDefault
340
F
  0
LAYOUT
  5
1E
102
{ACAD_REACTORS
330
1A
102
}
330
1A
100
AcDbPlotSettings
  1

  2

  4

  6

 40
0.0
 41
0.0
 42
0.0
 43
0.0
 44
0.0
 45
0.0
 46
0.0
 47
0.0
 48
0.0
 49
0.0
140
0.0
141
0.0
142
1.0
143
1.0
 70
   688
 72
     0
 73
     0
 74
     5
  7

 75
    16
 76
     0
 77
     2
 78
   300
147
1.0
148
0.0
149
0.0
100
AcDbLayout
  1
Layout1
 70
     1
 71
     1
 10
0.0
 20
0.0
 11
12.0
 21
9.0
 12
0.0
 22
0.0
 32
0.0
 14
1.000000000000000E+20
 24
1.000000000000000E+20
 34
1.000000000000000E+20
 15
-1.000000000000000E+20
 25
-1.000000000000000E+20
 35
-1.000000000000000E+20
146
0.0
 13
0.0
 23
0.0
 33
0.0
 16
1.0
 26
0.0
 36
0.0
 17
0.0
 27
1.0
 37
0.0
 76
     0
330
1B
  0
LAYOUT
  5
26
102
{ACAD_REACTORS
330
1A
102
}
330
1A
100
AcDbPlotSettings
  1

  2

  4

  6

 40
0.0
 41
0.0
 42
0.0
 43
0.0
 44
0.0
 45
0.0
 46
0.0
 47
0.0
 48
0.0
 49
0.0
140
0.0
141
0.0
142
1.0
143
1.0
 70
   688
 72
     0
 73
     0
 74
     5
  7

 75
    16
 76
     0
 77
     2
 78
   300
147
1.0
148
0.0
149
0.0
100
AcDbLayout
  1
Layout2
 70
     1
 71
     2
 10
0.0
 20
0.0
 11
0.0
 21
0.0
 12
0.0
 22
0.0
 32
0.0
 14
0.0
 24
0.0
 34
0.0
 15
0.0
 25
0.0
 35
0.0
146
0.0
 13
0.0
 23
0.0
 33
0.0
 16
1.0
 26
0.0
 36
0.0
 17
0.0
 27
1.0
 37
0.0
 76
     0
330
23
  0
LAYOUT
  5
22
102
{ACAD_REACTORS
330
1A
102
}
330
1A
100
AcDbPlotSettings
  1

  2

  4

  6

 40
0.0
 41
0.0
 42
0.0
 43
0.0
 44
0.0
 45
0.0
 46
0.0
 47
0.0
 48
0.0
 49
0.0
140
0.0
141
0.0
142
1.0
143
1.0
 70
  1712
 72
     0
 73
     0
 74
     0
  7

 75
     0
 76
     0
 77
     2
 78
   300
147
1.0
148
0.0
149
0.0
100
AcDbLayout
  1
Model
 70
     1
 71
     0
 10
0.0
 20
0.0
 11
0.0
 21
0.0
 12
0.0
 22
0.0
 32
0.0
 14
-21.43935826771654
 24
19.31735433070866
 34
0.0
 15
-13.43915354330709
 25
26.38809842519685
 35
0.0
146
0.0
 13
0.0
 23
0.0
 33
0.0
 16
1.0
 26
0.0
 36
0.0
 17
0.0
 27
1.0
 37
0.0
 76
     0
330
1F
  0
MLINESTYLE
  5
18
102
{ACAD_REACTORS
330
17
102
}
330
17
100
AcDbMlineStyle
  2
Standard
 70
     0
  3

 62
   256
 51
90.0
 52
90.0
 71
     2
 49
0.5
 62
   256
  6
BYLAYER
 49
-0.5
 62
   256
  6
BYLAYER
  0
ACDBPLACEHOLDER
  5
F
102
{ACAD_REACTORS
330
E
102
}
330
E
  0
ENDSEC
  0
EOF
