  0
SECTION
  2
HEADER
  9
$ACADVER
  1
AC1018
  9
$ACADMAINTVER
 70
     0
  9
$DWGCODEPAGE
  3
ANSI_1252
  9
$INSBASE
 10
0.0
 20
0.0
 30
0.0
  9
$EXTMIN
 10
-42.11913779527559
 20
8.854964566929134
 30
0.0
  9
$EXTMAX
 10
-33.70862598425197
 20
15.13808661417323
 30
0.0
  9
$LIMMIN
 10
0.0
 20
0.0
  9
$LIMMAX
 10
12.0
 20
9.0
  9
$ORTHOMODE
 70
     0
  9
$REGENMODE
 70
     1
  9
$FILLMODE
 70
     1
  9
$QTEXTMODE
 70
     0
  9
$MIRRTEXT
 70
     1
  9
$LTSCALE
 40
1.0
  9
$ATTMODE
 70
     1
  9
$TEXTSIZE
 40
0.2
  9
$TRACEWID
 40
0.05
  9
$TEXTSTYLE
  7
Standard
  9
$CLAYER
  8
0
  9
$CELTYPE
  6
ByLayer
  9
$CECOLOR
 62
   256
  9
$CELTSCALE
 40
1.0
  9
$DISPSILH
 70
     0
  9
$DIMSCALE
 40
1.0
  9
$DIMASZ
 40
0.18
  9
$DIMEXO
 40
0.0625
  9
$DIMDLI
 40
0.38
  9
$DIMRND
 40
0.0
  9
$DIMDLE
 40
0.0
  9
$DIMEXE
 40
0.18
  9
$DIMTP
 40
0.0
  9
$DIMTM
 40
0.0
  9
$DIMTXT
 40
0.18
  9
$DIMCEN
 40
0.09
  9
$DIMTSZ
 40
0.0
  9
$DIMTOL
 70
     0
  9
$DIMLIM
 70
     0
  9
$DIMTIH
 70
     1
  9
$DIMTOH
 70
     1
  9
$DIMSE1
 70
     0
  9
$DIMSE2
 70
     0
  9
$DIMTAD
 70
     0
  9
$DIMZIN
 70
     0
  9
$DIMBLK
  1

  9
$DIMASO
 70
     1
  9
$DIMSHO
 70
     1
  9
$DIMPOST
  1

  9
$DIMAPOST
  1

  9
$DIMALT
 70
     0
  9
$DIMALTD
 70
     2
  9
$DIMALTF
 40
25.4
  9
$DIMLFAC
 40
1.0
  9
$DIMTOFL
 70
     0
  9
$DIMTVP
 40
0.0
  9
$DIMTIX
 70
     0
  9
$DIMSOXD
 70
     0
  9
$DIMSAH
 70
     0
  9
$DIMBLK1
  1

  9
$DIMBLK2
  1

  9
$DIMSTYLE
  2
Standard
  9
$DIMCLRD
 70
     0
  9
$DIMCLRE
 70
     0
  9
$DIMCLRT
 70
     0
  9
$DIMTFAC
 40
1.0
  9
$DIMGAP
 40
0.09
  9
$DIMJUST
 70
     0
  9
$DIMSD1
 70
     0
  9
$DIMSD2
 70
     0
  9
$DIMTOLJ
 70
     1
  9
$DIMTZIN
 70
     0
  9
$DIMALTZ
 70
     0
  9
$DIMALTTZ
 70
     0
  9
$DIMUPT
 70
     0
  9
$DIMDEC
 70
     4
  9
$DIMTDEC
 70
     4
  9
$DIMALTU
 70
     2
  9
$DIMALTTD
 70
     2
  9
$DIMTXSTY
  7
Standard
  9
$DIMAUNIT
 70
     0
  9
$DIMADEC
 70
     0
  9
$DIMALTRND
 40
0.0
  9
$DIMAZIN
 70
     0
  9
$DIMDSEP
 70
    46
  9
$DIMATFIT
 70
     3
  9
$DIMFRAC
 70
     0
  9
$DIMLDRBLK
  1

  9
$DIMLUNIT
 70
     2
  9
$DIMLWD
 70
    -2
  9
$DIMLWE
 70
    -2
  9
$DIMTMOVE
 70
     0
  9
$LUNITS
 70
     2
  9
$LUPREC
 70
     4
  9
$SKETCHINC
 40
0.1
  9
$FILLETRAD
 40
0.5
  9
$AUNITS
 70
     0
  9
$AUPREC
 70
     0
  9
$MENU
  1
.
  9
$ELEVATION
 40
0.0
  9
$PELEVATION
 40
0.0
  9
$THICKNESS
 40
0.0
  9
$LIMCHECK
 70
     0
  9
$CHAMFERA
 40
0.5
  9
$CHAMFERB
 40
0.5
  9
$CHAMFERC
 40
1.0
  9
$CHAMFERD
 40
0.0
  9
$SKPOLY
 70
     0
  9
$TDCREATE
 40
2458739.467537847
  9
$TDUCREATE
 40
2458739.384204514
  9
$TDUPDATE
 40
2458739.509204526
  9
$TDUUPDATE
 40
2458739.384204526
  9
$TDINDWG
 40
0.0000000116
  9
$TDUSRTIMER
 40
0.0000000116
  9
$USRTIMER
 70
     1
  9
$ANGBASE
 50
0.0
  9
$ANGDIR
 70
     0
  9
$PDMODE
 70
     0
  9
$PDSIZE
 40
0.0
  9
$PLINEWID
 40
0.0
  9
$SPLFRAME
 70
     0
  9
$SPLINETYPE
 70
     6
  9
$SPLINESEGS
 70
     8
  9
$HANDSEED
  5
31
  9
$SURFTAB1
 70
     6
  9
$SURFTAB2
 70
     6
  9
$SURFTYPE
 70
     6
  9
$SURFU
 70
     6
  9
$SURFV
 70
     6
  9
$UCSBASE
  2

  9
$UCSNAME
  2

  9
$UCSORG
 10
0.0
 20
0.0
 30
0.0
  9
$UCSXDIR
 10
1.0
 20
0.0
 30
0.0
  9
$UCSYDIR
 10
0.0
 20
1.0
 30
0.0
  9
$UCSORTHOREF
  2

  9
$UCSORTHOVIEW
 70
     0
  9
$UCSORGTOP
 10
0.0
 20
0.0
 30
0.0
  9
$UCSORGBOTTOM
 10
0.0
 20
0.0
 30
0.0
  9
$UCSORGLEFT
 10
0.0
 20
0.0
 30
0.0
  9
$UCSORGRIGHT
 10
0.0
 20
0.0
 30
0.0
  9
$UCSORGFRONT
 10
0.0
 20
0.0
 30
0.0
  9
$UCSORGBACK
 10
0.0
 20
0.0
 30
0.0
  9
$PUCSBASE
  2

  9
$PUCSNAME
  2

  9
$PUCSORG
 10
0.0
 20
0.0
 30
0.0
  9
$PUCSXDIR
 10
1.0
 20
0.0
 30
0.0
  9
$PUCSYDIR
 10
0.0
 20
1.0
 30
0.0
  9
$PUCSORTHOREF
  2

  9
$PUCSORTHOVIEW
 70
     0
  9
$PUCSORGTOP
 10
0.0
 20
0.0
 30
0.0
  9
$PUCSORGBOTTOM
 10
0.0
 20
0.0
 30
0.0
  9
$PUCSORGLEFT
 10
0.0
 20
0.0
 30
0.0
  9
$PUCSORGRIGHT
 10
0.0
 20
0.0
 30
0.0
  9
$PUCSORGFRONT
 10
0.0
 20
0.0
 30
0.0
  9
$PUCSORGBACK
 10
0.0
 20
0.0
 30
0.0
  9
$USERI1
 70
     0
  9
$USERI2
 70
     0
  9
$USERI3
 70
     0
  9
$USERI4
 70
     0
  9
$USERI5
 70
     0
  9
$USERR1
 40
0.0
  9
$USERR2
 40
0.0
  9
$USERR3
 40
0.0
  9
$USERR4
 40
0.0
  9
$USERR5
 40
0.0
  9
$WORLDVIEW
 70
     1
  9
$SHADEDGE
 70
     3
  9
$SHADEDIF
 70
    70
  9
$TILEMODE
 70
     1
  9
$MAXACTVP
 70
    64
  9
$PINSBASE
 10
0.0
 20
0.0
 30
0.0
  9
$PLIMCHECK
 70
     0
  9
$PEXTMIN
 10
1.000000000000000E+20
 20
1.000000000000000E+20
 30
1.000000000000000E+20
  9
$PEXTMAX
 10
-1.000000000000000E+20
 20
-1.000000000000000E+20
 30
-1.000000000000000E+20
  9
$PLIMMIN
 10
0.0
 20
0.0
  9
$PLIMMAX
 10
12.0
 20
9.0
  9
$UNITMODE
 70
     0
  9
$VISRETAIN
 70
     1
  9
$PLINEGEN
 70
     0
  9
$PSLTSCALE
 70
     1
  9
$TREEDEPTH
 70
  3020
  9
$CMLSTYLE
  2
Standard
  9
$CMLJUST
 70
     0
  9
$CMLSCALE
 40
1.0
  9
$PROXYGRAPHICS
 70
     1
  9
$MEASUREMENT
 70
     0
  9
$CELWEIGHT
370
    -1
  9
$ENDCAPS
280
     0
  9
$JOINSTYLE
280
     0
  9
$LWDISPLAY
290
     0
  9
$INSUNITS
 70
     1
  9
$HYPERLINKBASE
  1

  9
$STYLESHEET
  1

  9
$XEDIT
290
     1
  9
$CEPSNTYPE
380
     0
  9
$PSTYLEMODE
290
     0
  9
$FINGERPRINTGUID
  2
{FAEB1C30-E019-11D5-929B-00C0DF256EC4}
  9
$VERSIONGUID
  2
{FAEB1C32-E019-11D5-929B-00C0DF256EC4}
  9
$EXTNAMES
290
     1
  9
$PSVPSCALE
 40
0.0
  9
$OLESTARTUP
290
     0
  9
$SORTENTS
280
   127
  9
$INDEXCTL
280
     0
  9
$HIDETEXT
280
     1
  9
$XCLIPFRAME
290
     0
  9
$HALOGAP
280
     0
  9
$OBSCOLOR
 70
   257
  9
$OBSLTYPE
280
     0
  9
$INTERSECTIONDISPLAY
280
     0
  9
$INTERSECTIONCOLOR
 70
   257
  9
$DIMASSOC
280
     2
  9
$PROJECTNAME
  1

  0
ENDSEC
  0
SECTION
  2
CLASSES
  0
CLASS
  1
ACDBDICTIONARYWDFLT
  2
AcDbDictionaryWithDefault
  3
ObjectDBX Classes
 90
        0
 91
        1
280
     0
281
     0
  0
ENDSEC
  0
SECTION
  2
TABLES
  0
TABLE
  2
VPORT
  5
8
330
0
100
AcDbSymbolTable
 70
     2
  0
VPORT
  5
29
330
8
100
AcDbSymbolTableRecord
100
AcDbViewportTableRecord
  2
*Active
 70
     0
 10
0.0
 20
0.0
 11
1.0
 21
1.0
 12
10.42990654205607
 22
4.5
 13
0.0
 23
0.0
 14
0.5
 24
0.5
 15
0.5
 25
0.5
 16
0.0
 26
0.0
 36
1.0
 17
0.0
 27
0.0
 37
0.0
 40
9.0
 41
1.972972972850329
 42
50.0
 43
0.0
 44
0.0
 50
0.0
 51
0.0
 71
     0
 72
   100
 73
     1
 74
     3
 75
     0
 76
     0
 77
     0
 78
     0
281
     0
 65
     1
110
0.0
120
0.0
130
0.0
111
1.0
121
0.0
131
0.0
112
0.0
122
1.0
132
0.0
 79
     0
146
0.0
  0
ENDTAB
  0
TABLE
  2
LTYPE
  5
5
330
0
100
AcDbSymbolTable
 70
     1
  0
LTYPE
  5
14
330
5
100
AcDbSymbolTableRecord
100
AcDbLinetypeTableRecord
  2
ByBlock
 70
     0
  3

 72
    65
 73
     0
 40
0.0
  0
LTYPE
  5
15
330
5
100
AcDbSymbolTableRecord
100
AcDbLinetypeTableRecord
  2
ByLayer
 70
     0
  3

 72
    65
 73
     0
 40
0.0
  0
LTYPE
  5
16
330
5
100
AcDbSymbolTableRecord
100
AcDbLinetypeTableRecord
  2
Continuous
 70
     0
  3
Solid line
 72
    65
 73
     0
 40
0.0
  0
ENDTAB
  0
TABLE
  2
LAYER
  5
2
330
0
100
AcDbSymbolTable
 70
     2
  0
LAYER
  5
10
330
2
100
AcDbSymbolTableRecord
100
AcDbLayerTableRecord
  2
0
 70
     0
 62
     7
  6
Continuous
370
    -3
390
F
  0
LAYER
  5
2B
330
2
100
AcDbSymbolTableRecord
100
AcDbLayerTableRecord
  2
Layer 1
 70
     0
 62
     7
  6
Continuous
370
    -3
390
F
  0
ENDTAB
  0
TABLE
  2
STYLE
  5
3
330
0
100
AcDbSymbolTable
 70
     1
  0
STYLE
  5
11
330
3
100
AcDbSymbolTableRecord
100
AcDbTextStyleTableRecord
  2
Standard
 70
     0
 40
0.0
 41
1.0
 50
0.0
 71
     0
 42
0.2
  3
txt
  4

  0
ENDTAB
  0
TABLE
  2
VIEW
  5
6
330
0
100
AcDbSymbolTable
 70
     0
  0
ENDTAB
  0
TABLE
  2
UCS
  5
7
330
0
100
AcDbSymbolTable
 70
     0
  0
ENDTAB
  0
TABLE
  2
APPID
  5
9
330
0
100
AcDbSymbolTable
 70
     2
  0
APPID
  5
12
330
9
100
AcDbSymbolTableRecord
100
AcDbRegAppTableRecord
  2
ACAD
 70
     0
  0
APPID
  5
2A
330
9
100
AcDbSymbolTableRecord
100
AcDbRegAppTableRecord
  2
ODA
 70
     0
  0
ENDTAB
  0
TABLE
  2
DIMSTYLE
  5
A
330
0
100
AcDbSymbolTable
 70
     1
100
AcDbDimStyleTable
  0
DIMSTYLE
105
27
330
A
100
AcDbSymbolTableRecord
100
AcDbDimStyleTableRecord
  2
Standard
 70
     0
340
11
  0
ENDTAB
  0
TABLE
  2
BLOCK_RECORD
  5
1
330
0
100
AcDbSymbolTable
 70
     1
  0
BLOCK_RECORD
  5
1F
330
1
100
AcDbSymbolTableRecord
100
AcDbBlockTableRecord
  2
*Model_Space
340
22
  0
BLOCK_RECORD
  5
1B
330
1
100
AcDbSymbolTableRecord
100
AcDbBlockTableRecord
  2
*Paper_Space
340
1E
  0
BLOCK_RECORD
  5
23
330
1
100
AcDbSymbolTableRecord
100
AcDbBlockTableRecord
  2
*Paper_Space0
340
26
  0
ENDTAB
  0
ENDSEC
  0
SECTION
  2
BLOCKS
  0
BLOCK
  5
20
330
1F
100
AcDbEntity
  8
0
100
AcDbBlockBegin
  2
*Model_Space
 70
     0
 71
     0
 10
0.0
 20
0.0
 30
0.0
  3
*Model_Space
  1

  0
ENDBLK
  5
21
330
1F
100
AcDbEntity
  8
0
100
AcDbBlockEnd
  0
BLOCK
  5
1C
330
1B
100
AcDbEntity
 67
     1
  8
0
100
AcDbBlockBegin
  2
*Paper_Space
 70
     0
 71
     0
 10
0.0
 20
0.0
 30
0.0
  3
*Paper_Space
  1

  0
ENDBLK
  5
1D
330
1B
100
AcDbEntity
 67
     1
  8
0
100
AcDbBlockEnd
  0
BLOCK
  5
24
330
23
100
AcDbEntity
  8
0
100
AcDbBlockBegin
  2
*Paper_Space0
 70
     0
 71
     0
 10
0.0
 20
0.0
 30
0.0
  3
*Paper_Space0
  1

  0
ENDBLK
  5
25
330
23
100
AcDbEntity
  8
0
100
AcDbBlockEnd
  0
ENDSEC
  0
SECTION
  2
ENTITIES
  0
SPLINE
  5
2C
330
1F
100
AcDbEntity
  8
Layer 1
 62
    30
100
AcDbSpline
210
0.0
220
0.0
230
1.0
 70
    11
 71
     3
 72
    56
 73
    52
 74
     0
 42
0.0000000001
 43
0.0000000001
 40
0.0
 40
0.0
 40
0.0
 40
0.0
 40
0.0769230769230769
 40
0.0769230769230769
 40
0.0769230769230769
 40
0.0769230769230769
 40
0.1538461538461539
 40
0.1538461538461539
 40
0.1538461538461539
 40
0.1538461538461539
 40
0.2307692307692308
 40
0.2307692307692308
 40
0.2307692307692308
 40
0.2307692307692308
 40
0.3076923076923077
 40
0.3076923076923077
 40
0.3076923076923077
 40
0.3076923076923077
 40
0.3846153846153846
 40
0.3846153846153846
 40
0.3846153846153846
 40
0.3846153846153846
 40
0.4615384615384616
 40
0.4615384615384616
 40
0.4615384615384616
 40
0.4615384615384616
 40
0.5384615384615386
 40
0.5384615384615386
 40
0.5384615384615386
 40
0.5384615384615386
 40
0.6153846153846154
 40
0.6153846153846154
 40
0.6153846153846154
 40
0.6153846153846154
 40
0.6923076923076923
 40
0.6923076923076923
 40
0.6923076923076923
 40
0.6923076923076923
 40
0.7692307692307692
 40
0.7692307692307692
 40
0.7692307692307692
 40
0.7692307692307692
 40
0.846153846153846
 40
0.846153846153846
 40
0.846153846153846
 40
0.846153846153846
 40
0.9230769230769229
 40
0.9230769230769229
 40
0.9230769230769229
 40
0.9230769230769229
 40
1.0
 40
1.0
 40
1.0
 40
1.0
 10
-37.69251968503937
 20
14.26701181102362
 30
0.0
 10
-37.36879527559055
 20
14.31109448818898
 30
0.0
 10
-36.94605118110236
 20
14.37694094488189
 30
0.0
 10
-36.80595275590552
 20
14.36093307086614
 30
0.0
 10
-36.80595275590552
 20
14.36093307086614
 30
0.0
 10
-34.80796850393701
 20
14.13265354330709
 30
0.0
 10
-33.70862598425197
 20
12.86775984251969
 30
0.0
 10
-33.70862598425197
 20
11.56096850393701
 30
0.0
 10
-33.70862598425197
 20
11.56096850393701
 30
0.0
 10
-33.70862598425197
 20
10.48450393700787
 30
0.0
 10
-34.96811811023622
 20
9.472964566929134
 30
0.0
 10
-35.90875590551181
 20
9.176594488188977
 30
0.0
 10
-35.90875590551181
 20
9.176594488188977
 30
0.0
 10
-36.20497244094489
 20
9.08326377952756
 30
0.0
 10
-37.15658267716535
 20
9.112854330708661
 30
0.0
 10
-37.47872440944882
 20
9.042035433070867
 30
0.0
 10
-37.47872440944882
 20
9.042035433070867
 30
0.0
 10
-37.76247637795276
 20
8.979657480314961
 30
0.0
 10
-37.8335905511811
 20
8.85496062992126
 30
0.0
 10
-38.14329921259843
 20
8.85496062992126
 30
0.0
 10
-38.14329921259843
 20
8.85496062992126
 30
0.0
 10
-38.45300787401575
 20
8.85496062992126
 30
0.0
 10
-38.49714566929134
 20
8.986814960629921
 30
0.0
 10
-38.7863031496063
 20
9.063574803149606
 30
0.0
 10
-38.7863031496063
 20
9.063574803149606
 30
0.0
 10
-39.11821653543307
 20
9.151685039370079
 30
0.0
 10
-39.67488582677166
 20
9.068047244094489
 30
0.0
 10
-39.97692913385827
 20
9.176311023622048
 30
0.0
 10
-39.97692913385827
 20
9.176311023622048
 30
0.0
 10
-41.35585826771654
 20
9.670586614173228
 30
0.0
 10
-42.11913385826772
 20
10.5780157480315
 30
0.0
 10
-42.11913385826772
 20
11.74174803149606
 30
0.0
 10
-42.11913385826772
 20
11.74174803149606
 30
0.0
 10
-42.11913385826772
 20
13.00522834645669
 30
0.0
 10
-41.14018503937008
 20
14.10748031496063
 30
0.0
 10
-39.22825984251968
 20
14.33955511811024
 30
0.0
 10
-39.22825984251968
 20
14.33955511811024
 30
0.0
 10
-39.07542125984252
 20
14.35810236220473
 30
0.0
 10
-38.72515354330709
 20
14.30608267716536
 30
0.0
 10
-38.43117716535434
 20
14.2675157480315
 30
0.0
 10
-38.43117716535434
 20
14.2675157480315
 30
0.0
 10
-38.3784094488189
 20
14.47225590551181
 30
0.0
 10
-38.18836220472441
 20
14.89709842519685
 30
0.0
 10
-38.22427559055118
 20
15.13808661417323
 30
0.0
 10
-38.22427559055118
 20
15.13808661417323
 30
0.0
 10
-38.22427559055118
 20
15.13808661417323
 30
0.0
 10
-37.80709055118111
 20
15.11027165354331
 30
0.0
 10
-37.80709055118111
 20
15.11027165354331
 30
0.0
 10
-37.80709055118111
 20
15.11027165354331
 30
0.0
 10
-37.83944094488189
 20
14.79490551181102
 30
0.0
 10
-37.80125984251968
 20
14.48304330708661
 30
0.0
 10
-37.69251968503937
 20
14.26701181102362
 30
0.0
  0
SPLINE
  5
2D
330
1F
100
AcDbEntity
  8
Layer 1
 62
    30
100
AcDbSpline
210
0.0
220
0.0
230
1.0
 70
    11
 71
     3
 72
    36
 73
    32
 74
     0
 42
0.0000000001
 43
0.0000000001
 40
0.0
 40
0.0
 40
0.0
 40
0.0
 40
0.125
 40
0.125
 40
0.125
 40
0.125
 40
0.25
 40
0.25
 40
0.25
 40
0.25
 40
0.375
 40
0.375
 40
0.375
 40
0.375
 40
0.5
 40
0.5
 40
0.5
 40
0.5
 40
0.625
 40
0.625
 40
0.625
 40
0.625
 40
0.75
 40
0.75
 40
0.75
 40
0.75
 40
0.875
 40
0.875
 40
0.875
 40
0.875
 40
1.0
 40
1.0
 40
1.0
 40
1.0
 10
-36.68148031496063
 20
11.59462992125984
 30
0.0
 10
-36.50783464566929
 20
11.59462992125984
 30
0.0
 10
-36.36702362204725
 20
11.45597637795276
 30
0.0
 10
-36.36702362204725
 20
11.28500787401575
 30
0.0
 10
-36.36702362204725
 20
11.28500787401575
 30
0.0
 10
-36.36702362204725
 20
11.20308661417323
 30
0.0
 10
-36.39937795275591
 20
11.12859842519685
 30
0.0
 10
-36.45217322834646
 20
11.07321653543307
 30
0.0
 10
-36.45217322834646
 20
11.07321653543307
 30
0.0
 10
-35.97879921259843
 20
11.17496850393701
 30
0.0
 10
-35.62382677165355
 20
11.59587401574803
 30
0.0
 10
-35.62382677165355
 20
12.09959842519685
 30
0.0
 10
-35.62382677165355
 20
12.09959842519685
 30
0.0
 10
-35.62382677165355
 20
12.67934645669291
 30
0.0
 10
-36.09399212598425
 20
13.14950787401575
 30
0.0
 10
-36.67374409448819
 20
13.14950787401575
 30
0.0
 10
-36.67374409448819
 20
13.14950787401575
 30
0.0
 10
-37.25349212598425
 20
13.14950787401575
 30
0.0
 10
-37.72365354330709
 20
12.67934645669291
 30
0.0
 10
-37.72365354330709
 20
12.09959842519685
 30
0.0
 10
-37.72365354330709
 20
12.09959842519685
 30
0.0
 10
-37.72365354330709
 20
11.60283070866142
 30
0.0
 10
-37.37846062992126
 20
11.18658267716535
 30
0.0
 10
-36.9149094488189
 20
11.07758267716535
 30
0.0
 10
-36.9149094488189
 20
11.07758267716535
 30
0.0
 10
-36.96527559055118
 20
11.13248425196851
 30
0.0
 10
-36.99593307086614
 20
11.20522440944882
 30
0.0
 10
-36.99593307086614
 20
11.28500787401575
 30
0.0
 10
-36.99593307086614
 20
11.28500787401575
 30
0.0
 10
-36.99593307086614
 20
11.45597637795276
 30
0.0
 10
-36.85511811023622
 20
11.59462992125984
 30
0.0
 10
-36.68148031496063
 20
11.59462992125984
 30
0.0
  0
SPLINE
  5
2E
330
1F
100
AcDbEntity
  8
Layer 1
 62
    30
100
AcDbSpline
210
0.0
220
0.0
230
1.0
 70
    11
 71
     3
 72
    36
 73
    32
 74
     0
 42
0.0000000001
 43
0.0000000001
 40
0.0
 40
0.0
 40
0.0
 40
0.0
 40
0.125
 40
0.125
 40
0.125
 40
0.125
 40
0.25
 40
0.25
 40
0.25
 40
0.25
 40
0.375
 40
0.375
 40
0.375
 40
0.375
 40
0.5
 40
0.5
 40
0.5
 40
0.5
 40
0.625
 40
0.625
 40
0.625
 40
0.625
 40
0.75
 40
0.75
 40
0.75
 40
0.75
 40
0.875
 40
0.875
 40
0.875
 40
0.875
 40
1.0
 40
1.0
 40
1.0
 40
1.0
 10
-39.24551181102363
 20
11.59462992125984
 30
0.0
 10
-39.07186614173229
 20
11.59462992125984
 30
0.0
 10
-38.93105118110236
 20
11.45597637795276
 30
0.0
 10
-38.93105118110236
 20
11.28500787401575
 30
0.0
 10
-38.93105118110236
 20
11.28500787401575
 30
0.0
 10
-38.93105118110236
 20
11.20627952755906
 30
0.0
 10
-38.96090551181103
 20
11.13442125984252
 30
0.0
 10
-39.01007874015748
 20
11.0797874015748
 30
0.0
 10
-39.01007874015748
 20
11.0797874015748
 30
0.0
 10
-38.55108267716535
 20
11.19205118110236
 30
0.0
 10
-38.21037007874016
 20
11.60606692913386
 30
0.0
 10
-38.21037007874016
 20
12.09959842519685
 30
0.0
 10
-38.21037007874016
 20
12.09959842519685
 30
0.0
 10
-38.21037007874016
 20
12.67934645669291
 30
0.0
 10
-38.680531496063
 20
13.14950787401575
 30
0.0
 10
-39.26028740157481
 20
13.14950787401575
 30
0.0
 10
-39.26028740157481
 20
13.14950787401575
 30
0.0
 10
-39.84003149606299
 20
13.14950787401575
 30
0.0
 10
-40.31019291338583
 20
12.67934645669291
 30
0.0
 10
-40.31019291338583
 20
12.09959842519685
 30
0.0
 10
-40.31019291338583
 20
12.09959842519685
 30
0.0
 10
-40.31019291338583
 20
11.5927125984252
 30
0.0
 10
-39.95078346456693
 20
11.16963385826772
 30
0.0
 10
-39.47297244094489
 20
11.07127952755906
 30
0.0
 10
-39.47297244094489
 20
11.07127952755906
 30
0.0
 10
-39.52685039370079
 20
11.12685433070866
 30
0.0
 10
-39.55996456692913
 20
11.20212598425197
 30
0.0
 10
-39.55996456692913
 20
11.28500787401575
 30
0.0
 10
-39.55996456692913
 20
11.28500787401575
 30
0.0
 10
-39.55996456692913
 20
11.45597637795276
 30
0.0
 10
-39.41914960629921
 20
11.59462992125984
 30
0.0
 10
-39.24551181102363
 20
11.59462992125984
 30
0.0
  0
SPLINE
  5
2F
330
1F
100
AcDbEntity
  8
Layer 1
 62
    30
100
AcDbSpline
210
0.0
220
0.0
230
1.0
 70
    11
 71
     3
 72
    16
 73
    12
 74
     0
 42
0.0000000001
 43
0.0000000001
 40
0.0
 40
0.0
 40
0.0
 40
0.0
 40
0.3333333333333333
 40
0.3333333333333333
 40
0.3333333333333333
 40
0.3333333333333333
 40
0.6666666666666666
 40
0.6666666666666666
 40
0.6666666666666666
 40
0.6666666666666666
 40
1.0
 40
1.0
 40
1.0
 40
1.0
 10
-38.09276377952756
 20
11.54108661417323
 30
0.0
 10
-38.09276377952756
 20
11.54108661417323
 30
0.0
 10
-38.3915905511811
 20
10.95492913385827
 30
0.0
 10
-38.3915905511811
 20
10.95492913385827
 30
0.0
 10
-38.3915905511811
 20
10.95492913385827
 30
0.0
 10
-38.3915905511811
 20
10.95492913385827
 30
0.0
 10
-37.67900787401575
 20
10.88596850393701
 30
0.0
 10
-37.67900787401575
 20
10.88596850393701
 30
0.0
 10
-37.67900787401575
 20
10.88596850393701
 30
0.0
 10
-37.67900787401575
 20
10.88596850393701
 30
0.0
 10
-38.09276377952756
 20
11.54108661417323
 30
0.0
 10
-38.09276377952756
 20
11.54108661417323
 30
0.0
  0
SPLINE
  5
30
330
1F
100
AcDbEntity
  8
Layer 1
 62
    30
100
AcDbSpline
210
0.0
220
0.0
230
1.0
 70
    11
 71
     3
 72
    48
 73
    44
 74
     0
 42
0.0000000001
 43
0.0000000001
 40
0.0
 40
0.0
 40
0.0
 40
0.0
 40
0.0909090909090909
 40
0.0909090909090909
 40
0.0909090909090909
 40
0.0909090909090909
 40
0.1818181818181818
 40
0.1818181818181818
 40
0.1818181818181818
 40
0.1818181818181818
 40
0.2727272727272727
 40
0.2727272727272727
 40
0.2727272727272727
 40
0.2727272727272727
 40
0.3636363636363637
 40
0.3636363636363637
 40
0.3636363636363637
 40
0.3636363636363637
 40
0.4545454545454546
 40
0.4545454545454546
 40
0.4545454545454546
 40
0.4545454545454546
 40
0.5454545454545455
 40
0.5454545454545455
 40
0.5454545454545455
 40
0.5454545454545455
 40
0.6363636363636365
 40
0.6363636363636365
 40
0.6363636363636365
 40
0.6363636363636365
 40
0.7272727272727274
 40
0.7272727272727274
 40
0.7272727272727274
 40
0.7272727272727274
 40
0.8181818181818183
 40
0.8181818181818183
 40
0.8181818181818183
 40
0.8181818181818183
 40
0.9090909090909093
 40
0.9090909090909093
 40
0.9090909090909093
 40
0.9090909090909093
 40
1.0
 40
1.0
 40
1.0
 40
1.0
 10
-37.24001181102362
 20
10.50334645669291
 30
0.0
 10
-37.24001181102362
 20
10.50334645669291
 30
0.0
 10
-37.26685039370079
 20
10.26176377952756
 30
0.0
 10
-37.26685039370079
 20
10.26176377952756
 30
0.0
 10
-37.26685039370079
 20
10.26176377952756
 30
0.0
 10
-37.26685039370079
 20
10.26176377952756
 30
0.0
 10
-37.64419685039371
 20
10.25208661417323
 30
0.0
 10
-37.64419685039371
 20
10.25208661417323
 30
0.0
 10
-37.64419685039371
 20
10.25208661417323
 30
0.0
 10
-37.64419685039371
 20
10.25208661417323
 30
0.0
 10
-37.64419685039371
 20
10.49534251968504
 30
0.0
 10
-37.64419685039371
 20
10.49534251968504
 30
0.0
 10
-37.64419685039371
 20
10.49534251968504
 30
0.0
 10
-37.94742913385827
 20
10.4923937007874
 30
0.0
 10
-38.25416929133858
 20
10.49605905511811
 30
0.0
 10
-38.55409055118111
 20
10.50572047244095
 30
0.0
 10
-38.55409055118111
 20
10.50572047244095
 30
0.0
 10
-38.55409055118111
 20
10.50572047244095
 30
0.0
 10
-38.57305511811024
 20
10.29079133858268
 30
0.0
 10
-38.57305511811024
 20
10.29079133858268
 30
0.0
 10
-38.57305511811024
 20
10.29079133858268
 30
0.0
 10
-38.57305511811024
 20
10.29079133858268
 30
0.0
 10
-38.94072440944882
 20
10.33916929133858
 30
0.0
 10
-38.94072440944882
 20
10.33916929133858
 30
0.0
 10
-38.94072440944882
 20
10.33916929133858
 30
0.0
 10
-38.94072440944882
 20
10.33916929133858
 30
0.0
 10
-38.95335433070866
 20
10.52231102362205
 30
0.0
 10
-38.95335433070866
 20
10.52231102362205
 30
0.0
 10
-38.95335433070866
 20
10.52231102362205
 30
0.0
 10
-39.21448818897638
 20
10.53566141732284
 30
0.0
 10
-39.46645669291339
 20
10.55358267716536
 30
0.0
 10
-39.70182283464567
 20
10.57565354330709
 30
0.0
 10
-39.70182283464567
 20
10.57565354330709
 30
0.0
 10
-39.47195669291339
 20
10.02397637795276
 30
0.0
 10
-38.71066929133858
 20
9.740858267716536
 30
0.0
 10
-38.15023228346457
 20
9.736641732283465
 30
0.0
 10
-38.15023228346457
 20
9.736641732283465
 30
0.0
 10
-37.56944094488189
 20
9.732275590551181
 30
0.0
 10
-36.37261023622047
 20
10.11209448818898
 30
0.0
 10
-36.36877559055118
 20
10.55266535433071
 30
0.0
 10
-36.36877559055118
 20
10.55266535433071
 30
0.0
 10
-36.64366535433071
 20
10.52867322834646
 30
0.0
 10
-36.93767322834646
 20
10.51247637795276
 30
0.0
 10
-37.24001181102362
 20
10.50334645669291
 30
0.0
  0
ENDSEC
  0
SECTION
  2
OBJECTS
  0
DICTIONARY
  5
C
330
0
100
AcDbDictionary
281
     1
  3
ACAD_GROUP
350
D
  3
ACAD_LAYOUT
350
1A
  3
ACAD_MLINESTYLE
350
17
  3
ACAD_PLOTSETTINGS
350
19
  3
ACAD_PLOTSTYLENAME
350
E
  0
DICTIONARY
  5
D
102
{ACAD_REACTORS
330
C
102
}
330
C
100
AcDbDictionary
281
     1
  0
DICTIONARY
  5
1A
102
{ACAD_REACTORS
330
C
102
}
330
C
100
AcDbDictionary
281
     1
  3
Layout1
350
1E
  3
Layout2
350
26
  3
Model
350
22
  0
DICTIONARY
  5
17
102
{ACAD_REACTORS
330
C
102
}
330
C
100
AcDbDictionary
281
     1
  3
Standard
350
18
  0
DICTIONARY
  5
19
102
{ACAD_REACTORS
330
C
102
}
330
C
100
AcDbDictionary
281
     1
  0
ACDBDICTIONARYWDFLT
  5
E
102
{ACAD_REACTORS
330
C
102
}
330
C
100
AcDbDictionary
281
     1
  3
Normal
350
F
100
AcDbDictionaryWithDefault
340
F
  0
LAYOUT
  5
1E
102
{ACAD_REACTORS
330
1A
102
}
330
1A
100
AcDbPlotSettings
  1

  2

  4

  6

 40
0.0
 41
0.0
 42
0.0
 43
0.0
 44
0.0
 45
0.0
 46
0.0
 47
0.0
 48
0.0
 49
0.0
140
0.0
141
0.0
142
1.0
143
1.0
 70
   688
 72
     0
 73
     0
 74
     5
  7

 75
    16
 76
     0
 77
     2
 78
   300
147
1.0
148
0.0
149
0.0
100
AcDbLayout
  1
Layout1
 70
     1
 71
     1
 10
0.0
 20
0.0
 11
12.0
 21
9.0
 12
0.0
 22
0.0
 32
0.0
 14
1.000000000000000E+20
 24
1.000000000000000E+20
 34
1.000000000000000E+20
 15
-1.000000000000000E+20
 25
-1.000000000000000E+20
 35
-1.000000000000000E+20
146
0.0
 13
0.0
 23
0.0
 33
0.0
 16
1.0
 26
0.0
 36
0.0
 17
0.0
 27
1.0
 37
0.0
 76
     0
330
1B
  0
LAYOUT
  5
26
102
{ACAD_REACTORS
330
1A
102
}
330
1A
100
AcDbPlotSettings
  1

  2

  4

  6

 40
0.0
 41
0.0
 42
0.0
 43
0.0
 44
0.0
 45
0.0
 46
0.0
 47
0.0
 48
0.0
 49
0.0
140
0.0
141
0.0
142
1.0
143
1.0
 70
   688
 72
     0
 73
     0
 74
     5
  7

 75
    16
 76
     0
 77
     2
 78
   300
147
1.0
148
0.0
149
0.0
100
AcDbLayout
  1
Layout2
 70
     1
 71
     2
 10
0.0
 20
0.0
 11
0.0
 21
0.0
 12
0.0
 22
0.0
 32
0.0
 14
0.0
 24
0.0
 34
0.0
 15
0.0
 25
0.0
 35
0.0
146
0.0
 13
0.0
 23
0.0
 33
0.0
 16
1.0
 26
0.0
 36
0.0
 17
0.0
 27
1.0
 37
0.0
 76
     0
330
23
  0
LAYOUT
  5
22
102
{ACAD_REACTORS
330
1A
102
}
330
1A
100
AcDbPlotSettings
  1

  2

  4

  6

 40
0.0
 41
0.0
 42
0.0
 43
0.0
 44
0.0
 45
0.0
 46
0.0
 47
0.0
 48
0.0
 49
0.0
140
0.0
141
0.0
142
1.0
143
1.0
 70
  1712
 72
     0
 73
     0
 74
     0
  7

 75
     0
 76
     0
 77
     2
 78
   300
147
1.0
148
0.0
149
0.0
100
AcDbLayout
  1
Model
 70
     1
 71
     0
 10
0.0
 20
0.0
 11
0.0
 21
0.0
 12
0.0
 22
0.0
 32
0.0
 14
-42.11913779527559
 24
8.854964566929134
 34
0.0
 15
-33.70862598425197
 25
15.13808661417323
 35
0.0
146
0.0
 13
0.0
 23
0.0
 33
0.0
 16
1.0
 26
0.0
 36
0.0
 17
0.0
 27
1.0
 37
0.0
 76
     0
330
1F
  0
MLINESTYLE
  5
18
102
{ACAD_REACTORS
330
17
102
}
330
17
100
AcDbMlineStyle
  2
Standard
 70
     0
  3

 62
   256
 51
90.0
 52
90.0
 71
     2
 49
0.5
 62
   256
  6
BYLAYER
 49
-0.5
 62
   256
  6
BYLAYER
  0
ACDBPLACEHOLDER
  5
F
102
{ACAD_REACTORS
330
E
102
}
330
E
  0
ENDSEC
  0
EOF
