  0
SECTION
  2
HEADER
  9
$ACADVER
  1
AC1018
  9
$ACADMAINTVER
 70
     0
  9
$DWGCODEPAGE
  3
ANSI_1252
  9
$INSBASE
 10
0.0
 20
0.0
 30
0.0
  9
$EXTMIN
 10
-31.70792125984252
 20
9.290417322834646
 30
0.0
  9
$EXTMAX
 10
-23.27705511811024
 20
15.05722440944882
 30
0.0
  9
$LIMMIN
 10
0.0
 20
0.0
  9
$LIMMAX
 10
12.0
 20
9.0
  9
$ORTHOMODE
 70
     0
  9
$REGENMODE
 70
     1
  9
$FILLMODE
 70
     1
  9
$QTEXTMODE
 70
     0
  9
$MIRRTEXT
 70
     1
  9
$LTSCALE
 40
1.0
  9
$ATTMODE
 70
     1
  9
$TEXTSIZE
 40
0.2
  9
$TRACEWID
 40
0.05
  9
$TEXTSTYLE
  7
Standard
  9
$CLAYER
  8
0
  9
$CELTYPE
  6
ByLayer
  9
$CECOLOR
 62
   256
  9
$CELTSCALE
 40
1.0
  9
$DISPSILH
 70
     0
  9
$DIMSCALE
 40
1.0
  9
$DIMASZ
 40
0.18
  9
$DIMEXO
 40
0.0625
  9
$DIMDLI
 40
0.38
  9
$DIMRND
 40
0.0
  9
$DIMDLE
 40
0.0
  9
$DIMEXE
 40
0.18
  9
$DIMTP
 40
0.0
  9
$DIMTM
 40
0.0
  9
$DIMTXT
 40
0.18
  9
$DIMCEN
 40
0.09
  9
$DIMTSZ
 40
0.0
  9
$DIMTOL
 70
     0
  9
$DIMLIM
 70
     0
  9
$DIMTIH
 70
     1
  9
$DIMTOH
 70
     1
  9
$DIMSE1
 70
     0
  9
$DIMSE2
 70
     0
  9
$DIMTAD
 70
     0
  9
$DIMZIN
 70
     0
  9
$DIMBLK
  1

  9
$DIMASO
 70
     1
  9
$DIMSHO
 70
     1
  9
$DIMPOST
  1

  9
$DIMAPOST
  1

  9
$DIMALT
 70
     0
  9
$DIMALTD
 70
     2
  9
$DIMALTF
 40
25.4
  9
$DIMLFAC
 40
1.0
  9
$DIMTOFL
 70
     0
  9
$DIMTVP
 40
0.0
  9
$DIMTIX
 70
     0
  9
$DIMSOXD
 70
     0
  9
$DIMSAH
 70
     0
  9
$DIMBLK1
  1

  9
$DIMBLK2
  1

  9
$DIMSTYLE
  2
Standard
  9
$DIMCLRD
 70
     0
  9
$DIMCLRE
 70
     0
  9
$DIMCLRT
 70
     0
  9
$DIMTFAC
 40
1.0
  9
$DIMGAP
 40
0.09
  9
$DIMJUST
 70
     0
  9
$DIMSD1
 70
     0
  9
$DIMSD2
 70
     0
  9
$DIMTOLJ
 70
     1
  9
$DIMTZIN
 70
     0
  9
$DIMALTZ
 70
     0
  9
$DIMALTTZ
 70
     0
  9
$DIMUPT
 70
     0
  9
$DIMDEC
 70
     4
  9
$DIMTDEC
 70
     4
  9
$DIMALTU
 70
     2
  9
$DIMALTTD
 70
     2
  9
$DIMTXSTY
  7
Standard
  9
$DIMAUNIT
 70
     0
  9
$DIMADEC
 70
     0
  9
$DIMALTRND
 40
0.0
  9
$DIMAZIN
 70
     0
  9
$DIMDSEP
 70
    46
  9
$DIMATFIT
 70
     3
  9
$DIMFRAC
 70
     0
  9
$DIMLDRBLK
  1

  9
$DIMLUNIT
 70
     2
  9
$DIMLWD
 70
    -2
  9
$DIMLWE
 70
    -2
  9
$DIMTMOVE
 70
     0
  9
$LUNITS
 70
     2
  9
$LUPREC
 70
     4
  9
$SKETCHINC
 40
0.1
  9
$FILLETRAD
 40
0.5
  9
$AUNITS
 70
     0
  9
$AUPREC
 70
     0
  9
$MENU
  1
.
  9
$ELEVATION
 40
0.0
  9
$PELEVATION
 40
0.0
  9
$THICKNESS
 40
0.0
  9
$LIMCHECK
 70
     0
  9
$CHAMFERA
 40
0.5
  9
$CHAMFERB
 40
0.5
  9
$CHAMFERC
 40
1.0
  9
$CHAMFERD
 40
0.0
  9
$SKPOLY
 70
     0
  9
$TDCREATE
 40
2458738.883690451
  9
$TDUCREATE
 40
2458738.800357118
  9
$TDUPDATE
 40
2458738.925357129
  9
$TDUUPDATE
 40
2458738.800357129
  9
$TDINDWG
 40
0.0000000116
  9
$TDUSRTIMER
 40
0.0000000116
  9
$USRTIMER
 70
     1
  9
$ANGBASE
 50
0.0
  9
$ANGDIR
 70
     0
  9
$PDMODE
 70
     0
  9
$PDSIZE
 40
0.0
  9
$PLINEWID
 40
0.0
  9
$SPLFRAME
 70
     0
  9
$SPLINETYPE
 70
     6
  9
$SPLINESEGS
 70
     8
  9
$HANDSEED
  5
30
  9
$SURFTAB1
 70
     6
  9
$SURFTAB2
 70
     6
  9
$SURFTYPE
 70
     6
  9
$SURFU
 70
     6
  9
$SURFV
 70
     6
  9
$UCSBASE
  2

  9
$UCSNAME
  2

  9
$UCSORG
 10
0.0
 20
0.0
 30
0.0
  9
$UCSXDIR
 10
1.0
 20
0.0
 30
0.0
  9
$UCSYDIR
 10
0.0
 20
1.0
 30
0.0
  9
$UCSORTHOREF
  2

  9
$UCSORTHOVIEW
 70
     0
  9
$UCSORGTOP
 10
0.0
 20
0.0
 30
0.0
  9
$UCSORGBOTTOM
 10
0.0
 20
0.0
 30
0.0
  9
$UCSORGLEFT
 10
0.0
 20
0.0
 30
0.0
  9
$UCSORGRIGHT
 10
0.0
 20
0.0
 30
0.0
  9
$UCSORGFRONT
 10
0.0
 20
0.0
 30
0.0
  9
$UCSORGBACK
 10
0.0
 20
0.0
 30
0.0
  9
$PUCSBASE
  2

  9
$PUCSNAME
  2

  9
$PUCSORG
 10
0.0
 20
0.0
 30
0.0
  9
$PUCSXDIR
 10
1.0
 20
0.0
 30
0.0
  9
$PUCSYDIR
 10
0.0
 20
1.0
 30
0.0
  9
$PUCSORTHOREF
  2

  9
$PUCSORTHOVIEW
 70
     0
  9
$PUCSORGTOP
 10
0.0
 20
0.0
 30
0.0
  9
$PUCSORGBOTTOM
 10
0.0
 20
0.0
 30
0.0
  9
$PUCSORGLEFT
 10
0.0
 20
0.0
 30
0.0
  9
$PUCSORGRIGHT
 10
0.0
 20
0.0
 30
0.0
  9
$PUCSORGFRONT
 10
0.0
 20
0.0
 30
0.0
  9
$PUCSORGBACK
 10
0.0
 20
0.0
 30
0.0
  9
$USERI1
 70
     0
  9
$USERI2
 70
     0
  9
$USERI3
 70
     0
  9
$USERI4
 70
     0
  9
$USERI5
 70
     0
  9
$USERR1
 40
0.0
  9
$USERR2
 40
0.0
  9
$USERR3
 40
0.0
  9
$USERR4
 40
0.0
  9
$USERR5
 40
0.0
  9
$WORLDVIEW
 70
     1
  9
$SHADEDGE
 70
     3
  9
$SHADEDIF
 70
    70
  9
$TILEMODE
 70
     1
  9
$MAXACTVP
 70
    64
  9
$PINSBASE
 10
0.0
 20
0.0
 30
0.0
  9
$PLIMCHECK
 70
     0
  9
$PEXTMIN
 10
1.000000000000000E+20
 20
1.000000000000000E+20
 30
1.000000000000000E+20
  9
$PEXTMAX
 10
-1.000000000000000E+20
 20
-1.000000000000000E+20
 30
-1.000000000000000E+20
  9
$PLIMMIN
 10
0.0
 20
0.0
  9
$PLIMMAX
 10
12.0
 20
9.0
  9
$UNITMODE
 70
     0
  9
$VISRETAIN
 70
     1
  9
$PLINEGEN
 70
     0
  9
$PSLTSCALE
 70
     1
  9
$TREEDEPTH
 70
  3020
  9
$CMLSTYLE
  2
Standard
  9
$CMLJUST
 70
     0
  9
$CMLSCALE
 40
1.0
  9
$PROXYGRAPHICS
 70
     1
  9
$MEASUREMENT
 70
     0
  9
$CELWEIGHT
370
    -1
  9
$ENDCAPS
280
     0
  9
$JOINSTYLE
280
     0
  9
$LWDISPLAY
290
     0
  9
$INSUNITS
 70
     1
  9
$HYPERLINKBASE
  1

  9
$STYLESHEET
  1

  9
$XEDIT
290
     1
  9
$CEPSNTYPE
380
     0
  9
$PSTYLEMODE
290
     0
  9
$FINGERPRINTGUID
  2
{FAEB1C30-E019-11D5-929B-00C0DF256EC4}
  9
$VERSIONGUID
  2
{FAEB1C32-E019-11D5-929B-00C0DF256EC4}
  9
$EXTNAMES
290
     1
  9
$PSVPSCALE
 40
0.0
  9
$OLESTARTUP
290
     0
  9
$SORTENTS
280
   127
  9
$INDEXCTL
280
     0
  9
$HIDETEXT
280
     1
  9
$XCLIPFRAME
290
     0
  9
$HALOGAP
280
     0
  9
$OBSCOLOR
 70
   257
  9
$OBSLTYPE
280
     0
  9
$INTERSECTIONDISPLAY
280
     0
  9
$INTERSECTIONCOLOR
 70
   257
  9
$DIMASSOC
280
     2
  9
$PROJECTNAME
  1

  0
ENDSEC
  0
SECTION
  2
CLASSES
  0
CLASS
  1
ACDBDICTIONARYWDFLT
  2
AcDbDictionaryWithDefault
  3
ObjectDBX Classes
 90
        0
 91
        1
280
     0
281
     0
  0
ENDSEC
  0
SECTION
  2
TABLES
  0
TABLE
  2
VPORT
  5
8
330
0
100
AcDbSymbolTable
 70
     2
  0
VPORT
  5
29
330
8
100
AcDbSymbolTableRecord
100
AcDbViewportTableRecord
  2
*Active
 70
     0
 10
0.0
 20
0.0
 11
1.0
 21
1.0
 12
10.42990654205607
 22
4.5
 13
0.0
 23
0.0
 14
0.5
 24
0.5
 15
0.5
 25
0.5
 16
0.0
 26
0.0
 36
1.0
 17
0.0
 27
0.0
 37
0.0
 40
9.0
 41
1.972972972850329
 42
50.0
 43
0.0
 44
0.0
 50
0.0
 51
0.0
 71
     0
 72
   100
 73
     1
 74
     3
 75
     0
 76
     0
 77
     0
 78
     0
281
     0
 65
     1
110
0.0
120
0.0
130
0.0
111
1.0
121
0.0
131
0.0
112
0.0
122
1.0
132
0.0
 79
     0
146
0.0
  0
ENDTAB
  0
TABLE
  2
LTYPE
  5
5
330
0
100
AcDbSymbolTable
 70
     1
  0
LTYPE
  5
14
330
5
100
AcDbSymbolTableRecord
100
AcDbLinetypeTableRecord
  2
ByBlock
 70
     0
  3

 72
    65
 73
     0
 40
0.0
  0
LTYPE
  5
15
330
5
100
AcDbSymbolTableRecord
100
AcDbLinetypeTableRecord
  2
ByLayer
 70
     0
  3

 72
    65
 73
     0
 40
0.0
  0
LTYPE
  5
16
330
5
100
AcDbSymbolTableRecord
100
AcDbLinetypeTableRecord
  2
Continuous
 70
     0
  3
Solid line
 72
    65
 73
     0
 40
0.0
  0
ENDTAB
  0
TABLE
  2
LAYER
  5
2
330
0
100
AcDbSymbolTable
 70
     2
  0
LAYER
  5
10
330
2
100
AcDbSymbolTableRecord
100
AcDbLayerTableRecord
  2
0
 70
     0
 62
     7
  6
Continuous
370
    -3
390
F
  0
LAYER
  5
2B
330
2
100
AcDbSymbolTableRecord
100
AcDbLayerTableRecord
  2
Layer 1
 70
     0
 62
     7
  6
Continuous
370
    -3
390
F
  0
ENDTAB
  0
TABLE
  2
STYLE
  5
3
330
0
100
AcDbSymbolTable
 70
     1
  0
STYLE
  5
11
330
3
100
AcDbSymbolTableRecord
100
AcDbTextStyleTableRecord
  2
Standard
 70
     0
 40
0.0
 41
1.0
 50
0.0
 71
     0
 42
0.2
  3
txt
  4

  0
ENDTAB
  0
TABLE
  2
VIEW
  5
6
330
0
100
AcDbSymbolTable
 70
     0
  0
ENDTAB
  0
TABLE
  2
UCS
  5
7
330
0
100
AcDbSymbolTable
 70
     0
  0
ENDTAB
  0
TABLE
  2
APPID
  5
9
330
0
100
AcDbSymbolTable
 70
     2
  0
APPID
  5
12
330
9
100
AcDbSymbolTableRecord
100
AcDbRegAppTableRecord
  2
ACAD
 70
     0
  0
APPID
  5
2A
330
9
100
AcDbSymbolTableRecord
100
AcDbRegAppTableRecord
  2
ODA
 70
     0
  0
ENDTAB
  0
TABLE
  2
DIMSTYLE
  5
A
330
0
100
AcDbSymbolTable
 70
     1
100
AcDbDimStyleTable
  0
DIMSTYLE
105
27
330
A
100
AcDbSymbolTableRecord
100
AcDbDimStyleTableRecord
  2
Standard
 70
     0
340
11
  0
ENDTAB
  0
TABLE
  2
BLOCK_RECORD
  5
1
330
0
100
AcDbSymbolTable
 70
     1
  0
BLOCK_RECORD
  5
1F
330
1
100
AcDbSymbolTableRecord
100
AcDbBlockTableRecord
  2
*Model_Space
340
22
  0
BLOCK_RECORD
  5
1B
330
1
100
AcDbSymbolTableRecord
100
AcDbBlockTableRecord
  2
*Paper_Space
340
1E
  0
BLOCK_RECORD
  5
23
330
1
100
AcDbSymbolTableRecord
100
AcDbBlockTableRecord
  2
*Paper_Space0
340
26
  0
ENDTAB
  0
ENDSEC
  0
SECTION
  2
BLOCKS
  0
BLOCK
  5
20
330
1F
100
AcDbEntity
  8
0
100
AcDbBlockBegin
  2
*Model_Space
 70
     0
 71
     0
 10
0.0
 20
0.0
 30
0.0
  3
*Model_Space
  1

  0
ENDBLK
  5
21
330
1F
100
AcDbEntity
  8
0
100
AcDbBlockEnd
  0
BLOCK
  5
1C
330
1B
100
AcDbEntity
 67
     1
  8
0
100
AcDbBlockBegin
  2
*Paper_Space
 70
     0
 71
     0
 10
0.0
 20
0.0
 30
0.0
  3
*Paper_Space
  1

  0
ENDBLK
  5
1D
330
1B
100
AcDbEntity
 67
     1
  8
0
100
AcDbBlockEnd
  0
BLOCK
  5
24
330
23
100
AcDbEntity
  8
0
100
AcDbBlockBegin
  2
*Paper_Space0
 70
     0
 71
     0
 10
0.0
 20
0.0
 30
0.0
  3
*Paper_Space0
  1

  0
ENDBLK
  5
25
330
23
100
AcDbEntity
  8
0
100
AcDbBlockEnd
  0
ENDSEC
  0
SECTION
  2
ENTITIES
  0
SPLINE
  5
2C
330
1F
100
AcDbEntity
  8
Layer 1
 62
    30
100
AcDbSpline
210
0.0
220
0.0
230
1.0
 70
    11
 71
     3
 72
    44
 73
    40
 74
     0
 42
0.0000000001
 43
0.0000000001
 40
0.0
 40
0.0
 40
0.0
 40
0.0
 40
0.1
 40
0.1
 40
0.1
 40
0.1
 40
0.2
 40
0.2
 40
0.2
 40
0.2
 40
0.3
 40
0.3
 40
0.3
 40
0.3
 40
0.4
 40
0.4
 40
0.4
 40
0.4
 40
0.5
 40
0.5
 40
0.5
 40
0.5
 40
0.6
 40
0.6
 40
0.6
 40
0.6
 40
0.7
 40
0.7
 40
0.7
 40
0.7
 40
0.7999999999999999
 40
0.7999999999999999
 40
0.7999999999999999
 40
0.7999999999999999
 40
0.8999999999999999
 40
0.8999999999999999
 40
0.8999999999999999
 40
0.8999999999999999
 40
1.0
 40
1.0
 40
1.0
 40
1.0
 10
-30.46969291338583
 20
14.10707480314961
 30
0.0
 10
-29.77516929133859
 20
14.42838582677165
 30
0.0
 10
-28.95354724409449
 20
14.40468110236221
 30
0.0
 10
-28.22362598425197
 20
14.10709842519685
 30
0.0
 10
-28.22362598425197
 20
14.10709842519685
 30
0.0
 10
-28.06036220472441
 20
14.28886614173228
 30
0.0
 10
-28.03885826771654
 20
14.65742125984252
 30
0.0
 10
-28.03241732283465
 20
14.99488976377953
 30
0.0
 10
-28.03241732283465
 20
14.99488976377953
 30
0.0
 10
-27.92147637795276
 20
15.00419291338583
 30
0.0
 10
-27.50526771653544
 20
15.13268110236221
 30
0.0
 10
-27.55166141732284
 20
14.99124409448819
 30
0.0
 10
-27.55166141732284
 20
14.99124409448819
 30
0.0
 10
-27.64035039370079
 20
14.72087007874016
 30
0.0
 10
-27.64926771653543
 20
14.43978346456693
 30
0.0
 10
-27.53933070866142
 20
14.14805118110236
 30
0.0
 10
-27.53933070866142
 20
14.14805118110236
 30
0.0
 10
-26.64364566929134
 20
14.67465748031496
 30
0.0
 10
-25.53679921259842
 20
14.79442519685039
 30
0.0
 10
-24.62896850393701
 20
14.37444488188976
 30
0.0
 10
-24.62896850393701
 20
14.37444488188976
 30
0.0
 10
-23.26534251968504
 20
13.74360236220472
 30
0.0
 10
-22.86631102362205
 20
12.13365748031496
 30
0.0
 10
-23.73786614173228
 20
10.77927165354331
 30
0.0
 10
-23.73786614173228
 20
10.77927165354331
 30
0.0
 10
-24.56857086614173
 20
9.488385826771655
 30
0.0
 10
-25.91316535433071
 20
9.113055118110237
 30
0.0
 10
-27.34105118110236
 20
9.363287401574803
 30
0.0
 10
-27.34105118110236
 20
9.363287401574803
 30
0.0
 10
-27.66279527559055
 20
9.419661417322836
 30
0.0
 10
-27.83099606299213
 20
9.484826771653543
 30
0.0
 10
-28.20563779527559
 20
9.420685039370079
 30
0.0
 10
-28.20563779527559
 20
9.420685039370079
 30
0.0
 10
-29.33759448818898
 20
9.226866141732284
 30
0.0
 10
-30.6155905511811
 20
9.772614173228346
 30
0.0
 10
-31.28587007874016
 20
10.81423228346457
 30
0.0
 10
-31.28587007874016
 20
10.81423228346457
 30
0.0
 10
-32.08411417322835
 20
12.05472440944882
 30
0.0
 10
-31.71866141732284
 20
13.52931102362205
 30
0.0
 10
-30.46969291338583
 20
14.10707480314961
 30
0.0
  0
SPLINE
  5
2D
330
1F
100
AcDbEntity
  8
Layer 1
 62
    30
100
AcDbSpline
210
0.0
220
0.0
230
1.0
 70
    11
 71
     3
 72
    40
 73
    36
 74
     0
 42
0.0000000001
 43
0.0000000001
 40
0.0
 40
0.0
 40
0.0
 40
0.0
 40
0.1111111111111111
 40
0.1111111111111111
 40
0.1111111111111111
 40
0.1111111111111111
 40
0.2222222222222222
 40
0.2222222222222222
 40
0.2222222222222222
 40
0.2222222222222222
 40
0.3333333333333333
 40
0.3333333333333333
 40
0.3333333333333333
 40
0.3333333333333333
 40
0.4444444444444444
 40
0.4444444444444444
 40
0.4444444444444444
 40
0.4444444444444444
 40
0.5555555555555556
 40
0.5555555555555556
 40
0.5555555555555556
 40
0.5555555555555556
 40
0.6666666666666667
 40
0.6666666666666667
 40
0.6666666666666667
 40
0.6666666666666667
 40
0.7777777777777779
 40
0.7777777777777779
 40
0.7777777777777779
 40
0.7777777777777779
 40
0.8888888888888891
 40
0.8888888888888891
 40
0.8888888888888891
 40
0.8888888888888891
 40
1.0
 40
1.0
 40
1.0
 40
1.0
 10
-26.2209094488189
 20
12.42575196850394
 30
0.0
 10
-26.0406220472441
 20
12.42575196850394
 30
0.0
 10
-25.89442125984252
 20
12.30490157480315
 30
0.0
 10
-25.89442125984252
 20
12.15587007874016
 30
0.0
 10
-25.89442125984252
 20
12.15587007874016
 30
0.0
 10
-25.89442125984252
 20
12.11683070866142
 30
0.0
 10
-25.90448425196851
 20
12.07974803149606
 30
0.0
 10
-25.92253937007874
 20
12.04623622047244
 30
0.0
 10
-25.92253937007874
 20
12.04623622047244
 30
0.0
 10
-25.83609055118111
 20
12.06754724409449
 30
0.0
 10
-25.74863779527559
 20
12.09718503937008
 30
0.0
 10
-25.6626968503937
 20
12.13543700787402
 30
0.0
 10
-25.6626968503937
 20
12.13543700787402
 30
0.0
 10
-25.19734251968504
 20
12.34248031496063
 30
0.0
 10
-24.95117322834646
 20
12.7224842519685
 30
0.0
 10
-25.11300787401575
 20
12.98402362204724
 30
0.0
 10
-25.11300787401575
 20
12.98402362204724
 30
0.0
 10
-25.27487007874016
 20
13.24552755905512
 30
0.0
 10
-25.78356692913386
 20
13.28970472440945
 30
0.0
 10
-26.24890157480315
 20
13.08264566929134
 30
0.0
 10
-26.24890157480315
 20
13.08264566929134
 30
0.0
 10
-26.71425984251968
 20
12.87559842519685
 30
0.0
 10
-26.9604251968504
 20
12.49559448818898
 30
0.0
 10
-26.79859448818898
 20
12.23405511811024
 30
0.0
 10
-26.79859448818898
 20
12.23405511811024
 30
0.0
 10
-26.74164566929134
 20
12.14205905511811
 30
0.0
 10
-26.64177165354331
 20
12.07700787401575
 30
0.0
 10
-26.51596456692914
 20
12.04029527559055
 30
0.0
 10
-26.51596456692914
 20
12.04029527559055
 30
0.0
 10
-26.53609448818898
 20
12.07533070866142
 30
0.0
 10
-26.54735433070866
 20
12.11450393700788
 30
0.0
 10
-26.54735433070866
 20
12.15587007874016
 30
0.0
 10
-26.54735433070866
 20
12.15587007874016
 30
0.0
 10
-26.54735433070866
 20
12.30490157480315
 30
0.0
 10
-26.40116141732284
 20
12.42575196850394
 30
0.0
 10
-26.2209094488189
 20
12.42575196850394
 30
0.0
  0
SPLINE
  5
2E
330
1F
100
AcDbEntity
  8
Layer 1
 62
    30
100
AcDbSpline
210
0.0
220
0.0
230
1.0
 70
    11
 71
     3
 72
    40
 73
    36
 74
     0
 42
0.0000000001
 43
0.0000000001
 40
0.0
 40
0.0
 40
0.0
 40
0.0
 40
0.1111111111111111
 40
0.1111111111111111
 40
0.1111111111111111
 40
0.1111111111111111
 40
0.2222222222222222
 40
0.2222222222222222
 40
0.2222222222222222
 40
0.2222222222222222
 40
0.3333333333333333
 40
0.3333333333333333
 40
0.3333333333333333
 40
0.3333333333333333
 40
0.4444444444444444
 40
0.4444444444444444
 40
0.4444444444444444
 40
0.4444444444444444
 40
0.5555555555555556
 40
0.5555555555555556
 40
0.5555555555555556
 40
0.5555555555555556
 40
0.6666666666666667
 40
0.6666666666666667
 40
0.6666666666666667
 40
0.6666666666666667
 40
0.7777777777777779
 40
0.7777777777777779
 40
0.7777777777777779
 40
0.7777777777777779
 40
0.8888888888888891
 40
0.8888888888888891
 40
0.8888888888888891
 40
0.8888888888888891
 40
1.0
 40
1.0
 40
1.0
 40
1.0
 10
-28.97388188976378
 20
12.38944881889764
 30
0.0
 10
-28.79359448818898
 20
12.38944881889764
 30
0.0
 10
-28.6473937007874
 20
12.26859448818898
 30
0.0
 10
-28.6473937007874
 20
12.11956299212599
 30
0.0
 10
-28.6473937007874
 20
12.11956299212599
 30
0.0
 10
-28.6473937007874
 20
12.088
 30
0.0
 10
-28.65399212598425
 20
12.05773622047244
 30
0.0
 10
-28.66604330708661
 20
12.02958661417323
 30
0.0
 10
-28.66604330708661
 20
12.02958661417323
 30
0.0
 10
-28.5284842519685
 20
12.07771653543307
 30
0.0
 10
-28.42458661417323
 20
12.15696062992126
 30
0.0
 10
-28.37640551181103
 20
12.26329133858268
 30
0.0
 10
-28.37640551181103
 20
12.26329133858268
 30
0.0
 10
-28.25146850393701
 20
12.53898818897638
 30
0.0
 10
-28.54798031496063
 20
12.89217716535433
 30
0.0
 10
-29.03857086614173
 20
13.05201181102362
 30
0.0
 10
-29.03857086614173
 20
13.05201181102362
 30
0.0
 10
-29.52915354330709
 20
13.21183070866142
 30
0.0
 10
-30.02832677165354
 20
13.11788582677165
 30
0.0
 10
-30.15326377952756
 20
12.84219291338583
 30
0.0
 10
-30.15326377952756
 20
12.84219291338583
 30
0.0
 10
-30.2781968503937
 20
12.5664842519685
 30
0.0
 10
-29.98168503937008
 20
12.21329133858268
 30
0.0
 10
-29.49109448818898
 20
12.05346456692914
 30
0.0
 10
-29.49109448818898
 20
12.05346456692914
 30
0.0
 10
-29.41546850393701
 20
12.02882677165354
 30
0.0
 10
-29.33966535433071
 20
12.01026771653543
 30
0.0
 10
-29.26504330708661
 20
11.99742913385827
 30
0.0
 10
-29.26504330708661
 20
11.99742913385827
 30
0.0
 10
-29.28761023622047
 20
12.03411417322835
 30
0.0
 10
-29.30032677165355
 20
12.07559448818898
 30
0.0
 10
-29.30032677165355
 20
12.11956299212599
 30
0.0
 10
-29.30032677165355
 20
12.11956299212599
 30
0.0
 10
-29.30032677165355
 20
12.26859448818898
 30
0.0
 10
-29.15413385826772
 20
12.38944881889764
 30
0.0
 10
-28.97388188976378
 20
12.38944881889764
 30
0.0
  0
SPLINE
  5
2F
330
1F
100
AcDbEntity
  8
Layer 1
 62
    30
100
AcDbSpline
210
0.0
220
0.0
230
1.0
 70
    11
 71
     3
 72
    76
 73
    72
 74
     0
 42
0.0000000001
 43
0.0000000001
 40
0.0
 40
0.0
 40
0.0
 40
0.0
 40
0.0555555555555556
 40
0.0555555555555556
 40
0.0555555555555556
 40
0.0555555555555556
 40
0.1111111111111111
 40
0.1111111111111111
 40
0.1111111111111111
 40
0.1111111111111111
 40
0.1666666666666667
 40
0.1666666666666667
 40
0.1666666666666667
 40
0.1666666666666667
 40
0.2222222222222222
 40
0.2222222222222222
 40
0.2222222222222222
 40
0.2222222222222222
 40
0.2777777777777778
 40
0.2777777777777778
 40
0.2777777777777778
 40
0.2777777777777778
 40
0.3333333333333334
 40
0.3333333333333334
 40
0.3333333333333334
 40
0.3333333333333334
 40
0.388888888888889
 40
0.388888888888889
 40
0.388888888888889
 40
0.388888888888889
 40
0.4444444444444445
 40
0.4444444444444445
 40
0.4444444444444445
 40
0.4444444444444445
 40
0.5000000000000001
 40
0.5000000000000001
 40
0.5000000000000001
 40
0.5000000000000001
 40
0.5555555555555557
 40
0.5555555555555557
 40
0.5555555555555557
 40
0.5555555555555557
 40
0.6111111111111113
 40
0.6111111111111113
 40
0.6111111111111113
 40
0.6111111111111113
 40
0.6666666666666669
 40
0.6666666666666669
 40
0.6666666666666669
 40
0.6666666666666669
 40
0.7222222222222224
 40
0.7222222222222224
 40
0.7222222222222224
 40
0.7222222222222224
 40
0.777777777777778
 40
0.777777777777778
 40
0.777777777777778
 40
0.777777777777778
 40
0.8333333333333336
 40
0.8333333333333336
 40
0.8333333333333336
 40
0.8333333333333336
 40
0.8888888888888892
 40
0.8888888888888892
 40
0.8888888888888892
 40
0.8888888888888892
 40
0.9444444444444448
 40
0.9444444444444448
 40
0.9444444444444448
 40
0.9444444444444448
 40
1.0
 40
1.0
 40
1.0
 40
1.0
 10
-28.94001968503937
 20
10.60402362204724
 30
0.0
 10
-28.94001968503937
 20
10.60402362204724
 30
0.0
 10
-28.70558661417323
 20
10.60402362204724
 30
0.0
 10
-28.70558661417323
 20
10.60402362204724
 30
0.0
 10
-28.70558661417323
 20
10.60402362204724
 30
0.0
 10
-28.70558661417323
 20
10.60402362204724
 30
0.0
 10
-28.75773622047244
 20
10.32588582677165
 30
0.0
 10
-28.75773622047244
 20
10.32588582677165
 30
0.0
 10
-28.75773622047244
 20
10.32588582677165
 30
0.0
 10
-28.20620472440945
 20
10.20920078740158
 30
0.0
 10
-27.50564960629922
 20
10.1997125984252
 30
0.0
 10
-26.85976377952756
 20
10.27203149606299
 30
0.0
 10
-26.85976377952756
 20
10.27203149606299
 30
0.0
 10
-26.85976377952756
 20
10.27203149606299
 30
0.0
 10
-26.94653149606299
 20
10.61239763779528
 30
0.0
 10
-26.94653149606299
 20
10.61239763779528
 30
0.0
 10
-26.94653149606299
 20
10.61239763779528
 30
0.0
 10
-26.94653149606299
 20
10.61239763779528
 30
0.0
 10
-26.57812992125984
 20
10.61239763779528
 30
0.0
 10
-26.57812992125984
 20
10.61239763779528
 30
0.0
 10
-26.57812992125984
 20
10.61239763779528
 30
0.0
 10
-26.57812992125984
 20
10.61239763779528
 30
0.0
 10
-26.50388188976378
 20
10.32112598425197
 30
0.0
 10
-26.50388188976378
 20
10.32112598425197
 30
0.0
 10
-26.50388188976378
 20
10.32112598425197
 30
0.0
 10
-25.67500393700788
 20
10.45796456692913
 30
0.0
 10
-25.0129842519685
 20
10.73307874015748
 30
0.0
 10
-25.0092125984252
 20
11.08527165354331
 30
0.0
 10
-25.0092125984252
 20
11.08527165354331
 30
0.0
 10
-25.00655118110236
 20
11.33435826771654
 30
0.0
 10
-25.86523228346457
 20
11.33534251968504
 30
0.0
 10
-26.99558267716536
 20
11.3330905511811
 30
0.0
 10
-26.99558267716536
 20
11.3330905511811
 30
0.0
 10
-26.99558267716536
 20
11.3330905511811
 30
0.0
 10
-26.99558267716536
 20
10.99645669291339
 30
0.0
 10
-26.99558267716536
 20
10.99645669291339
 30
0.0
 10
-26.99558267716536
 20
10.99645669291339
 30
0.0
 10
-26.99558267716536
 20
10.99645669291339
 30
0.0
 10
-27.70708661417323
 20
10.99645669291339
 30
0.0
 10
-27.70708661417323
 20
10.99645669291339
 30
0.0
 10
-27.70708661417323
 20
10.99645669291339
 30
0.0
 10
-27.70708661417323
 20
10.99645669291339
 30
0.0
 10
-27.70708661417323
 20
11.33339763779528
 30
0.0
 10
-27.70708661417323
 20
11.33339763779528
 30
0.0
 10
-27.70708661417323
 20
11.33339763779528
 30
0.0
 10
-27.70708661417323
 20
11.33339763779528
 30
0.0
 10
-27.83815748031496
 20
11.3339842519685
 30
0.0
 10
-27.83815748031496
 20
11.3339842519685
 30
0.0
 10
-27.83815748031496
 20
11.3339842519685
 30
0.0
 10
-27.83815748031496
 20
11.3339842519685
 30
0.0
 10
-27.83815748031496
 20
10.93807480314961
 30
0.0
 10
-27.83815748031496
 20
10.93807480314961
 30
0.0
 10
-27.83815748031496
 20
10.93807480314961
 30
0.0
 10
-27.83815748031496
 20
10.93807480314961
 30
0.0
 10
-28.54966141732283
 20
10.93807480314961
 30
0.0
 10
-28.54966141732283
 20
10.93807480314961
 30
0.0
 10
-28.54966141732283
 20
10.93807480314961
 30
0.0
 10
-28.54966141732283
 20
10.93807480314961
 30
0.0
 10
-28.54966141732283
 20
11.335
 30
0.0
 10
-28.54966141732283
 20
11.335
 30
0.0
 10
-28.54966141732283
 20
11.335
 30
0.0
 10
-29.27442913385827
 20
11.32958661417323
 30
0.0
 10
-29.76485039370079
 20
11.29095275590551
 30
0.0
 10
-29.76653149606299
 20
11.10404330708662
 30
0.0
 10
-29.76653149606299
 20
11.10404330708662
 30
0.0
 10
-29.76969291338583
 20
10.75308267716535
 30
0.0
 10
-29.45296850393701
 20
10.51926771653543
 30
0.0
 10
-28.98169291338583
 20
10.38177559055118
 30
0.0
 10
-28.98169291338583
 20
10.38177559055118
 30
0.0
 10
-28.98169291338583
 20
10.38177559055118
 30
0.0
 10
-28.94001968503937
 20
10.60402362204724
 30
0.0
 10
-28.94001968503937
 20
10.60402362204724
 30
0.0
  0
ENDSEC
  0
SECTION
  2
OBJECTS
  0
DICTIONARY
  5
C
330
0
100
AcDbDictionary
281
     1
  3
ACAD_GROUP
350
D
  3
ACAD_LAYOUT
350
1A
  3
ACAD_MLINESTYLE
350
17
  3
ACAD_PLOTSETTINGS
350
19
  3
ACAD_PLOTSTYLENAME
350
E
  0
DICTIONARY
  5
D
102
{ACAD_REACTORS
330
C
102
}
330
C
100
AcDbDictionary
281
     1
  0
DICTIONARY
  5
1A
102
{ACAD_REACTORS
330
C
102
}
330
C
100
AcDbDictionary
281
     1
  3
Layout1
350
1E
  3
Layout2
350
26
  3
Model
350
22
  0
DICTIONARY
  5
17
102
{ACAD_REACTORS
330
C
102
}
330
C
100
AcDbDictionary
281
     1
  3
Standard
350
18
  0
DICTIONARY
  5
19
102
{ACAD_REACTORS
330
C
102
}
330
C
100
AcDbDictionary
281
     1
  0
ACDBDICTIONARYWDFLT
  5
E
102
{ACAD_REACTORS
330
C
102
}
330
C
100
AcDbDictionary
281
     1
  3
Normal
350
F
100
AcDbDictionaryWithDefault
340
F
  0
LAYOUT
  5
1E
102
{ACAD_REACTORS
330
1A
102
}
330
1A
100
AcDbPlotSettings
  1

  2

  4

  6

 40
0.0
 41
0.0
 42
0.0
 43
0.0
 44
0.0
 45
0.0
 46
0.0
 47
0.0
 48
0.0
 49
0.0
140
0.0
141
0.0
142
1.0
143
1.0
 70
   688
 72
     0
 73
     0
 74
     5
  7

 75
    16
 76
     0
 77
     2
 78
   300
147
1.0
148
0.0
149
0.0
100
AcDbLayout
  1
Layout1
 70
     1
 71
     1
 10
0.0
 20
0.0
 11
12.0
 21
9.0
 12
0.0
 22
0.0
 32
0.0
 14
1.000000000000000E+20
 24
1.000000000000000E+20
 34
1.000000000000000E+20
 15
-1.000000000000000E+20
 25
-1.000000000000000E+20
 35
-1.000000000000000E+20
146
0.0
 13
0.0
 23
0.0
 33
0.0
 16
1.0
 26
0.0
 36
0.0
 17
0.0
 27
1.0
 37
0.0
 76
     0
330
1B
  0
LAYOUT
  5
26
102
{ACAD_REACTORS
330
1A
102
}
330
1A
100
AcDbPlotSettings
  1

  2

  4

  6

 40
0.0
 41
0.0
 42
0.0
 43
0.0
 44
0.0
 45
0.0
 46
0.0
 47
0.0
 48
0.0
 49
0.0
140
0.0
141
0.0
142
1.0
143
1.0
 70
   688
 72
     0
 73
     0
 74
     5
  7

 75
    16
 76
     0
 77
     2
 78
   300
147
1.0
148
0.0
149
0.0
100
AcDbLayout
  1
Layout2
 70
     1
 71
     2
 10
0.0
 20
0.0
 11
0.0
 21
0.0
 12
0.0
 22
0.0
 32
0.0
 14
0.0
 24
0.0
 34
0.0
 15
0.0
 25
0.0
 35
0.0
146
0.0
 13
0.0
 23
0.0
 33
0.0
 16
1.0
 26
0.0
 36
0.0
 17
0.0
 27
1.0
 37
0.0
 76
     0
330
23
  0
LAYOUT
  5
22
102
{ACAD_REACTORS
330
1A
102
}
330
1A
100
AcDbPlotSettings
  1

  2

  4

  6

 40
0.0
 41
0.0
 42
0.0
 43
0.0
 44
0.0
 45
0.0
 46
0.0
 47
0.0
 48
0.0
 49
0.0
140
0.0
141
0.0
142
1.0
143
1.0
 70
  1712
 72
     0
 73
     0
 74
     0
  7

 75
     0
 76
     0
 77
     2
 78
   300
147
1.0
148
0.0
149
0.0
100
AcDbLayout
  1
Model
 70
     1
 71
     0
 10
0.0
 20
0.0
 11
0.0
 21
0.0
 12
0.0
 22
0.0
 32
0.0
 14
-31.70792125984252
 24
9.290417322834646
 34
0.0
 15
-23.27705511811024
 25
15.05722440944882
 35
0.0
146
0.0
 13
0.0
 23
0.0
 33
0.0
 16
1.0
 26
0.0
 36
0.0
 17
0.0
 27
1.0
 37
0.0
 76
     0
330
1F
  0
MLINESTYLE
  5
18
102
{ACAD_REACTORS
330
17
102
}
330
17
100
AcDbMlineStyle
  2
Standard
 70
     0
  3

 62
   256
 51
90.0
 52
90.0
 71
     2
 49
0.5
 62
   256
  6
BYLAYER
 49
-0.5
 62
   256
  6
BYLAYER
  0
ACDBPLACEHOLDER
  5
F
102
{ACAD_REACTORS
330
E
102
}
330
E
  0
ENDSEC
  0
EOF
