  0
SECTION
  2
HEADER
  9
$ACADVER
  1
AC1018
  9
$ACADMAINTVER
 70
     0
  9
$DWGCODEPAGE
  3
ANSI_1252
  9
$INSBASE
 10
0.0
 20
0.0
 30
0.0
  9
$EXTMIN
 10
-21.07981496062992
 20
9.635673228346457
 30
0.0
  9
$EXTMAX
 10
-13.08720472440945
 20
16.69968897637795
 30
0.0
  9
$LIMMIN
 10
0.0
 20
0.0
  9
$LIMMAX
 10
12.0
 20
9.0
  9
$ORTHOMODE
 70
     0
  9
$REGENMODE
 70
     1
  9
$FILLMODE
 70
     1
  9
$QTEXTMODE
 70
     0
  9
$MIRRTEXT
 70
     1
  9
$LTSCALE
 40
1.0
  9
$ATTMODE
 70
     1
  9
$TEXTSIZE
 40
0.2
  9
$TRACEWID
 40
0.05
  9
$TEXTSTYLE
  7
Standard
  9
$CLAYER
  8
0
  9
$CELTYPE
  6
ByLayer
  9
$CECOLOR
 62
   256
  9
$CELTSCALE
 40
1.0
  9
$DISPSILH
 70
     0
  9
$DIMSCALE
 40
1.0
  9
$DIMASZ
 40
0.18
  9
$DIMEXO
 40
0.0625
  9
$DIMDLI
 40
0.38
  9
$DIMRND
 40
0.0
  9
$DIMDLE
 40
0.0
  9
$DIMEXE
 40
0.18
  9
$DIMTP
 40
0.0
  9
$DIMTM
 40
0.0
  9
$DIMTXT
 40
0.18
  9
$DIMCEN
 40
0.09
  9
$DIMTSZ
 40
0.0
  9
$DIMTOL
 70
     0
  9
$DIMLIM
 70
     0
  9
$DIMTIH
 70
     1
  9
$DIMTOH
 70
     1
  9
$DIMSE1
 70
     0
  9
$DIMSE2
 70
     0
  9
$DIMTAD
 70
     0
  9
$DIMZIN
 70
     0
  9
$DIMBLK
  1

  9
$DIMASO
 70
     1
  9
$DIMSHO
 70
     1
  9
$DIMPOST
  1

  9
$DIMAPOST
  1

  9
$DIMALT
 70
     0
  9
$DIMALTD
 70
     2
  9
$DIMALTF
 40
25.4
  9
$DIMLFAC
 40
1.0
  9
$DIMTOFL
 70
     0
  9
$DIMTVP
 40
0.0
  9
$DIMTIX
 70
     0
  9
$DIMSOXD
 70
     0
  9
$DIMSAH
 70
     0
  9
$DIMBLK1
  1

  9
$DIMBLK2
  1

  9
$DIMSTYLE
  2
Standard
  9
$DIMCLRD
 70
     0
  9
$DIMCLRE
 70
     0
  9
$DIMCLRT
 70
     0
  9
$DIMTFAC
 40
1.0
  9
$DIMGAP
 40
0.09
  9
$DIMJUST
 70
     0
  9
$DIMSD1
 70
     0
  9
$DIMSD2
 70
     0
  9
$DIMTOLJ
 70
     1
  9
$DIMTZIN
 70
     0
  9
$DIMALTZ
 70
     0
  9
$DIMALTTZ
 70
     0
  9
$DIMUPT
 70
     0
  9
$DIMDEC
 70
     4
  9
$DIMTDEC
 70
     4
  9
$DIMALTU
 70
     2
  9
$DIMALTTD
 70
     2
  9
$DIMTXSTY
  7
Standard
  9
$DIMAUNIT
 70
     0
  9
$DIMADEC
 70
     0
  9
$DIMALTRND
 40
0.0
  9
$DIMAZIN
 70
     0
  9
$DIMDSEP
 70
    46
  9
$DIMATFIT
 70
     3
  9
$DIMFRAC
 70
     0
  9
$DIMLDRBLK
  1

  9
$DIMLUNIT
 70
     2
  9
$DIMLWD
 70
    -2
  9
$DIMLWE
 70
    -2
  9
$DIMTMOVE
 70
     0
  9
$LUNITS
 70
     2
  9
$LUPREC
 70
     4
  9
$SKETCHINC
 40
0.1
  9
$FILLETRAD
 40
0.5
  9
$AUNITS
 70
     0
  9
$AUPREC
 70
     0
  9
$MENU
  1
.
  9
$ELEVATION
 40
0.0
  9
$PELEVATION
 40
0.0
  9
$THICKNESS
 40
0.0
  9
$LIMCHECK
 70
     0
  9
$CHAMFERA
 40
0.5
  9
$CHAMFERB
 40
0.5
  9
$CHAMFERC
 40
1.0
  9
$CHAMFERD
 40
0.0
  9
$SKPOLY
 70
     0
  9
$TDCREATE
 40
2458738.882967338
  9
$TDUCREATE
 40
2458738.799634005
  9
$TDUPDATE
 40
2458738.924634016
  9
$TDUUPDATE
 40
2458738.799634016
  9
$TDINDWG
 40
0.0000000116
  9
$TDUSRTIMER
 40
0.0000000116
  9
$USRTIMER
 70
     1
  9
$ANGBASE
 50
0.0
  9
$ANGDIR
 70
     0
  9
$PDMODE
 70
     0
  9
$PDSIZE
 40
0.0
  9
$PLINEWID
 40
0.0
  9
$SPLFRAME
 70
     0
  9
$SPLINETYPE
 70
     6
  9
$SPLINESEGS
 70
     8
  9
$HANDSEED
  5
31
  9
$SURFTAB1
 70
     6
  9
$SURFTAB2
 70
     6
  9
$SURFTYPE
 70
     6
  9
$SURFU
 70
     6
  9
$SURFV
 70
     6
  9
$UCSBASE
  2

  9
$UCSNAME
  2

  9
$UCSORG
 10
0.0
 20
0.0
 30
0.0
  9
$UCSXDIR
 10
1.0
 20
0.0
 30
0.0
  9
$UCSYDIR
 10
0.0
 20
1.0
 30
0.0
  9
$UCSORTHOREF
  2

  9
$UCSORTHOVIEW
 70
     0
  9
$UCSORGTOP
 10
0.0
 20
0.0
 30
0.0
  9
$UCSORGBOTTOM
 10
0.0
 20
0.0
 30
0.0
  9
$UCSORGLEFT
 10
0.0
 20
0.0
 30
0.0
  9
$UCSORGRIGHT
 10
0.0
 20
0.0
 30
0.0
  9
$UCSORGFRONT
 10
0.0
 20
0.0
 30
0.0
  9
$UCSORGBACK
 10
0.0
 20
0.0
 30
0.0
  9
$PUCSBASE
  2

  9
$PUCSNAME
  2

  9
$PUCSORG
 10
0.0
 20
0.0
 30
0.0
  9
$PUCSXDIR
 10
1.0
 20
0.0
 30
0.0
  9
$PUCSYDIR
 10
0.0
 20
1.0
 30
0.0
  9
$PUCSORTHOREF
  2

  9
$PUCSORTHOVIEW
 70
     0
  9
$PUCSORGTOP
 10
0.0
 20
0.0
 30
0.0
  9
$PUCSORGBOTTOM
 10
0.0
 20
0.0
 30
0.0
  9
$PUCSORGLEFT
 10
0.0
 20
0.0
 30
0.0
  9
$PUCSORGRIGHT
 10
0.0
 20
0.0
 30
0.0
  9
$PUCSORGFRONT
 10
0.0
 20
0.0
 30
0.0
  9
$PUCSORGBACK
 10
0.0
 20
0.0
 30
0.0
  9
$USERI1
 70
     0
  9
$USERI2
 70
     0
  9
$USERI3
 70
     0
  9
$USERI4
 70
     0
  9
$USERI5
 70
     0
  9
$USERR1
 40
0.0
  9
$USERR2
 40
0.0
  9
$USERR3
 40
0.0
  9
$USERR4
 40
0.0
  9
$USERR5
 40
0.0
  9
$WORLDVIEW
 70
     1
  9
$SHADEDGE
 70
     3
  9
$SHADEDIF
 70
    70
  9
$TILEMODE
 70
     1
  9
$MAXACTVP
 70
    64
  9
$PINSBASE
 10
0.0
 20
0.0
 30
0.0
  9
$PLIMCHECK
 70
     0
  9
$PEXTMIN
 10
1.000000000000000E+20
 20
1.000000000000000E+20
 30
1.000000000000000E+20
  9
$PEXTMAX
 10
-1.000000000000000E+20
 20
-1.000000000000000E+20
 30
-1.000000000000000E+20
  9
$PLIMMIN
 10
0.0
 20
0.0
  9
$PLIMMAX
 10
12.0
 20
9.0
  9
$UNITMODE
 70
     0
  9
$VISRETAIN
 70
     1
  9
$PLINEGEN
 70
     0
  9
$PSLTSCALE
 70
     1
  9
$TREEDEPTH
 70
  3020
  9
$CMLSTYLE
  2
Standard
  9
$CMLJUST
 70
     0
  9
$CMLSCALE
 40
1.0
  9
$PROXYGRAPHICS
 70
     1
  9
$MEASUREMENT
 70
     0
  9
$CELWEIGHT
370
    -1
  9
$ENDCAPS
280
     0
  9
$JOINSTYLE
280
     0
  9
$LWDISPLAY
290
     0
  9
$INSUNITS
 70
     1
  9
$HYPERLINKBASE
  1

  9
$STYLESHEET
  1

  9
$XEDIT
290
     1
  9
$CEPSNTYPE
380
     0
  9
$PSTYLEMODE
290
     0
  9
$FINGERPRINTGUID
  2
{FAEB1C30-E019-11D5-929B-00C0DF256EC4}
  9
$VERSIONGUID
  2
{FAEB1C32-E019-11D5-929B-00C0DF256EC4}
  9
$EXTNAMES
290
     1
  9
$PSVPSCALE
 40
0.0
  9
$OLESTARTUP
290
     0
  9
$SORTENTS
280
   127
  9
$INDEXCTL
280
     0
  9
$HIDETEXT
280
     1
  9
$XCLIPFRAME
290
     0
  9
$HALOGAP
280
     0
  9
$OBSCOLOR
 70
   257
  9
$OBSLTYPE
280
     0
  9
$INTERSECTIONDISPLAY
280
     0
  9
$INTERSECTIONCOLOR
 70
   257
  9
$DIMASSOC
280
     2
  9
$PROJECTNAME
  1

  0
ENDSEC
  0
SECTION
  2
CLASSES
  0
CLASS
  1
ACDBDICTIONARYWDFLT
  2
AcDbDictionaryWithDefault
  3
ObjectDBX Classes
 90
        0
 91
        1
280
     0
281
     0
  0
ENDSEC
  0
SECTION
  2
TABLES
  0
TABLE
  2
VPORT
  5
8
330
0
100
AcDbSymbolTable
 70
     2
  0
VPORT
  5
29
330
8
100
AcDbSymbolTableRecord
100
AcDbViewportTableRecord
  2
*Active
 70
     0
 10
0.0
 20
0.0
 11
1.0
 21
1.0
 12
10.42990654205607
 22
4.5
 13
0.0
 23
0.0
 14
0.5
 24
0.5
 15
0.5
 25
0.5
 16
0.0
 26
0.0
 36
1.0
 17
0.0
 27
0.0
 37
0.0
 40
9.0
 41
1.972972972850329
 42
50.0
 43
0.0
 44
0.0
 50
0.0
 51
0.0
 71
     0
 72
   100
 73
     1
 74
     3
 75
     0
 76
     0
 77
     0
 78
     0
281
     0
 65
     1
110
0.0
120
0.0
130
0.0
111
1.0
121
0.0
131
0.0
112
0.0
122
1.0
132
0.0
 79
     0
146
0.0
  0
ENDTAB
  0
TABLE
  2
LTYPE
  5
5
330
0
100
AcDbSymbolTable
 70
     1
  0
LTYPE
  5
14
330
5
100
AcDbSymbolTableRecord
100
AcDbLinetypeTableRecord
  2
ByBlock
 70
     0
  3

 72
    65
 73
     0
 40
0.0
  0
LTYPE
  5
15
330
5
100
AcDbSymbolTableRecord
100
AcDbLinetypeTableRecord
  2
ByLayer
 70
     0
  3

 72
    65
 73
     0
 40
0.0
  0
LTYPE
  5
16
330
5
100
AcDbSymbolTableRecord
100
AcDbLinetypeTableRecord
  2
Continuous
 70
     0
  3
Solid line
 72
    65
 73
     0
 40
0.0
  0
ENDTAB
  0
TABLE
  2
LAYER
  5
2
330
0
100
AcDbSymbolTable
 70
     2
  0
LAYER
  5
10
330
2
100
AcDbSymbolTableRecord
100
AcDbLayerTableRecord
  2
0
 70
     0
 62
     7
  6
Continuous
370
    -3
390
F
  0
LAYER
  5
2B
330
2
100
AcDbSymbolTableRecord
100
AcDbLayerTableRecord
  2
Layer 1
 70
     0
 62
     7
  6
Continuous
370
    -3
390
F
  0
ENDTAB
  0
TABLE
  2
STYLE
  5
3
330
0
100
AcDbSymbolTable
 70
     1
  0
STYLE
  5
11
330
3
100
AcDbSymbolTableRecord
100
AcDbTextStyleTableRecord
  2
Standard
 70
     0
 40
0.0
 41
1.0
 50
0.0
 71
     0
 42
0.2
  3
txt
  4

  0
ENDTAB
  0
TABLE
  2
VIEW
  5
6
330
0
100
AcDbSymbolTable
 70
     0
  0
ENDTAB
  0
TABLE
  2
UCS
  5
7
330
0
100
AcDbSymbolTable
 70
     0
  0
ENDTAB
  0
TABLE
  2
APPID
  5
9
330
0
100
AcDbSymbolTable
 70
     2
  0
APPID
  5
12
330
9
100
AcDbSymbolTableRecord
100
AcDbRegAppTableRecord
  2
ACAD
 70
     0
  0
APPID
  5
2A
330
9
100
AcDbSymbolTableRecord
100
AcDbRegAppTableRecord
  2
ODA
 70
     0
  0
ENDTAB
  0
TABLE
  2
DIMSTYLE
  5
A
330
0
100
AcDbSymbolTable
 70
     1
100
AcDbDimStyleTable
  0
DIMSTYLE
105
27
330
A
100
AcDbSymbolTableRecord
100
AcDbDimStyleTableRecord
  2
Standard
 70
     0
340
11
  0
ENDTAB
  0
TABLE
  2
BLOCK_RECORD
  5
1
330
0
100
AcDbSymbolTable
 70
     1
  0
BLOCK_RECORD
  5
1F
330
1
100
AcDbSymbolTableRecord
100
AcDbBlockTableRecord
  2
*Model_Space
340
22
  0
BLOCK_RECORD
  5
1B
330
1
100
AcDbSymbolTableRecord
100
AcDbBlockTableRecord
  2
*Paper_Space
340
1E
  0
BLOCK_RECORD
  5
23
330
1
100
AcDbSymbolTableRecord
100
AcDbBlockTableRecord
  2
*Paper_Space0
340
26
  0
ENDTAB
  0
ENDSEC
  0
SECTION
  2
BLOCKS
  0
BLOCK
  5
20
330
1F
100
AcDbEntity
  8
0
100
AcDbBlockBegin
  2
*Model_Space
 70
     0
 71
     0
 10
0.0
 20
0.0
 30
0.0
  3
*Model_Space
  1

  0
ENDBLK
  5
21
330
1F
100
AcDbEntity
  8
0
100
AcDbBlockEnd
  0
BLOCK
  5
1C
330
1B
100
AcDbEntity
 67
     1
  8
0
100
AcDbBlockBegin
  2
*Paper_Space
 70
     0
 71
     0
 10
0.0
 20
0.0
 30
0.0
  3
*Paper_Space
  1

  0
ENDBLK
  5
1D
330
1B
100
AcDbEntity
 67
     1
  8
0
100
AcDbBlockEnd
  0
BLOCK
  5
24
330
23
100
AcDbEntity
  8
0
100
AcDbBlockBegin
  2
*Paper_Space0
 70
     0
 71
     0
 10
0.0
 20
0.0
 30
0.0
  3
*Paper_Space0
  1

  0
ENDBLK
  5
25
330
23
100
AcDbEntity
  8
0
100
AcDbBlockEnd
  0
ENDSEC
  0
SECTION
  2
ENTITIES
  0
SPLINE
  5
2C
330
1F
100
AcDbEntity
  8
Layer 1
 62
    30
100
AcDbSpline
210
0.0
220
0.0
230
1.0
 70
    11
 71
     3
 72
    68
 73
    64
 74
     0
 42
0.0000000001
 43
0.0000000001
 40
0.0
 40
0.0
 40
0.0
 40
0.0
 40
0.0625
 40
0.0625
 40
0.0625
 40
0.0625
 40
0.125
 40
0.125
 40
0.125
 40
0.125
 40
0.1875
 40
0.1875
 40
0.1875
 40
0.1875
 40
0.25
 40
0.25
 40
0.25
 40
0.25
 40
0.3125
 40
0.3125
 40
0.3125
 40
0.3125
 40
0.375
 40
0.375
 40
0.375
 40
0.375
 40
0.4375
 40
0.4375
 40
0.4375
 40
0.4375
 40
0.5
 40
0.5
 40
0.5
 40
0.5
 40
0.5625
 40
0.5625
 40
0.5625
 40
0.5625
 40
0.625
 40
0.625
 40
0.625
 40
0.625
 40
0.6875
 40
0.6875
 40
0.6875
 40
0.6875
 40
0.75
 40
0.75
 40
0.75
 40
0.75
 40
0.8125
 40
0.8125
 40
0.8125
 40
0.8125
 40
0.875
 40
0.875
 40
0.875
 40
0.875
 40
0.9375
 40
0.9375
 40
0.9375
 40
0.9375
 40
1.0
 40
1.0
 40
1.0
 40
1.0
 10
-15.1365905511811
 20
15.2509842519685
 30
0.0
 10
-15.42581496062992
 20
15.2509842519685
 30
0.0
 10
-15.70100393700787
 20
15.17711023622047
 30
0.0
 10
-15.95053543307087
 20
15.0440905511811
 30
0.0
 10
-15.95053543307087
 20
15.0440905511811
 30
0.0
 10
-16.18963779527559
 20
15.2391062992126
 30
0.0
 10
-16.45887007874016
 20
15.37827165354331
 30
0.0
 10
-16.74720866141733
 20
15.44737795275591
 30
0.0
 10
-16.74720866141733
 20
15.44737795275591
 30
0.0
 10
-16.69540551181103
 20
15.71779921259843
 30
0.0
 10
-16.4716811023622
 20
16.08427952755906
 30
0.0
 10
-16.26674015748032
 20
16.1525905511811
 30
0.0
 10
-16.26674015748032
 20
16.1525905511811
 30
0.0
 10
-16.34867322834646
 20
16.44138188976378
 30
0.0
 10
-16.82481102362205
 20
16.29018897637796
 30
0.0
 10
-16.90683858267717
 20
16.60203149606299
 30
0.0
 10
-16.90683858267717
 20
16.60203149606299
 30
0.0
 10
-17.0341220472441
 20
17.08587795275591
 30
0.0
 10
-17.11956299212599
 20
15.63768110236221
 30
0.0
 10
-17.11924015748032
 20
15.49627952755906
 30
0.0
 10
-17.11924015748032
 20
15.49627952755906
 30
0.0
 10
-17.1346062992126
 20
15.49667716535433
 30
0.0
 10
-17.15002362204724
 20
15.4969094488189
 30
0.0
 10
-17.16547244094488
 20
15.4969094488189
 30
0.0
 10
-17.16547244094488
 20
15.4969094488189
 30
0.0
 10
-17.68401181102362
 20
15.4969094488189
 30
0.0
 10
-18.16194881889764
 20
15.27314173228347
 30
0.0
 10
-18.54460236220472
 20
14.89668110236221
 30
0.0
 10
-18.54460236220472
 20
14.89668110236221
 30
0.0
 10
-18.70036220472441
 20
14.94062204724409
 30
0.0
 10
-18.86302755905512
 20
14.96407086614173
 30
0.0
 10
-19.03042913385827
 20
14.96407086614173
 30
0.0
 10
-19.03042913385827
 20
14.96407086614173
 30
0.0
 10
-20.16207480314961
 20
14.96407086614173
 30
0.0
 10
-21.07981496062992
 20
13.8995
 30
0.0
 10
-21.07981496062992
 20
12.58679133858268
 30
0.0
 10
-21.07981496062992
 20
12.58679133858268
 30
0.0
 10
-21.07981496062992
 20
11.27407480314961
 30
0.0
 10
-20.16207480314961
 20
10.20949606299213
 30
0.0
 10
-19.03042913385827
 20
10.20949606299213
 30
0.0
 10
-19.03042913385827
 20
10.20949606299213
 30
0.0
 10
-18.87453937007874
 20
10.20949606299213
 30
0.0
 10
-18.72272440944882
 20
10.22983070866142
 30
0.0
 10
-18.57679133858268
 20
10.26809448818898
 30
0.0
 10
-18.57679133858268
 20
10.26809448818898
 30
0.0
 10
-18.18892913385827
 20
9.872196850393701
 30
0.0
 10
-17.69864173228347
 20
9.635673228346457
 30
0.0
 10
-17.16547244094488
 20
9.635673228346457
 30
0.0
 10
-17.16547244094488
 20
9.635673228346457
 30
0.0
 10
-16.61338188976378
 20
9.635673228346457
 30
0.0
 10
-16.10718897637795
 20
9.889279527559056
 30
0.0
 10
-15.71315748031496
 20
10.31087007874016
 30
0.0
 10
-15.71315748031496
 20
10.31087007874016
 30
0.0
 10
-15.53024015748032
 20
10.245
 30
0.0
 10
-15.33679527559055
 20
10.20949606299213
 30
0.0
 10
-15.1365905511811
 20
10.20949606299213
 30
0.0
 10
-15.1365905511811
 20
10.20949606299213
 30
0.0
 10
-14.00494488188977
 20
10.20949606299213
 30
0.0
 10
-13.08720472440945
 20
11.33831102362205
 30
0.0
 10
-13.08720472440945
 20
12.73024803149606
 30
0.0
 10
-13.08720472440945
 20
12.73024803149606
 30
0.0
 10
-13.08720472440945
 20
14.12217322834646
 30
0.0
 10
-14.00494488188977
 20
15.2509842519685
 30
0.0
 10
-15.1365905511811
 20
15.2509842519685
 30
0.0
  0
SPLINE
  5
2D
330
1F
100
AcDbEntity
  8
Layer 1
 62
    30
100
AcDbSpline
210
0.0
220
0.0
230
1.0
 70
    11
 71
     3
 72
    92
 73
    88
 74
     0
 42
0.0000000001
 43
0.0000000001
 40
0.0
 40
0.0
 40
0.0
 40
0.0
 40
0.0454545454545455
 40
0.0454545454545455
 40
0.0454545454545455
 40
0.0454545454545455
 40
0.0909090909090909
 40
0.0909090909090909
 40
0.0909090909090909
 40
0.0909090909090909
 40
0.1363636363636364
 40
0.1363636363636364
 40
0.1363636363636364
 40
0.1363636363636364
 40
0.1818181818181818
 40
0.1818181818181818
 40
0.1818181818181818
 40
0.1818181818181818
 40
0.2272727272727273
 40
0.2272727272727273
 40
0.2272727272727273
 40
0.2272727272727273
 40
0.2727272727272728
 40
0.2727272727272728
 40
0.2727272727272728
 40
0.2727272727272728
 40
0.3181818181818182
 40
0.3181818181818182
 40
0.3181818181818182
 40
0.3181818181818182
 40
0.3636363636363637
 40
0.3636363636363637
 40
0.3636363636363637
 40
0.3636363636363637
 40
0.4090909090909092
 40
0.4090909090909092
 40
0.4090909090909092
 40
0.4090909090909092
 40
0.4545454545454546
 40
0.4545454545454546
 40
0.4545454545454546
 40
0.4545454545454546
 40
0.5000000000000001
 40
0.5000000000000001
 40
0.5000000000000001
 40
0.5000000000000001
 40
0.5454545454545455
 40
0.5454545454545455
 40
0.5454545454545455
 40
0.5454545454545455
 40
0.5909090909090909
 40
0.5909090909090909
 40
0.5909090909090909
 40
0.5909090909090909
 40
0.6363636363636364
 40
0.6363636363636364
 40
0.6363636363636364
 40
0.6363636363636364
 40
0.6818181818181818
 40
0.6818181818181818
 40
0.6818181818181818
 40
0.6818181818181818
 40
0.7272727272727272
 40
0.7272727272727272
 40
0.7272727272727272
 40
0.7272727272727272
 40
0.7727272727272726
 40
0.7727272727272726
 40
0.7727272727272726
 40
0.7727272727272726
 40
0.818181818181818
 40
0.818181818181818
 40
0.818181818181818
 40
0.818181818181818
 40
0.8636363636363634
 40
0.8636363636363634
 40
0.8636363636363634
 40
0.8636363636363634
 40
0.9090909090909088
 40
0.9090909090909088
 40
0.9090909090909088
 40
0.9090909090909088
 40
0.9545454545454543
 40
0.9545454545454543
 40
0.9545454545454543
 40
0.9545454545454543
 40
1.0
 40
1.0
 40
1.0
 40
1.0
 10
-15.58291732283465
 20
11.64570078740158
 30
0.0
 10
-15.58291732283465
 20
11.64570078740158
 30
0.0
 10
-15.52043307086614
 20
11.52966929133858
 30
0.0
 10
-15.52043307086614
 20
11.52966929133858
 30
0.0
 10
-15.52043307086614
 20
11.52966929133858
 30
0.0
 10
-15.86468897637795
 20
11.23647637795276
 30
0.0
 10
-16.29813385826772
 20
11.02263385826772
 30
0.0
 10
-16.78399606299213
 20
10.95320078740158
 30
0.0
 10
-16.78399606299213
 20
10.95320078740158
 30
0.0
 10
-16.78399606299213
 20
10.95320078740158
 30
0.0
 10
-16.83023228346457
 20
11.15355511811024
 30
0.0
 10
-16.83023228346457
 20
11.15355511811024
 30
0.0
 10
-16.83023228346457
 20
11.15355511811024
 30
0.0
 10
-16.83023228346457
 20
11.15355511811024
 30
0.0
 10
-17.28843700787402
 20
11.10264960629921
 30
0.0
 10
-17.28843700787402
 20
11.10264960629921
 30
0.0
 10
-17.28843700787402
 20
11.10264960629921
 30
0.0
 10
-17.28843700787402
 20
11.10264960629921
 30
0.0
 10
-17.28841732283465
 20
11.0186220472441
 30
0.0
 10
-17.28672440944882
 20
10.93691338582677
 30
0.0
 10
-17.28672440944882
 20
10.93691338582677
 30
0.0
 10
-17.66904724409449
 20
10.97230708661417
 30
0.0
 10
-18.05016929133858
 20
11.12496850393701
 30
0.0
 10
-18.38627952755905
 20
11.34101181102362
 30
0.0
 10
-18.38627952755905
 20
11.34101181102362
 30
0.0
 10
-18.38627952755905
 20
11.34101181102362
 30
0.0
 10
-18.34059842519685
 20
11.45902755905512
 30
0.0
 10
-18.34059842519685
 20
11.45902755905512
 30
0.0
 10
-18.34059842519685
 20
11.45902755905512
 30
0.0
 10
-18.34059842519685
 20
11.45902755905512
 30
0.0
 10
-18.67151968503937
 20
11.66266929133858
 30
0.0
 10
-18.67151968503937
 20
11.66266929133858
 30
0.0
 10
-18.67151968503937
 20
11.66266929133858
 30
0.0
 10
-18.67151968503937
 20
11.66266929133858
 30
0.0
 10
-18.72138976377953
 20
11.58933858267717
 30
0.0
 10
-18.72138976377953
 20
11.58933858267717
 30
0.0
 10
-18.72138976377953
 20
11.58933858267717
 30
0.0
 10
-19.16647637795276
 20
11.96710236220473
 30
0.0
 10
-19.47794881889764
 20
12.44353149606299
 30
0.0
 10
-19.51105511811024
 20
12.84183070866142
 30
0.0
 10
-19.51105511811024
 20
12.84183070866142
 30
0.0
 10
-19.03318110236221
 20
12.27560236220472
 30
0.0
 10
-18.45472834645669
 20
11.91576377952756
 30
0.0
 10
-17.84694488188977
 20
11.75929527559055
 30
0.0
 10
-17.84694488188977
 20
11.75929527559055
 30
0.0
 10
-17.84694488188977
 20
11.75929527559055
 30
0.0
 10
-17.85694094488189
 20
11.56933464566929
 30
0.0
 10
-17.85694094488189
 20
11.56933464566929
 30
0.0
 10
-17.85694094488189
 20
11.56933464566929
 30
0.0
 10
-17.85694094488189
 20
11.56933464566929
 30
0.0
 10
-17.49208661417323
 20
11.49296456692913
 30
0.0
 10
-17.49208661417323
 20
11.49296456692913
 30
0.0
 10
-17.49208661417323
 20
11.49296456692913
 30
0.0
 10
-17.49208661417323
 20
11.49296456692913
 30
0.0
 10
-17.49718897637795
 20
11.6922874015748
 30
0.0
 10
-17.49718897637795
 20
11.6922874015748
 30
0.0
 10
-17.49718897637795
 20
11.6922874015748
 30
0.0
 10
-17.17010236220473
 20
11.65029133858268
 30
0.0
 10
-16.83856299212599
 20
11.66551181102362
 30
0.0
 10
-16.51324409448819
 20
11.73731102362205
 30
0.0
 10
-16.51324409448819
 20
11.73731102362205
 30
0.0
 10
-16.51324409448819
 20
11.73731102362205
 30
0.0
 10
-16.45688582677165
 20
11.53539763779528
 30
0.0
 10
-16.45688582677165
 20
11.53539763779528
 30
0.0
 10
-16.45688582677165
 20
11.53539763779528
 30
0.0
 10
-16.45688582677165
 20
11.53539763779528
 30
0.0
 10
-15.87988582677165
 20
11.67964173228346
 30
0.0
 10
-15.87988582677165
 20
11.67964173228346
 30
0.0
 10
-15.87988582677165
 20
11.67964173228346
 30
0.0
 10
-15.87988582677165
 20
11.67964173228346
 30
0.0
 10
-15.95461023622047
 20
11.91979133858268
 30
0.0
 10
-15.95461023622047
 20
11.91979133858268
 30
0.0
 10
-15.95461023622047
 20
11.91979133858268
 30
0.0
 10
-15.51007480314961
 20
12.11416141732284
 30
0.0
 10
-15.09030708661418
 20
12.42129527559055
 30
0.0
 10
-14.72534251968504
 20
12.84009842519685
 30
0.0
 10
-14.72534251968504
 20
12.84009842519685
 30
0.0
 10
-14.79772834645669
 20
12.44615354330709
 30
0.0
 10
-15.00667322834646
 20
12.05242913385827
 30
0.0
 10
-15.31438582677165
 20
11.7256062992126
 30
0.0
 10
-15.31438582677165
 20
11.7256062992126
 30
0.0
 10
-15.31438582677165
 20
11.7256062992126
 30
0.0
 10
-15.33684251968504
 20
11.81540157480315
 30
0.0
 10
-15.33684251968504
 20
11.81540157480315
 30
0.0
 10
-15.33684251968504
 20
11.81540157480315
 30
0.0
 10
-15.33684251968504
 20
11.81540157480315
 30
0.0
 10
-15.58291732283465
 20
11.64570078740158
 30
0.0
 10
-15.58291732283465
 20
11.64570078740158
 30
0.0
  0
SPLINE
  5
2E
330
1F
100
AcDbEntity
  8
Layer 1
 62
    30
100
AcDbSpline
210
0.0
220
0.0
230
1.0
 70
    11
 71
     3
 72
    16
 73
    12
 74
     0
 42
0.0000000001
 43
0.0000000001
 40
0.0
 40
0.0
 40
0.0
 40
0.0
 40
0.3333333333333333
 40
0.3333333333333333
 40
0.3333333333333333
 40
0.3333333333333333
 40
0.6666666666666666
 40
0.6666666666666666
 40
0.6666666666666666
 40
0.6666666666666666
 40
1.0
 40
1.0
 40
1.0
 40
1.0
 10
-17.24203543307087
 20
13.19625590551181
 30
0.0
 10
-17.24203543307087
 20
13.1474094488189
 30
0.0
 10
-17.58390551181103
 20
12.31716535433071
 30
0.0
 10
-17.58390551181103
 20
12.31716535433071
 30
0.0
 10
-17.58390551181103
 20
12.31716535433071
 30
0.0
 10
-17.58390551181103
 20
12.31716535433071
 30
0.0
 10
-16.72924015748032
 20
12.30903149606299
 30
0.0
 10
-16.72924015748032
 20
12.30903149606299
 30
0.0
 10
-16.72924015748032
 20
12.30903149606299
 30
0.0
 10
-16.72924015748032
 20
12.30903149606299
 30
0.0
 10
-17.24203543307087
 20
13.19625590551181
 30
0.0
 10
-17.24203543307087
 20
13.19625590551181
 30
0.0
  0
SPLINE
  5
2F
330
1F
100
AcDbEntity
  8
Layer 1
 62
    30
100
AcDbSpline
210
0.0
220
0.0
230
1.0
 70
    11
 71
     3
 72
    12
 73
     8
 74
     0
 42
0.0000000001
 43
0.0000000001
 40
0.0
 40
0.0
 40
0.0
 40
0.0
 40
0.5
 40
0.5
 40
0.5
 40
0.5
 40
1.0
 40
1.0
 40
1.0
 40
1.0
 10
-14.88874409448819
 20
13.43508661417323
 30
0.0
 10
-15.88538582677166
 20
14.34217716535433
 30
0.0
 10
-16.46705905511811
 20
13.88627559055118
 30
0.0
 10
-16.50574409448819
 20
12.95309448818898
 30
0.0
 10
-16.50574409448819
 20
12.95309448818898
 30
0.0
 10
-16.07948425196851
 20
13.57264960629921
 30
0.0
 10
-15.39797244094488
 20
13.64526771653543
 30
0.0
 10
-14.88874409448819
 20
13.43508661417323
 30
0.0
  0
SPLINE
  5
30
330
1F
100
AcDbEntity
  8
Layer 1
 62
    30
100
AcDbSpline
210
0.0
220
0.0
230
1.0
 70
    11
 71
     3
 72
    12
 73
     8
 74
     0
 42
0.0000000001
 43
0.0000000001
 40
0.0
 40
0.0
 40
0.0
 40
0.0
 40
0.5
 40
0.5
 40
0.5
 40
0.5
 40
1.0
 40
1.0
 40
1.0
 40
1.0
 10
-19.58428740157481
 20
13.31070472440945
 30
0.0
 10
-18.58763779527559
 20
14.21778346456693
 30
0.0
 10
-18.00596456692913
 20
13.76188976377953
 30
0.0
 10
-17.96726771653544
 20
12.8287125984252
 30
0.0
 10
-17.96726771653544
 20
12.8287125984252
 30
0.0
 10
-18.393531496063
 20
13.44825590551181
 30
0.0
 10
-19.07505511811024
 20
13.52088976377953
 30
0.0
 10
-19.58428740157481
 20
13.31070472440945
 30
0.0
  0
ENDSEC
  0
SECTION
  2
OBJECTS
  0
DICTIONARY
  5
C
330
0
100
AcDbDictionary
281
     1
  3
ACAD_GROUP
350
D
  3
ACAD_LAYOUT
350
1A
  3
ACAD_MLINESTYLE
350
17
  3
ACAD_PLOTSETTINGS
350
19
  3
ACAD_PLOTSTYLENAME
350
E
  0
DICTIONARY
  5
D
102
{ACAD_REACTORS
330
C
102
}
330
C
100
AcDbDictionary
281
     1
  0
DICTIONARY
  5
1A
102
{ACAD_REACTORS
330
C
102
}
330
C
100
AcDbDictionary
281
     1
  3
Layout1
350
1E
  3
Layout2
350
26
  3
Model
350
22
  0
DICTIONARY
  5
17
102
{ACAD_REACTORS
330
C
102
}
330
C
100
AcDbDictionary
281
     1
  3
Standard
350
18
  0
DICTIONARY
  5
19
102
{ACAD_REACTORS
330
C
102
}
330
C
100
AcDbDictionary
281
     1
  0
ACDBDICTIONARYWDFLT
  5
E
102
{ACAD_REACTORS
330
C
102
}
330
C
100
AcDbDictionary
281
     1
  3
Normal
350
F
100
AcDbDictionaryWithDefault
340
F
  0
LAYOUT
  5
1E
102
{ACAD_REACTORS
330
1A
102
}
330
1A
100
AcDbPlotSettings
  1

  2

  4

  6

 40
0.0
 41
0.0
 42
0.0
 43
0.0
 44
0.0
 45
0.0
 46
0.0
 47
0.0
 48
0.0
 49
0.0
140
0.0
141
0.0
142
1.0
143
1.0
 70
   688
 72
     0
 73
     0
 74
     5
  7

 75
    16
 76
     0
 77
     2
 78
   300
147
1.0
148
0.0
149
0.0
100
AcDbLayout
  1
Layout1
 70
     1
 71
     1
 10
0.0
 20
0.0
 11
12.0
 21
9.0
 12
0.0
 22
0.0
 32
0.0
 14
1.000000000000000E+20
 24
1.000000000000000E+20
 34
1.000000000000000E+20
 15
-1.000000000000000E+20
 25
-1.000000000000000E+20
 35
-1.000000000000000E+20
146
0.0
 13
0.0
 23
0.0
 33
0.0
 16
1.0
 26
0.0
 36
0.0
 17
0.0
 27
1.0
 37
0.0
 76
     0
330
1B
  0
LAYOUT
  5
26
102
{ACAD_REACTORS
330
1A
102
}
330
1A
100
AcDbPlotSettings
  1

  2

  4

  6

 40
0.0
 41
0.0
 42
0.0
 43
0.0
 44
0.0
 45
0.0
 46
0.0
 47
0.0
 48
0.0
 49
0.0
140
0.0
141
0.0
142
1.0
143
1.0
 70
   688
 72
     0
 73
     0
 74
     5
  7

 75
    16
 76
     0
 77
     2
 78
   300
147
1.0
148
0.0
149
0.0
100
AcDbLayout
  1
Layout2
 70
     1
 71
     2
 10
0.0
 20
0.0
 11
0.0
 21
0.0
 12
0.0
 22
0.0
 32
0.0
 14
0.0
 24
0.0
 34
0.0
 15
0.0
 25
0.0
 35
0.0
146
0.0
 13
0.0
 23
0.0
 33
0.0
 16
1.0
 26
0.0
 36
0.0
 17
0.0
 27
1.0
 37
0.0
 76
     0
330
23
  0
LAYOUT
  5
22
102
{ACAD_REACTORS
330
1A
102
}
330
1A
100
AcDbPlotSettings
  1

  2

  4

  6

 40
0.0
 41
0.0
 42
0.0
 43
0.0
 44
0.0
 45
0.0
 46
0.0
 47
0.0
 48
0.0
 49
0.0
140
0.0
141
0.0
142
1.0
143
1.0
 70
  1712
 72
     0
 73
     0
 74
     0
  7

 75
     0
 76
     0
 77
     2
 78
   300
147
1.0
148
0.0
149
0.0
100
AcDbLayout
  1
Model
 70
     1
 71
     0
 10
0.0
 20
0.0
 11
0.0
 21
0.0
 12
0.0
 22
0.0
 32
0.0
 14
-21.07981496062992
 24
9.635673228346457
 34
0.0
 15
-13.08720472440945
 25
16.69968897637795
 35
0.0
146
0.0
 13
0.0
 23
0.0
 33
0.0
 16
1.0
 26
0.0
 36
0.0
 17
0.0
 27
1.0
 37
0.0
 76
     0
330
1F
  0
MLINESTYLE
  5
18
102
{ACAD_REACTORS
330
17
102
}
330
17
100
AcDbMlineStyle
  2
Standard
 70
     0
  3

 62
   256
 51
90.0
 52
90.0
 71
     2
 49
0.5
 62
   256
  6
BYLAYER
 49
-0.5
 62
   256
  6
BYLAYER
  0
ACDBPLACEHOLDER
  5
F
102
{ACAD_REACTORS
330
E
102
}
330
E
  0
ENDSEC
  0
EOF
