<?xml version="1.0" encoding="UTF-8"?>
<!DOCTYPE svg PUBLIC "-//W3C//DTD SVG 1.1//EN" "http://www.w3.org/Graphics/SVG/1.1/DTD/svg11.dtd">
<!-- Creator: CorelDRAW -->
<svg xmlns="http://www.w3.org/2000/svg" xml:space="preserve" width="213.627mm" height="159.591mm" style="shape-rendering:geometricPrecision; text-rendering:geometricPrecision; image-rendering:optimizeQuality; fill-rule:evenodd; clip-rule:evenodd"
viewBox="0 0 207.987 155.378"
 xmlns:xlink="http://www.w3.org/1999/xlink">
 <defs>
  <style type="text/css">
   <![CDATA[
    .fil0 {fill:#E77817}
   ]]>
  </style>
 </defs>
 <g id="Layer_x0020_1">
  <metadata id="CorelCorpID_0Corel-Layer"/>
  <path class="fil0" d="M109.467 21.5411c8.00541,-1.09033 18.4597,-2.71858 21.9243,-2.32261 49.4083,5.64492 76.5951,36.9252 76.5951,69.2413 -0.000584159,26.6201 -31.1466,51.635 -54.4079,58.9641 -7.32584,2.30772 -30.8581,1.57625 -38.8243,3.32756 -7.0175,1.54237 -8.77581,4.62634 -16.4346,4.62634 -7.65929,-0.00019472 -8.75031,-3.26077 -15.901,-5.159 -8.2086,-2.1792 -21.9741,-0.110601 -29.4433,-2.7879 -34.1004,-12.2231 -52.9754,-34.6633 -52.9754,-63.4418 -0.000389439,-31.2449 24.2087,-58.503 71.4895,-64.242 3.77921,-0.458662 12.4414,0.827753 19.7113,1.78149 1.30433,-5.06319 6.00457,-15.5691 5.11655,-21.5287l10.3159 0.687749c-0.79981,7.799 0.144969,15.5112 2.83385,20.8534zm-71.1456 42.4646c-1.24338,-8.17111 6.03903,-13.0646 13.5216,-16.5745 5.97438,-2.80328 25.9263,-6.40218 27.9153,5.67023 2.39427,14.5372 -21.6676,24.1898 -29.6601,24.8621 -5.66478,0.476381 -10.8356,-7.77077 -11.7768,-13.9578zm99.0264 0c1.2427,-8.17111 -6.03874,-13.0646 -13.5215,-16.5745 -5.97526,-2.80328 -25.9263,-6.40218 -27.9153,5.67023 -2.39524,14.5372 21.6676,24.1898 29.6601,24.8621 5.66478,0.476381 10.8357,-7.77077 11.7767,-13.9578zm-93.3563 23.1172c16.574,45.591 60.3375,39.1915 81.5654,2.61732 -23.045,22.9769 -57.3571,27.0494 -81.5654,-2.61732z"/>
 </g>
</svg>
