<?xml version="1.0" encoding="UTF-8"?>
<!DOCTYPE svg PUBLIC "-//W3C//DTD SVG 1.1//EN" "http://www.w3.org/Graphics/SVG/1.1/DTD/svg11.dtd">
<!-- Creator: CorelDRAW -->
<svg xmlns="http://www.w3.org/2000/svg" xml:space="preserve" width="246.475mm" height="184.563mm" style="shape-rendering:geometricPrecision; text-rendering:geometricPrecision; image-rendering:optimizeQuality; fill-rule:evenodd; clip-rule:evenodd"
viewBox="0 0 220.555 165.154"
 xmlns:xlink="http://www.w3.org/1999/xlink">
 <defs>
  <style type="text/css">
   <![CDATA[
    .fil0 {fill:#E77817}
   ]]>
  </style>
 </defs>
 <g id="Layer_x0020_1">
  <metadata id="CorelCorpID_0Corel-Layer"/>
  <path class="fil0" d="M120.244 17.7614c15.9844,1.70377 28.603,11.0565 42.2508,16.7769 9.52519,3.99196 7.63332,2.37839 17.9011,3.12746 22.1166,1.6133 40.1589,22.8363 40.1589,50.9955 -0.000178968,28.159 -17.9835,50.9953 -40.1589,50.9953 -5.759,0 -6.5835,-2.13124 -10.7458,1.97643 -14.6616,14.4697 -35.5512,23.5213 -58.7355,23.5213 -20.2628,0 -38.7727,-6.91441 -52.9046,-18.3167 -4.35589,-3.5143 -4.05272,-3.35627 -9.56456,-3.35627 -26.7517,0 -48.4457,-23.9782 -48.4457,-53.5451 0,-29.5673 21.6944,-53.5453 48.4457,-53.5453 9.54425,-0.000178968 9.25781,-1.32373 17.5971,-6.50663 10.4386,-6.48874 22.6224,-10.7784 35.7666,-12.1455 3.11923,-6.35711 5.25851,-10.2668 4.33737,-17.7387 3.20969,-8.94838e-005 7.95994,0 11.1698,0 0.902712,7.48075 -0.543435,11.391 2.92773,17.7614zm-23.9292 83.3783l-1.45465 6.54484 8.7414 1.74833 1.47308 -6.87405c22.6407,2.94545 43.9523,0.00196864 64.9218,-8.81558 -11.4081,14.0856 -23.8205,23.7647 -36.2624,29.2015l-5.07221 -7.10116 -8.15931 4.66228 1.96318 6.21697c-26.7383,6.22619 -52.2407,-7.19029 -66.6735,-38.7621 9.01254,4.01353 17.7632,7.25391 26.2977,9.72823l-0.634082 4.75051 6.41098 0 0.509252 -3.05533c2.66563,0.662359 5.31203,1.24678 7.93873,1.75558zm71.6386 -27.0069c-20.8232,-32.2973 -34.8465,-32.2968 -42.0711,8.94838e-005 10.6239,-11.899 24.6479,-11.8988 42.0711,-8.94838e-005zm-114.74 2.54975c20.8232,-32.297 34.8468,-32.2968 42.0712,0 -10.6244,-11.8989 -24.6478,-11.8987 -42.0712,0z"/>
 </g>
</svg>
