<?xml version="1.0" encoding="UTF-8"?>
<!DOCTYPE svg PUBLIC "-//W3C//DTD SVG 1.1//EN" "http://www.w3.org/Graphics/SVG/1.1/DTD/svg11.dtd">
<!-- Creator: CorelDRAW -->
<svg xmlns="http://www.w3.org/2000/svg" xml:space="preserve" width="211.237mm" height="207.843mm" style="shape-rendering:geometricPrecision; text-rendering:geometricPrecision; image-rendering:optimizeQuality; fill-rule:evenodd; clip-rule:evenodd"
viewBox="0 0 208.783 205.428"
 xmlns:xlink="http://www.w3.org/1999/xlink">
 <defs>
  <style type="text/css">
   <![CDATA[
    .fil0 {fill:#E77817}
   ]]>
  </style>
 </defs>
 <g id="Layer_x0020_1">
  <metadata id="CorelCorpID_0Corel-Layer"/>
  <path class="fil0" d="M29.5313 191.701c24.3954,11.2857 37.1934,5.68913 56.3875,0.000691868 5.41881,-1.60582 12.1853,-1.37286 17.1793,1.02792 23.8029,11.4433 44.5519,18.8742 73.0641,5.68399 28.5123,-13.1908 44.2516,-56.2548 22.3711,-90.2566 -20.8125,-32.3416 -54.4732,-41.7905 -90.2387,-35.5851 -3.47496,-7.31917 -6.8403,-14.8077 -6.29501,-22.7616 13.8506,1.65297 42.6152,-17.4076 32.8983,-33.4171 -1.48455,-2.44625 -4.6371,-4.16524 -10.8912,-4.16524 -13.1846,-9.88382e-005 -24.5754,17.4438 -28.0984,33.3869 -2.24689,-0.134717 -3.08197,-0.163478 -4.97631,-1.11005 -1.35517,-0.677734 -2.92838,-1.66938 -4.59657,-2.83162l1.50046 -7.82799c0.225944,-1.18092 1.30951,-2.77063 2.97612,-6.56553 4.32279,-9.84449 -1.27343,-17.2282 -4.37033,-21.1387 -0.870271,-1.09859 -9.75593,-6.5428 -7.60966,-3.69349 3.78046,5.02464 0.867108,8.15574 -2.06107,12.3649 -0.559424,0.80395 1.43523,-11.8991 -5.54591,-13.5633 -3.32284,-0.791694 -5.3004,-1.10728 -8.6436,-0.184037 1.1914,1.11183 3.34449,9.83223 1.58151,11.8106 -0.497552,0.226043 -2.26567,-3.16411 -6.09911,-4.91048 -8.26308,-3.76475 -21.7896,-7.8867 -22.3481,-7.96458 -1.54316,34.1161 13.3441,21.9903 19.9205,26.1729 -0.940742,2.93757 -5.85043,3.06339 -7.05369,3.76287 -2.26063,1.31485 -2.69443,1.64151 -7.68734,5.90074 8.62245,8.49297 19.9747,0.926114 21.7535,1.96441 1.85974,1.08554 -13.9065,10.9424 -14.9045,13.2636 17.7673,8.95494 24.5482,1.10244 34.6897,-4.98263 0.680798,0.357992 1.35379,0.688211 2.01324,0.98176 2.85623,1.27304 6.67,1.70358 10.2073,2.64521 -0.47472,11.7194 -0.450999,9.72479 1.13812,24.8557 -3.38748,0.441313 -4.48706,0.329823 -9.42215,-0.515244 -28.4179,-4.866 -60.5018,8.83485 -77.3291,34.9848 -20.0398,31.1426 -3.9053,71.3809 20.4901,82.6664zm55.8789 -37.0862l0 4.22978c0,1.34104 -1.09701,2.43844 -2.43804,2.43844l-0.000296515 -9.88382e-005c-1.34114,0 -2.43804,-1.0973 -2.43804,-2.43824l-0.000296515 -4.72101c-4.31409,-0.493499 -8.62779,-1.14316 -12.9422,-1.9483 3.87416,25.885 60.1974,22.849 64.2323,0.479365 -8.14506,1.39777 -16.2893,2.24106 -24.4343,2.52897l-1.79065 6.71813c-0.383196,1.43701 -1.872,2.29957 -3.3096,1.91647l-0.000197676 -9.88382e-005c-1.43731,-0.382702 -2.29937,-1.8721 -1.91618,-3.3098l1.38937 -5.21332c-5.45053,0.0220409 -10.9011,-0.204892 -16.3519,-0.680304zm16.7594 -109.417c2.11978,-11.67 18.517,-32.743 26.5624,-23.194 7.36058,8.7371 -13.376,21.816 -26.5624,23.194zm-41.8055 61.1074c-3.72927,-6.48873 -11.8333,-7.07277 -17.8829,-4.49843 -4.21061,1.79036 -5.35743,9.809 -2.61902,13.4732 5.40991,7.24089 17.5405,11.8222 25.2703,16.5076 6.19577,-7.60649 13.5263,-15.9228 16.5068,-25.2701 1.50718,-4.72635 -2.19055,-12.9153 -7.14897,-13.053 -5.94393,-0.165949 -13.466,4.12403 -14.1262,12.8407zm58.5873 -2.39673c3.73006,-6.48873 11.8347,-7.07286 17.8844,-4.49892 4.20952,1.79105 5.35674,9.8092 2.61852,13.4743 -5.41011,7.2404 -17.5406,11.8215 -25.2702,16.5068 -6.19607,-7.60639 -13.5263,-15.923 -16.5068,-25.27 -1.50738,-4.72605 2.19035,-12.9151 7.14897,-13.0533 5.94364,-0.165752 13.4661,4.12452 14.1251,12.8411z"/>
 </g>
</svg>
