<?xml version="1.0" encoding="UTF-8"?>
<!DOCTYPE svg PUBLIC "-//W3C//DTD SVG 1.1//EN" "http://www.w3.org/Graphics/SVG/1.1/DTD/svg11.dtd">
<!-- Creator: CorelDRAW -->
<svg xmlns="http://www.w3.org/2000/svg" xml:space="preserve" width="213.627mm" height="159.591mm" style="shape-rendering:geometricPrecision; text-rendering:geometricPrecision; image-rendering:optimizeQuality; fill-rule:evenodd; clip-rule:evenodd"
viewBox="0 0 238.583 178.235"
 xmlns:xlink="http://www.w3.org/1999/xlink">
 <defs>
  <style type="text/css">
   <![CDATA[
    .fil0 {fill:#E77817}
   ]]>
  </style>
 </defs>
 <g id="Layer_x0020_1">
  <metadata id="CorelCorpID_0Corel-Layer"/>
  <path class="fil0" d="M125.57 24.7097c9.18315,-1.25039 21.1753,-3.11816 25.1495,-2.66406 56.6773,6.47542 87.8625,42.3572 87.8625,79.427 -0.000111682,30.5363 -35.7281,59.2309 -62.4114,67.638 -8.40294,2.64764 -35.3974,1.80813 -44.5356,3.81706 -8.04947,1.76949 -10.0666,5.3069 -18.8521,5.3069 -8.78579,-0.000111682 -10.0376,-3.74034 -18.2402,-5.9178 -9.41556,-2.49955 -25.2067,-0.126871 -33.7748,-3.19812 -39.1166,-14.0213 -60.7684,-39.7624 -60.7684,-72.7742 -0.000223364,-35.8413 27.77,-67.1092 82.0062,-73.6924 4.3356,-0.526468 14.2717,0.949631 22.6109,2.04355 1.49687,-5.80801 6.88798,-17.8595 5.86921,-24.6956l11.8344 0.78892c-0.91769,8.94605 0.165289,17.7928 3.24983,23.9208zm-65.4185 96.609l9.81259 -1.58186 2.10275 11.8614 11.2139 0 0 -14.2332 14.0181 -0.790931 4.20527 13.4427 13.3171 0 1.40172 -14.2335 11.9151 0.790819 2.80321 8.69812 11.2143 3.16305 3.50469 -12.652 16.8211 0 -2.10241 11.8614 10.5131 0.790596 5.60721 -11.8612 18.2231 3.95387 -32.9417 19.7684 -5.60721 -7.9073 -7.70962 0.790819 0 12.6519 -14.7189 0 -3.50435 -10.2798 -9.11145 -0.790931 -0.701027 11.0707 -21.7275 0.790596 -1.40172 -10.2795 -9.81236 1.58141 -1.40172 7.1167 -20.326 -2.37212 -16.8213 -10.2798 11.2141 -11.0703zm126.824 -55.0976c0.547241,-3.0105 -4.63803,-5.69242 -7.6387,-5.09224 -16.4053,3.28077 -32.9868,7.85648 -47.5303,16.1264 -2.74961,1.56321 1.43857,7.02646 4.24357,8.4876 11.4273,5.9513 24.4659,17.3431 36.4967,12.7312 10.997,-4.21565 12.3221,-20.6653 14.4287,-32.2529zm-142.938 2.80388c-0.547129,-3.01094 4.63826,-5.69287 7.63881,-5.09247 16.4053,3.28088 32.987,7.85626 47.5303,16.1263 2.74983,1.56321 -1.43846,7.02646 -4.24369,8.4876 -11.4273,5.9513 -24.4657,17.3432 -36.4966,12.7312 -10.9973,-4.21565 -12.3221,-20.6654 -14.4288,-32.2526z"/>
 </g>
</svg>
