<?xml version="1.0" encoding="UTF-8"?>
<!DOCTYPE svg PUBLIC "-//W3C//DTD SVG 1.1//EN" "http://www.w3.org/Graphics/SVG/1.1/DTD/svg11.dtd">
<!-- Creator: CorelDRAW -->
<svg xmlns="http://www.w3.org/2000/svg" xml:space="preserve" width="211.237mm" height="207.843mm" style="shape-rendering:geometricPrecision; text-rendering:geometricPrecision; image-rendering:optimizeQuality; fill-rule:evenodd; clip-rule:evenodd"
viewBox="0 0 217.194 213.704"
 xmlns:xlink="http://www.w3.org/1999/xlink">
 <defs>
  <style type="text/css">
   <![CDATA[
    .fil0 {fill:#E77817}
   ]]>
  </style>
 </defs>
 <g id="Layer_x0020_1">
  <metadata id="CorelCorpID_0Corel-Layer"/>
  <path class="fil0" d="M186.472 199.423c-25.378,11.7405 -38.6912,5.91872 -58.6585,0.000925378 -5.63761,-1.67113 -12.6763,-1.42806 -17.8713,1.06943 -24.7623,11.9042 -46.3466,19.6345 -76.0075,5.91255 -29.6612,-13.7221 -46.0342,-58.5208 -23.2727,-93.8923 21.6506,-33.6447 56.6681,-43.4738 93.8741,-37.0186 3.61422,-7.61401 7.11595,-15.4041 6.5487,-23.6785 -14.4088,1.71925 -44.3319,-18.1088 -34.2238,-34.7631 1.54425,-2.5451 4.8241,-4.33324 11.33,-4.33324 13.7155,-0.000411279 25.5657,18.1464 29.2305,34.7318 2.33699,-0.140452 3.20623,-0.169755 5.17687,-1.15497 1.40935,-0.705035 3.04624,-1.73652 4.78174,-2.94558l-1.56101 -8.14353c-0.235457,-1.22829 -1.36247,-2.88194 -3.09611,-6.8296 -4.49724,-10.2411 1.32494,-17.9222 4.54679,-21.9905 0.904711,-1.14253 10.1486,-6.80636 7.91579,-3.84217 -3.93347,5.22715 -0.901832,8.48448 2.1441,12.8631 0.582063,0.835925 -1.49284,-12.3786 5.76942,-14.1098 3.45588,-0.823587 5.51392,-1.15168 8.9919,-0.191348 -1.2399,1.15672 -3.47932,10.2283 -1.64512,12.2863 0.516978,0.235046 2.35673,-3.29167 6.3445,-5.1085 8.59563,-3.91589 22.6677,-8.20409 23.2486,-8.28522 1.60481,35.49 -13.8818,22.8762 -20.7231,27.2272 0.97833,3.05591 6.08642,3.18659 7.33804,3.91425 2.35087,1.36812 2.80266,1.70773 7.99671,6.13855 -8.97,8.8353 -20.7793,0.963627 -22.6295,2.04344 -1.93507,1.12948 14.4664,11.3829 15.5047,13.7981 -18.4833,9.31558 -25.537,1.14675 -36.0869,-5.18356 -0.708737,0.372722 -1.40832,0.715934 -2.09464,1.02172 -2.97139,1.32391 -6.93838,1.77169 -10.6184,2.75156 0.493535,12.1912 0.469167,10.1165 -1.18376,25.8566 3.52343,0.459399 4.6675,0.343315 9.8015,-0.535691 29.5623,-5.06182 62.939,9.19096 80.4442,36.394 20.8468,32.3971 4.06272,74.2566 -21.3158,85.9965zm-118.163 -65.1735c4.23895,0 7.67725,3.39922 7.67725,7.59026 -0.000719739,1.07673 -0.22682,2.10123 -0.636146,3.02938l0.00380433 -0.00298177c6.46048,-4.84209 6.39817,-15.8404 -0.137881,-24.5631 -6.92656,-9.24227 -20.1672,-9.93332 -24.2286,-22.2768 -1.69755,1.48482 -0.0356785,13.0383 4.6235,14.2037 -3.33074,0.603861 -11.8605,-0.206257 -14.0244,-6.91658 -1.01134,9.25841 3.4751,10.99 7.33105,12.7041 -1.58723,3.5188 -10.6259,1.16094 -12.4487,-1.37326 -1.112,2.23756 2.71886,7.33907 10.4129,7.79189 0.102511,4.35719 1.74979,9.15158 4.93638,13.4041 2.78724,3.71951 6.30429,6.42469 9.92139,7.92885 -0.703082,-1.14644 -1.10757,-2.49143 -1.10757,-3.92926 -0.000308459,-4.19145 3.43799,-7.58985 7.67704,-7.59026zm50.3079 0.443565c4.23947,0 7.67735,3.39891 7.67735,7.59005 -0.000308459,0.821427 -0.131712,1.61293 -0.376423,2.35437 3.87446,-1.43177 7.68177,-4.24666 10.6585,-8.2188 3.18618,-4.25273 4.83356,-9.04681 4.93648,-13.4041 7.69359,-0.453332 11.524,-5.55433 10.4123,-7.79199 -1.82258,2.53369 -10.8617,4.89227 -12.4484,1.37316 3.85605,-1.71421 8.34218,-3.44539 7.33136,-12.704 -2.16425,6.70992 -10.6945,7.52055 -14.0248,6.91679 4.65907,-1.16577 6.32074,-12.7188 4.6236,-14.2039 -4.06148,12.3432 -17.302,13.0346 -24.2286,22.2768 -5.74752,7.66995 -6.48741,17.0999 -2.19047,22.5561 0.425571,-3.79333 3.6792,-6.74436 7.62913,-6.74446zm-7.70953 -87.6749c-2.20476,-12.1404 -19.2623,-34.0618 -27.6317,-24.1284 -7.6574,9.08906 13.9148,22.6946 27.6317,24.1284zm-27.8207 113.436c4.10642,-1.43115 8.98974,4.0075 13.3116,3.52734 4.98326,-0.553376 8.31822,-7.96298 13.2588,-7.10649 7.67282,1.33028 8.73742,6.14482 19.5473,12.7947 -7.87456,16.8472 -13.4049,15.3258 -22.145,19.1195 -2.82251,1.22479 -5.22232,-5.74845 -8.26661,-5.30468 -3.78233,0.550908 -5.41264,7.80053 -9.16063,7.05632 -9.97969,-1.98165 -15.6835,-1.76387 -26.5201,-15.3201 8.78307,-4.68334 11.5849,-11.8425 19.9747,-14.7666z"/>
 </g>
</svg>
