<?xml version="1.0" encoding="UTF-8"?>
<!DOCTYPE svg PUBLIC "-//W3C//DTD SVG 1.1//EN" "http://www.w3.org/Graphics/SVG/1.1/DTD/svg11.dtd">
<!-- Creator: CorelDRAW -->
<svg xmlns="http://www.w3.org/2000/svg" xml:space="preserve" width="146.634mm" height="247.597mm" style="shape-rendering:geometricPrecision; text-rendering:geometricPrecision; image-rendering:optimizeQuality; fill-rule:evenodd; clip-rule:evenodd"
viewBox="0 0 150.892 254.787"
 xmlns:xlink="http://www.w3.org/1999/xlink">
 <defs>
  <style type="text/css">
   <![CDATA[
    .fil0 {fill:#E77817}
   ]]>
  </style>
 </defs>
 <g id="Layer_x0020_1">
  <metadata id="CorelCorpID_0Corel-Layer"/>
  <path class="fil0" d="M3.53094 230.678c4.11955,15.7965 24.7724,19.5315 41.4816,21.1642 24.3704,2.38161 84.0849,12.9543 101.587,-28.783 15.9692,-38.0824 -16.4413,-106.084 -34.709,-136.296 -5.73885,-9.49124 -19.1789,-18.6694 -32.3665,-20.7575 -5.4538,-6.47306 -14.5517,-9.50708 -16.9405,-18.8386 7.93039,-0.65663 24.9869,-10.803 25.9647,-20.0984 0.688736,-6.55127 -1.0206,-15.0789 -6.28732,-19.0358 -8.88132,-6.6727 -21.5181,-9.29078 -32.4765,-7.47319 -6.2899,1.04303 -9.621,8.96138 -12.0452,14.858 -2.12105,5.15847 -2.75391,11.4354 -0.932618,16.7068 1.87378,5.42365 8.28757,9.70497 13.2484,13.0592 -15.3022,4.667 -19.6952,-5.27444 -35.4502,-11.4247 8.76545,6.61116 2.5693,13.3316 -4.64951,12.4641 15.6007,15.3204 40.5611,1.86215 42.8794,4.56091l13.5972 15.8295c-4.22976,1.23783 -8.0973,3.62201 -11.261,7.45106 -33.7737,40.878 -66.1203,101.094 -51.6404,156.614zm84.3681 -93.7155c3.94513,0 7.14451,2.9554 7.14451,6.59933 0,3.64372 -3.19918,6.59933 -7.1442,6.59933 -0.103315,0 -0.206014,-0.00236679 -0.307888,-0.00638004 3.44244,1.11064 7.85146,1.71458 13.4411,1.64224 17.262,-0.22289 15.1277,-23.3633 8.54884,-33.0378 -10.2166,0.55352 -20.4217,5.03807 -30.6383,5.59241 -2.92206,8.15276 -4.1495,17.6786 3.17994,23.0942 -0.860585,-1.08975 -1.3678,-2.43244 -1.3678,-3.884 -0.000411615,-3.64424 3.19918,-6.59922 7.14379,-6.59933zm-32.8146 0.605178c3.94523,0 7.14441,2.9556 7.14441,6.59964 -0.000205808,0.840622 -0.171129,1.64523 -0.48159,2.3849 3.72162,-5.52697 2.44232,-13.1777 0.0140978,-19.8915 -10.2186,-0.524089 -20.4365,-4.97818 -30.6548,-5.50206 -6.55045,9.69375 -8.61655,32.8407 8.64619,33.0127 8.73273,0.0868509 14.582,-1.46628 18.3532,-4.02241 -0.917902,0.396077 -1.94138,0.617629 -3.02136,0.617629 -3.94533,-0.000205808 -7.1441,-2.9553 -7.1441,-6.59922 -0.000205808,-3.64444 3.19918,-6.59933 7.1439,-6.59964zm-22.3317 64.762l-8.91816 6.92193c-4.54393,-4.38741 -8.47372,-11.7453 -11.5924,-15.7795 -2.45127,-3.17109 -1.57196,-7.86021 -2.35804,-11.7902l8.52363 0.792566 4.41396 10.3558 4.52016 -9.52478 16.7313 1.55642 4.4401 13.1497 8.25989 -11.9681 15.8112 1.4706 4.85922 16.327 6.95579 -15.228 16.3426 1.52051 3.68869 9.38957 3.11686 -8.7565 3.73273 0.347095c7.63629,0.710654 5.26518,1.44868 29.2715,5.73514 -6.42449,8.74014 -21.053,12.9476 -32.2266,16.5064 -3.46858,1.10467 -7.1335,1.96577 -10.9357,2.61726l-4.18531 -9.10884 -0.496202 9.79789c-7.99697,0.996521 -16.4815,1.16631 -24.97,0.787523l-1.73691 -12.5285 -6.04509 8.85158 -4.53364 -11.0104 -6.173 13.0802c-6.7754,-0.849883 -13.3151,-1.93151 -19.3514,-3.09061l2.85486 -10.4217zm25.7704 -160.662c-4.57531,-4.83422 -8.6642,-8.32657 -10.4859,-13.0359 -1.46021,-3.77421 -1.79012,-8.85158 0.587067,-12.1269 2.34189,-3.22707 7.26357,-4.62357 11.2208,-4.14116 5.99652,0.730309 17.5621,3.08207 21.1318,7.95591 2.40548,3.28418 0.564428,9.01109 -2.17827,12.0198 -4.12089,4.51974 -12.3207,8.20308 -20.2756,9.32824z"/>
 </g>
</svg>
