<?xml version="1.0" encoding="UTF-8"?>
<!DOCTYPE svg PUBLIC "-//W3C//DTD SVG 1.1//EN" "http://www.w3.org/Graphics/SVG/1.1/DTD/svg11.dtd">
<!-- Creator: CorelDRAW -->
<svg xmlns="http://www.w3.org/2000/svg" xml:space="preserve" width="203.205mm" height="179.597mm" style="shape-rendering:geometricPrecision; text-rendering:geometricPrecision; image-rendering:optimizeQuality; fill-rule:evenodd; clip-rule:evenodd"
viewBox="0 0 199.15 176.012"
 xmlns:xlink="http://www.w3.org/1999/xlink">
 <defs>
  <style type="text/css">
   <![CDATA[
    .fil0 {fill:#E77817}
   ]]>
  </style>
 </defs>
 <g id="Layer_x0020_1">
  <metadata id="CorelCorpID_0Corel-Layer"/>
  <path class="fil0" d="M51.064 36.0969c7.20655,0 14.0633,1.84072 20.2809,5.15522 5.95778,-4.85925 12.6661,-8.32684 19.8505,-10.0486 -1.29101,-6.73828 -6.8651,-15.8694 -11.9717,-17.5718 2.04153,-7.19616 13.9052,-3.42848 15.9492,-11.1988 3.17112,-12.0558 5.30037,24.0289 5.29223,27.5518 0.382805,-0.0100944 0.767177,-0.0156807 1.15214,-0.0156807 12.9199,-0.000294013 24.8289,5.57576 34.3634,14.9558 3.88077,-1.0953 7.93423,-1.67921 12.105,-1.67921 28.1971,-0.000294013 51.064,26.5257 51.064,59.2343 -9.80043e-005,32.7083 -22.8669,59.2343 -51.064,59.2343 -3.88411,-9.80043e-005 -7.66687,-0.506486 -11.3029,-1.45987 -9.66459,9.86433 -21.8808,15.7578 -35.1655,15.7578 -13.7566,0 -26.3692,-6.31902 -36.187,-16.8238 -4.55779,1.64138 -9.37774,2.52586 -14.3662,2.52586 -28.1972,-9.80043e-005 -51.0641,-28.1263 -51.0641,-62.8089 0,-34.6825 22.867,-62.8086 51.064,-62.8086zm78.9912 42.8554c2.94336,0 5.33045,2.38709 5.33045,5.33065 -9.80043e-005,2.27615 -1.42802,4.21899 -3.43662,4.98303l7.93149 3.62557 15.2579 -28.9097 -43.3647 16.061 13.2723 6.06735c-0.208063,-0.569797 -0.32116,-1.18526 -0.32116,-1.82729 -9.80043e-005,-2.94366 2.38689,-5.33045 5.33035,-5.33065zm-67.63 3.99769c2.74392,0 5.00341,2.07426 5.29733,4.73988l10.3233 -7.64698 -38.5466 -6.42438 16.8641 22.4854 3.95222 -2.92768c-1.89462,-0.817552 -3.22062,-2.70139 -3.22062,-4.89551 -9.80043e-005,-2.94375 2.38689,-5.33045 5.33026,-5.33075zm42.5896 48.6098l8.1663 0 0.475321 5.93582c13.4347,-5.35045 26.4873,-15.9176 30.2677,-29.4476 -6.9435,1.85993 -14.312,3.39712 -21.8338,4.61228l0.302147 6.95282 -9.13713 2.03075 -0.845189 -7.60562c-4.74429,0.586948 -9.5023,1.04904 -14.2091,1.385l0.870866 7.83828 -8.88399 0 -0.320572 -7.37188c-4.99214,0.201889 -9.87775,0.257359 -14.5739,0.165823l-0.541572 4.87385 -5.99669 -1.33256 0.163569 -3.7615c-4.5868,-0.231094 -8.93691,-0.613017 -12.9618,-1.14822 3.9627,9.68655 11.7298,16.8649 20.2206,21.3123l0.350953 -8.07389 8.88409 0 -1.2668 11.401c4.98332,1.58189 9.89196,2.23675 14.1349,1.91667 2.55046,-0.192382 5.23215,-0.645848 7.96677,-1.33658l-1.2328 -8.34673z"/>
 </g>
</svg>
