<?xml version="1.0" encoding="UTF-8"?>
<!DOCTYPE svg PUBLIC "-//W3C//DTD SVG 1.1//EN" "http://www.w3.org/Graphics/SVG/1.1/DTD/svg11.dtd">
<!-- Creator: CorelDRAW -->
<svg xmlns="http://www.w3.org/2000/svg" xml:space="preserve" width="182.105mm" height="253.131mm" style="shape-rendering:geometricPrecision; text-rendering:geometricPrecision; image-rendering:optimizeQuality; fill-rule:evenodd; clip-rule:evenodd"
viewBox="0 0 207.576 288.535"
 xmlns:xlink="http://www.w3.org/1999/xlink">
 <defs>
  <style type="text/css">
   <![CDATA[
    .fil0 {fill:#E77817}
   ]]>
  </style>
 </defs>
 <g id="Layer_x0020_1">
  <metadata id="CorelCorpID_0Corel-Layer"/>
  <path class="fil0" d="M4.78824 255.375c5.66651,21.7276 34.0737,26.865 57.0565,29.1106 33.5209,3.27586 115.657,17.8184 139.731,-39.5902 21.965,-52.3806 -21.5715,-83.9976 -46.6979,-125.554 -7.89335,-13.055 -26.3802,-25.6792 -44.5195,-28.5515 -7.50135,-8.90328 -20.0155,-13.0764 -23.3011,-25.9117 10.9076,-0.903345 34.3689,-14.8592 35.7138,-27.6451 0.94723,-9.01111 -1.40386,-20.7403 -8.64795,-26.183 -12.2161,-9.17776 -29.5976,-12.7793 -44.6706,-10.2793 -8.65182,1.43498 -13.2335,12.3264 -16.5681,20.4367 -2.91749,7.09545 -3.78767,15.7291 -1.28246,22.9796 2.57667,7.46066 11.3992,13.3494 18.2225,17.9631 -21.0473,6.41916 -27.09,-7.25469 -48.7606,-15.7149 12.0572,9.09352 3.53382,18.3375 -6.39545,17.1445 21.4582,21.0727 55.7908,2.56105 58.9797,6.2736l18.7027 21.7731c-5.81857,1.70228 -11.1378,4.98213 -15.4895,10.2487 -46.4546,56.2266 -91.9898,77.1349 -72.0731,153.5zm64.3852 -16.2935l-0.662263 9.76422c-13.0332,-7.67153 -25.5388,-17.4591 -33.6088,-24.7956 42.1245,8.09272 94.2582,3.93425 131.975,-22.5466 -10.1218,18.4383 -35.2553,54.6797 -60.1249,59.2232 -6.75668,1.23391 -15.1988,-0.794146 -24.0596,-4.59834l6.62308 -10.433 -20.142 -6.61385zm24.0497 -37.2777l-4.20805 9.31933 12.626 0.60128 -8.41792 -9.92061zm35.5194 -61.8331l-17.6076 60.158 44.0188 -2.9347 -26.4112 -57.2233zm-58.6905 0l-35.2146 55.756 49.8872 2.93459 -14.6726 -58.6906zm11.42 -82.657c-6.29366,-6.64919 -11.9174,-11.4527 -14.4231,-17.9303 -2.00845,-5.19107 -2.46246,-12.1752 0.807596,-16.6802 3.22058,-4.43796 9.99059,-6.35955 15.4337,-5.69592 8.24819,1.00513 24.1562,4.23928 29.0663,10.9432 3.30858,4.51786 0.776592,12.3946 -2.99626,16.5327 -5.66799,6.21672 -16.9465,11.283 -27.8882,12.8306z"/>
 </g>
</svg>
