<?xml version="1.0" encoding="UTF-8"?>
<!DOCTYPE svg PUBLIC "-//W3C//DTD SVG 1.1//EN" "http://www.w3.org/Graphics/SVG/1.1/DTD/svg11.dtd">
<!-- Creator: CorelDRAW -->
<svg xmlns="http://www.w3.org/2000/svg" xml:space="preserve" width="213.627mm" height="159.591mm" style="shape-rendering:geometricPrecision; text-rendering:geometricPrecision; image-rendering:optimizeQuality; fill-rule:evenodd; clip-rule:evenodd"
viewBox="0 0 212.803 158.976"
 xmlns:xlink="http://www.w3.org/1999/xlink">
 <defs>
  <style type="text/css">
   <![CDATA[
    .fil0 {fill:#E77817}
   ]]>
  </style>
 </defs>
 <g id="Layer_x0020_1">
  <metadata id="CorelCorpID_0Corel-Layer"/>
  <path class="fil0" d="M112.002 22.0398c8.19117,-1.11568 18.8874,-2.78133 22.4322,-2.37629 50.5526,5.77582 78.3685,37.7802 78.3685,70.8446 -0.000398456,27.2366 -31.8677,52.8306 -55.6676,60.3294 -7.49516,2.36145 -31.5725,1.61275 -39.7234,3.40461 -7.17959,1.57809 -8.97872,4.73336 -16.815,4.73336 -7.83684,0 -8.95302,-3.33618 -16.2693,-5.27835 -8.39817,-2.22946 -22.4829,-0.113162 -30.1252,-2.85245 -34.89,-12.5063 -54.2021,-35.4659 -54.2021,-64.9106 -0.00049807,-31.9688 24.7694,-59.8577 73.1449,-65.7297 3.86672,-0.469481 12.7295,0.846919 20.1678,1.82274 1.33443,-5.18053 6.1437,-15.9297 5.23502,-22.0272l10.5555 0.703574c-0.818728,7.97959 0.147628,15.8703 2.89867,21.3362zm25.5815 67.6166c4.39348,0 7.95648,3.50831 7.95648,7.83415 -0.000199228,2.07257 -0.818629,3.95747 -2.15445,5.35874 11.977,-2.57473 20.9588,-13.2243 20.9588,-25.9695 0,-14.6691 -11.8961,-26.5648 -26.565,-26.5648 -14.669,-0.000199228 -26.5648,11.896 -26.5648,26.5648 -9.96141e-005,12.5691 8.73396,23.1011 20.4627,25.859 -1.27436,-1.38912 -2.05006,-3.22959 -2.05006,-5.24827 0,-4.32604 3.5629,-7.83405 7.95628,-7.83415zm-64.8755 0c4.39388,0 7.95697,3.50831 7.95697,7.83415 -0.000298842,1.99198 -0.755374,3.81014 -1.99955,5.19248 11.6132,-2.8406 20.2341,-13.3159 20.2341,-25.8032 0,-14.6691 -11.8959,-26.5648 -26.5649,-26.5648 -14.6687,-0.000199228 -26.5648,11.896 -26.5648,26.5648 -0.000597685,12.825 9.09397,23.5299 21.1834,26.0185 -1.36382,-1.40625 -2.20107,-3.31067 -2.20107,-5.40775 -9.96141e-005,-4.32604 3.5629,-7.83405 7.95578,-7.83415zm29.1673 1.35465l-7.56101 14.8311 18.0297 1.74484 -10.4686 -16.576zm21.5762 26.257l-0.679169 6.11262 -9.54761 0.244652 0 -6.15466c-7.67238,0.0745113 -15.4334,-0.0181298 -23.0219,-0.262583l-0.48004 5.43803 -9.30326 -1.22406 -0.319363 -4.63375c-6.607,-0.337891 -12.982,-0.791235 -18.9372,-1.34967 5.81577,13.9583 25.078,21.122 39.2583,21.2287 14.6949,0.110372 44.9774,-9.4997 45.0744,-20.647 -6.95545,0.606849 -14.3942,1.01686 -22.0441,1.24777z"/>
 </g>
</svg>
