<?xml version="1.0" encoding="UTF-8"?>
<!DOCTYPE svg PUBLIC "-//W3C//DTD SVG 1.1//EN" "http://www.w3.org/Graphics/SVG/1.1/DTD/svg11.dtd">
<!-- Creator: CorelDRAW -->
<svg xmlns="http://www.w3.org/2000/svg" xml:space="preserve" width="214.144mm" height="146.477mm" style="shape-rendering:geometricPrecision; text-rendering:geometricPrecision; image-rendering:optimizeQuality; fill-rule:evenodd; clip-rule:evenodd"
viewBox="0 0 220.098 150.55"
 xmlns:xlink="http://www.w3.org/1999/xlink">
 <defs>
  <style type="text/css">
   <![CDATA[
    .fil0 {fill:#E77817}
   ]]>
  </style>
 </defs>
 <g id="Layer_x0020_1">
  <metadata id="CorelCorpID_0Corel-Layer"/>
  <path class="fil0" d="M32.3253 24.8047c18.1316,-8.38823 39.5812,-7.76928 58.6367,-0.000513903 4.2619,-4.74548 4.82359,-14.3669 4.99174,-23.1769 2.89605,-0.243179 13.7619,-3.59721 12.5507,0.095072 -2.31554,7.05845 -2.54813,14.3967 0.321909,22.0127 23.3827,-13.7481 52.2786,-16.8744 75.9786,-5.91029 35.5992,16.4687 46.0164,58.4986 23.2633,93.8565 -21.6868,33.7001 -56.7889,43.4987 -94.0656,36.966 -8.39953,-1.47182 -12.7906,-3.17294 -22.5711,-1.49844 -29.5511,5.05988 -62.9148,-9.18755 -80.4133,-36.3803 -20.8395,-32.3847 -11.2986,-70.8805 21.307,-85.9639zm110.92 43.8928c4.70683,0 8.52369,3.15526 8.52369,7.04591 0,1.01907 -0.26281,1.98726 -0.734058,2.86213 2.25675,-0.556556 4.53992,-1.33008 6.78351,-2.3287 12.1487,-5.40523 18.5752,-15.3257 14.3503,-22.1534 -4.22572,-6.82699 -17.5058,-7.98019 -29.6539,-2.57465 -12.1489,5.40492 -18.5752,15.3257 -14.3504,22.1535 1.48641,2.40157 4.09406,4.09991 7.37841,5.05834 -0.525517,-0.914746 -0.819469,-1.93731 -0.819469,-3.01722 -0.000102781,-3.89076 3.81655,-7.0456 8.52194,-7.04591zm-71.8697 0.947945c4.70642,0 8.52359,3.15516 8.52359,7.04581 -0.000308342,0.823786 -0.17226,1.61407 -0.486871,2.34895 3.59074,-1.25659 6.30353,-3.32526 7.56136,-6.10115 3.26164,-7.19772 -4.47917,-16.4178 -17.2867,-20.5905 -12.8074,-4.17258 -25.8388,-1.71972 -29.1004,5.47758 -3.26174,7.19772 4.47928,16.4183 17.2868,20.5907 1.97431,0.6432 3.95325,1.12771 5.90135,1.46287 -0.589138,-0.957812 -0.921119,-2.0406 -0.921119,-3.18846 0,-3.89065 3.81655,-7.04571 8.52205,-7.04581zm0.883912 46.6106l6.12027 0 -1.36164 7.26124c14.3984,3.04621 32.6877,3.29401 49.5493,1.40604l-2.26518 -8.88568 9.61727 0 1.93844 7.6038c21.6388,-3.57224 38.9219,-10.7543 39.0204,-19.9488 0.0691713,-6.50272 -22.3475,-6.52841 -51.8567,-6.46962l-0.000308342 8.78814 -18.5746 0 0 -8.79616 -3.42197 -0.0153143 0 10.3356 -18.5746 0 0 -10.3621c-18.9209,0.141118 -31.7237,1.14991 -31.7676,6.02941 -0.0828411,9.16216 8.18585,15.2663 20.4892,18.8557l1.08762 -5.80227z"/>
 </g>
</svg>
