<?xml version="1.0" encoding="UTF-8"?>
<!DOCTYPE svg PUBLIC "-//W3C//DTD SVG 1.1//EN" "http://www.w3.org/Graphics/SVG/1.1/DTD/svg11.dtd">
<!-- Creator: CorelDRAW -->
<svg xmlns="http://www.w3.org/2000/svg" xml:space="preserve" width="203.012mm" height="179.426mm" style="shape-rendering:geometricPrecision; text-rendering:geometricPrecision; image-rendering:optimizeQuality; fill-rule:evenodd; clip-rule:evenodd"
viewBox="0 0 208.976 184.696"
 xmlns:xlink="http://www.w3.org/1999/xlink">
 <defs>
  <style type="text/css">
   <![CDATA[
    .fil0 {fill:#E77817}
   ]]>
  </style>
 </defs>
 <g id="Layer_x0020_1">
  <metadata id="CorelCorpID_0Corel-Layer"/>
  <path class="fil0" d="M155.392 37.8775c-7.56209,0 -14.7571,1.93193 -21.2814,5.40988 -6.2517,-5.09901 -13.291,-8.73754 -20.8299,-10.5444 1.35445,-7.07077 7.20397,-16.6525 12.5624,-18.4386 -2.14244,-7.55098 -14.5914,-3.59766 -16.7361,-11.7511 -3.32807,-12.651 -5.56192,25.214 -5.55348,28.9111 -0.401868,-0.0107055 -0.804868,-0.01647 -1.20879,-0.01647 -13.5578,-0.000308812 -26.0539,5.85066 -36.0588,15.6936 -4.07262,-1.14899 -8.32558,-1.76198 -12.7025,-1.76198 -29.5882,-0.000205875 -53.5835,27.8344 -53.5835,62.1565 -0.000102937,34.3223 23.9953,62.157 53.5835,62.157 4.07571,-0.000102937 8.04528,-0.531672 11.8609,-1.53212 10.1411,10.351 22.9602,16.5354 36.9004,16.5354 14.435,-0.000205875 27.67,-6.63082 37.9724,-17.6538 4.78247,1.72204 9.84041,2.65054 15.075,2.65054 29.5881,-0.000102937 53.5835,-29.5141 53.5835,-65.9079 -0.000102937,-36.3937 -23.9953,-65.9074 -53.5836,-65.9078zm-11.6697 94.2643l1.63372 3.03377c-9.00106,7.66596 -20.3337,13.2571 -33.0372,15.0725l-1.209 -5.23869 -11.9802 1.33098c0,0 0.000514687,2.1972 0.0447778,4.33356 -9.99636,-0.925511 -19.961,-4.91691 -28.749,-10.5656l1.19428 -3.08576 -8.6523 -5.32444 -1.30381 1.91731c-11.6375,-9.87716 -19.7811,-22.3337 -20.6467,-32.7477 12.4943,14.8045 27.6188,24.213 43.51,28.3041l-0.261461 4.96673 9.53942 1.99668 -0.133407 -5.21141c8.55194,1.09793 17.2206,0.700078 25.7264,-1.17719l1.47345 5.27925 15.0863 -3.77163 -1.95386 -6.27888c11.623,-5.08202 22.5984,-13.1123 32.1408,-24.0623 -1.89281,10.3 -7.3557,20.5945 -15.4012,29.1396l-0.587155 -2.3479 -6.434 4.43702zm-43.3795 -40.541c0,1.27704 -8.93837,22.9849 -8.93837,22.9849l22.346 0.212669 -13.4076 -23.1976zm61.5293 -6.24449c-26.0582,-23.717 -41.2666,-11.7966 -42.2781,12.6023 11.1448,-16.1991 28.9639,-18.0975 42.2781,-12.6023zm-122.77 3.2519c26.0584,-23.7165 41.267,-11.7963 42.2788,12.6025 -11.1453,-16.1988 -28.9643,-18.0976 -42.2788,-12.6025z"/>
 </g>
</svg>
