<?xml version="1.0" encoding="UTF-8"?>
<!DOCTYPE svg PUBLIC "-//W3C//DTD SVG 1.1//EN" "http://www.w3.org/Graphics/SVG/1.1/DTD/svg11.dtd">
<!-- Creator: CorelDRAW -->
<svg xmlns="http://www.w3.org/2000/svg" xml:space="preserve" width="214.144mm" height="167.795mm" style="shape-rendering:geometricPrecision; text-rendering:geometricPrecision; image-rendering:optimizeQuality; fill-rule:evenodd; clip-rule:evenodd"
viewBox="0 0 227.322 178.121"
 xmlns:xlink="http://www.w3.org/1999/xlink">
 <defs>
  <style type="text/css">
   <![CDATA[
    .fil0 {fill:#E77817}
   ]]>
  </style>
 </defs>
 <g id="Layer_x0020_1">
  <metadata id="CorelCorpID_0Corel-Layer"/>
  <path class="fil0" d="M33.3858 29.3474c18.7267,-9.92474 40.8806,-9.19217 60.5616,-0.000636923 4.40167,-5.61415 4.9819,-16.998 5.15546,-27.4214 2.99067,-0.287464 14.2136,-4.25602 12.9626,0.112417 -2.39196,8.35122 -2.63187,17.033 0.332367,26.0443 24.1502,-16.2656 53.9945,-19.9649 78.4723,-6.99277 36.7675,19.4846 47.5267,69.2115 24.0268,111.045 -22.399,39.872 -58.6526,51.4649 -97.1529,43.7358 -8.67552,-1.74124 -13.2102,-3.75423 -23.3116,-1.77266 -30.5212,5.98612 -64.98,-10.87 -83.0527,-43.0432 -21.5233,-38.3153 -11.6693,-83.8608 22.006,-101.707zm75.2126 67.6823l-1.69867 15.2935 16.9925 -1.13277 -15.2938 -14.1607zm33.0861 24.006l7.37525 12.016 5.85597 -3.04035 -3.48163 -14.0761c7.452,-4.31451 14.6695,-9.41987 21.6131,-15.2969 -17.5113,52.703 -46.8347,69.2204 -70.9868,58.2571l1.77054 -15.533 -5.33104 -2.66032 -3.576 15.0233c-7.66759,-4.92543 -14.3641,-12.7762 -19.3024,-23.2132 25.0093,2.49154 44.072,0.0853476 66.063,-11.4766zm-60.9516 -45.2207c-0.617603,4.00412 -3.75593,7.05402 -7.53575,7.05402 -4.22269,-0.000106154 -7.64689,-3.80476 -7.64689,-8.49676 -0.000106154,-3.28779 1.68084,-6.14015 4.14032,-7.55295 -9.4513,-8.16365 -18.4494,-17.2361 -26.7974,-27.5654 -14.2614,42.773 25.5781,69.016 49.8457,45.3146 -4.05529,-2.8066 -8.06121,-5.71712 -12.006,-8.75355zm69.5469 -4.14318c2.17976,1.49762 3.63375,4.17651 3.63375,7.23226 -0.000424615,4.69147 -3.42452,8.49644 -7.64711,8.49644 -3.6088,-0.000106154 -6.63482,-2.77996 -7.43841,-6.51699 -3.47739,2.64058 -6.99946,5.1854 -10.5598,7.64955 24.2672,23.7018 64.1064,-2.54111 49.8456,-45.3141 -8.65238,10.7052 -18.0041,20.06 -27.8341,28.4528z"/>
 </g>
</svg>
